<?xml version="1.0" encoding="UTF-8"?>
<!DOCTYPE svg PUBLIC "-//W3C//DTD SVG 1.1//EN" "http://www.w3.org/Graphics/SVG/1.1/DTD/svg11.dtd">
<!-- Creator: CorelDRAW -->
<svg xmlns="http://www.w3.org/2000/svg" xml:space="preserve" width="2048px" height="2048px"
     style="shape-rendering:geometricPrecision; text-rendering:geometricPrecision; image-rendering:optimizeQuality; fill-rule:evenodd; clip-rule:evenodd"
     viewBox="0 0 2048 2048"
     xmlns:xlink="http://www.w3.org/1999/xlink">
 <defs>
  <style type="text/css">
   <![CDATA[
    .fil2 {fill:none}
    .fil1 {fill:#80CBC4}
    .fil0 {fill:#B2DFDB}
    .fil15 {fill:#B2EBF2}
    .fil16 {fill:#BDBDBD}
    .fil18 {fill:#CB5C0A}
    .fil17 {fill:#CF7400}
    .fil4 {fill:#E98606}
    .fil12 {fill:#FFA000}
    .fil10 {fill:#18262E;fill-rule:nonzero}
    .fil9 {fill:#222F36;fill-rule:nonzero}
    .fil20 {fill:#37474F;fill-rule:nonzero}
    .fil13 {fill:#5A5A5A;fill-rule:nonzero}
    .fil5 {fill:#616161;fill-rule:nonzero}
    .fil14 {fill:#66686A;fill-rule:nonzero}
    .fil7 {fill:#757575;fill-rule:nonzero}
    .fil19 {fill:#CFD8DC;fill-rule:nonzero}
    .fil6 {fill:#E98606;fill-rule:nonzero}
    .fil11 {fill:#EC9404;fill-rule:nonzero}
    .fil8 {fill:#FF8F00;fill-rule:nonzero}
    .fil3 {fill:#FFA000;fill-rule:nonzero}
   ]]>
  </style>
     <clipPath id="id0">
    <path d="M1024 0c565.539,0 1024,458.461 1024,1024 0,565.539 -458.461,1024 -1024,1024 -565.539,0 -1024,-458.461 -1024,-1024 0,-565.539 458.461,-1024 1024,-1024z"/>
   </clipPath>
 </defs>
    <g id="Layer_x0020_1">
  <metadata id="CorelCorpID_0Corel-Layer"/>
        <path class="fil0"
              d="M1024 0c565.539,0 1024,458.461 1024,1024 0,565.539 -458.461,1024 -1024,1024 -565.539,0 -1024,-458.461 -1024,-1024 0,-565.539 458.461,-1024 1024,-1024z"/>
        <g style="clip-path:url(#id0)">
   <g id="_285971464">
    <g>
     <polygon id="_2942064161" class="fil1" points="1494.81,513.052 2630.69,1648.93 2352.43,2136.7 1216.55,1000.82 "/>
        <polygon id="_294205768" class="fil1" points="1517.99,502.373 2653.87,1638.26 2653.87,2294.98 1517.99,1159.1 "/>
        <polygon id="_294206560" class="fil1"
                 points="1538.27,1188.64 2674.15,2324.53 2674.13,2325.62 2674.08,2326.71 2673.99,2327.78 2673.86,2328.85 2673.7,2329.9 2673.5,2330.95 2673.27,2331.98 2673,2333 1537.12,1197.11 1537.39,1196.1 1537.62,1195.07 1537.81,1194.02 1537.98,1192.97 1538.1,1191.9 1538.2,1190.82 1538.25,1189.74 "/>
        <polygon id="_294206680" class="fil1"
                 points="1564.33,1200.76 2700.22,2336.64 2701.07,2337.65 1565.19,1201.77 "/>
        <polygon id="_294206848" class="fil1"
                 points="1530.05,1167.37 2665.93,2303.25 2666.92,2304.4 2667.86,2305.59 2668.75,2306.83 2669.57,2308.12 2670.33,2309.44 2671.03,2310.81 2671.66,2312.21 2672.23,2313.65 2672.73,2315.12 2673.15,2316.62 2673.51,2318.15 2673.79,2319.71 2673.99,2321.29 2674.11,2322.9 2674.15,2324.53 1538.27,1188.64 1538.23,1187.02 1538.11,1185.41 1537.91,1183.82 1537.63,1182.27 1537.27,1180.74 1536.85,1179.23 1536.35,1177.76 1535.78,1176.33 1535.15,1174.92 1534.45,1173.56 1533.69,1172.23 1532.87,1170.95 1531.98,1169.71 1531.04,1168.51 "/>
        <polygon id="_294207400" class="fil1" points="1550.46,1220.29 2686.35,2356.17 2642.5,2356.17 1506.62,1220.29 "/>
        <polygon id="_294207640" class="fil1" points="1584,1224.5 2719.88,2360.38 2704.69,2402.76 1568.81,1266.88 "/>
        <polygon id="_294207904" class="fil1" points="1452.72,1200.48 2588.6,2336.36 2588.57,2336.34 1452.69,1200.45 "/>
        <polygon id="_294207592" class="fil1" points="1216.55,1000.82 2352.43,2136.7 2213.37,2307.69 1077.48,1171.81 "/>
        <polygon id="_294207880" class="fil1" points="1445.45,1240.12 2581.34,2376 2578.93,2402.1 1443.05,1266.21 "/>
        <polygon id="_294207472" class="fil1" points="1506.62,1220.29 2642.5,2356.17 2601.42,2356.17 1465.54,1220.29 "/>
        <polygon id="_294207976" class="fil1" points="1565.19,1201.77 2701.07,2337.65 2719.88,2360.38 1584,1224.5 "/>
        <polygon id="_294207520" class="fil1" points="1465.54,1220.29 2601.42,2356.17 2581.34,2376 1445.45,1240.12 "/>
        <polygon id="_294207688" class="fil1"
                 points="1077.48,1171.81 2213.37,2307.69 2213.37,2322.12 1077.48,1186.24 "/>
        <polygon id="_294207856" class="fil1"
                 points="1129.26,1193.03 2265.14,2328.91 2266.64,2330.56 2267.97,2332.34 2269.13,2334.25 2270.11,2336.28 2270.89,2338.41 2271.46,2340.63 2271.81,2342.93 2271.93,2345.3 1136.05,1209.42 1135.93,1207.05 1135.58,1204.75 1135.01,1202.53 1134.23,1200.4 1133.25,1198.37 1132.09,1196.46 1130.76,1194.68 "/>
        <polygon id="_294207712" class="fil1"
                 points="1136.05,1209.42 2271.93,2345.3 2271.81,2347.67 2271.46,2349.97 2270.89,2352.2 2270.11,2354.33 2269.13,2356.35 2267.97,2358.26 2266.64,2360.05 2265.14,2361.69 2263.49,2363.19 2261.71,2364.52 2259.8,2365.68 2257.77,2366.66 2255.64,2367.44 2253.42,2368.01 2251.12,2368.36 2248.75,2368.48 1112.87,1232.6 1115.24,1232.48 1117.54,1232.13 1119.76,1231.56 1121.89,1230.78 1123.92,1229.8 1125.83,1228.64 1127.61,1227.31 1129.26,1225.81 1130.76,1224.16 1132.09,1222.38 1133.25,1220.47 1134.23,1218.44 1135.01,1216.31 1135.58,1214.09 1135.93,1211.79 "/>
        <polygon id="_294208216" class="fil1"
                 points="639.475,776.528 1775.36,1912.41 1776.72,1913.74 640.836,777.857 "/>
        <polygon id="_294208144" class="fil1"
                 points="576.023,912.618 1711.9,2048.5 1710.19,2048.29 1708.48,2048.05 1706.79,2047.77 1705.11,2047.45 1703.44,2047.1 1701.79,2046.71 1700.15,2046.29 1698.52,2045.84 1696.91,2045.35 1695.31,2044.83 1693.73,2044.27 1692.16,2043.69 1690.61,2043.07 1689.07,2042.42 1687.55,2041.74 1686.05,2041.02 1684.57,2040.28 1683.1,2039.51 1681.65,2038.71 1680.22,2037.88 1678.81,2037.02 1677.42,2036.13 1676.05,2035.21 1674.7,2034.27 1673.37,2033.3 1672.06,2032.3 1670.78,2031.28 1669.51,2030.23 1668.27,2029.15 1667.05,2028.05 531.168,892.169 532.388,893.268 533.631,894.344 534.896,895.394 536.183,896.417 537.491,897.415 538.82,898.386 540.172,899.33 541.542,900.245 542.932,901.133 544.342,901.993 545.771,902.825 547.219,903.627 548.686,904.399 550.17,905.141 551.672,905.853 553.19,906.535 554.725,907.185 556.277,907.803 557.846,908.39 559.428,908.944 561.026,909.466 562.64,909.954 564.266,910.409 565.908,910.83 567.563,911.216 569.229,911.568 570.91,911.884 572.602,912.165 574.307,912.411 "/>
        <polygon id="_294208048" class="fil1" points="892.733,1232.6 2028.61,2368.48 2028.61,2391.74 892.733,1255.86 "/>
        <polygon id="_294208504" class="fil1"
                 points="640.836,777.857 1776.72,1913.74 1777.5,1914.53 1778.27,1915.34 1779.03,1916.15 1779.78,1916.98 1780.52,1917.81 1781.24,1918.66 1781.95,1919.52 1782.66,1920.38 1783.35,1921.26 1784.02,1922.15 1784.69,1923.04 1785.34,1923.95 1785.98,1924.86 1786.61,1925.79 1787.22,1926.72 1787.83,1927.67 651.945,791.783 651.343,790.84 650.728,789.905 650.1,788.981 649.46,788.065 648.807,787.159 648.142,786.263 647.464,785.377 646.775,784.499 646.073,783.634 645.36,782.776 644.634,781.931 643.897,781.094 643.149,780.269 642.389,779.454 641.618,778.651 "/>
        <polygon id="_294208528" class="fil1" points="1112.87,1232.6 2248.75,2368.48 2040.16,2368.48 904.276,1232.6 "/>
        <polygon id="_294208552" class="fil1"
                 points="1112.87,1310.56 2248.75,2446.44 2228.41,2446.44 1092.53,1310.56 "/>
        <polygon id="_294208648" class="fil1"
                 points="1092.53,1310.56 2228.41,2446.44 2228.41,2507.63 1092.53,1371.75 "/>
        <polygon id="_294208672" class="fil1"
                 points="1092.53,1371.75 2228.41,2507.63 2228.3,2510 2227.97,2512.3 2227.44,2514.52 2226.71,2516.65 2225.79,2518.68 2224.7,2520.59 2223.45,2522.37 2222.05,2524.02 2220.51,2525.52 2218.84,2526.85 2217.04,2528.01 2215.15,2528.99 2213.15,2529.77 2211.07,2530.34 2208.91,2530.69 2206.69,2530.81 1070.81,1394.93 1073.03,1394.81 1075.19,1394.46 1077.27,1393.88 1079.26,1393.11 1081.16,1392.13 1082.95,1390.97 1084.63,1389.63 1086.17,1388.14 1087.57,1386.49 1088.82,1384.71 1089.91,1382.8 1090.83,1380.77 1091.56,1378.64 1092.09,1376.42 1092.42,1374.12 "/>
        <polygon id="_294208696" class="fil1" points="904.276,1232.6 2040.16,2368.48 2028.61,2368.48 892.733,1232.6 "/>
        <polygon id="_294208744" class="fil1" points="707.314,1232.6 1843.2,2368.48 1670.1,2368.48 534.215,1232.6 "/>
        <polygon id="_290983152" class="fil1"
                 points="878.573,1394.93 2014.45,2530.81 1834.18,2530.81 698.297,1394.93 "/>
        <polygon id="_290983200" class="fil1"
                 points="484.339,1310.56 1620.22,2446.44 1599.88,2446.44 463.999,1310.56 "/>
        <polygon id="_290983176" class="fil1"
                 points="993.603,1394.93 2129.48,2530.81 2129.48,2716.13 993.603,1580.25 "/>
        <polygon id="_290982624" class="fil1"
                 points="583.267,1394.93 1719.15,2530.81 1641.94,2530.81 506.063,1394.93 "/>
        <polygon id="_290983248" class="fil1"
                 points="506.063,1394.93 1641.94,2530.81 1639.72,2530.69 1637.57,2530.34 1635.48,2529.77 1633.49,2528.99 1631.59,2528.01 1629.8,2526.85 1628.12,2525.52 492.244,1389.63 493.916,1390.97 495.708,1392.13 497.607,1393.11 499.603,1393.88 501.684,1394.46 503.841,1394.81 "/>
        <polygon id="_290983272" class="fil1" points="637.118,1580.25 1773,2716.13 1719.15,2716.13 583.267,1580.25 "/>
        <polygon id="_290983056" class="fil1" points="534.215,1232.6 1670.1,2368.48 1623.06,2368.48 487.177,1232.6 "/>
        <polygon id="_290982840" class="fil1" points="698.297,1580.25 1834.18,2716.13 1773,2716.13 637.118,1580.25 "/>
        <polygon id="_290982864" class="fil1"
                 points="487.177,1232.6 1623.06,2368.48 1620.69,2368.36 1618.39,2368.01 1616.17,2367.44 1614.04,2366.66 1612.01,2365.68 1610.1,2364.52 1608.31,2363.19 472.433,1227.31 474.218,1228.64 476.129,1229.8 478.154,1230.78 480.284,1231.56 482.505,1232.13 484.807,1232.48 "/>
        <polygon id="_290982696" class="fil1"
                 points="993.603,1580.25 2129.48,2716.13 2068.31,2716.13 932.424,1580.25 "/>
        <polygon id="_290982792" class="fil1"
                 points="698.297,1394.93 1834.18,2530.81 1834.18,2716.13 698.297,1580.25 "/>
        <polygon id="_290983968" class="fil1"
                 points="932.424,1580.25 2068.31,2716.13 2014.45,2716.13 878.573,1580.25 "/>
        <polygon id="_290983536" class="fil1"
                 points="1070.81,1394.93 2206.69,2530.81 2129.48,2530.81 993.603,1394.93 "/>
        <polygon id="_290983488" class="fil1"
                 points="1106.08,1262.65 2241.96,2398.53 2243.46,2400.18 2244.79,2401.96 2245.96,2403.87 2246.93,2405.9 2247.71,2408.03 2248.28,2410.25 2248.63,2412.55 2248.75,2414.92 1112.87,1279.04 1112.75,1276.67 1112.4,1274.37 1111.83,1272.15 1111.05,1270.02 1110.07,1267.99 1108.91,1266.08 1107.58,1264.3 "/>
        <polygon id="_290983824" class="fil1"
                 points="1112.87,1279.04 2248.75,2414.92 2248.75,2446.44 1112.87,1310.56 "/>
        <polygon id="_290983992" class="fil1"
                 points="1550.64,475.82 2686.52,1611.7 2687.39,1612.87 2688.16,1614.13 2688.8,1615.46 2689.31,1616.85 2689.68,1618.31 2689.91,1619.82 2689.99,1621.38 1554.11,485.494 1554.03,483.939 1553.8,482.429 1553.43,480.971 1552.92,479.574 1552.28,478.245 1551.51,476.991 "/>
        <polygon id="_290983656" class="fil1"
                 points="1554.11,485.494 2689.99,1621.38 2689.91,1622.93 2689.68,1624.44 2689.31,1625.9 2688.8,1627.3 2688.16,1628.62 2687.39,1629.88 2686.52,1631.05 2685.54,1632.13 2684.46,1633.11 2683.29,1633.99 2682.03,1634.75 2680.7,1635.39 2679.31,1635.9 2677.85,1636.27 2676.34,1636.5 2674.78,1636.58 1538.9,500.7 1540.46,500.622 1541.97,500.391 1543.42,500.017 1544.82,499.505 1546.15,498.865 1547.41,498.103 1548.58,497.228 1549.66,496.246 1550.64,495.167 1551.51,493.996 1552.28,492.742 1552.92,491.413 1553.43,490.016 1553.8,488.559 1554.03,487.048 "/>
        <polygon id="_290983680" class="fil1"
                 points="1538.9,500.7 2674.78,1636.58 2673.53,1636.59 2672.27,1636.61 2671.01,1636.64 2669.74,1636.69 2668.47,1636.75 2667.2,1636.83 2665.91,1636.91 2664.62,1637.01 2663.32,1637.13 2662.01,1637.25 2660.68,1637.39 2659.35,1637.54 2658,1637.7 2656.64,1637.87 2655.26,1638.06 2653.87,1638.26 1517.99,502.373 1519.38,502.176 1520.76,501.99 1522.12,501.818 1523.47,501.656 1524.8,501.506 1526.12,501.369 1527.44,501.244 1528.74,501.131 1530.03,501.031 1531.31,500.945 1532.59,500.87 1533.86,500.81 1535.13,500.762 1536.39,500.728 1537.65,500.707 "/>
    </g>
       <path id="_285971824" class="fil1"
             d="M1517.99 502.373l0 656.725c4.16929,1.60512 7.91221,4.06654 11.015,7.16812 5.72599,5.72717 9.2693,13.6406 9.2693,22.3772 0,2.93386 -0.399213,5.77323 -1.14685,8.46969l18.7725 0c3.80197,0 7.17638,1.83071 9.28938,4.65945l18.815 22.728 -15.1949 42.3803 -2.63977 -27.6236 -15.7004 -18.9662 -43.8414 -0.00236221 -41.0811 0.00236221 -20.0882 19.826 -2.40827 26.0965 -13.7976 -42.574 23.4685 -23.1626 -0.0236221 -0.022441c2.25827,-2.22874 5.2004,-3.34016 8.14134,-3.34134l15.2906 0c-0.747638,-2.69646 -1.14685,-5.53583 -1.14685,-8.46969 0,-8.73662 3.54331,-16.65 9.2693,-22.3772 2.98937,-2.98937 6.5752,-5.38347 10.5614,-6.98859l0 -646.225 -278.262 487.77 -139.063 170.988 0 14.4319 35.387 0c12.7996,0 23.178,10.3784 23.178,23.178 0,12.8008 -10.3784,23.178 -23.178,23.178l-208.595 0 -11.5429 0 0 23.2642 178.075 0 18.8858 0c12.7996,0 23.178,10.3772 23.178,23.178l0 31.5189 -20.3398 0 0 61.1894c0,12.7996 -9.72639,23.178 -21.724,23.178l-77.2052 0 0 185.326 -61.1788 0 -53.8512 0 0 -185.326 -180.277 0 0 185.326 -61.1788 0 -53.8512 0 0 -185.326 -77.204 0c-11.9976,0 -21.724,-10.3784 -21.724,-23.178l0 -61.1894 -20.3398 0 0 -31.5189c0,-12.8008 10.3772,-23.178 23.178,-23.178l18.8858 0 201.252 0 0 -23.2642 -173.099 0 -47.0386 0c-12.8008,0 -23.178,-10.3772 -23.178,-23.178l0 -115.886c0,-12.7996 10.3772,-23.178 23.178,-23.178l101.909 0 -13.063 -157.738c-18.3626,-2.02795 -34.8366,-10.3358 -47.2252,-22.7244 -14.3386,-14.3362 -23.2075,-34.1457 -23.2075,-56.0185 0,-21.8752 8.8689,-41.6823 23.2075,-56.0185 14.3374,-14.3398 34.1445,-23.2075 56.0197,-23.2075 21.8717,0 41.6811,8.86772 56.0185,23.2075 4.20118,4.20118 7.93229,8.87127 11.1095,13.9264l783.389 -306.976c2.68347,-9.83268 11.6787,-17.0599 22.3618,-17.0599l21.998 0.687402c2.87835,-0.415748 5.55473,-0.298819 7.99843,0.250394l51.2103 1.60039c8.39764,0 15.2079,6.80906 15.2079,15.2079 0,8.39883 -6.81024,15.2067 -15.2079,15.2067 -6.69449,0 -13.4398,0.591733 -20.9173,1.67244z"/>
   </g>
  </g>
        <path class="fil2"
              d="M1024 0c565.539,0 1024,458.461 1024,1024 0,565.539 -458.461,1024 -1024,1024 -565.539,0 -1024,-458.461 -1024,-1024 0,-565.539 458.461,-1024 1024,-1024z"/>
        <path class="fil3"
              d="M1499 505.707l-282.453 495.115 -150.386 184.911c-7.68544,-7.67599 -29.6977,-14.7189 -42.1252,-23.6764l64.7233 -263.081c-0.589371,-0.251575 4.29095,-6.65552 4.81418,-7.18347l344.863 -387.97c5.34449,7.96418 51.5611,3.65433 60.5634,1.88504zm-19.3051 -37.2721c2.87835,-0.415748 5.55473,-0.298819 7.99843,0.250394l-7.99843 -0.250394z"/>
        <path class="fil4"
              d="M1052.13 1125.04l0.00236221 0c13.9441,0 25.3512,7.94883 25.3512,17.6669l0 53.002 -86.4296 0 35.7248 -53.002c5.92914,-8.79568 11.4071,-17.6669 25.3512,-17.6669zm1.54606 13.3146c5.22756,0 9.46654,4.2378 9.46654,9.46654 0,5.22756 -4.23898,9.46536 -9.46654,9.46536 -5.22756,0 -9.46536,-4.2378 -9.46536,-9.46536 0,-5.22874 4.2378,-9.46654 9.46536,-9.46654z"/>
        <path class="fil5"
              d="M901.751 1348.57l68.6741 0c12.8008,0 23.178,11.5311 23.178,25.754l0 205.928 -115.03 0 0 -205.928c0,-14.2228 10.3772,-25.754 23.178,-25.754z"/>
        <path class="fil6"
              d="M869.555 1302.22l-139.063 0c-12.7996,0 -23.178,-10.3784 -23.178,-23.178l0 -69.6213c0,-12.8008 10.3784,-23.178 23.178,-23.178l139.063 0c12.8008,0 23.178,10.3772 23.178,23.178l0 69.6213c0,12.7996 -10.3772,23.178 -23.178,23.178z"/>
        <path class="fil7"
              d="M1454.39 502.152c5.94922,-2.29961 8.90906,-8.9882 6.60945,-14.9386 -2.29961,-5.94922 -8.9882,-8.90906 -14.9386,-6.60945l-826.909 324.029c-5.94922,2.29961 -8.90906,8.9882 -6.60945,14.9386 2.29961,5.94922 8.9882,8.90788 14.9386,6.60827l826.909 -324.027z"/>
        <path class="fil8"
              d="M617.886 864.657c-3.1004,-12.3992 -15.6662,-19.9394 -28.0666,-16.8402 -12.3992,3.1004 -19.9394,15.6673 -16.839,28.0677l17.7827 214.715c3.1004,12.3992 52.1811,19.9394 64.5815,16.839 12.3992,-3.09921 19.9394,-15.6662 16.839,-28.0666l-54.2977 -214.715z"/>
        <path class="fil9"
              d="M584.817 754.649c21.8717,0 41.6811,8.8689 56.0185,23.2075 14.3362,14.3362 23.2075,34.1433 23.2075,56.0185 0,21.8729 -8.87127,41.6823 -23.2075,56.0185 -14.3374,14.3362 -34.1469,23.2075 -56.0185,23.2075 -21.8752,0 -41.6823,-8.87127 -56.0185,-23.2075 -14.3398,-14.3362 -23.2087,-34.1457 -23.2087,-56.0185 0,-21.8752 8.8689,-41.6823 23.2087,-56.0185 14.3362,-14.3386 34.1433,-23.2075 56.0185,-23.2075zm10.2189 69.006c-2.61142,-2.61142 -6.22678,-4.22835 -10.2189,-4.22835 -3.99331,0 -7.60867,1.61693 -10.2201,4.22835 -2.6126,2.6126 -4.22953,6.22796 -4.22953,10.2201 0,3.99331 1.61693,7.60749 4.22953,10.2201 2.61142,2.61142 6.22678,4.22953 10.2201,4.22953 3.99213,0 7.60749,-1.61811 10.2189,-4.22953 2.6126,-2.6126 4.22953,-6.22678 4.22953,-10.2201 0,-3.99213 -1.61693,-7.60749 -4.22953,-10.2201z"/>
        <path class="fil9"
              d="M801.699 923.411l0 117.617c74.3658,0 70.6347,-8.10946 136.246,33.9142l-37.6264 -151.531 -98.6198 0zm-46.3559 252.556l0 -280.618c0,-15.4984 2.85827,-25.624 15.6579,-25.624l173.24 -2.43898c10.135,-0.238583 -5.68701,16.2461 -2.62441,28.5756l-1.91693 -8.51457 45.0615 181.472c2.18977,7.39843 1.81536,15.8646 -1.61929,23.25l-0.0283465 -0.0188977 -44.7933 96.3036c-3.77953,9.28583 -11.674,15.6756 -20.8016,15.6756l-138.997 0c-12.8008,0 -23.178,-12.5646 -23.178,-28.0618z"/>
        <path class="fil10"
              d="M941.724 895.505l-0.188977 0c-2.67756,-12.2894 12.7417,-28.4551 2.70473,-28.2177l-173.24 2.4378c-12.7996,0 -15.6579,10.1256 -15.6579,25.624l0 0.155906 186.193 0 0.188977 0z"/>
        <path class="fil3"
              d="M788.391 1093.53c0,-12.7996 -10.3784,-23.178 -23.178,-23.178l-278.036 0c-12.8008,0 -23.178,10.3784 -23.178,23.178l0 115.886c0,12.8008 10.3772,23.178 23.178,23.178l278.036 0 23.178 -23.178 0 -115.886z"/>
        <path class="fil11"
              d="M534.215 1232.6l220.682 0 0 -101.235 -191.823 0c-15.8728,0 -28.8591,12.9862 -28.8591,28.8591l0 72.3756z"/>
        <path class="fil12"
              d="M962.509 1136.45l-37.8555 -33.1323 0.0484252 0.194882c-65.6103,-42.0237 -61.8804,-33.9142 -136.245,-33.9142l0 -0.122835 -59.9481 0.925985 0.011811 134.137c0,15.4713 10.3417,28.0205 23.1118,28.063 50.8807,0 101.763,0 152.643,0 9.12757,0 17.0221,-6.39095 20.8016,-15.6768l37.4315 -80.4745z"/>
        <path class="fil5"
              d="M606.445 1348.57l68.6741 0c12.8008,0 23.178,11.5311 23.178,25.754l0 205.928 -115.03 0 0 -205.928c0,-14.2228 10.3772,-25.754 23.178,-25.754z"/>
        <path class="fil13"
              d="M594.117 1348.57l32.1496 0c5.99292,0 10.8508,11.5311 10.8508,25.754l0 205.928 -53.8512 0 0 -205.928c0,-14.2228 4.85788,-25.754 10.8508,-25.754z"/>
        <path class="fil13"
              d="M889.424 1348.57l32.1496 0c5.99292,0 10.8508,11.5311 10.8508,25.754l0 205.928 -53.8512 0 0 -205.928c0,-14.2228 4.85788,-25.754 10.8508,-25.754z"/>
        <path class="fil7"
              d="M484.339 1371.75l0 -92.7083c0,-12.8008 9.72639,-23.178 21.724,-23.178l564.745 0c11.9988,0 21.7252,10.3772 21.7252,23.178l0 92.7083c0,12.7996 -9.72639,23.178 -21.7252,23.178l-564.745 0c-11.9976,0 -21.724,-10.3784 -21.724,-23.178z"/>
        <path class="fil14"
              d="M463.999 1310.56l0 -31.5189c0,-12.8008 10.3772,-23.178 23.178,-23.178l602.517 0c12.7996,0 23.178,10.3772 23.178,23.178l0 31.5189 -648.873 0z"/>
        <path class="fil3"
              d="M765.213 1186.24c-12.8008,0 -23.178,10.3784 -23.178,23.178 0,12.8008 10.3772,23.178 23.178,23.178l347.658 0c12.7996,0 23.178,-10.3772 23.178,-23.178 0,-12.7996 -10.3784,-23.178 -23.178,-23.178l-347.658 0z"/>
        <path class="fil7"
              d="M1517.99 490.926c0,-6.4004 -5.18859,-11.589 -11.5878,-11.589 -6.4004,0 -11.589,5.18859 -11.589,11.589l0 672.139c0,6.39922 5.18859,11.589 11.589,11.589 6.39922,0 11.5878,-5.18977 11.5878,-11.589l0 -672.139z"/>
        <path class="fil8"
              d="M1529 1211.02c-5.72717,5.72599 -13.6394,9.2693 -22.3772,9.2693 -8.73544,0 -16.6488,-3.54331 -22.376,-9.2693 -5.72599,-5.72717 -9.2693,-13.6394 -9.2693,-22.376 0,-8.73662 3.54331,-16.65 9.2693,-22.3772 5.72717,-5.72599 13.6406,-9.2693 22.376,-9.2693 8.7378,0 16.65,3.54331 22.3772,9.2693 5.72599,5.72717 9.2693,13.6406 9.2693,22.3772 0,8.73662 -3.54331,16.6488 -9.2693,22.376z"/>
        <path class="fil3"
              d="M1429.25 1223.64l13.7976 42.574 2.40827 -26.0965 20.0882 -19.826 84.9225 0 15.7004 18.9662 2.63977 27.6236 15.1949 -42.3803 -18.815 -22.728c-2.11299,-2.82874 -5.48741,-4.65945 -9.28938,-4.65945l-95.0611 0 0 0.0011811c-2.94095,0 -5.88308,1.11142 -8.14134,3.34016l0.0236221 0.022441 -23.4685 23.1626z"/>
        <path class="fil15"
              d="M937.945 1074.94l-37.6264 -151.53 -98.6198 0 0 117.615c74.3658,0 70.6347,-8.10946 136.246,33.9142z"/>
        <path class="fil5"
              d="M932.26 1067.04l-34.7646 -140.006 -92.1757 0 0 110.366c10.6831,-0.0318898 19.0843,-0.207874 26.4095,-0.359055 43.6311,-0.905906 51.3744,-1.06536 100.531,29.9988zm-31.9418 -143.627l3.50788 -0.863386 37.565 151.282c0.318898,0.993308 0.209055,2.11654 -0.396851,3.06378 -1.07835,1.68307 -3.3189,2.17441 -5.00315,1.09724l1.95354 -3.04961 -1.95236 3.04016c-54.2752,-34.7622 -60.2658,-34.6382 -104.121,-33.7264 -8.7815,0.180709 -18.9992,0.394488 -30.1725,0.394488 -2.00079,0 -3.62244,-1.62284 -3.62244,-3.62244l0 -117.615c0,-2.00079 1.62165,-3.62244 3.62244,-3.62244l98.5631 0 0.056693 0c1.62638,-0.0011811 3.1063,1.09961 3.51496,2.74961l-3.51496 0.872835z"/>
        <path class="fil16"
              d="M599.233 848.291c3.68504,-3.68386 5.96575,-8.78387 5.96575,-14.4154 0,-5.6315 -2.28071,-10.7315 -5.96575,-14.4154 -3.68504,-3.68504 -8.78387,-5.96575 -14.4154,-5.96575 -5.63268,0 -10.7315,2.28071 -14.4154,5.96575 -3.68622,3.68386 -5.96693,8.78387 -5.96693,14.4154 0,5.6315 2.28071,10.7315 5.96693,14.4154 3.68386,3.68504 8.78268,5.96575 14.4154,5.96575 5.6315,0 10.7303,-2.28071 14.4154,-5.96575z"/>
        <path class="fil3"
              d="M1457.7 467.748c-12.8008,0 -23.178,10.3772 -23.178,23.178 0,12.7996 10.3772,23.178 23.178,23.178 40.2,-7.97127 60.9296,-13.4032 81.2068,-13.4032 8.39764,0 15.2079,-6.80788 15.2079,-15.2067 0,-8.39883 -6.81024,-15.2079 -15.2079,-15.2079l-81.2068 -2.53819zm23.0799 9.14883c7.25079,0 13.1291,5.87717 13.1291,13.128 0,7.25079 -5.87835,13.1291 -13.1291,13.1291 -7.25079,0 -13.1291,-5.87835 -13.1291,-13.1291 0,-7.25079 5.87835,-13.128 13.1291,-13.128z"/>
        <path class="fil17"
              d="M1480.78 474.728c-8.44843,0 -15.2965,6.84804 -15.2965,15.2965 0,8.44843 6.84804,15.2965 15.2965,15.2965 8.44843,0 15.2965,-6.84804 15.2965,-15.2965 0,-8.44843 -6.84804,-15.2965 -15.2965,-15.2965z"/>
        <path class="fil18"
              d="M1063.14 1147.82c0,-5.22756 -4.2378,-9.46536 -9.46536,-9.46536 -5.22756,0 -9.46536,4.2378 -9.46536,9.46536 0,5.22756 4.2378,9.46654 9.46536,9.46654 5.22756,0 9.46536,-4.23898 9.46536,-9.46654z"/>
        <path class="fil19"
              d="M1060.24 1147.82c0,-1.82126 -0.731103,-3.46536 -1.91103,-4.64528l2.03622 -2.04803 -2.04803 2.04921 -0.0259843 -0.0259843c-1.18465,-1.17284 -2.81811,-1.89803 -4.61929,-1.89803 -1.81417,0 -3.45709,0.735827 -4.64528,1.92284 -1.18701,1.18819 -1.92284,2.8311 -1.92284,4.64528 0,1.82008 0.734646,3.46299 1.91811,4.65118l0.00472441 -0.00472441 0.0011811 0 0.0271654 0.0271654c1.18465,1.17165 2.81693,1.89567 4.61693,1.89567 1.81417,0 3.45827,-0.735827 4.64528,-1.92284l-0.0011811 -0.0011811 0.137008 -0.127559c1.10787,-1.17638 1.78701,-2.76496 1.78701,-4.51772zm2.16732 -8.73426c2.24173,2.24292 3.62835,5.33268 3.62835,8.73426 0,3.31654 -1.31457,6.32953 -3.44764,8.55119 -0.0543308,0.0661418 -0.112205,0.129921 -0.173622,0.191339l-0.0011811 0c-2.23583,2.23583 -5.32914,3.62126 -8.74135,3.62126 -3.39331,0 -6.47245,-1.37126 -8.70591,-3.58701l-0.0354331 -0.034252 2.04803 -2.04803 -2.04803 2.03622c-2.23583,-2.23701 -3.62126,-5.32441 -3.62126,-8.73072 0,-3.41103 1.38543,-6.50434 3.62126,-8.74016 2.23701,-2.23701 5.33032,-3.62244 8.74135,-3.62244 3.39567,0 6.47126,1.37126 8.70591,3.58583l0.0354331 0.0354331 -0.0011811 0.0011811 0.0011811 0 -0.00590552 0.00590552z"/>
        <path class="fil20"
              d="M646.682 1167.64c-0.908268,-3.40394 1.11378,-6.90001 4.51772,-7.80945 3.40276,-0.90945 6.90001,1.1126 7.80945,4.51654l10.8992 40.6748c0.908268,3.40394 -1.11378,6.90119 -4.51654,7.80945 -3.40394,0.90945 -6.90119,-1.1126 -7.81064,-4.51654l-10.8992 -40.6748z"/>
        <path class="fil20"
              d="M622.146 1167.64c-0.90945,-3.40394 1.1126,-6.90001 4.51654,-7.80945 3.40394,-0.90945 6.90001,1.1126 7.80945,4.51654l10.8992 40.6748c0.90945,3.40394 -1.1126,6.90119 -4.51654,7.80945 -3.40394,0.90945 -6.90119,-1.1126 -7.81064,-4.51654l-10.898 -40.6748z"/>
        <path class="fil20"
              d="M597.609 1167.64c-0.90945,-3.40394 1.1126,-6.90001 4.51654,-7.80945 3.40394,-0.90945 6.90119,1.1126 7.80945,4.51654l10.8992 40.6748c0.90945,3.40394 -1.1126,6.90119 -4.51654,7.80945 -3.40394,0.90945 -6.90119,-1.1126 -7.81064,-4.51654l-10.898 -40.6748z"/>
        <path class="fil20"
              d="M573.071 1167.64c-0.90945,-3.40394 1.1126,-6.90001 4.51654,-7.80945 3.40394,-0.90945 6.90119,1.1126 7.81064,4.51654l10.898 40.6748c0.90945,3.40394 -1.1126,6.90119 -4.51654,7.80945 -3.40394,0.90945 -6.90119,-1.1126 -7.80945,-4.51654l-10.8992 -40.6748z"/>
 </g>
</svg>
