<?xml version="1.0" encoding="UTF-8"?>
<!DOCTYPE svg PUBLIC "-//W3C//DTD SVG 1.1//EN" "http://www.w3.org/Graphics/SVG/1.1/DTD/svg11.dtd">
<!-- Creator: CorelDRAW -->
<svg xmlns="http://www.w3.org/2000/svg" xml:space="preserve" width="2048px" height="2048px" style="shape-rendering:geometricPrecision; text-rendering:geometricPrecision; image-rendering:optimizeQuality; fill-rule:evenodd; clip-rule:evenodd"
viewBox="0 0 2048 2048"
 xmlns:xlink="http://www.w3.org/1999/xlink">
 <defs>
  <style type="text/css">
   <![CDATA[
    .fil2 {fill:none}
    .fil19 {fill:#006064}
    .fil18 {fill:#00838F}
    .fil9 {fill:#212121}
    .fil14 {fill:#2A2A2A}
    .fil10 {fill:#424242}
    .fil6 {fill:#4DB6AC}
    .fil4 {fill:#616161}
    .fil5 {fill:#757575}
    .fil1 {fill:#81D4FA}
    .fil11 {fill:#B2EBF2}
    .fil0 {fill:#B3E5FC}
    .fil15 {fill:#BDBDBD}
    .fil17 {fill:#006064;fill-rule:nonzero}
    .fil16 {fill:#212121;fill-rule:nonzero}
    .fil12 {fill:#37474F;fill-rule:nonzero}
    .fil7 {fill:#424242;fill-rule:nonzero}
    .fil3 {fill:#616161;fill-rule:nonzero}
    .fil13 {fill:#BDBDBD;fill-rule:nonzero}
    .fil8 {fill:#DD2C00;fill-rule:nonzero}
   ]]>
  </style>
   <clipPath id="id0">
    <path d="M1024 0c565.539,0 1024,458.461 1024,1024 0,565.539 -458.461,1024 -1024,1024 -565.539,0 -1024,-458.461 -1024,-1024 0,-565.539 458.461,-1024 1024,-1024z"/>
   </clipPath>
 </defs>
 <g id="Layer_x0020_1">
  <metadata id="CorelCorpID_0Corel-Layer"/>
  <path class="fil0" d="M1024 0c565.539,0 1024,458.461 1024,1024 0,565.539 -458.461,1024 -1024,1024 -565.539,0 -1024,-458.461 -1024,-1024 0,-565.539 458.461,-1024 1024,-1024z"/>
  <g style="clip-path:url(#id0)">
   <g id="_285978928">
    <g>
     <polygon id="_2894948081" class="fil1" points="1086.65,698.191 2222.53,1834.07 2222.47,1834.02 1086.59,698.142 "/>
     <polygon id="_289494352" class="fil1" points="1209.85,695.904 2345.73,1831.79 2347.08,1833.27 2348.28,1834.88 2349.32,1836.6 2350.2,1838.43 2350.91,1840.35 2351.42,1842.35 2351.74,1844.42 2351.85,1846.56 1215.96,710.675 1215.86,708.539 1215.54,706.465 1215.03,704.463 1214.32,702.544 1213.44,700.718 1212.4,698.996 1211.19,697.387 "/>
     <polygon id="_289496224" class="fil1" points="1215.96,710.675 2351.85,1846.56 2351.85,2201.64 1215.96,1065.76 "/>
     <polygon id="_289495912" class="fil1" points="1215.96,1065.76 2351.85,2201.64 2351.74,2203.78 2351.42,2205.85 2350.91,2207.86 2350.2,2209.77 2349.32,2211.6 2348.28,2213.32 2347.08,2214.93 2345.73,2216.41 2344.24,2217.76 2342.64,2218.96 2340.91,2220.01 2339.09,2220.89 2337.17,2221.59 2335.17,2222.11 2333.09,2222.42 2330.96,2222.53 1195.08,1086.65 1197.21,1086.54 1199.29,1086.23 1201.29,1085.71 1203.21,1085.01 1205.03,1084.13 1206.75,1083.08 1208.36,1081.88 1209.85,1080.53 1211.19,1079.05 1212.4,1077.44 1213.44,1075.72 1214.32,1073.89 1215.03,1071.97 1215.54,1069.97 1215.86,1067.9 "/>
     <polygon id="_289496320" class="fil1" points="1195.08,1086.65 2330.96,2222.53 2311.7,2222.53 1175.82,1086.65 "/>
     <polygon id="_289496272" class="fil1" points="1175.82,1086.65 2311.7,2222.53 2311.92,2223.23 2312.12,2223.93 2312.28,2224.64 2312.42,2225.35 2312.52,2226.07 2312.6,2226.79 2312.65,2227.52 2312.66,2228.25 2312.66,2270.81 1176.78,1134.92 1176.78,1092.37 1176.77,1091.64 1176.72,1090.91 1176.64,1090.19 1176.54,1089.47 1176.4,1088.76 1176.23,1088.05 1176.04,1087.34 "/>
     <polygon id="_289496200" class="fil1" points="1467.22,771.664 2603.1,1907.55 2604.61,1909.32 2606.08,1911.12 2607.52,1912.96 2608.92,1914.84 2610.29,1916.75 2611.62,1918.7 2612.92,1920.67 2614.18,1922.68 2615.4,1924.72 2616.59,1926.79 2617.74,1928.89 2618.86,1931.02 2619.94,1933.17 2620.98,1935.35 2621.99,1937.55 2622.96,1939.78 2623.89,1942.03 2624.79,1944.3 2625.65,1946.6 2626.47,1948.91 2627.25,1951.25 2628,1953.6 2628.71,1955.97 2629.38,1958.36 2630.02,1960.76 2630.61,1963.18 2631.17,1965.61 2631.69,1968.05 2632.17,1970.51 1496.29,834.623 1495.81,832.168 1495.29,829.724 1494.73,827.293 1494.13,824.875 1493.5,822.473 1492.83,820.086 1492.12,817.717 1491.37,815.364 1490.59,813.029 1489.76,810.715 1488.91,808.42 1488.01,806.147 1487.08,803.896 1486.11,801.668 1485.1,799.464 1484.06,797.286 1482.98,795.133 1481.86,793.007 1480.71,790.909 1479.52,788.84 1478.3,786.8 1477.04,784.791 1475.74,782.814 1474.41,780.869 1473.04,778.958 1471.64,777.08 1470.2,775.238 1468.73,773.434 "/>
     <polygon id="_289495864" class="fil1" points="1496.29,834.623 2632.17,1970.51 2647.99,2054.41 1512.11,918.53 "/>
     <polygon id="_289495888" class="fil1" points="1536.94,936.484 2672.82,2072.37 2674.5,2074.26 2676.13,2076.21 2677.69,2078.2 2679.18,2080.23 1543.3,944.346 1541.8,942.315 1540.24,940.324 1538.62,938.379 "/>
     <polygon id="_289497064" class="fil1" points="1543.3,944.346 2679.18,2080.23 2680.59,2082.29 2681.94,2084.39 2683.21,2086.53 2684.42,2088.71 2685.55,2090.92 2686.6,2093.16 2687.56,2095.42 2688.44,2097.71 2689.23,2100.02 2689.93,2102.34 2690.53,2104.67 2691.03,2107.02 2691.42,2109.36 2691.7,2111.71 2691.88,2114.06 2691.94,2116.4 1556.06,980.517 1556,978.177 1555.82,975.83 1555.54,973.482 1555.14,971.135 1554.65,968.792 1554.05,966.458 1553.35,964.135 1552.56,961.828 1551.68,959.539 1550.72,957.274 1549.67,955.033 1548.54,952.823 1547.33,950.645 1546.05,948.504 1544.71,946.404 "/>
     <polygon id="_289496896" class="fil1" points="1556.06,980.517 2691.94,2116.4 2691.94,2231.32 1556.06,1095.44 "/>
     <polygon id="_289497088" class="fil1" points="1579.59,1099.02 2715.47,2234.91 2716.45,2236.39 2717.28,2238.1 2717.97,2240 2718.52,2242.1 2718.96,2244.36 2719.3,2246.79 2719.54,2249.35 2719.71,2252.04 2719.82,2254.84 2719.87,2257.73 2719.88,2260.7 1584,1124.81 1583.99,1121.84 1583.93,1118.95 1583.83,1116.16 1583.66,1113.47 1583.42,1110.9 1583.08,1108.48 1582.64,1106.21 1582.09,1104.12 1581.4,1102.21 1580.57,1100.51 "/>
     <polygon id="_289497208" class="fil1" points="1584,1124.81 2719.88,2260.7 2719.87,2263.66 2719.82,2266.52 2719.71,2269.28 2719.54,2271.92 2719.3,2274.43 2718.96,2276.79 2718.52,2278.99 2717.97,2281.01 2717.28,2282.85 2716.45,2284.48 2715.47,2285.9 2714.31,2287.1 2712.98,2288.05 2711.45,2288.74 2709.71,2289.17 2707.75,2289.31 1571.87,1153.43 1573.83,1153.29 1575.57,1152.86 1577.1,1152.16 1578.43,1151.21 1579.59,1150.02 1580.57,1148.6 1581.4,1146.96 1582.09,1145.13 1582.64,1143.1 1583.08,1140.91 1583.42,1138.55 1583.66,1136.04 1583.83,1133.4 1583.93,1130.64 1583.99,1127.78 "/>
     <polygon id="_289496632" class="fil1" points="1571.87,1153.43 2707.75,2289.31 2653.54,2289.31 1517.66,1153.43 "/>
     <polygon id="_289496944" class="fil1" points="1517.66,1153.43 2653.54,2289.31 2653.1,2289.31 2652.66,2289.29 2652.23,2289.25 2651.79,2289.21 2651.36,2289.15 2650.94,2289.07 2650.51,2288.99 2650.09,2288.89 1514.21,1153.01 1514.63,1153.11 1515.06,1153.19 1515.48,1153.26 1515.91,1153.32 1516.35,1153.37 1516.78,1153.41 1517.22,1153.43 "/>
     <polygon id="_289496752" class="fil1" points="1493.91,1152.54 2629.79,2288.42 2628.9,2290.11 2628.02,2291.81 2627.15,2293.52 2626.29,2295.23 2625.43,2296.95 2624.59,2298.67 2623.76,2300.4 2622.93,2302.14 2622.12,2303.89 2621.32,2305.65 2620.53,2307.41 2619.75,2309.18 2618.99,2310.97 2618.23,2312.76 2617.49,2314.56 2616.76,2316.37 1480.88,1180.49 1481.61,1178.68 1482.35,1176.87 1483.1,1175.08 1483.87,1173.3 1484.65,1171.53 1485.44,1169.76 1486.24,1168.01 1487.05,1166.26 1487.87,1164.52 1488.71,1162.79 1489.55,1161.06 1490.41,1159.35 1491.27,1157.63 1492.14,1155.93 1493.02,1154.23 "/>
     <polygon id="_289497160" class="fil1" points="1514.21,1153.01 2650.09,2288.89 2630.05,2288.89 1494.17,1153.01 "/>
     <polygon id="_289496992" class="fil1" points="1480.88,1180.49 2616.76,2316.37 2617.02,2317.18 1481.13,1181.3 "/>
     <polygon id="_289497016" class="fil1" points="1481.13,1181.3 2617.02,2317.18 2616.47,2317.49 1480.59,1181.6 "/>
     <polygon id="_289496560" class="fil1" points="1480.59,1181.6 2616.47,2317.49 2616.76,2318.28 2617.04,2319.08 2617.32,2319.89 2617.59,2320.69 2617.86,2321.5 2618.12,2322.31 2618.38,2323.12 2618.63,2323.94 2618.88,2324.75 2619.12,2325.57 2619.36,2326.39 2619.59,2327.22 2619.81,2328.04 2620.03,2328.87 2620.25,2329.7 2620.46,2330.53 1484.58,1194.65 1484.37,1193.82 1484.15,1192.99 1483.93,1192.16 1483.71,1191.34 1483.48,1190.51 1483.24,1189.69 1483,1188.87 1482.75,1188.05 1482.5,1187.24 1482.24,1186.43 1481.98,1185.62 1481.71,1184.81 1481.44,1184.01 1481.16,1183.2 1480.88,1182.4 "/>
     <polygon id="_289497592" class="fil1" points="1486.22,1194.09 2622.1,2329.97 2623.38,2341.99 1487.5,1206.11 "/>
     <polygon id="_289497616" class="fil1" points="1487.5,1206.11 2623.38,2341.99 2622.8,2342.18 1486.92,1206.3 "/>
     <polygon id="_289497736" class="fil1" points="1486.92,1206.3 2622.8,2342.18 2622.93,2343.02 2623.05,2343.85 2623.16,2344.69 2623.27,2345.54 2623.38,2346.38 2623.47,2347.22 2623.57,2348.07 2623.66,2348.92 2623.74,2349.77 2623.82,2350.62 2623.89,2351.47 2623.96,2352.33 2624.02,2353.18 2624.07,2354.04 2624.12,2354.9 2624.17,2355.76 1488.29,1219.88 1488.24,1219.02 1488.19,1218.16 1488.14,1217.3 1488.07,1216.44 1488.01,1215.59 1487.94,1214.74 1487.86,1213.88 1487.78,1213.04 1487.69,1212.19 1487.59,1211.34 1487.49,1210.5 1487.39,1209.65 1487.28,1208.81 1487.16,1207.97 1487.04,1207.13 "/>
     <polygon id="_289497760" class="fil1" points="1490,1219.64 2625.88,2355.53 2624.8,2367.57 1488.92,1231.68 "/>
     <polygon id="_289497496" class="fil1" points="1488.92,1231.68 2624.8,2367.57 2624.21,2367.64 1488.33,1231.75 "/>
     <polygon id="_289497976" class="fil1" points="1488.33,1231.75 2624.21,2367.64 2624.17,2368.5 2624.13,2369.36 2624.08,2370.21 2624.02,2371.07 2623.96,2371.93 2623.9,2372.78 2623.83,2373.63 2623.75,2374.48 2623.67,2375.33 2623.58,2376.18 2623.49,2377.02 2623.39,2377.87 2623.29,2378.71 2623.18,2379.55 2623.06,2380.39 2622.94,2381.23 1487.06,1245.34 1487.18,1244.51 1487.3,1243.67 1487.4,1242.83 1487.51,1241.98 1487.61,1241.14 1487.7,1240.3 1487.79,1239.45 1487.87,1238.6 1487.95,1237.75 1488.02,1236.9 1488.08,1236.04 1488.14,1235.19 1488.2,1234.33 1488.25,1233.47 1488.29,1232.61 "/>
     <polygon id="_289497520" class="fil1" points="1488.74,1245.45 2624.62,2381.33 2621.22,2392.93 1485.34,1257.04 "/>
     <polygon id="_289497808" class="fil1" points="1485.34,1257.04 2621.22,2392.93 2620.69,2392.89 1484.81,1257 "/>
     <polygon id="_289497880" class="fil1" points="1484.81,1257 2620.69,2392.89 2620.49,2393.72 2620.28,2394.55 2620.06,2395.38 2619.84,2396.21 2619.62,2397.04 2619.39,2397.86 2619.15,2398.68 2618.91,2399.5 2618.66,2400.32 2618.41,2401.14 2618.16,2401.95 2617.89,2402.76 2617.63,2403.57 2617.35,2404.37 2617.08,2405.18 2616.79,2405.98 1480.91,1270.1 1481.2,1269.3 1481.47,1268.49 1481.74,1267.69 1482.01,1266.88 1482.27,1266.07 1482.53,1265.25 1482.78,1264.44 1483.03,1263.62 1483.27,1262.8 1483.5,1261.98 1483.74,1261.16 1483.96,1260.33 1484.18,1259.5 1484.4,1258.67 1484.61,1257.84 "/>
     <polygon id="_289497352" class="fil1" points="1482.49,1270.51 2618.37,2406.39 2612.78,2417.11 1476.9,1281.23 "/>
     <polygon id="_289498312" class="fil1" points="1476.9,1281.23 2612.78,2417.11 2612.3,2416.98 1476.42,1281.09 "/>
     <polygon id="_289498168" class="fil1" points="1476.42,1281.09 2612.3,2416.98 2611.57,2418.53 2610.82,2420.07 2610.05,2421.59 2609.26,2423.11 2608.45,2424.62 2607.63,2426.11 2606.78,2427.59 2605.92,2429.06 1470.04,1293.18 1470.9,1291.71 1471.75,1290.23 1472.57,1288.73 1473.38,1287.23 1474.17,1285.71 1474.94,1284.19 1475.69,1282.65 "/>
     <polygon id="_289498504" class="fil1" points="1471.49,1293.88 2607.37,2429.77 2599.81,2439.19 1463.92,1303.31 "/>
     <polygon id="_289498744" class="fil1" points="1463.92,1303.31 2599.81,2439.19 2599.36,2438.97 1463.48,1303.09 "/>
     <polygon id="_289498264" class="fil1" points="1463.48,1303.09 2599.36,2438.97 2598.35,2440.35 2597.31,2441.71 2596.26,2443.06 2595.2,2444.39 2594.11,2445.71 2593.01,2447.02 2591.89,2448.31 2590.75,2449.58 1454.87,1313.7 1456.01,1312.43 1457.13,1311.14 1458.23,1309.83 1459.31,1308.51 1460.38,1307.18 1461.43,1305.83 1462.47,1304.46 "/>
     <polygon id="_289498288" class="fil1" points="1456.16,1314.67 2592.04,2450.56 2582.78,2458.33 1446.9,1322.45 "/>
     <polygon id="_289498192" class="fil1" points="1446.9,1322.45 2582.78,2458.33 2582.41,2458.04 1446.53,1322.16 "/>
     <polygon id="_289498384" class="fil1" points="1446.53,1322.16 2582.41,2458.04 2581.15,2459.19 2579.87,2460.33 2578.58,2461.45 2577.27,2462.55 2575.95,2463.63 2574.62,2464.7 2573.27,2465.75 2571.9,2466.79 1436.02,1330.91 1437.39,1329.87 1438.73,1328.82 1440.07,1327.75 1441.39,1326.67 1442.7,1325.56 1443.99,1324.44 1445.27,1323.31 "/>
     <polygon id="_289498096" class="fil1" points="1436.02,1330.91 2571.9,2466.79 2572.95,2467.97 1437.07,1332.09 "/>
     <polygon id="_289498480" class="fil1" points="1426.2,1337.58 2562.08,2473.47 2560.62,2474.35 2559.15,2475.22 2557.67,2476.06 2556.17,2476.89 2554.66,2477.7 2553.14,2478.49 2551.61,2479.26 2550.07,2480.01 1414.19,1344.13 1415.73,1343.38 1417.26,1342.61 1418.78,1341.82 1420.29,1341.01 1421.78,1340.18 1423.27,1339.33 1424.74,1338.47 "/>
     <polygon id="_289499416" class="fil1" points="1437.07,1332.09 2572.95,2467.97 2562.37,2473.8 1426.48,1337.92 "/>
     <polygon id="_289499104" class="fil1" points="1414.19,1344.13 2550.07,2480.01 2550.85,2481.34 1414.97,1345.46 "/>
     <polygon id="_289498864" class="fil1" points="1403.25,1348.77 2539.13,2484.65 2538.33,2484.94 2537.53,2485.23 2536.73,2485.51 2535.92,2485.79 2535.11,2486.06 2534.3,2486.33 2533.49,2486.59 2532.67,2486.85 2531.86,2487.1 2531.04,2487.35 2530.21,2487.59 2529.39,2487.83 2528.56,2488.06 2527.73,2488.28 2526.9,2488.5 2526.07,2488.72 1390.19,1352.84 1391.02,1352.62 1391.85,1352.4 1392.68,1352.18 1393.51,1351.95 1394.33,1351.71 1395.15,1351.47 1395.97,1351.22 1396.79,1350.97 1397.61,1350.71 1398.42,1350.45 1399.23,1350.18 1400.04,1349.91 1400.85,1349.63 1401.65,1349.35 1402.45,1349.06 "/>
     <polygon id="_289499176" class="fil1" points="1414.97,1345.46 2550.85,2481.34 2539.33,2485 1403.45,1349.12 "/>
     <polygon id="_289499320" class="fil1" points="1390.19,1352.84 2526.07,2488.72 2526.57,2490.16 1390.69,1354.28 "/>
     <polygon id="_289499560" class="fil1" points="1378.55,1355.24 2514.43,2491.12 2513.59,2491.25 2512.75,2491.38 2511.91,2491.5 2511.07,2491.61 2510.22,2491.72 2509.38,2491.82 2508.53,2491.92 2507.68,2492.02 2506.83,2492.1 2505.98,2492.18 2505.12,2492.26 2504.26,2492.33 2503.41,2492.4 2502.55,2492.46 2501.69,2492.51 2500.82,2492.56 1364.94,1356.68 1365.81,1356.63 1366.67,1356.58 1367.53,1356.52 1368.38,1356.45 1369.24,1356.38 1370.09,1356.3 1370.95,1356.22 1371.8,1356.13 1372.65,1356.04 1373.5,1355.94 1374.34,1355.84 1375.19,1355.73 1376.03,1355.61 1376.87,1355.49 1377.71,1355.37 "/>
     <polygon id="_289499368" class="fil1" points="1390.69,1354.28 2526.57,2490.16 2514.56,2491.51 1378.68,1355.63 "/>
     <polygon id="_289499200" class="fil1" points="1364.94,1356.68 2500.82,2492.56 2501.04,2494.1 1365.16,1358.21 "/>
     <polygon id="_289499464" class="fil1" points="1228.55,1244.38 2364.43,2380.26 2363.79,2380.51 2363.15,2380.72 2362.5,2380.91 2361.84,2381.06 2361.18,2381.18 2360.51,2381.26 2359.83,2381.31 2359.15,2381.33 1223.27,1245.45 1223.95,1245.43 1224.63,1245.38 1225.3,1245.29 1225.96,1245.18 1226.62,1245.02 1227.27,1244.84 1227.91,1244.63 "/>
     <polygon id="_289499608" class="fil1" points="1353.06,1356.78 2488.94,2492.66 2487.98,2492.62 2487.02,2492.58 2486.06,2492.53 2485.1,2492.47 2484.14,2492.4 2483.19,2492.33 2482.23,2492.25 2481.28,2492.16 2480.33,2492.07 2479.39,2491.97 2478.44,2491.86 2477.5,2491.75 2476.56,2491.63 2475.62,2491.5 2474.68,2491.37 2473.75,2491.23 1337.87,1355.34 1338.8,1355.48 1339.74,1355.62 1340.68,1355.74 1341.62,1355.87 1342.56,1355.98 1343.51,1356.09 1344.45,1356.19 1345.4,1356.28 1346.35,1356.37 1347.3,1356.45 1348.26,1356.52 1349.22,1356.58 1350.17,1356.64 1351.13,1356.7 1352.1,1356.74 "/>
     <polygon id="_289499080" class="fil1" points="1337.87,1355.34 2473.75,2491.23 2473.65,2492.76 1337.76,1356.88 "/>
     <polygon id="_289499704" class="fil1" points="1223.27,1245.45 2359.15,2381.33 2342.3,2381.33 1206.42,1245.45 "/>
     <polygon id="_289500064" class="fil1" points="1231.09,1257.64 2366.97,2393.52 2365.41,2394.05 1229.53,1258.17 "/>
     <polygon id="_289500232" class="fil1" points="1313.14,1349 2449.02,2484.88 2448.62,2486.36 1312.74,1350.48 "/>
     <polygon id="_289499632" class="fil1" points="1206.42,1245.45 2342.3,2381.33 2342.3,2388.36 1206.42,1252.47 "/>
     <polygon id="_289500160" class="fil1" points="1239.6,1281.69 2375.48,2417.58 2374.08,2418.39 1238.2,1282.51 "/>
     <polygon id="_289500088" class="fil1" points="1206.42,1252.47 2342.3,2388.36 2342.2,2390.41 2341.9,2392.39 2341.4,2394.31 2340.73,2396.16 2339.88,2397.91 2338.88,2399.56 2337.73,2401.1 2336.43,2402.53 2335.01,2403.82 2333.47,2404.97 2331.81,2405.98 2330.06,2406.82 2328.22,2407.49 2326.3,2407.99 2324.31,2408.29 2322.26,2408.4 1186.38,1272.51 1188.43,1272.41 1190.42,1272.11 1192.34,1271.61 1194.18,1270.94 1195.93,1270.09 1197.59,1269.09 1199.13,1267.94 1200.55,1266.64 1201.84,1265.22 1203,1263.68 1204,1262.03 1204.85,1260.27 1205.52,1258.43 1206.01,1256.51 1206.32,1254.52 "/>
     <polygon id="_289500184" class="fil1" points="1252.65,1303.62 2388.53,2439.51 2387.32,2440.57 1251.44,1304.69 "/>
     <polygon id="_289499824" class="fil1" points="1280.26,1331.31 2416.14,2467.19 2414.77,2466.16 2413.42,2465.12 2412.08,2464.05 2410.75,2462.97 2409.44,2461.88 2408.14,2460.77 2406.86,2459.64 2405.59,2458.49 1269.71,1322.61 1270.98,1323.75 1272.26,1324.88 1273.56,1326 1274.87,1327.09 1276.2,1328.17 1277.54,1329.23 1278.89,1330.28 "/>
     <polygon id="_289499848" class="fil1" points="1269.71,1322.61 2405.59,2458.49 2404.62,2459.76 1268.74,1323.88 "/>
     <polygon id="_289499992" class="fil1" points="1289.43,1339.34 2425.31,2475.22 2415.93,2467.6 1280.05,1331.71 "/>
     <polygon id="_289500352" class="fil1" points="1302.17,1344.42 2438.05,2480.31 2436.5,2479.56 2434.97,2478.8 2433.44,2478.02 2431.93,2477.22 2430.43,2476.39 2428.94,2475.55 2427.47,2474.7 2426,2473.82 1290.12,1337.94 1291.59,1338.81 1293.06,1339.67 1294.55,1340.51 1296.05,1341.33 1297.56,1342.13 1299.09,1342.92 1300.62,1343.68 "/>
     <polygon id="_289501024" class="fil1" points="1326.22,1353 2462.1,2488.89 2461.27,2488.68 2460.44,2488.46 2459.61,2488.24 2458.78,2488.01 2457.95,2487.78 2457.13,2487.54 2456.31,2487.3 2455.49,2487.05 2454.67,2486.8 2453.86,2486.54 2453.04,2486.28 2452.23,2486.01 2451.42,2485.74 2450.62,2485.46 2449.82,2485.17 2449.02,2484.88 1313.14,1349 1313.94,1349.29 1314.74,1349.57 1315.54,1349.85 1316.35,1350.13 1317.16,1350.4 1317.97,1350.66 1318.79,1350.92 1319.61,1351.17 1320.43,1351.42 1321.25,1351.66 1322.07,1351.9 1322.9,1352.13 1323.72,1352.36 1324.55,1352.58 1325.39,1352.79 "/>
     <polygon id="_289500688" class="fil1" points="1365.16,1358.21 2501.04,2494.1 2489,2493.09 1353.12,1357.21 "/>
     <polygon id="_289501000" class="fil1" points="1337.76,1356.88 2473.65,2492.76 2462.07,2489.29 1326.19,1353.41 "/>
     <polygon id="_289501072" class="fil1" points="1312.74,1350.48 2448.62,2486.36 2437.94,2480.71 1302.06,1344.82 "/>
     <polygon id="_289500712" class="fil1" points="1290.12,1337.94 2426,2473.82 2425.31,2475.22 1289.43,1339.34 "/>
     <polygon id="_289500736" class="fil1" points="508.793,741.761 1644.67,1877.64 1644.62,1877.6 508.74,741.722 "/>
     <polygon id="_289500448" class="fil1" points="1034.04,1245.45 2169.92,2381.33 2139.85,2381.33 1003.97,1245.45 "/>
     <polygon id="_289501120" class="fil1" points="562.319,706.3 1698.2,1842.18 1699.55,1843.67 1700.75,1845.27 1701.8,1847 1702.68,1848.82 1703.38,1850.74 1703.89,1852.74 1704.21,1854.82 1704.32,1856.95 568.437,721.069 568.329,718.934 568.013,716.86 567.498,714.858 566.795,712.939 565.915,711.113 564.87,709.391 563.667,707.783 "/>
     <polygon id="_289500856" class="fil1" points="1003.97,1245.45 2139.85,2381.33 2136.45,2392.93 1000.57,1257.04 "/>
     <polygon id="_289500640" class="fil1" points="1000.57,1257.04 2136.45,2392.93 2135.92,2392.89 1000.04,1257 "/>
     <polygon id="_289501816" class="fil1" points="1000.04,1257 2135.92,2392.89 2135.72,2393.72 2135.51,2394.55 2135.29,2395.38 2135.07,2396.21 2134.85,2397.04 2134.62,2397.86 2134.38,2398.68 2134.14,2399.5 2133.89,2400.32 2133.64,2401.14 2133.39,2401.95 2133.12,2402.76 2132.86,2403.57 2132.58,2404.38 2132.31,2405.18 2132.02,2405.98 996.144,1270.1 996.426,1269.3 996.704,1268.49 996.975,1267.69 997.242,1266.88 997.504,1266.07 997.761,1265.26 998.012,1264.44 998.258,1263.62 998.5,1262.8 998.735,1261.98 998.967,1261.16 999.191,1260.33 999.412,1259.5 999.627,1258.67 999.836,1257.84 "/>
     <polygon id="_289501360" class="fil1" points="997.72,1270.51 2133.6,2406.39 2128.01,2417.11 992.131,1281.23 "/>
     <polygon id="_289501840" class="fil1" points="992.131,1281.23 2128.01,2417.11 2127.53,2416.98 991.651,1281.09 "/>
     <polygon id="_289501648" class="fil1" points="991.651,1281.09 2127.53,2416.98 2126.8,2418.53 2126.05,2420.07 2125.28,2421.59 2124.49,2423.11 2123.69,2424.62 2122.86,2426.11 2122.01,2427.59 2121.15,2429.06 985.266,1293.18 986.13,1291.71 986.976,1290.23 987.804,1288.73 988.612,1287.23 989.401,1285.71 990.17,1284.19 990.921,1282.65 "/>
     <polygon id="_289501768" class="fil1" points="986.72,1293.88 2122.6,2429.77 2115.03,2439.19 979.154,1303.31 "/>
     <polygon id="_289501912" class="fil1" points="979.154,1303.31 2115.03,2439.19 2114.6,2438.97 978.714,1303.09 "/>
     <polygon id="_289501480" class="fil1" points="978.714,1303.09 2114.6,2438.97 2113.58,2440.35 2112.54,2441.71 2111.49,2443.06 2110.43,2444.39 2109.34,2445.71 2108.24,2447.02 2107.12,2448.31 2105.98,2449.58 970.103,1313.7 971.238,1312.43 972.357,1311.14 973.459,1309.83 974.545,1308.51 975.613,1307.18 976.664,1305.83 977.697,1304.46 "/>
     <polygon id="_289501192" class="fil1" points="971.385,1314.67 2107.27,2450.56 2098.01,2458.33 962.133,1322.45 "/>
     <polygon id="_289501288" class="fil1" points="962.133,1322.45 2098.01,2458.33 2097.64,2458.04 961.757,1322.16 "/>
     <polygon id="_289501696" class="fil1" points="961.757,1322.16 2097.64,2458.04 2096.38,2459.19 2095.1,2460.33 2093.81,2461.45 2092.5,2462.55 2091.18,2463.63 2089.85,2464.7 2088.5,2465.75 2087.13,2466.79 951.253,1330.91 952.616,1329.87 953.965,1328.82 955.301,1327.75 956.622,1326.67 957.928,1325.56 959.219,1324.44 960.496,1323.31 "/>
     <polygon id="_289501744" class="fil1" points="951.253,1330.91 2087.13,2466.79 2088.18,2467.97 952.303,1332.09 "/>
     <polygon id="_289502128" class="fil1" points="941.428,1337.58 2077.31,2473.47 2075.85,2474.35 2074.38,2475.22 2072.9,2476.06 2071.4,2476.89 2069.89,2477.7 2068.37,2478.49 2066.84,2479.26 2065.3,2480.01 929.421,1344.13 930.962,1343.38 932.493,1342.61 934.012,1341.82 935.52,1341.01 937.015,1340.18 938.499,1339.33 939.969,1338.47 "/>
     <polygon id="_289502608" class="fil1" points="952.303,1332.09 2088.18,2467.97 2077.6,2473.8 941.715,1337.92 "/>
     <polygon id="_289502368" class="fil1" points="929.421,1344.13 2065.3,2480.01 2066.08,2481.34 930.202,1345.46 "/>
     <polygon id="_289501960" class="fil1" points="918.481,1348.77 2054.36,2484.65 2053.56,2484.94 2052.76,2485.23 2051.96,2485.51 2051.15,2485.79 2050.34,2486.06 2049.53,2486.33 2048.72,2486.59 2047.9,2486.85 2047.09,2487.1 2046.27,2487.35 2045.44,2487.59 2044.62,2487.83 2043.79,2488.06 2042.96,2488.28 2042.13,2488.5 2041.3,2488.72 905.417,1352.84 906.251,1352.62 907.081,1352.4 907.911,1352.18 908.737,1351.95 909.563,1351.71 910.385,1351.47 911.205,1351.22 912.023,1350.97 912.838,1350.71 913.652,1350.45 914.462,1350.18 915.271,1349.91 916.078,1349.63 916.881,1349.35 917.683,1349.06 "/>
     <polygon id="_289502032" class="fil1" points="930.202,1345.46 2066.08,2481.34 2054.56,2485 918.682,1349.12 "/>
     <polygon id="_289502512" class="fil1" points="905.417,1352.84 2041.3,2488.72 2041.8,2490.16 905.922,1354.28 "/>
     <polygon id="_289502392" class="fil1" points="893.78,1355.24 2029.66,2491.12 2028.82,2491.25 2027.98,2491.38 2027.14,2491.5 2026.3,2491.61 2025.45,2491.72 2024.61,2491.82 2023.76,2491.92 2022.91,2492.02 2022.06,2492.1 2021.21,2492.18 2020.35,2492.26 2019.49,2492.33 2018.64,2492.4 2017.78,2492.46 2016.92,2492.51 2016.05,2492.56 880.174,1356.68 881.036,1356.63 881.897,1356.58 882.755,1356.52 883.613,1356.45 884.469,1356.38 885.324,1356.3 886.177,1356.22 887.029,1356.13 887.878,1356.04 888.726,1355.94 889.573,1355.84 890.417,1355.73 891.261,1355.61 892.103,1355.49 892.942,1355.37 "/>
     <polygon id="_289502080" class="fil1" points="905.922,1354.28 2041.8,2490.16 2029.79,2491.51 893.911,1355.63 "/>
     <polygon id="_289502464" class="fil1" points="880.174,1356.68 2016.05,2492.56 2016.27,2494.1 880.391,1358.21 "/>
     <polygon id="_289502536" class="fil1" points="581.632,1086.65 1717.51,2222.53 1620.77,2222.53 484.887,1086.65 "/>
     <polygon id="_289503064" class="fil1" points="743.929,1245.45 1879.81,2381.33 1862.87,2381.33 726.99,1245.45 "/>
     <polygon id="_289502752" class="fil1" points="853.099,1355.34 1988.98,2491.23 1988.88,2492.76 852.996,1356.88 "/>
     <polygon id="_289502776" class="fil1" points="746.32,1257.64 1882.2,2393.52 1880.64,2394.05 744.759,1258.17 "/>
     <polygon id="_289503208" class="fil1" points="575.317,1096.63 1711.2,2232.51 1711.43,2233.22 575.553,1097.34 "/>
     <polygon id="_289503112" class="fil1" points="726.99,1245.45 1862.87,2381.33 1859.47,2392.93 723.591,1257.04 "/>
     <polygon id="_289503232" class="fil1" points="754.834,1281.69 1890.71,2417.58 1889.31,2418.39 753.433,1282.51 "/>
     <polygon id="_289502704" class="fil1" points="817.4,1344.42 1953.28,2480.31 1951.73,2479.56 1950.2,2478.8 1948.68,2478.02 1947.16,2477.22 1945.66,2476.39 1944.17,2475.55 1942.7,2474.7 1941.23,2473.82 805.353,1337.94 806.816,1338.81 808.293,1339.67 809.781,1340.51 811.282,1341.33 812.794,1342.13 814.318,1342.92 815.853,1343.68 "/>
     <polygon id="_289503136" class="fil1" points="723.591,1257.04 1859.47,2392.93 1858.94,2392.89 723.061,1257 "/>
     <polygon id="_289503376" class="fil1" points="723.061,1257 1858.94,2392.89 1858.74,2393.72 1858.53,2394.55 1858.31,2395.38 1858.09,2396.21 1857.87,2397.04 1857.64,2397.86 1857.4,2398.68 1857.16,2399.5 1856.91,2400.32 1856.66,2401.14 1856.41,2401.95 1856.14,2402.76 1855.88,2403.57 1855.61,2404.38 1855.33,2405.18 1855.05,2405.98 719.164,1270.1 719.447,1269.3 719.724,1268.49 719.996,1267.69 720.263,1266.88 720.525,1266.07 720.781,1265.26 721.033,1264.44 721.279,1263.62 721.521,1262.8 721.756,1261.98 721.987,1261.16 722.212,1260.33 722.432,1259.5 722.647,1258.67 722.856,1257.84 "/>
     <polygon id="_289503400" class="fil1" points="767.882,1303.62 1903.76,2439.51 1902.55,2440.57 766.671,1304.69 "/>
     <polygon id="_289502920" class="fil1" points="784.939,1322.61 1920.82,2458.49 1919.85,2459.76 783.967,1323.88 "/>
     <polygon id="_289504192" class="fil1" points="795.491,1331.31 1931.37,2467.19 1930,2466.16 1928.65,2465.12 1927.31,2464.05 1925.98,2462.97 1924.67,2461.88 1923.37,2460.77 1922.09,2459.64 1920.82,2458.49 784.939,1322.61 786.206,1323.75 787.489,1324.88 788.787,1326 790.099,1327.09 791.425,1328.17 792.766,1329.23 794.122,1330.28 "/>
     <polygon id="_289503808" class="fil1" points="827.969,1350.48 1963.85,2486.36 1953.17,2480.71 817.286,1344.82 "/>
     <polygon id="_289503856" class="fil1" points="841.451,1353 1977.33,2488.89 1976.5,2488.68 1975.67,2488.46 1974.84,2488.24 1974.01,2488.01 1973.18,2487.78 1972.36,2487.54 1971.54,2487.3 1970.72,2487.05 1969.9,2486.8 1969.09,2486.54 1968.27,2486.28 1967.46,2486.01 1966.66,2485.74 1965.85,2485.46 1965.05,2485.17 1964.25,2484.88 828.366,1349 829.166,1349.29 829.968,1349.57 830.774,1349.85 831.582,1350.13 832.392,1350.4 833.205,1350.66 834.018,1350.92 834.836,1351.17 835.655,1351.42 836.476,1351.66 837.299,1351.9 838.126,1352.13 838.954,1352.36 839.785,1352.58 840.616,1352.79 "/>
     <polygon id="_289503904" class="fil1" points="868.292,1356.78 2004.17,2492.66 2003.21,2492.62 2002.25,2492.58 2001.29,2492.53 2000.33,2492.47 1999.37,2492.4 1998.42,2492.33 1997.46,2492.25 1996.51,2492.16 1995.56,2492.07 1994.62,2491.97 1993.67,2491.86 1992.73,2491.75 1991.79,2491.63 1990.85,2491.5 1989.91,2491.37 1988.98,2491.23 853.099,1355.34 854.033,1355.48 854.97,1355.62 855.909,1355.74 856.849,1355.87 857.792,1355.98 858.736,1356.09 859.684,1356.19 860.632,1356.28 861.583,1356.37 862.535,1356.45 863.49,1356.52 864.447,1356.58 865.405,1356.64 866.365,1356.7 867.328,1356.74 "/>
     <polygon id="_289503952" class="fil1" points="852.996,1356.88 1988.88,2492.76 1977.3,2489.29 841.418,1353.41 "/>
     <polygon id="_289504096" class="fil1" points="805.353,1337.94 1941.23,2473.82 1940.54,2475.22 804.663,1339.34 "/>
     <polygon id="_289503616" class="fil1" points="804.663,1339.34 1940.54,2475.22 1931.16,2467.6 795.283,1331.71 "/>
     <polygon id="_289503760" class="fil1" points="550.544,1103.14 1686.43,2239.03 1686.78,2239.66 550.903,1103.77 "/>
     <polygon id="_289503520" class="fil1" points="715.153,1281.23 1851.03,2417.11 1850.55,2416.98 714.673,1281.09 "/>
     <polygon id="_289503640" class="fil1" points="714.673,1281.09 1850.55,2416.98 1849.82,2418.53 1849.07,2420.07 1848.3,2421.59 1847.51,2423.11 1846.71,2424.62 1845.88,2426.11 1845.03,2427.59 1844.17,2429.06 708.286,1293.18 709.151,1291.71 709.998,1290.23 710.825,1288.73 711.634,1287.23 712.423,1285.71 713.191,1284.19 713.943,1282.65 "/>
     <polygon id="_289503712" class="fil1" points="527.511,1114.35 1663.39,2250.23 1663.87,2250.78 527.987,1114.9 "/>
     <polygon id="_289504840" class="fil1" points="702.175,1303.31 1838.06,2439.19 1837.62,2438.97 701.735,1303.09 "/>
     <polygon id="_289504480" class="fil1" points="484.887,1086.65 1620.77,2222.53 1618.63,2222.42 1616.56,2222.11 1614.56,2221.59 1612.64,2220.89 1610.81,2220.01 1609.09,2218.96 1607.48,2217.76 471.6,1081.88 473.209,1083.08 474.931,1084.13 476.757,1085.01 478.675,1085.71 480.677,1086.23 482.751,1086.54 "/>
     <polygon id="_289504744" class="fil1" points="701.735,1303.09 1837.62,2438.97 1836.6,2440.35 1835.57,2441.71 1834.52,2443.06 1833.45,2444.39 1832.36,2445.71 1831.26,2447.02 1830.14,2448.31 1829,2449.58 693.123,1313.7 694.258,1312.43 695.378,1311.14 696.48,1309.83 697.565,1308.51 698.634,1307.18 699.686,1305.83 700.719,1304.46 "/>
     <polygon id="_289504768" class="fil1" points="685.153,1322.45 1821.03,2458.33 1820.66,2458.04 684.778,1322.16 "/>
     <polygon id="_289504888" class="fil1" points="499.304,1138.7 1635.19,2274.58 1633.72,2273.47 497.842,1137.59 "/>
     <polygon id="_289504816" class="fil1" points="674.274,1330.91 1810.16,2466.79 1811.21,2467.97 675.324,1332.09 "/>
     <polygon id="_289504984" class="fil1" points="484.117,1159.16 1620,2295.04 1618.39,2294.26 482.508,1158.38 "/>
     <polygon id="_289504504" class="fil1" points="664.45,1337.58 1800.33,2473.47 1798.87,2474.35 1797.4,2475.22 1795.92,2476.06 1794.42,2476.89 1792.91,2477.7 1791.4,2478.49 1789.87,2479.26 1788.32,2480.01 652.441,1344.13 653.984,1343.38 655.515,1342.61 657.034,1341.82 658.541,1341.01 660.037,1340.18 661.521,1339.33 662.991,1338.47 "/>
     <polygon id="_289504288" class="fil1" points="652.441,1344.13 1788.32,2480.01 1789.1,2481.34 653.222,1345.46 "/>
     <polygon id="_289504600" class="fil1" points="473.192,1182.19 1609.07,2318.08 1607.39,2317.63 471.507,1181.75 "/>
     <polygon id="_289505248" class="fil1" points="641.503,1348.77 1777.38,2484.65 1776.59,2484.94 1775.78,2485.23 1774.98,2485.51 1774.17,2485.79 1773.37,2486.06 1772.55,2486.33 1771.74,2486.59 1770.93,2486.85 1770.11,2487.1 1769.29,2487.35 1768.47,2487.59 1767.64,2487.83 1766.81,2488.06 1765.98,2488.28 1765.15,2488.5 1764.32,2488.72 628.439,1352.84 629.273,1352.62 630.103,1352.4 630.932,1352.18 631.759,1351.95 632.585,1351.71 633.407,1351.47 634.226,1351.22 635.045,1350.97 635.86,1350.71 636.674,1350.45 637.484,1350.18 638.293,1349.91 639.1,1349.63 639.903,1349.35 640.705,1349.06 "/>
     <polygon id="_289505008" class="fil1" points="628.439,1352.84 1764.32,2488.72 1764.82,2490.16 628.943,1354.28 "/>
     <polygon id="_289505032" class="fil1" points="466.983,1206.92 1602.86,2342.8 1601.14,2342.7 465.258,1206.82 "/>
     <polygon id="_289505392" class="fil1" points="616.802,1355.24 1752.68,2491.12 1751.85,2491.25 1751.01,2491.38 1750.16,2491.5 1749.32,2491.61 1748.48,2491.72 1747.63,2491.82 1746.78,2491.92 1745.93,2492.02 1745.08,2492.1 1744.23,2492.18 1743.37,2492.26 1742.52,2492.33 1741.66,2492.4 1740.8,2492.46 1739.94,2492.51 1739.08,2492.56 603.195,1356.68 604.058,1356.63 604.919,1356.58 605.777,1356.52 606.635,1356.45 607.491,1356.38 608.346,1356.3 609.199,1356.22 610.05,1356.13 610.9,1356.04 611.748,1355.94 612.595,1355.84 613.439,1355.73 614.282,1355.61 615.124,1355.49 615.964,1355.37 "/>
     <polygon id="_289505200" class="fil1" points="603.195,1356.68 1739.08,2492.56 1739.29,2494.1 603.413,1358.21 "/>
     <polygon id="_289505272" class="fil1" points="465.695,1232.39 1601.58,2368.27 1599.88,2368.5 463.999,1232.62 "/>
     <polygon id="_289505296" class="fil1" points="591.312,1356.78 1727.19,2492.66 1726.23,2492.62 1725.27,2492.58 1724.31,2492.53 1723.35,2492.47 1722.39,2492.4 1721.44,2492.33 1720.48,2492.25 1719.53,2492.16 1718.59,2492.07 1717.64,2491.97 1716.69,2491.86 1715.75,2491.75 1714.81,2491.63 1713.87,2491.5 1712.94,2491.37 1712,2491.23 576.12,1355.34 577.054,1355.48 577.991,1355.62 578.93,1355.74 579.87,1355.87 580.812,1355.98 581.757,1356.09 582.704,1356.19 583.653,1356.28 584.604,1356.37 585.556,1356.45 586.511,1356.52 587.468,1356.58 588.426,1356.64 589.386,1356.7 590.348,1356.74 "/>
     <polygon id="_289505560" class="fil1" points="576.12,1355.34 1712,2491.23 1711.9,2492.76 576.017,1356.88 "/>
     <polygon id="_289505344" class="fil1" points="469.341,1257.64 1605.22,2393.52 1603.66,2394.05 467.779,1258.17 "/>
     <polygon id="_289505584" class="fil1" points="564.473,1353 1700.35,2488.89 1699.52,2488.68 1698.69,2488.46 1697.86,2488.24 1697.03,2488.01 1696.2,2487.78 1695.38,2487.54 1694.56,2487.3 1693.74,2487.05 1692.92,2486.8 1692.11,2486.54 1691.3,2486.28 1690.48,2486.01 1689.68,2485.74 1688.87,2485.46 1688.07,2485.17 1687.27,2484.88 551.387,1349 552.188,1349.29 552.99,1349.57 553.796,1349.85 554.604,1350.13 555.414,1350.4 556.226,1350.66 557.04,1350.92 557.858,1351.17 558.677,1351.42 559.498,1351.66 560.321,1351.9 561.148,1352.13 561.976,1352.36 562.806,1352.58 563.638,1352.79 "/>
     <polygon id="_289505752" class="fil1" points="551.387,1349 1687.27,2484.88 1686.87,2486.36 550.991,1350.48 "/>
     <polygon id="_289505944" class="fil1" points="477.854,1281.69 1613.74,2417.58 1612.33,2418.39 476.454,1282.51 "/>
     <polygon id="_289506424" class="fil1" points="540.422,1344.42 1676.3,2480.31 1674.76,2479.56 1673.22,2478.8 1671.7,2478.02 1670.19,2477.22 1668.68,2476.39 1667.2,2475.55 1665.72,2474.7 1664.25,2473.82 528.374,1337.94 529.838,1338.81 531.315,1339.67 532.803,1340.51 534.304,1341.33 535.816,1342.13 537.339,1342.92 538.875,1343.68 "/>
     <polygon id="_289505872" class="fil1" points="528.374,1337.94 1664.25,2473.82 1663.57,2475.22 527.684,1339.34 "/>
     <polygon id="_289505896" class="fil1" points="490.903,1303.62 1626.78,2439.51 1625.57,2440.57 489.691,1304.69 "/>
     <polygon id="_289505992" class="fil1" points="518.511,1331.31 1654.39,2467.19 1653.02,2466.16 1651.67,2465.12 1650.33,2464.05 1649,2462.97 1647.69,2461.88 1646.39,2460.77 510.509,1324.88 511.807,1326 513.12,1327.09 514.446,1328.17 515.787,1329.23 517.143,1330.28 "/>
     <polygon id="_289505920" class="fil1" points="507.959,1322.61 1643.84,2458.49 1642.87,2459.76 506.989,1323.88 "/>
     <polygon id="_289506328" class="fil1" points="527.684,1339.34 1663.57,2475.22 1654.18,2467.6 518.304,1331.71 "/>
     <polygon id="_289506232" class="fil1" points="550.991,1350.48 1686.87,2486.36 1676.19,2480.71 540.308,1344.82 "/>
     <polygon id="_289506376" class="fil1" points="576.017,1356.88 1711.9,2492.76 1700.32,2489.29 564.44,1353.41 "/>
     <polygon id="_289506400" class="fil1" points="603.413,1358.21 1739.29,2494.1 1727.25,2493.09 591.367,1357.21 "/>
     <polygon id="_289506904" class="fil1" points="628.943,1354.28 1764.82,2490.16 1752.81,2491.51 616.933,1355.63 "/>
     <polygon id="_289507120" class="fil1" points="653.222,1345.46 1789.1,2481.34 1777.59,2485 641.704,1349.12 "/>
     <polygon id="_289506688" class="fil1" points="675.324,1332.09 1811.21,2467.97 1800.62,2473.8 664.737,1337.92 "/>
     <polygon id="_289506832" class="fil1" points="684.778,1322.16 1820.66,2458.04 1819.4,2459.19 1818.12,2460.33 1816.83,2461.45 1815.52,2462.55 1814.2,2463.63 1812.87,2464.7 1811.52,2465.75 1810.16,2466.79 674.274,1330.91 675.637,1329.87 676.987,1328.82 678.322,1327.75 679.642,1326.67 680.949,1325.56 682.24,1324.44 683.516,1323.31 "/>
     <polygon id="_289507216" class="fil1" points="709.74,1293.88 1845.62,2429.77 1838.06,2439.19 702.175,1303.31 "/>
     <polygon id="_289506544" class="fil1" points="720.741,1270.51 1856.62,2406.39 1851.03,2417.11 715.153,1281.23 "/>
     <polygon id="_289506712" class="fil1" points="828.366,1349 1964.25,2484.88 1963.85,2486.36 827.969,1350.48 "/>
     <polygon id="_289507240" class="fil1" points="880.391,1358.21 2016.27,2494.1 2004.23,2493.09 868.346,1357.21 "/>
     <polygon id="_289506784" class="fil1" points="694.406,1314.67 1830.29,2450.56 1821.03,2458.33 685.153,1322.45 "/>
     <polygon id="_289507264" class="fil1" points="1054.08,1272.51 2189.96,2408.4 2187.91,2408.29 2185.92,2407.99 2184,2407.49 2182.16,2406.82 2180.41,2405.98 2178.75,2404.97 2177.21,2403.82 2175.79,2402.53 1039.91,1266.64 1041.33,1267.94 1042.87,1269.09 1044.53,1270.09 1046.28,1270.94 1048.12,1271.61 1050.04,1272.11 1052.03,1272.41 "/>
     <polygon id="_289506664" class="fil1" points="568.437,721.069 1704.32,1856.95 1704.32,1867.44 568.437,731.561 "/>
     <polygon id="_289507912" class="fil1" points="1186.38,1272.51 2322.26,2408.4 2189.96,2408.4 1054.08,1272.51 "/>
    </g>
    <path id="_285978856" class="fil1" d="M568.437 731.561l493.191 0 25.0252 -33.3697 -0.0649607 -0.0496063c4.09961,-5.46615 10.3665,-8.3504 16.7114,-8.35631l0.0437008 0 91.7339 0c11.5347,0 20.8878,9.35316 20.8878,20.889l0 355.087c0,11.5347 -9.35316,20.8878 -20.8878,20.8878l-19.2603 0c0.633071,1.84843 0.964961,3.76181 0.964961,5.7189l0 42.5563 54.9355 0c-0.0625985,-0.644882 -0.0944883,-1.29803 -0.0944883,-1.95945l0 -373.207c0,-11.0681 8.97284,-20.041 20.041,-20.041l146.437 0c26.1874,0 47.804,10.2933 64.3855,26.876 17.3953,17.3941 28.8614,41.7768 33.8079,68.0304l15.8114 83.9068 1.42677 0.627166c11.1449,4.89922 21.9992,14.2488 29.7638,25.1894 7.69843,10.8484 12.7595,23.7118 12.7595,36.1701l0 114.92 15.8114 0c11.0693,0 12.1347,13.363 12.1347,29.3776 0,16.0146 -1.06536,28.6181 -12.1347,28.6181l-54.2115 0c-1.17402,0 -2.32441,-0.146457 -3.44292,-0.426378l-20.0469 0c-0.0838583,-0.157087 -0.168898,-0.312992 -0.253937,-0.470079 -4.76457,9.02127 -9.18544,18.261 -13.0288,27.9532l0.251575 0.809056 -0.544489 0.304725c1.54843,4.25079 2.88307,8.60434 3.98859,13.0476l1.63937 -0.561024 1.27913 12.0189 -0.578741 0.188977c0.68504,4.4563 1.14449,8.98583 1.36772,13.578l1.71142 -0.231496 -1.08071 12.039 -0.588189 0.0708662c-0.188977,4.59567 -0.615355,9.12875 -1.26614,13.5898l1.67717 0.102756 -3.4004 11.5984 -0.529134 -0.0401575c-1.0748,4.45748 -2.37756,8.82638 -3.89646,13.0925l1.57677 0.414567 -5.58898 10.7161 -0.480709 -0.133465c-1.92166,4.1504 -4.05473,8.18268 -6.38504,12.0839l1.45394 0.7063 -7.56497 9.42639 -0.440552 -0.222047c-2.68701,3.68859 -5.56182,7.23071 -8.61142,10.6134l1.28268 0.970867 -9.25276 7.77638 -0.375591 -0.292914c-3.3437,3.09331 -6.8504,6.01536 -10.5036,8.74961l1.05 1.17992 -10.5886 5.82993 -0.287008 -0.33189c-3.87284,2.38347 -7.88032,4.56969 -12.0083,6.54686l0.780709 1.32638 -11.5181 3.66142 -0.200788 -0.35315c-4.25433,1.57677 -8.61379,2.93858 -13.0642,4.07126l0.504331 1.44331 -12.0106 1.35236 -0.131102 -0.393307c-4.46457,0.709843 -9.00355,1.1941 -13.6063,1.43976l0.217323 1.53543 -12.0449 -1.00748 -0.0543308 -0.427559c-5.14607,-0.185433 -10.2154,-0.669686 -15.1937,-1.43504l-0.102756 1.53425 -11.5772 -3.47008 0.0330709 -0.403937c-4.4563,-1.11024 -8.82284,-2.44843 -13.0854,-4.00276l-0.396851 1.47638 -10.6831 -5.65394 0.114567 -0.401575c-4.13977,-1.95473 -8.16024,-4.12205 -12.0473,-6.48544l-0.689764 1.39843 -9.38032 -7.62284 0.207874 -0.4063c-3.66969,-2.71654 -7.19174,-5.62087 -10.552,-8.69883l-0.972048 1.26732 -7.71969 -9.30001 0.301181 -0.381496c-3.06733,-3.36733 -5.96103,-6.89528 -8.66575,-10.5709l-1.21181 1.06536 -5.76615 -10.6228 0.375591 -0.32126c-2.3504,-3.88819 -4.50473,-7.90985 -6.44646,-12.0508l-1.40079 0.812599 -3.59174 -11.5406 0.442914 -0.248032c-1.54134,-4.26142 -2.86654,-8.6256 -3.96378,-13.0795l-1.5626 0.53504 -1.27913 -12.0177 0.530315 -0.172441c-0.0814961,-0.533859 -0.158268,-1.0689 -0.232677,-1.60394 -1.68071,0.698032 -3.45,1.07008 -5.27599,1.07008l-16.8484 0 0 7.0252c0,11.0669 -8.97284,20.0398 -20.041,20.0398l-132.304 0c-11.0669,0 -20.041,-8.97284 -20.041,-20.0398l0 -7.0252 -30.0662 -0.00236221 -3.4004 11.5984 -0.529134 -0.0401575c-1.0748,4.45748 -2.37756,8.82638 -3.89646,13.0937l1.57677 0.413386 -5.58898 10.7161 -0.480709 -0.133465c-1.92166,4.1504 -4.05473,8.18268 -6.38504,12.0839l1.45394 0.7063 -7.56615 9.42639 -0.43937 -0.222047c-2.68701,3.68859 -5.56182,7.2319 -8.61142,10.6134l1.28268 0.970867 -9.25276 7.77638 -0.375591 -0.292914c-3.3437,3.09331 -6.8504,6.01536 -10.5036,8.74961l1.05 1.17992 -10.5886 5.82993 -0.287008 -0.33189c-3.87284,2.38347 -7.88032,4.56969 -12.0071,6.54567l0.780709 1.32756 -11.5193 3.66142 -0.200788 -0.35315c-4.25433,1.57677 -8.61379,2.93858 -13.0642,4.07126l0.504331 1.44331 -12.0106 1.35236 -0.131102 -0.393307c-4.46457,0.709843 -9.00355,1.1941 -13.6063,1.43976l0.217323 1.53543 -12.0449 -1.00748 -0.0543308 -0.427559c-5.14607,-0.185433 -10.2154,-0.669686 -15.1925,-1.43504l-0.102756 1.53425 -11.5784 -3.47008 0.0330709 -0.403937c-4.4563,-1.11024 -8.82284,-2.44843 -13.0854,-4.00276l-0.396851 1.47638 -10.6831 -5.65394 0.114567 -0.401575c-4.13977,-1.95591 -8.16024,-4.12205 -12.0473,-6.48544l-0.689764 1.39843 -9.38032 -7.62284 0.207874 -0.4063c-3.66969,-2.71654 -7.19174,-5.62087 -10.552,-8.69883l-0.972048 1.26732 -7.71969 -9.30001 0.301181 -0.381496c-3.06733,-3.36733 -5.96103,-6.89528 -8.66575,-10.5709l-1.21181 1.06536 -5.76615 -10.6228 0.375591 -0.32126c-2.3504,-3.88819 -4.50355,-7.90985 -6.44646,-12.0508l-1.40079 0.812599 -3.59174 -11.5406 0.442914 -0.248032c-1.54134,-4.26142 -2.86654,-8.6256 -3.96378,-13.0795l-1.56142 0.53504 -1.28032 -12.0177 0.530315 -0.172441c-0.0271654,-0.178347 -0.0531496,-0.355512 -0.080315,-0.533859l-16.9382 -0.00236221 -3.39922 11.5984 -0.530315 -0.0401575c-1.0748,4.45748 -2.37756,8.82638 -3.89646,13.0937l1.57677 0.413386 -5.5878 10.7161 -0.480709 -0.133465c-1.92166,4.1504 -4.05473,8.18268 -6.38623,12.0839l1.45394 0.7063 -7.56497 9.42639 -0.440552 -0.222047c-2.68583,3.68859 -5.56182,7.2319 -8.61142,10.6134l1.28268 0.970867 -9.25276 7.77638 -0.375591 -0.292914c-3.3437,3.09449 -6.84922,6.01536 -10.5036,8.74961l1.05 1.17992 -10.5874 5.82993 -0.287008 -0.33189c-3.87284,2.38347 -7.88032,4.56969 -12.0083,6.54567l0.780709 1.32756 -11.5181 3.66142 -0.200788 -0.35315c-4.25433,1.57677 -8.61379,2.93858 -13.0642,4.07126l0.504331 1.44331 -12.0106 1.35236 -0.131102 -0.394488c-4.46457,0.711024 -9.00355,1.19528 -13.6063,1.44095l0.217323 1.53543 -12.0461 -1.00748 -0.0543308 -0.427559c-5.14607,-0.185433 -10.2154,-0.669686 -15.1925,-1.43504l-0.102756 1.53425 -11.5772 -3.47008 0.0330709 -0.403937c-4.4563,-1.11024 -8.82284,-2.44843 -13.0854,-4.00276l-0.396851 1.47638 -10.6831 -5.65394 0.114567 -0.400394c-4.13977,-1.95591 -8.16024,-4.12323 -12.0484,-6.48662l-0.689764 1.39843 -9.38032 -7.62284 0.207874 -0.4063c-3.66969,-2.71654 -7.19174,-5.62087 -10.552,-8.69883l-0.970867 1.26732 -7.72087 -9.30001 0.301181 -0.381496c-3.06733,-3.36733 -5.96103,-6.89528 -8.66575,-10.5709l-1.21181 1.06536 -5.76497 -10.6228 0.375591 -0.320079c-2.35158,-3.88937 -4.50473,-7.91103 -6.44764,-12.052l-1.40079 0.812599 -3.59174 -11.5406 0.442914 -0.248032c-1.54134,-4.26142 -2.86654,-8.6256 -3.96378,-13.0795l-1.56142 0.53504 -1.28032 -12.0177 0.530315 -0.172441c-0.67441,-4.46103 -1.12323,-8.99646 -1.33465,-13.5933l-1.69606 0.229134 1.08071 -12.0378 0.602363 -0.0720473c0.200788,-4.59449 0.637796,-9.12638 1.30158,-13.5862l-1.72559 -0.105118 3.39922 -11.5996 0.609449 0.046063c1.08543,-4.4504 2.39764,-8.81103 3.92599,-13.0689l-1.68543 -0.442914 5.58898 -10.7173 0.617717 0.17126c1.92874,-4.1374 4.06772,-8.1567 6.40276,-12.0449l-1.60866 -0.78189 7.56497 -9.42639 0.618898 0.311811c2.68819,-3.67323 5.563,-7.20001 8.61261,-10.5673l-1.46221 -1.10669 9.25276 -7.77757 0.571654 0.446457c3.34016,-3.07677 6.83977,-5.98229 10.4858,-8.70119l-1.22835 -1.38071 10.5874 -5.82993 0.475985 0.550394c3.86221,-2.36811 7.85788,-4.54016 11.9728,-6.50434l-0.934253 -1.58858 11.5181 -3.66142 0.359055 0.630709c4.2378,-1.56496 8.58072,-2.91614 13.0134,-4.04055l-0.611811 -1.7504 12.0118 -1.35236 0.236221 0.711024c1.69488,-0.26811 3.39922,-0.50315 5.11418,-0.7063l0 -4.26733c0,-1.95709 0.33189,-3.87048 0.964961,-5.7189l-96.7453 0c-11.5347,0 -20.8878,-9.35316 -20.8878,-20.8878l0 -243.521c0,-4.52244 1.43858,-8.70946 3.88229,-12.1287l40.9122 -68.3504 -0.0531496 -0.0389764c3.90945,-6.5315 10.8248,-10.1539 17.9209,-10.1622l0 -10.4906c0,-11.5358 9.35316,-20.8878 20.8878,-20.8878 11.5358,0 20.8878,9.35198 20.8878,20.8878l0 10.4917z"/>
   </g>
  </g>
  <path class="fil2" d="M1024 0c565.539,0 1024,458.461 1024,1024 0,565.539 -458.461,1024 -1024,1024 -565.539,0 -1024,-458.461 -1024,-1024 0,-565.539 458.461,-1024 1024,-1024z"/>
  <path class="fil3" d="M1223.27 1184.33c11.0681,0 20.041,13.6819 20.041,30.5587 0,16.8768 -8.97284,30.5599 -20.041,30.5599l-595.936 0c-11.0669,0 -20.041,-13.6831 -20.041,-30.5599 0,-16.8768 8.97402,-30.5587 20.041,-30.5587l595.936 0z"/>
  <path class="fil4" d="M878.724 1064.03l-251.225 0c-25.7575,0 -46.8331,12.7536 -46.8331,28.3394l0 46.0004 298.058 0 298.057 0 0 -46.0004c0,-15.587 -21.0756,-28.3394 -46.8319,-28.3394l-251.225 0z"/>
  <path class="fil5" d="M1546.17 1056.65l-288.274 0 -26.178 78.2764 -624.169 0 0 80.1627 862.923 0c12.6177,-61.5296 51.515,-100.684 75.6981,-158.439z"/>
  <path class="fil6" d="M1398.1 739.717l-146.437 0c-11.0681,0 -20.041,8.97284 -20.041,20.041l0 373.207c0,1.16811 0.100394,2.31378 0.292914,3.42756 4.94646,-6.93071 10.4917,-13.4929 16.6087,-19.6099 29.0811,-29.0811 68.2134,-45.2953 109.349,-45.2953 41.1343,0 80.2654,16.2142 109.348,45.2953 10.8213,10.8213 19.8591,23.0351 26.9445,36.2233l29.6315 0c8.88898,0 16.9595,-3.62362 22.7977,-9.46064 5.83701,-5.83819 9.46064,-13.9075 9.46064,-22.7977l0 -140.231c0,-12.4571 -5.06103,-25.3229 -12.7595,-36.1701 -7.76457,-10.9406 -18.6189,-20.2902 -29.7638,-25.1894l-1.42677 -0.627166 -15.8114 -83.9056c-4.94646,-26.2547 -16.4138,-50.6386 -33.8079,-68.0315 -16.5827,-16.5827 -38.1981,-26.876 -64.3855,-26.876zm-69.6378 207.893l-38.9162 0c-3.38622,0 -6.15473,2.76969 -6.15473,6.15591l0 6.15709 51.2268 0 0 -6.15709c0,-3.38622 -2.76969,-6.15591 -6.15591,-6.15591zm141.504 -36.7925l-198.262 0 0 -131.019 126.396 0c14.6008,0 26.7107,5.79685 36.0461,15.1335 11.589,11.5878 19.3512,28.4847 22.8496,47.0504l12.9709 68.8347z"/>
  <path class="fil7" d="M1571.87 1095.44c11.0681,0 12.1335,13.363 12.1335,29.3776 0,16.0146 -1.06536,28.6181 -12.1335,28.6181l-54.2115 0c-11.0681,0 -20.041,-12.9827 -20.041,-28.9973 0,-16.0146 8.97284,-28.9984 20.041,-28.9984l54.2115 0z"/>
  <polygon class="fil8" points="1135.79,1145.12 1179.06,1145.12 1179.06,1159.38 1135.79,1159.38 "/>
  <path class="fil9" d="M1291.22 969.298l35.5618 0c3.09449,0 5.62559,-2.76969 5.62559,-6.15591l0 -6.15591 -46.813 0 0 6.15591c0,3.38622 2.5311,6.15591 5.62559,6.15591z"/>
  <path class="fil10" d="M1288.56 947.298l40.8898 0c3.55748,0 6.46772,2.91024 6.46772,6.46772l0 6.4689 -53.8252 0 0 -6.4689c0,-3.55748 2.91024,-6.46772 6.46772,-6.46772z"/>
  <path class="fil11" d="M1471.61 911.901l-201.543 0 0 -133.187 128.488 0c14.8429,0 27.1524,5.89252 36.6437,15.3839 11.7803,11.7803 19.6713,28.9559 23.2264,47.8288l13.1858 69.9745z"/>
  <path class="fil12" d="M1471.61 915.549l-201.543 0c-2.01378,0 -3.64607,-1.63347 -3.64607,-3.64725l0 -133.187c0,-2.0126 1.63228,-3.64607 3.64607,-3.64607l128.488 0c7.69253,0 14.7638,1.48583 21.1725,4.1752 6.80197,2.85473 12.8315,7.05945 18.0484,12.2764 6.05788,6.05906 11.1354,13.474 15.1689,21.7819 4.14331,8.53229 7.18347,18.0213 9.05552,27.9555l13.1847 69.9709 0.00826772 -0.0011811c0.372048,1.97717 -0.929528,3.88583 -2.90788,4.25788 -0.226772,0.0413386 -0.452363,0.0625985 -0.67441,0.0637796zm-197.897 -7.29331l193.508 0 -12.3721 -65.6599c-1.75158,-9.30119 -4.59095,-18.1701 -8.4567,-26.1319 -3.67087,-7.55906 -8.27953,-14.2949 -13.7728,-19.7882 -4.56496,-4.56496 -9.81615,-8.23347 -15.7134,-10.7091 -5.53229,-2.32205 -11.661,-3.60473 -18.352,-3.60473l-124.841 0 0 125.894z"/>
  <path class="fil13" d="M1186.38 1153.12l-132.304 0c-11.0669,0 -20.041,8.97284 -20.041,20.041l0 79.317c0,11.0669 8.97402,20.041 20.041,20.041l132.304 0c11.0681,0 20.041,-8.97402 20.041,-20.041l0 -79.317c0,-11.0681 -8.97284,-20.041 -20.041,-20.041z"/>
  <path class="fil14" d="M1357.87 1356.87c72.1111,0 130.569,-58.4563 130.569,-130.567 0,-72.1111 -58.4575,-130.569 -130.569,-130.569 -72.1099,0 -130.567,58.4575 -130.567,130.569 0,72.1111 58.4575,130.567 130.567,130.567zm0.0011811 -65.9729c35.674,0 64.5934,-28.9205 64.5934,-64.5945 0,-35.6752 -28.9193,-64.5945 -64.5934,-64.5945 -35.6752,0 -64.5957,28.9193 -64.5957,64.5945 0,35.674 28.9205,64.5945 64.5957,64.5945z"/>
  <path class="fil9" d="M1357.87 1356.87c72.1111,0 130.569,-58.4563 130.569,-130.567 0,-72.1111 -58.4575,-130.569 -130.569,-130.569 -72.1111,0 -130.567,58.4575 -130.567,130.569 0,72.1111 58.4563,130.567 130.567,130.567zm0.0011811 -24.9189c58.3489,0 105.649,-47.2996 105.649,-105.649 0,-58.35 -47.2996,-105.65 -105.649,-105.65 -58.35,0 -105.65,47.2996 -105.65,105.65 0,58.3489 47.2996,105.649 105.65,105.649z"/>
  <path class="fil15" d="M1357.87 1290.89c35.674,0 64.5934,-28.9205 64.5934,-64.5945 0,-35.6752 -28.9193,-64.5945 -64.5934,-64.5945 -35.6752,0 -64.5957,28.9193 -64.5957,64.5945 0,35.674 28.9205,64.5945 64.5957,64.5945z"/>
  <path class="fil16" d="M1357.87 1298.79c20.0126,0 38.1366,-8.11536 51.2528,-21.2327 13.1173,-13.1173 21.2327,-31.2402 21.2327,-51.254 0,-20.0138 -8.11536,-38.1366 -21.2327,-51.254 -13.1162,-13.1173 -31.2402,-21.2315 -51.2528,-21.2315 -20.015,0 -38.1366,8.11418 -51.2552,21.2315 -13.1173,13.1173 -21.2315,31.2402 -21.2315,51.254 0,20.0138 8.11418,38.1366 21.2315,51.254 13.1185,13.1173 31.2402,21.2327 51.2552,21.2327zm40.0961 -32.3894c-10.2614,10.2591 -24.4382,16.6063 -40.0961,16.6063 -15.6591,0 -29.837,-6.34725 -40.0973,-16.6063 -10.2602,-10.2626 -16.6075,-24.4382 -16.6075,-40.0973 0,-15.6591 6.34725,-29.8358 16.6075,-40.0961 10.2602,-10.2602 24.4382,-16.6075 40.0973,-16.6075 15.6579,0 29.8347,6.34607 40.0961,16.6075 10.2591,10.2602 16.6063,24.437 16.6063,40.0961 0,15.6591 -6.34607,29.8347 -16.6063,40.0973z"/>
  <path class="fil4" d="M1357.87 1246.5c11.1532,0 20.1945,-9.04253 20.1945,-20.1957 0,-11.1543 -9.04135,-20.1957 -20.1945,-20.1957 -11.1543,0 -20.1969,9.04135 -20.1969,20.1957 0,11.1532 9.04253,20.1957 20.1969,20.1957z"/>
  <polygon class="fil14" points="1362.63,1095.06 1350.58,1094.05 1353.56,1115.05 1365.16,1115.05 "/>
  <polygon class="fil14" points="1353.12,1357.21 1365.16,1358.21 1362.19,1337.21 1350.58,1337.21 "/>
  <polygon class="fil14" points="1337.06,1096.63 1325.05,1097.98 1332.05,1118.01 1343.43,1115.75 "/>
  <polygon class="fil14" points="1378.68,1355.63 1390.69,1354.28 1383.7,1334.26 1372.31,1336.51 "/>
  <polygon class="fil14" points="1312.29,1103.14 1300.77,1106.8 1311.53,1125.09 1322.26,1120.66 "/>
  <polygon class="fil14" points="1403.45,1349.12 1414.97,1345.46 1404.22,1327.18 1393.49,1331.6 "/>
  <polygon class="fil14" points="1289.26,1114.35 1278.67,1120.18 1292.77,1136.02 1302.44,1129.6 "/>
  <polygon class="fil14" points="1426.49,1337.92 1437.07,1332.09 1422.97,1316.24 1413.31,1322.67 "/>
  <polygon class="fil14" points="1268.84,1129.81 1259.59,1137.59 1276.5,1150.39 1284.73,1142.21 "/>
  <polygon class="fil14" points="1446.9,1322.45 1456.16,1314.67 1439.24,1301.87 1431.01,1310.05 "/>
  <polygon class="fil14" points="1251.82,1148.95 1244.26,1158.38 1263.34,1167.65 1269.82,1158.02 "/>
  <polygon class="fil14" points="1463.92,1303.31 1471.49,1293.88 1452.41,1284.61 1445.93,1294.24 "/>
  <polygon class="fil14" points="1238.84,1171.03 1233.25,1181.75 1253.77,1187.14 1258.26,1176.44 "/>
  <polygon class="fil14" points="1476.9,1281.23 1482.49,1270.51 1461.97,1265.13 1457.48,1275.83 "/>
  <polygon class="fil14" points="1230.41,1195.22 1227.01,1206.82 1248.18,1208.11 1250.5,1196.74 "/>
  <polygon class="fil14" points="1485.34,1257.04 1488.74,1245.45 1467.57,1244.15 1465.24,1255.52 "/>
  <polygon class="fil14" points="1226.83,1220.58 1225.75,1232.62 1246.77,1229.77 1246.84,1218.17 "/>
  <polygon class="fil14" points="1488.92,1231.68 1490,1219.64 1468.98,1222.49 1468.91,1234.09 "/>
  <polygon class="fil14" points="1228.25,1246.15 1229.53,1258.17 1249.59,1251.3 1247.41,1239.9 "/>
  <polygon class="fil14" points="1487.5,1206.11 1486.22,1194.09 1466.15,1200.96 1468.34,1212.36 "/>
  <polygon class="fil14" points="1234.61,1270.97 1238.2,1282.51 1256.55,1271.86 1252.19,1261.11 "/>
  <polygon class="fil14" points="1481.13,1181.3 1477.54,1169.76 1459.2,1180.4 1463.55,1191.15 "/>
  <polygon class="fil14" points="1245.67,1294.07 1251.44,1304.69 1267.37,1290.68 1261,1280.98 "/>
  <polygon class="fil14" points="1470.07,1158.2 1464.3,1147.57 1448.38,1161.58 1454.74,1171.28 "/>
  <polygon class="fil14" points="1261.02,1314.58 1268.74,1323.88 1281.64,1307.04 1273.51,1298.76 "/>
  <polygon class="fil14" points="1454.73,1137.69 1447.01,1128.39 1434.11,1145.22 1442.24,1153.5 "/>
  <polygon class="fil14" points="1280.05,1331.71 1289.43,1339.33 1298.82,1320.31 1289.23,1313.77 "/>
  <polygon class="fil14" points="1435.69,1120.55 1426.31,1112.93 1416.93,1131.95 1426.51,1138.49 "/>
  <polygon class="fil14" points="1302.06,1344.82 1312.74,1350.48 1318.25,1329.99 1307.57,1325.44 "/>
  <polygon class="fil14" points="1413.69,1107.44 1403.01,1101.79 1397.5,1122.27 1408.17,1126.82 "/>
  <polygon class="fil14" points="1326.19,1353.41 1337.77,1356.88 1339.19,1335.71 1327.83,1333.32 "/>
  <polygon class="fil14" points="1389.56,1098.85 1377.98,1095.38 1376.56,1116.55 1387.91,1118.94 "/>
  <path class="fil3" d="M894.901 1200.41c16.2957,0 29.5075,13.6831 29.5075,30.5599 0,16.8768 -13.2118,30.5587 -29.5075,30.5587l-59.015 0c-16.2969,0 -29.5087,-13.6819 -29.5087,-30.5587 0,-16.8768 13.2118,-30.5599 29.5087,-30.5599l59.015 0z"/>
  <path class="fil14" d="M873.102 1356.87c72.1123,0 130.569,-58.4563 130.569,-130.567 0,-72.1111 -58.4563,-130.569 -130.569,-130.569 -72.1099,0 -130.567,58.4575 -130.567,130.569 0,72.1111 58.4575,130.567 130.567,130.567zm0.0011811 -65.9729c35.674,0 64.5934,-28.9205 64.5934,-64.5945 0,-35.6752 -28.9193,-64.5945 -64.5934,-64.5945 -35.6752,0 -64.5957,28.9193 -64.5957,64.5945 0,35.674 28.9205,64.5945 64.5957,64.5945z"/>
  <path class="fil9" d="M873.102 1356.87c72.1123,0 130.569,-58.4563 130.569,-130.567 0,-72.1111 -58.4563,-130.569 -130.569,-130.569 -72.1111,0 -130.567,58.4575 -130.567,130.569 0,72.1111 58.4563,130.567 130.567,130.567zm0.0011811 -24.9189c58.3489,0 105.65,-47.2996 105.65,-105.649 0,-58.35 -47.3008,-105.65 -105.65,-105.65 -58.35,0 -105.65,47.2996 -105.65,105.65 0,58.3489 47.2996,105.649 105.65,105.649z"/>
  <path class="fil15" d="M873.103 1290.89c35.674,0 64.5934,-28.9205 64.5934,-64.5945 0,-35.6752 -28.9193,-64.5945 -64.5934,-64.5945 -35.6752,0 -64.5957,28.9193 -64.5957,64.5945 0,35.674 28.9205,64.5945 64.5957,64.5945z"/>
  <path class="fil16" d="M873.103 1298.79c20.0126,0 38.1366,-8.11536 51.2528,-21.2327 13.1173,-13.1173 21.2327,-31.2402 21.2327,-51.254 0,-20.0138 -8.11536,-38.1366 -21.2327,-51.254 -13.1162,-13.1173 -31.2402,-21.2315 -51.2528,-21.2315 -20.015,0 -38.1366,8.11418 -51.2552,21.2315 -13.1162,13.1173 -21.2315,31.2402 -21.2315,51.254 0,20.0138 8.11536,38.1366 21.2315,51.254 13.1185,13.1173 31.2402,21.2327 51.2552,21.2327zm40.0961 -32.3894c-10.2614,10.2591 -24.437,16.6063 -40.0961,16.6063 -15.6591,0 -29.837,-6.34725 -40.0973,-16.6063 -10.2602,-10.2626 -16.6075,-24.4382 -16.6075,-40.0973 0,-15.6591 6.34843,-29.8358 16.6075,-40.0961 10.2602,-10.2602 24.4382,-16.6075 40.0973,-16.6075 15.6591,0 29.8347,6.34607 40.0961,16.6075 10.2591,10.2602 16.6063,24.437 16.6063,40.0961 0,15.6591 -6.34607,29.8347 -16.6063,40.0973z"/>
  <path class="fil4" d="M873.103 1246.5c11.1532,0 20.1945,-9.04253 20.1945,-20.1957 0,-11.1543 -9.04135,-20.1957 -20.1945,-20.1957 -11.1543,0 -20.1969,9.04135 -20.1969,20.1957 0,11.1532 9.04253,20.1957 20.1969,20.1957z"/>
  <polygon class="fil14" points="877.86,1095.06 865.815,1094.05 868.786,1115.05 880.391,1115.05 "/>
  <polygon class="fil14" points="868.346,1357.21 880.391,1358.21 877.419,1337.21 865.815,1337.21 "/>
  <polygon class="fil14" points="852.295,1096.63 840.284,1097.98 847.281,1118.01 858.663,1115.75 "/>
  <polygon class="fil14" points="893.911,1355.63 905.922,1354.28 898.926,1334.26 887.542,1336.51 "/>
  <polygon class="fil14" points="827.523,1103.14 816.004,1106.8 826.759,1125.09 837.487,1120.66 "/>
  <polygon class="fil14" points="918.682,1349.12 930.202,1345.46 919.446,1327.18 908.72,1331.6 "/>
  <polygon class="fil14" points="804.491,1114.35 793.902,1120.18 808.005,1136.02 817.668,1129.6 "/>
  <polygon class="fil14" points="941.716,1337.92 952.303,1332.09 938.201,1316.24 928.537,1322.67 "/>
  <polygon class="fil14" points="784.073,1129.81 774.82,1137.59 791.734,1150.39 799.964,1142.21 "/>
  <polygon class="fil14" points="962.133,1322.45 971.385,1314.67 954.472,1301.87 946.242,1310.05 "/>
  <polygon class="fil14" points="767.052,1148.95 759.487,1158.38 778.566,1167.65 785.049,1158.02 "/>
  <polygon class="fil14" points="979.154,1303.31 986.72,1293.88 967.641,1284.61 961.157,1294.24 "/>
  <polygon class="fil14" points="754.074,1171.03 748.485,1181.75 769.002,1187.14 773.492,1176.44 "/>
  <polygon class="fil14" points="992.131,1281.23 997.72,1270.51 977.205,1265.13 972.715,1275.83 "/>
  <polygon class="fil14" points="745.636,1195.22 742.236,1206.82 763.408,1208.11 765.733,1196.74 "/>
  <polygon class="fil14" points="1000.57,1257.04 1003.97,1245.45 982.797,1244.15 980.474,1255.52 "/>
  <polygon class="fil14" points="742.059,1220.58 740.978,1232.62 761.998,1229.77 762.068,1218.17 "/>
  <polygon class="fil14" points="1004.15,1231.68 1005.23,1219.64 984.209,1222.49 984.138,1234.09 "/>
  <polygon class="fil14" points="743.479,1246.15 744.758,1258.17 764.825,1251.3 762.638,1239.9 "/>
  <polygon class="fil14" points="1002.73,1206.11 1001.45,1194.09 981.381,1200.96 983.567,1212.36 "/>
  <polygon class="fil14" points="749.841,1270.97 753.433,1282.51 771.78,1271.86 767.421,1261.11 "/>
  <polygon class="fil14" points="996.365,1181.3 992.773,1169.76 974.426,1180.4 978.785,1191.15 "/>
  <polygon class="fil14" points="760.905,1294.07 766.671,1304.69 782.599,1290.68 776.233,1280.98 "/>
  <polygon class="fil14" points="985.301,1158.2 979.535,1147.57 963.607,1161.58 969.973,1171.28 "/>
  <polygon class="fil14" points="776.247,1314.58 783.967,1323.88 796.87,1307.04 788.74,1298.76 "/>
  <polygon class="fil14" points="969.959,1137.69 962.239,1128.39 949.335,1145.22 957.466,1153.5 "/>
  <polygon class="fil14" points="795.283,1331.71 804.663,1339.33 814.048,1320.31 804.464,1313.77 "/>
  <polygon class="fil14" points="950.923,1120.55 941.542,1112.93 932.157,1131.95 941.742,1138.49 "/>
  <polygon class="fil14" points="817.286,1344.82 827.969,1350.48 833.479,1329.99 822.805,1325.44 "/>
  <polygon class="fil14" points="928.92,1107.44 918.237,1101.79 912.727,1122.27 923.401,1126.82 "/>
  <polygon class="fil14" points="841.418,1353.41 852.996,1356.88 854.42,1335.71 843.064,1333.32 "/>
  <polygon class="fil14" points="904.788,1098.85 893.211,1095.38 891.786,1116.55 903.141,1118.94 "/>
  <path class="fil14" d="M596.123 1356.87c72.1123,0 130.569,-58.4563 130.569,-130.567 0,-72.1111 -58.4563,-130.569 -130.569,-130.569 -72.1099,0 -130.567,58.4575 -130.567,130.569 0,72.1111 58.4575,130.567 130.567,130.567zm0.0011811 -65.9729c35.674,0 64.5945,-28.9205 64.5945,-64.5945 0,-35.6752 -28.9205,-64.5945 -64.5945,-64.5945 -35.674,0 -64.5945,28.9193 -64.5945,64.5945 0,35.674 28.9205,64.5945 64.5945,64.5945z"/>
  <path class="fil9" d="M596.123 1356.87c72.1123,0 130.569,-58.4563 130.569,-130.567 0,-72.1111 -58.4563,-130.569 -130.569,-130.569 -72.1111,0 -130.567,58.4575 -130.567,130.569 0,72.1111 58.4563,130.567 130.567,130.567zm0.0011811 -24.9189c58.3489,0 105.65,-47.2996 105.65,-105.649 0,-58.35 -47.3008,-105.65 -105.65,-105.65 -58.3489,0 -105.65,47.2996 -105.65,105.65 0,58.3489 47.3008,105.649 105.65,105.649z"/>
  <path class="fil15" d="M596.124 1290.89c35.674,0 64.5945,-28.9205 64.5945,-64.5945 0,-35.6752 -28.9205,-64.5945 -64.5945,-64.5945 -35.674,0 -64.5945,28.9193 -64.5945,64.5945 0,35.674 28.9205,64.5945 64.5945,64.5945z"/>
  <path class="fil16" d="M596.124 1298.79c20.0138,0 38.1366,-8.11536 51.254,-21.2327 13.1162,-13.1173 21.2315,-31.2402 21.2315,-51.254 0,-20.0138 -8.11536,-38.1366 -21.2315,-51.254 -13.1173,-13.1173 -31.2402,-21.2315 -51.254,-21.2315 -20.015,0 -38.1366,8.11418 -51.254,21.2315 -13.1173,13.1173 -21.2315,31.2402 -21.2315,51.254 0,20.0138 8.11418,38.1366 21.2315,51.254 13.1173,13.1173 31.239,21.2327 51.254,21.2327zm40.0961 -32.3894c-10.2614,10.2591 -24.437,16.6063 -40.0961,16.6063 -15.6591,0 -29.837,-6.34725 -40.0961,-16.6063 -10.2614,-10.2626 -16.6075,-24.4382 -16.6075,-40.0973 0,-15.6591 6.34725,-29.8358 16.6075,-40.0961 10.2591,-10.2602 24.437,-16.6075 40.0961,-16.6075 15.6591,0 29.8347,6.34607 40.0961,16.6075 10.2591,10.2602 16.6075,24.437 16.6075,40.0961 0,15.6591 -6.34725,29.8347 -16.6075,40.0973z"/>
  <path class="fil4" d="M596.124 1246.5c11.1532,0 20.1957,-9.04253 20.1957,-20.1957 0,-11.1543 -9.04253,-20.1957 -20.1957,-20.1957 -11.1543,0 -20.1957,9.04135 -20.1957,20.1957 0,11.1532 9.04135,20.1957 20.1957,20.1957z"/>
  <polygon class="fil14" points="600.882,1095.06 588.837,1094.05 591.807,1115.05 603.411,1115.05 "/>
  <polygon class="fil14" points="591.367,1357.21 603.411,1358.21 600.441,1337.21 588.837,1337.21 "/>
  <polygon class="fil14" points="575.317,1096.63 563.306,1097.98 570.302,1118.01 581.685,1115.75 "/>
  <polygon class="fil14" points="616.932,1355.63 628.943,1354.28 621.947,1334.26 610.564,1336.51 "/>
  <polygon class="fil14" points="550.545,1103.14 539.026,1106.8 549.78,1125.09 560.508,1120.66 "/>
  <polygon class="fil14" points="641.704,1349.12 653.222,1345.46 642.468,1327.18 631.74,1331.6 "/>
  <polygon class="fil14" points="527.511,1114.35 516.924,1120.18 531.026,1136.02 540.689,1129.6 "/>
  <polygon class="fil14" points="664.737,1337.92 675.324,1332.09 661.222,1316.24 651.559,1322.67 "/>
  <polygon class="fil14" points="507.095,1129.81 497.842,1137.59 514.754,1150.39 522.985,1142.21 "/>
  <polygon class="fil14" points="685.153,1322.45 694.406,1314.67 677.494,1301.87 669.263,1310.05 "/>
  <polygon class="fil14" points="490.073,1148.95 482.508,1158.38 501.586,1167.65 508.069,1158.02 "/>
  <polygon class="fil14" points="702.175,1303.31 709.74,1293.88 690.662,1284.61 684.179,1294.24 "/>
  <polygon class="fil14" points="477.096,1171.03 471.507,1181.75 492.023,1187.14 496.512,1176.44 "/>
  <polygon class="fil14" points="715.152,1281.23 720.741,1270.51 700.225,1265.13 695.736,1275.83 "/>
  <polygon class="fil14" points="468.657,1195.22 465.258,1206.82 486.429,1208.11 488.754,1196.74 "/>
  <polygon class="fil14" points="723.591,1257.04 726.99,1245.45 705.819,1244.15 703.495,1255.52 "/>
  <polygon class="fil14" points="465.079,1220.58 463.999,1232.62 485.019,1229.77 485.09,1218.17 "/>
  <polygon class="fil14" points="727.169,1231.68 728.249,1219.64 707.229,1222.49 707.16,1234.09 "/>
  <polygon class="fil14" points="466.499,1246.15 467.779,1258.17 487.845,1251.3 485.659,1239.9 "/>
  <polygon class="fil14" points="725.749,1206.11 724.469,1194.09 704.403,1200.96 706.589,1212.36 "/>
  <polygon class="fil14" points="472.863,1270.97 476.454,1282.51 494.801,1271.86 490.441,1261.11 "/>
  <polygon class="fil14" points="719.385,1181.3 715.795,1169.76 697.447,1180.4 701.807,1191.15 "/>
  <polygon class="fil14" points="483.926,1294.07 489.691,1304.69 505.621,1290.68 499.255,1280.98 "/>
  <polygon class="fil14" points="708.322,1158.2 702.557,1147.57 686.627,1161.58 692.993,1171.28 "/>
  <polygon class="fil14" points="499.268,1314.58 506.989,1323.88 519.892,1307.04 511.761,1298.76 "/>
  <polygon class="fil14" points="692.98,1137.69 685.26,1128.39 672.357,1145.22 680.487,1153.5 "/>
  <polygon class="fil14" points="518.304,1331.71 527.684,1339.33 537.07,1320.31 527.485,1313.77 "/>
  <polygon class="fil14" points="673.945,1120.55 664.564,1112.93 655.179,1131.95 664.763,1138.49 "/>
  <polygon class="fil14" points="540.308,1344.82 550.991,1350.48 556.499,1329.99 545.827,1325.44 "/>
  <polygon class="fil14" points="651.941,1107.44 641.259,1101.79 635.749,1122.27 646.421,1126.82 "/>
  <polygon class="fil14" points="564.439,1353.41 576.017,1356.88 577.44,1335.71 566.086,1333.32 "/>
  <polygon class="fil14" points="627.81,1098.85 616.231,1095.38 614.808,1116.55 626.162,1118.94 "/>
  <path class="fil17" d="M568.438 721.069c0,-11.5358 -9.35316,-20.8878 -20.889,-20.8878 -11.5347,0 -20.8878,9.35198 -20.8878,20.8878l0 23.648c0,11.5358 9.35316,20.8878 20.8878,20.8878 11.5358,0 20.889,-9.35198 20.889,-20.8878l0 -23.648z"/>
  <path class="fil18" d="M1103.3 689.787l0.0448819 0 91.7339 0c11.5347,0 20.8878,9.35198 20.8878,20.8878l0 355.087c0,11.5358 -9.35316,20.8878 -20.8878,20.8878l-710.19 0c-11.5358,0 -20.8878,-9.35198 -20.8878,-20.8878l0 -243.521c0,-4.52244 1.43858,-8.70946 3.88229,-12.1287l40.9122 -68.3504 -0.0531496 -0.0389764c3.9567,-6.61182 10.9937,-10.2437 18.1807,-10.161l534.707 0 25.0252 -33.3697 -0.0649607 -0.0484252c4.10079,-5.46733 10.3654,-8.35158 16.7102,-8.35631z"/>
  <polygon class="fil19" points="740.018,815.112 740.018,1003.1 698.242,1003.1 698.242,815.112 "/>
  <polygon class="fil19" points="820.586,815.112 820.586,1003.1 778.81,1003.1 778.81,815.112 "/>
  <polygon class="fil19" points="901.153,815.112 901.153,1003.1 859.377,1003.1 859.377,815.112 "/>
  <polygon class="fil19" points="981.72,815.112 981.72,1003.1 939.944,1003.1 939.944,815.112 "/>
  <polygon class="fil19" points="1062.29,815.112 1062.29,1003.1 1020.51,1003.1 1020.51,815.112 "/>
  <polygon class="fil19" points="1142.86,815.112 1142.86,1003.1 1101.08,1003.1 1101.08,815.112 "/>
  <polygon class="fil19" points="578.882,815.112 578.882,1003.1 537.107,1003.1 537.107,815.112 "/>
  <polygon class="fil19" points="659.45,815.112 659.45,1003.1 617.674,1003.1 617.674,815.112 "/>
 </g>
</svg>
