<svg xmlns="http://www.w3.org/2000/svg" xmlns:xlink="http://www.w3.org/1999/xlink" viewBox="0 0 100.15 100.15"><defs><style>.cls-1{fill:url(#New_Gradient_Swatch_2);}.cls-2{fill:#187e89;opacity:0.81;}.cls-2,.cls-3,.cls-4,.cls-5,.cls-6,.cls-7,.cls-9{fill-rule:evenodd;}.cls-3{fill:#eea74e;}.cls-4{fill:#f5c268;}.cls-5{fill:#ee6d58;}.cls-6{fill:#f2eed1;}.cls-7{fill:#9b2c2c;}.cls-8,.cls-9{fill:#3e2f3c;}</style><linearGradient id="New_Gradient_Swatch_2" x1="20.12" y1="20.12" x2="84.76" y2="84.76" gradientUnits="userSpaceOnUse"><stop offset="0" stop-color="#2cabae"/><stop offset="1" stop-color="#187e89"/></linearGradient></defs><title>antelope</title><g id="レイヤー_2" data-name="レイヤー 2"><g id="Animals"><circle class="cls-1" cx="50.08" cy="50.08" r="50.08"/><path class="cls-2" d="M100.15,50.08a49.94,49.94,0,0,0-.92-9.54L71.14,12.44,72,25.18,67,28.41l-16-16-.2,11.93L59,33.43l-10.4-.12L58.8,43.55l.94-.35L58.68,54.41,56,55.15,46.78,46l-8.49,5.69L28.62,42l-2.27,1.58v7.26l.55.7-.55.35,5.42,5.42.24-.38-1.85,9.45.2,8.22-1,9L45.74,100c1.43.13,2.87.2,4.34.2A50.07,50.07,0,0,0,100.15,50.08Z"/><polygon class="cls-3" points="56.21 61.19 59.1 61.19 58.62 82.73 56.64 82.73 56.21 61.19 56.21 61.19"/><polygon class="cls-4" points="51.58 61.19 54.47 61.19 53.99 82.73 52.01 82.73 51.58 61.19 51.58 61.19"/><polygon class="cls-5" points="40.47 61.83 29.12 54.45 29.12 70.59 31.61 70.59 40.47 61.83 40.47 61.83"/><polygon class="cls-3" points="43.36 62.86 34.89 62.4 37.01 72.33 38.63 72.33 43.36 62.86 43.36 62.86"/><polygon class="cls-5" points="37.71 49.43 56.31 49.43 56.31 63.52 37.71 63.52 37.71 49.43 37.71 49.43"/><path class="cls-3" d="M31.3,52.29H27.38a1.53,1.53,0,0,1-1.53-1.52V44.15h1v5.92a1.25,1.25,0,0,0,1.24,1.24H31.3v1Z"/><path class="cls-6" d="M26.35,44.52A2.41,2.41,0,0,0,28.62,42H24.09a2.41,2.41,0,0,0,2.26,2.52Z"/><path class="cls-4" d="M64.55,41.77H57L54.47,63.53h4.4s4.09-3.67,4.85-5.7c1.33-3.56.83-16.06.83-16.06Z"/><polygon class="cls-3" points="38.47 67.94 37.01 72.33 39.43 82.44 41.22 81.44 39.44 70.59 38.47 67.94"/><path class="cls-6" d="M58.82,56a2,2,0,1,0,2,2,2,2,0,0,0-2-2Z"/><path class="cls-6" d="M60.58,52.65a1.09,1.09,0,1,0,1.09,1.09,1.09,1.09,0,0,0-1.09-1.09Z"/><path class="cls-7" d="M40,43.58A10.87,10.87,0,1,1,29.12,54.45,10.87,10.87,0,0,1,40,43.58Z"/><path class="cls-4" d="M50.85,54.45A10.87,10.87,0,0,0,40,43.58V65.32A10.87,10.87,0,0,0,50.85,54.45Z"/><path class="cls-3" d="M40,47.32a7.13,7.13,0,1,1-7.13,7.13A7.13,7.13,0,0,1,40,47.32Z"/><path class="cls-5" d="M47.11,54.43v0a7.13,7.13,0,0,1-14.26,0v0Z"/><path class="cls-4" d="M41.85,45.45A1.87,1.87,0,1,1,40,43.58,1.86,1.86,0,0,1,41.85,45.45Z"/><path class="cls-7" d="M41.85,63.53A1.87,1.87,0,1,1,40,61.66,1.86,1.86,0,0,1,41.85,63.53Z"/><rect class="cls-8" x="51.99" y="81.44" width="2.05" height="2.11"/><rect class="cls-8" x="56.63" y="81.44" width="2.05" height="2.11"/><polygon class="cls-5" points="29.12 70.59 29.36 82.73 31.34 82.73 31.61 70.59 29.12 70.59"/><rect class="cls-8" x="29.33" y="81.44" width="2.05" height="2.11"/><rect class="cls-8" x="39.17" y="81.44" width="2.05" height="2.11"/><path class="cls-6" d="M39.11,54.41A2.11,2.11,0,1,1,37,52.29,2.1,2.1,0,0,1,39.11,54.41Z"/><path class="cls-6" d="M41.28,50.84a1.08,1.08,0,1,1-1.08-1.07A1.08,1.08,0,0,1,41.28,50.84Z"/><path class="cls-5" d="M61.09,33.91a5.3,5.3,0,1,0,5.3,5.3,5.31,5.31,0,0,0-5.3-5.3Z"/><path class="cls-5" d="M67,31.29c-2.8.12-5,1.08-4.85,2.15s2.51,1.84,5.31,1.72,6.64-1.74,6.64-2.34-4.3-1.65-7.1-1.53Z"/><path class="cls-7" d="M62.31,33.86c.61.84,2.72,1.41,5.14,1.3a14.86,14.86,0,0,0,6.18-1.86,7.75,7.75,0,0,0-1.19-.58,11.92,11.92,0,0,0-10.13,1.14Z"/><path class="cls-5" d="M55.19,31.29c2.81.12,5,1.08,4.85,2.15s-2.51,1.84-5.31,1.72-6.63-1.74-6.64-2.34,4.3-1.65,7.1-1.53Z"/><path class="cls-7" d="M59.87,33.86c-.61.84-2.71,1.41-5.14,1.3a15,15,0,0,1-6.18-1.85,7,7,0,0,1,1.19-.59,11.92,11.92,0,0,1,10.13,1.14Z"/><path class="cls-6" d="M51.05,12.44c0,2.54-2.88,13.45-1.53,14.43l8.42,6.07c.69.5.54-.44,1-1.13h0a1.57,1.57,0,0,0-.35-2.17l-6.87-5-.71-12.23Z"/><path class="cls-6" d="M71.14,12.44c0,2.54,2.87,13.45,1.52,14.43l-8.42,6.07c-.69.5-.53-.44-1-1.13h0a1.56,1.56,0,0,1,.34-2.17l6.87-5,.72-12.23Z"/><path class="cls-3" d="M61.09,33.91a5.3,5.3,0,0,0,0,10.6V33.91Z"/><path class="cls-4" d="M59.79,29.29h0a2.64,2.64,0,0,0-2.32,2.83,3,3,0,0,0,1.05,2.35v4.58h2.6v-8.2a1.45,1.45,0,0,0-1.3-1.56Z"/><path class="cls-3" d="M62.39,29.29h0a2.63,2.63,0,0,1,2.32,2.83,3,3,0,0,1-1,2.35v4.58h-2.6v-8.2a1.45,1.45,0,0,1,1.3-1.56Z"/><path class="cls-9" d="M59.39,38.42h3.4a1.14,1.14,0,0,1,1.13,1.13h0c0,2-1.94.17-1.94,1.62v.08a.89.89,0,0,1-.89.89h0a.89.89,0,0,1-.89-.89v-.08c0-1.45-1.93.36-1.93-1.62h0a1.13,1.13,0,0,1,1.12-1.13Z"/><path class="cls-9" d="M59.51,33.19a1,1,0,1,1-1,1,1,1,0,0,1,1-1Z"/><path class="cls-9" d="M62.67,33.19a1,1,0,1,1-1,1,1,1,0,0,1,1-1Z"/></g></g></svg>