<svg xmlns="http://www.w3.org/2000/svg" xmlns:xlink="http://www.w3.org/1999/xlink" viewBox="0 0 100.15 100.15"><defs><style>.cls-1{isolation:isolate;}.cls-2{fill:url(#New_Gradient_Swatch_5);}.cls-3{fill:#c6c29b;opacity:0.5;}.cls-4{fill:#5b4559;}.cls-15,.cls-5{fill:#3e2f3c;}.cls-13,.cls-6{fill:#9b2c2c;}.cls-7{opacity:0.2;mix-blend-mode:multiply;}.cls-14,.cls-8{fill:#ee6d58;}.cls-9{fill:#bf423c;}.cls-10{fill:#2cabae;}.cls-11{fill:#1d8a9c;}.cls-12{fill:#187e89;}.cls-13,.cls-14,.cls-15{fill-rule:evenodd;}.cls-16{fill:#725a71;}</style><linearGradient id="New_Gradient_Swatch_5" x1="14.25" y1="14.25" x2="81.33" y2="81.33" gradientTransform="translate(22.97 -15.35) rotate(22.5)" gradientUnits="userSpaceOnUse"><stop offset="0" stop-color="#f2eed1"/><stop offset="0.33" stop-color="#f0ecce"/><stop offset="0.57" stop-color="#e8e4c5"/><stop offset="0.78" stop-color="#dbd7b5"/><stop offset="0.97" stop-color="#c9c59f"/><stop offset="1" stop-color="#c6c29b"/></linearGradient></defs><title>bear</title><g class="cls-1"><g id="レイヤー_2" data-name="レイヤー 2"><g id="Animals"><circle class="cls-2" cx="50.08" cy="50.08" r="50.08" transform="translate(-15.35 22.98) rotate(-22.5)"/><path class="cls-3" d="M100.15,50.08c0-.17,0-.33,0-.5L81.93,31.37l-1.32,3.08-7.9.76L62.62,25.12l-8.9,7.36-8.36,3.07-22,26.61L27,65.59l-7.59,2.54-.77,8.59L41.3,99.37a50.74,50.74,0,0,0,8.78.78A50.07,50.07,0,0,0,100.15,50.08Z"/><path class="cls-4" d="M27.37,36.92,15.81,64.17l4.32,1.4,7.93-.27L47.72,40.82c1.19-2.13-.34-6.92-4.37-10.16s-14.54,4.79-16,6.26Z"/><path class="cls-5" d="M71.82,38.81,77.44,49.1s1.66,7.44,2,10c.22,1.73.41,7,.41,7l-3.2-.18h-6L63.54,55.29,57.85,39.53c-2.07-2.5-8.45-5.63-4.41-8.87s16.87,4.83,18.38,8.15Z"/><path class="cls-4" d="M42.74,24.73A15.82,15.82,0,0,0,26.92,40.56H58.56A15.82,15.82,0,0,0,42.74,24.73Z"/><path class="cls-5" d="M42.29,40.11H26a16.27,16.27,0,0,0,32.53,0Z"/><path class="cls-6" d="M65.26,41.21l.25-9.08a9.9,9.9,0,0,0-9.89-9.92c-6.11,0-10.19,4.16-12,10.44-1,3.57-2.83,10.76-3.78,14.36-1.24,4.66-5.12,18.63-5.12,18.63l14.47.21.76-.52a11,11,0,0,1-.22-2.24c0-2.7-.13-4.43,1.51-4.72,0,0,3-.32,3.73-.32,7.13,0,12.91-4.7,12.91-10.49a9.25,9.25,0,0,0-2.64-6.35Z"/><path class="cls-7" d="M61.68,30.56a5.81,5.81,0,0,0-4.11-1.7A5.52,5.52,0,0,0,52,34.53a5.85,5.85,0,0,0,1.76,4l1.74,1.69a12.67,12.67,0,0,0-.17,2,12.89,12.89,0,0,0,9.19,12.32,9.46,9.46,0,0,0,3.35-7,9.25,9.25,0,0,0-2.64-6.35l.25-9.08a10.06,10.06,0,0,0-.28-2.34A12.71,12.71,0,0,0,62.11,31Z"/><path class="cls-5" d="M81.93,31.37a4.44,4.44,0,0,0-6.29.08l-6.56,6.36,3.08,3.11L75.23,44l6.55-6.36a4.46,4.46,0,0,0,.15-6.3Z"/><path class="cls-8" d="M80.61,32.78a2.74,2.74,0,0,0-3.87,0l-4,3.9,1.89,1.91,1.89,1.91,4-3.9a2.75,2.75,0,0,0,.09-3.87Z"/><path class="cls-6" d="M54.51,31.37a4.46,4.46,0,0,1,6.3.08l6.55,6.36-3.08,3.11L61.21,44l-6.55-6.36a4.46,4.46,0,0,1-.15-6.3Z"/><path class="cls-5" d="M55.83,32.78a2.74,2.74,0,0,1,3.87,0l4,3.9-1.89,1.91L60,40.55l-4-3.9a2.75,2.75,0,0,1-.09-3.87Z"/><path class="cls-9" d="M68.22,42.29V53.9a11.61,11.61,0,0,0,0-23.22V42.29Z"/><path class="cls-4" d="M56.61,42.29A11.61,11.61,0,0,0,68.22,53.9V30.68A11.61,11.61,0,0,0,56.61,42.29Z"/><path class="cls-9" d="M66.68,48.75c0,1.12-.91,1.08-2,1.08h0c-1.13,0-2,0-2-1.08V44.64a2,2,0,0,1,2-2h0a2,2,0,0,1,2,2Z"/><path class="cls-8" d="M61,51.36a11.59,11.59,0,0,0,14.48,0,7.67,7.67,0,0,0-14.48,0Z"/><path class="cls-5" d="M70.55,53.65a12.56,12.56,0,0,0,1.11-3.09c0-.81-.49-1.46-1.1-1.46H65.88c-.61,0-1.1.65-1.1,1.46A12.5,12.5,0,0,0,66,53.68a11.71,11.71,0,0,0,2.23.22,11.24,11.24,0,0,0,2.33-.25Z"/><path class="cls-5" d="M63.86,44.81a.78.78,0,0,0,1.56,0,.78.78,0,0,0-1.56,0Z"/><path class="cls-5" d="M71,44.81a.78.78,0,0,0,1.56,0,.78.78,0,0,0-1.56,0Z"/><polygon class="cls-10" points="18.65 66.03 9.73 66.03 18.65 76.72 18.65 66.03 18.65 66.03"/><polygon class="cls-11" points="39.55 66.03 27.57 66.03 27.57 66.03 18.65 66.03 18.65 76.72 25.32 68.73 39.55 82.35 39.55 66.03 39.55 66.03"/><polygon class="cls-11" points="71.05 66.03 71.05 79.72 87.78 66.03 71.05 66.03 71.05 66.03"/><polygon class="cls-12" points="71.05 66.03 63.32 66.03 63.32 66.03 55.53 66.03 55.53 66.03 48.07 66.03 39.55 66.03 39.55 82.35 51.97 70.46 55.53 74.19 59.37 70.17 71.05 79.72 71.05 66.03 71.05 66.03"/><path class="cls-5" d="M22.34,61.57c-4.56,0-8.27,2-8.27,4.46H30.61c0-2.46-3.7-4.46-8.27-4.46Z"/><path class="cls-5" d="M42.44,60.87c-5.27,0-9.55,2.31-9.55,5.16H52c0-2.85-4.28-5.16-9.56-5.16Z"/><path class="cls-6" d="M74.16,61.75c-4.13,0-7.48,1.92-7.48,4.28h15c0-2.36-3.35-4.28-7.49-4.28Z"/><path class="cls-13" d="M18.39,63.43h0a1.22,1.22,0,0,1,1,1.34V66H17.35V64.77a1.22,1.22,0,0,1,1-1.34Z"/><path class="cls-13" d="M22.34,63.43h0a1.22,1.22,0,0,1,1,1.34V66H21.3V64.77a1.22,1.22,0,0,1,1-1.34Z"/><path class="cls-13" d="M26.3,63.43h0a1.22,1.22,0,0,1,1,1.34V66H25.26V64.77a1.21,1.21,0,0,1,1-1.34Z"/><path class="cls-14" d="M38.49,63.43h0a1.22,1.22,0,0,1,1,1.34V66H37.45V64.77a1.22,1.22,0,0,1,1-1.34Z"/><path class="cls-14" d="M42.45,63.43h0a1.22,1.22,0,0,1,1,1.34V66H41.41V64.77a1.21,1.21,0,0,1,1-1.34Z"/><path class="cls-14" d="M46.4,63.43h0a1.22,1.22,0,0,1,1,1.34V66H45.36V64.77a1.22,1.22,0,0,1,1-1.34Z"/><path class="cls-15" d="M70.32,63.43h0a1.22,1.22,0,0,1,1,1.34V66H69.29V64.77a1.22,1.22,0,0,1,1-1.34Z"/><path class="cls-15" d="M74.28,63.43h0a1.22,1.22,0,0,1,1,1.34V66H73.24V64.77a1.22,1.22,0,0,1,1-1.34Z"/><path class="cls-15" d="M78.23,63.43h0a1.22,1.22,0,0,1,1,1.34V66H77.19V64.77a1.22,1.22,0,0,1,1-1.34Z"/><path class="cls-8" d="M56.61,42.29a11.69,11.69,0,0,0,.67,3.89l.06.07.59-.93a4.09,4.09,0,0,0-.22-4.48l-.84-1a11.64,11.64,0,0,0-.26,2.45Z"/><path class="cls-8" d="M79.83,42.29a11.69,11.69,0,0,1-.67,3.89l-.06.07-.59-.93a4.09,4.09,0,0,1,.22-4.48l.84-1a11.64,11.64,0,0,1,.26,2.45Z"/><path class="cls-9" d="M48.11,42.47a1.35,1.35,0,1,1-1.35-1.34A1.36,1.36,0,0,1,48.11,42.47Z"/><path class="cls-9" d="M48.65,49a3.29,3.29,0,1,1-3.29-3.28A3.29,3.29,0,0,1,48.65,49Z"/><path class="cls-16" d="M35.7,36.18a2.55,2.55,0,1,1-2.55-2.55A2.55,2.55,0,0,1,35.7,36.18Z"/><path class="cls-16" d="M37.9,31.09a1.39,1.39,0,1,1-1.39-1.39A1.39,1.39,0,0,1,37.9,31.09Z"/><path class="cls-16" d="M65.72,34a.47.47,0,1,1-.47-.47A.47.47,0,0,1,65.72,34Z"/><path class="cls-16" d="M64.64,36.08A1.64,1.64,0,1,1,63,34.45,1.64,1.64,0,0,1,64.64,36.08Z"/><path class="cls-10" d="M37.46,70.53a2.72,2.72,0,1,1-2.72-2.72A2.72,2.72,0,0,1,37.46,70.53Z"/><path class="cls-11" d="M43.86,73.76a.89.89,0,1,1-.89-.89A.89.89,0,0,1,43.86,73.76Z"/><path class="cls-11" d="M65.37,69.33a1.2,1.2,0,1,1-1.2-1.2A1.2,1.2,0,0,1,65.37,69.33Z"/><path class="cls-11" d="M17,69.33a1.2,1.2,0,1,1-1.2-1.2A1.2,1.2,0,0,1,17,69.33Z"/><path class="cls-11" d="M48.11,70.13a2.32,2.32,0,1,1-2.31-2.32A2.32,2.32,0,0,1,48.11,70.13Z"/><path class="cls-10" d="M77.45,70.13a2,2,0,1,1-2-2A2,2,0,0,1,77.45,70.13Z"/></g></g></g></svg>