<svg xmlns="http://www.w3.org/2000/svg" xmlns:xlink="http://www.w3.org/1999/xlink" viewBox="0 0 100.15 100.15"><defs><style>.cls-1{fill:url(#linear-gradient);}.cls-2{fill:#d89144;}.cls-3,.cls-8{fill:#5b4559;}.cls-4,.cls-7{fill:#3e2f3c;}.cls-10,.cls-4,.cls-6,.cls-8{fill-rule:evenodd;}.cls-5{fill:#bf423c;}.cls-11,.cls-6{fill:#f2eed1;}.cls-9{fill:#9b2c2c;}.cls-10{fill:#e1deb4;}</style><linearGradient id="linear-gradient" x1="16.36" y1="16.36" x2="82.55" y2="82.55" gradientTransform="translate(84.97 -11.55) rotate(74.52)" gradientUnits="userSpaceOnUse"><stop offset="0" stop-color="#f5c268"/><stop offset="1" stop-color="#d89144"/></linearGradient></defs><title>beetle</title><g id="レイヤー_2" data-name="レイヤー 2"><g id="Animals"><circle class="cls-1" cx="50.08" cy="50.08" r="50.08" transform="translate(-11.55 84.97) rotate(-74.52)"/><path class="cls-2" d="M100.15,50.08c0-.55,0-1.08,0-1.62L74,22.31l-.92.9-3-3-1.7,3.41,3,6.47-2.08,7.71L57.59,26.07l-.84,2.55-2.5-2.5-.57,2.61L51.25,26.3l-.93-.54-1.41,3-4.62-4.62L43.35,31,32.09,19.76l-1.26,4.79-2.38-2.39-1.39.59,2.21,6.86.47-.49-.3,1.5L26.13,27.3l-.94,1.34,2.86,5.92.79-.94-.32,1.54-1.77-.3-4.24.23L38.37,50.94l-.64,1.4-5.46-1-2.72,2,.91,8.29,7.19,7.18-1.41,2-1.53,3.71.85,5L55.84,99.82A50.08,50.08,0,0,0,100.15,50.08Z"/><path class="cls-3" d="M32.37,50.45c.7-.37,1.07-.29,1.44.4a1.43,1.43,0,0,1-.59,1.93A5.57,5.57,0,0,0,31,54.29a4,4,0,0,0-.19,2.58,5.18,5.18,0,0,0,1.41,2.63,11,11,0,0,0,4.84,2.82A1.42,1.42,0,1,1,36.24,65c-5.23-1.63-7.62-4.34-8.52-9.76-.47-2.89,2.49-3.68,4.65-4.83Z"/><path class="cls-4" d="M31.9,51h0a2.33,2.33,0,0,1,3-1.43l3.55,1.24-1.53,4.39L33.33,54a2.33,2.33,0,0,1-1.43-3Z"/><path class="cls-3" d="M33.46,72a1.22,1.22,0,0,1,1.38-1.15,1.44,1.44,0,0,1,1,1.65,4.67,4.67,0,0,0,0,.91c.54,4.15,4.49,6,6.91,6.35,3.63,1,6,.18,6.52,6.35,0,.06-1.06-3.53-6.93-3.55A10.39,10.39,0,0,1,36,80a9,9,0,0,1-2.6-6.38A8.36,8.36,0,0,1,33.46,72Z"/><path class="cls-4" d="M33.55,72.55h0a2.6,2.6,0,0,1,.39-3.63l3.25-2.61,3.24,4-3.25,2.61a2.58,2.58,0,0,1-3.63-.39Z"/><path class="cls-5" d="M35.06,57.27c0,8.45,6.5,18.75,15,18.75V45.44c-8.52,0-15,3.39-15,11.83Z"/><path class="cls-6" d="M42,53.11a3.08,3.08,0,1,0,3.07,3.07A3.07,3.07,0,0,0,42,53.11Z"/><path class="cls-3" d="M30.1,21.71a1.42,1.42,0,1,1,2.4-1.53,6.3,6.3,0,0,1,1.07,3.56,6.92,6.92,0,0,1-.82,3,17.3,17.3,0,0,0-2.13,7.53,10.75,10.75,0,0,0,.07,1.28.28.28,0,0,1,0,.09,7.81,7.81,0,0,0,.89,2.8,6.85,6.85,0,0,0,2.92,2.76,11.9,11.9,0,0,0,5.38,1.17,1.43,1.43,0,1,1,0,2.85,14.8,14.8,0,0,1-6.67-1.48,9.69,9.69,0,0,1-4.1-3.91,10.58,10.58,0,0,1-1.08-3l-5-1.55a1.43,1.43,0,0,1,.84-2.73c2.32.55,2.62,1.46,3,.37s-1.41-1.57-2.73-3.72a1.43,1.43,0,1,1,2.27-1.73c.92,1.21,1.93,3.57,2.32,1.53,0-.23-.07-.12-.11-.18l-2.5-5.19a1.43,1.43,0,0,1,2.57-1.24c.6,1.23,2,5.29,2.07,1.22a3.53,3.53,0,0,0-.62-2Z"/><path class="cls-7" d="M67.78,50.45c-.7-.37-1.07-.29-1.44.4a1.43,1.43,0,0,0,.59,1.93,5.57,5.57,0,0,1,2.19,1.51,4,4,0,0,1,.19,2.58A5.1,5.1,0,0,1,67.9,59.5a11,11,0,0,1-4.84,2.82A1.42,1.42,0,1,0,63.91,65c5.23-1.63,7.62-4.34,8.52-9.76.47-2.89-2.49-3.68-4.65-4.83Z"/><path class="cls-8" d="M68.25,51h0a2.33,2.33,0,0,0-3-1.43l-3.55,1.24,1.54,4.39L66.82,54a2.33,2.33,0,0,0,1.43-3Z"/><path class="cls-7" d="M66.69,72a1.22,1.22,0,0,0-1.38-1.15,1.44,1.44,0,0,0-1,1.65,4.67,4.67,0,0,1,.05.91c-.54,4.15-4.49,6-6.91,6.35-3.63,1-6,.18-6.52,6.35,0,.06,1.06-3.53,6.94-3.55A10.39,10.39,0,0,0,64.18,80a9,9,0,0,0,2.6-6.38A7.59,7.59,0,0,0,66.69,72Z"/><path class="cls-8" d="M66.6,72.55h0a2.59,2.59,0,0,0-.39-3.63L63,66.31l-3.24,4L63,72.94a2.58,2.58,0,0,0,3.63-.39Z"/><path class="cls-9" d="M65.1,57.27c0,8.45-6.51,18.75-15,18.75V45.44c8.51,0,15,3.39,15,11.83Z"/><path class="cls-7" d="M70.05,21.71a1.42,1.42,0,1,0-2.4-1.53,6.3,6.3,0,0,0-1.07,3.56,6.92,6.92,0,0,0,.82,3,17,17,0,0,1,2.13,7.53,10.75,10.75,0,0,1-.07,1.28.28.28,0,0,0,0,.09,7.62,7.62,0,0,1-.89,2.8,6.88,6.88,0,0,1-2.91,2.76,12,12,0,0,1-5.39,1.17,1.43,1.43,0,1,0,0,2.85A14.74,14.74,0,0,0,67,43.78a9.69,9.69,0,0,0,4.1-3.91,10.28,10.28,0,0,0,1.08-3l5-1.55a1.43,1.43,0,0,0-.84-2.73c-2.32.55-2.62,1.46-3,.37s1.41-1.57,2.73-3.72a1.42,1.42,0,1,0-2.26-1.73c-.93,1.21-1.94,3.57-2.33,1.53,0-.23.07-.12.11-.18l2.5-5.19a1.43,1.43,0,0,0-2.57-1.24c-.59,1.23-2,5.29-2.07,1.22a3.53,3.53,0,0,1,.62-2Z"/><path class="cls-7" d="M37.74,42.85c0,4.39,5.52,8,12.34,8V34.89c-4.59,0-9.32-.43-11.45,2-1,1.16-.89,4.55-.89,6Z"/><path class="cls-3" d="M62.41,42.85c0,4.39-5.52,8-12.33,8V34.89c4.58,0,9.31-.43,11.44,2,1,1.16.89,4.55.89,6Z"/><path class="cls-4" d="M44.86,28.28c-.67-.6,1.25-3.45,3-1.84,1.3,1.23,1.15-1.2,2.48-.68,1.77.69.41,1.21,2.79.26,1.57-.62,2.61,1.89,2.25,2.88-1.22,3.33-1.65,3.65-5.69,3.49-5.29-.21-4.85-3.84-4.81-4.11Z"/><path class="cls-3" d="M46.3,28.6l-2-4.44a5.37,5.37,0,0,0-1.81,6.72c1.11,2.45,3.72,3.42,5.83,2.15l-2-4.43Z"/><path class="cls-3" d="M53.85,28.6l2-4.44a5.36,5.36,0,0,1,1.81,6.72C56.56,33.33,54,34.3,51.85,33l2-4.43Z"/><polygon class="cls-10" points="44.08 34.94 56.7 34.94 56.7 31.14 44.08 31.14 44.08 34.94 44.08 34.94"/><path class="cls-4" d="M43.54,31.05A1.95,1.95,0,1,1,41.59,33a1.95,1.95,0,0,1,1.95-1.95Z"/><path class="cls-4" d="M56.61,31.05a1.95,1.95,0,1,0,2,1.95,1.95,1.95,0,0,0-2-1.95Z"/><path class="cls-11" d="M44.72,40.05a2.13,2.13,0,1,1-2.13-2.13A2.13,2.13,0,0,1,44.72,40.05Z"/><path class="cls-11" d="M45.62,61.7a1.44,1.44,0,1,1-1.44-1.44A1.45,1.45,0,0,1,45.62,61.7Z"/></g></g></svg>