<svg xmlns="http://www.w3.org/2000/svg" xmlns:xlink="http://www.w3.org/1999/xlink" viewBox="0 0 100.15 100.15"><defs><style>.cls-1{fill:url(#New_Gradient_Swatch_5);}.cls-2{fill:#c6c29b;opacity:0.5;}.cls-3,.cls-6{fill:#ee6d58;}.cls-10,.cls-12,.cls-3,.cls-4,.cls-5,.cls-8,.cls-9{fill-rule:evenodd;}.cls-4,.cls-7{fill:#bf423c;}.cls-5{fill:#eea74e;}.cls-8{fill:#f5c268;}.cls-9{fill:#3e2f3c;}.cls-10{fill:#d89144;}.cls-11,.cls-12{fill:#f2eed1;}</style><linearGradient id="New_Gradient_Swatch_5" x1="17.98" y1="17.98" x2="87.43" y2="87.43" gradientTransform="translate(89.78 -8.57) rotate(79.1)" gradientUnits="userSpaceOnUse"><stop offset="0" stop-color="#f2eed1"/><stop offset="0.33" stop-color="#f0ecce"/><stop offset="0.57" stop-color="#e8e4c5"/><stop offset="0.78" stop-color="#dbd7b5"/><stop offset="0.97" stop-color="#c9c59f"/><stop offset="1" stop-color="#c6c29b"/></linearGradient></defs><title>bird</title><g id="レイヤー_2" data-name="レイヤー 2"><g id="Animals"><circle class="cls-1" cx="50.08" cy="50.08" r="50.08" transform="translate(-8.57 89.78) rotate(-79.1)"/><path class="cls-2" d="M99,60.8,78.56,40.38l-7.85-2.73L56.17,23.11,48.11,49.53,37.63,40.09l-9.18-.93-6.86,3.51L34.4,55.48,37.48,72.4,63.42,98.34A50.15,50.15,0,0,0,99,60.8Z"/><path class="cls-3" d="M56.17,23.11s-11.28,2-16.7,9.9-2.92,18.81-2.92,18.81,11.28-2,16.7-9.89,2.92-18.82,2.92-18.82Z"/><path class="cls-3" d="M65.89,59.72c-2.24,3.32-1.65,8-1.65,8s5.56.16,8.56-3.14c2.44-2.69,2.43-6.85,2.34-8.3a7.81,7.81,0,0,1-6.75,3.87,7.66,7.66,0,0,1-2.5-.41Z"/><path class="cls-4" d="M64.29,64.21C59.55,64.79,55.8,69,55.8,69s4.21,5.15,9.54,5.26c4.35.1,8.09-3.17,9.33-4.38a9.41,9.41,0,0,1-10.38-5.65Z"/><path class="cls-5" d="M27.88,42.44a36.93,36.93,0,0,0-.49,6c0,15.79,10,28.59,22.22,28.59C60.7,77,69.89,66.58,71.55,52.91a18.82,18.82,0,0,1-12.26,4.74c-8.51,0-15.9-6.16-19.63-15.21Z"/><polygon class="cls-6" points="28.04 42.14 21.59 42.67 27.09 38.56 28.04 42.14 28.04 42.14"/><polygon class="cls-7" points="28.04 42.14 29 45.72 21.59 42.67 28.04 42.14 28.04 42.14"/><path class="cls-8" d="M33.22,33.7A7.28,7.28,0,1,1,25.93,41a7.28,7.28,0,0,1,7.29-7.28Z"/><path class="cls-9" d="M31.94,37.89a1.27,1.27,0,1,0,1.28,1.27,1.27,1.27,0,0,0-1.28-1.27Z"/><path class="cls-10" d="M48.05,42.8h6a6.48,6.48,0,0,1,6.46,6.46v7.11c0,3.55-3,7.15-6.46,6.46l-5.56-1.09c-3.48-.69-6.18-2.92-6.46-6.46l-.46-6c-.27-3.54,2.91-6.46,6.46-6.46Z"/><path class="cls-8" d="M78.56,40.38s-8.84-7.29-18.39-6.23S44,44.18,44,44.18s8.84,7.28,18.38,6.23,16.18-10,16.18-10Z"/><circle class="cls-11" cx="42.07" cy="67.7" r="1.8"/><path class="cls-12" d="M53,70.07a3.55,3.55,0,1,1-3.55-3.55A3.55,3.55,0,0,1,53,70.07Z"/></g></g></svg>