<svg xmlns="http://www.w3.org/2000/svg" xmlns:xlink="http://www.w3.org/1999/xlink" viewBox="0 0 100.15 100.15"><defs><style>.cls-1{fill:url(#New_Gradient_Swatch_4);}.cls-2{fill:#bf423c;}.cls-2,.cls-3,.cls-4,.cls-5,.cls-6,.cls-7,.cls-8{fill-rule:evenodd;}.cls-3{fill:#755d74;}.cls-4{fill:#f5c268;}.cls-5{fill:#3e2f3c;}.cls-6{fill:#eea74e;}.cls-7{fill:#5b4559;}.cls-8{fill:#f2eed1;}</style><linearGradient id="New_Gradient_Swatch_4" x1="17.22" y1="17.22" x2="88.57" y2="88.57" gradientTransform="translate(22.98 -15.35) rotate(22.5)" gradientUnits="userSpaceOnUse"><stop offset="0" stop-color="#ee6d58"/><stop offset="1" stop-color="#bf423c"/></linearGradient></defs><title>bulldog</title><g id="レイヤー_2" data-name="レイヤー 2"><g id="Animals"><circle class="cls-1" cx="50.08" cy="50.08" r="50.08" transform="translate(-15.35 22.98) rotate(-22.5)"/><path class="cls-2" d="M100.15,50.08c0-.36,0-.72,0-1.07L75.61,24.48,61.48,31.33,42.19,29.87l-5.4-5.39L33.57,26.3,30.2,28.85l1.49,1.54-5.77,1.86L36.47,42.81l-13,17.59,8.84,8.84L24.9,75.68l24.46,24.46h.72A50.07,50.07,0,0,0,100.15,50.08Z"/><path class="cls-3" d="M31.89,36.07C24.41,39.51,19.57,45,19.57,51.19c0,5.59,3.95,10.6,10.21,14H70.37c6.26-3.45,10.21-8.46,10.21-14,0-6.19-4.84-11.68-12.31-15.12Z"/><path class="cls-3" d="M57.4,26.91H42.75a10,10,0,0,0-10,10v.78a10,10,0,0,0,10,10H57.4a10,10,0,0,0,10-10v-.78a10,10,0,0,0-10-10Z"/><polygon class="cls-4" points="25.36 29.97 36.79 24.48 43.2 33.36 33.55 38.85 25.36 29.97 25.36 29.97"/><path class="cls-5" d="M36.79,24.48c-1.21,4.82-4.94,8.74-8.32,8.74s-5.14-3.92-3.92-8.74Z"/><polygon class="cls-6" points="74.79 29.97 63.36 24.48 56.95 33.36 66.61 38.85 74.79 29.97 74.79 29.97"/><path class="cls-5" d="M63.36,24.48c1.22,4.82,4.94,8.74,8.32,8.74s5.14-3.92,3.93-8.74Z"/><path class="cls-7" d="M56.13,29H44A11.68,11.68,0,0,0,32.37,40.64v.92A11.68,11.68,0,0,0,44,53.21H56.13A11.68,11.68,0,0,0,67.78,41.56v-.92A11.68,11.68,0,0,0,56.13,29Z"/><path class="cls-8" d="M41.12,29.36a11.69,11.69,0,0,0-8.75,11.28v.92a11.7,11.7,0,0,0,7.12,10.73c4.45-.66,7.9-5.64,7.9-11.69,0-5.28-2.64-9.76-6.27-11.24Z"/><path class="cls-8" d="M60.07,52.52a11.68,11.68,0,0,0,7.71-11v-.92a11.69,11.69,0,0,0-8.22-11.13c-3.9,1.25-6.8,5.9-6.8,11.43,0,5.78,3.15,10.59,7.31,11.58Z"/><path class="cls-5" d="M44.53,50.72v5.54a5.35,5.35,0,0,0,5.34,5.33h.42a5.35,5.35,0,0,0,5.33-5.33V50.72a5.34,5.34,0,0,0-5.33-5.33h-.42a5.34,5.34,0,0,0-5.34,5.33Z"/><path class="cls-7" d="M44.53,50.72v5.54a5.35,5.35,0,0,0,5.34,5.33V45.39a5.34,5.34,0,0,0-5.34,5.33Z"/><path class="cls-6" d="M45.67,41.77h-4c-2.39,0-4.34,1.51-4.34,3.36v7.09c0,1.85,2,3.37,4.34,3.37h2A4.38,4.38,0,0,0,48,52.22l2-7.09c.51-1.81-2-3.36-4.34-3.36Z"/><path class="cls-6" d="M54.48,41.77h4c2.39,0,4.35,1.51,4.35,3.36v7.09c0,1.85-2,3.37-4.35,3.37h-2a4.38,4.38,0,0,1-4.34-3.37l-2-7.09c-.51-1.81,2-3.36,4.34-3.36Z"/><path class="cls-4" d="M58.43,55.59h-2a4.38,4.38,0,0,1-4.34-3.37l-2-7.09a1.52,1.52,0,0,1-.06-.42H52.7a6.07,6.07,0,0,1,6.06,6v2.86a6.12,6.12,0,0,1-.33,2Z"/><path class="cls-4" d="M41.72,55.59h2A4.38,4.38,0,0,0,48,52.22l2-7.09a1.52,1.52,0,0,0,.06-.42H47.45a6.07,6.07,0,0,0-6.06,6v2.86a6.12,6.12,0,0,0,.33,2Z"/><path class="cls-5" d="M50.08,40.37A2.92,2.92,0,0,1,53.21,43a3.18,3.18,0,0,1-6.27,0,2.93,2.93,0,0,1,3.14-2.66Z"/><path class="cls-5" d="M38.67,37.43a2,2,0,1,0,1.95,2,2,2,0,0,0-1.95-2Z"/><path class="cls-5" d="M61.48,37.43a2,2,0,1,0,2,2,2,2,0,0,0-2-2Z"/><polygon class="cls-5" points="29.78 65.24 38.63 65.24 38.63 72.05 29.78 72.05 29.78 65.24 29.78 65.24"/><path class="cls-7" d="M34.14,68.42c-4.6,0-8.43,2.77-9.24,6.44v.82H43.51c-.39-4.07-4.43-7.26-9.37-7.26Z"/><path class="cls-3" d="M30.21,75.68h8v-.41c0-3.75-1.76-6.8-3.94-6.85h-.08c-2.2,0-4,3.08-4,6.85,0,.14,0,.27,0,.41Z"/><polygon class="cls-5" points="61.53 65.24 70.37 65.24 70.37 72.05 61.53 72.05 61.53 65.24 61.53 65.24"/><path class="cls-7" d="M65.89,68.42c-4.6,0-8.43,2.77-9.25,6.44v.82H75.26c-.39-4.07-4.44-7.26-9.37-7.26Z"/><path class="cls-3" d="M62,75.68h8c0-.14,0-.27,0-.41,0-3.75-1.76-6.8-4-6.85h-.07c-2.2,0-4,3.08-4,6.85,0,.14,0,.27,0,.41Z"/><path class="cls-7" d="M64,65.24h6.39c6.26-3.45,10.21-8.46,10.21-14a12.74,12.74,0,0,0-2.24-7.09c-2,.55-.34,7.67-2.36,8.94-1,.59-14.32,9.71-12,12.2Z"/><path class="cls-5" d="M21.42,44.71a12.68,12.68,0,0,0-1.85,6.48c0,4.47,2.52,8.57,6.73,11.8A8.74,8.74,0,0,0,29,58.93c1.21-3.46-3.63-7.38-3.66-7.5-.81-4.15.94-7.27-1.89-7.27a4.27,4.27,0,0,0-2,.55Z"/></g></g></svg>