<svg xmlns="http://www.w3.org/2000/svg" xmlns:xlink="http://www.w3.org/1999/xlink" viewBox="0 0 100.15 100.15"><defs><style>.cls-1{fill:url(#New_Gradient_Swatch_4);}.cls-2{fill:#bf423c;}.cls-10,.cls-3{fill:#eea74e;}.cls-3,.cls-4,.cls-5,.cls-6,.cls-7{fill-rule:evenodd;}.cls-4,.cls-9{fill:#f2eed1;}.cls-5{fill:#ee6d58;}.cls-6,.cls-8{fill:#f5c268;}.cls-11,.cls-7{fill:#d89144;}.cls-12{fill:#3e2f3c;}</style><linearGradient id="New_Gradient_Swatch_4" x1="18.41" y1="18.41" x2="83.2" y2="83.2" gradientTransform="translate(83.49 -12.36) rotate(73.15)" gradientUnits="userSpaceOnUse"><stop offset="0" stop-color="#ee6d58"/><stop offset="1" stop-color="#bf423c"/></linearGradient></defs><title>camel</title><g id="レイヤー_2" data-name="レイヤー 2"><g id="Animals"><circle class="cls-1" cx="50.08" cy="50.08" r="50.08" transform="translate(-12.36 83.49) rotate(-73.15)"/><path class="cls-2" d="M46.84,78.69l-3.2,1.41L62.2,98.66A50.1,50.1,0,0,0,99.9,55.14L70.56,25.8l-14.37,7-7.28,2.89L33.6,20.34l-2.42,4.22,0,1.43c-1.62-.9-2.9-1.53-3-1.32-.34.6-12.69,7.85-12.69,7.85L46.28,63.3l2.16.25-.76,7.31Z"/><path class="cls-3" d="M28.26,30.34C27.5,43,34.54,48.89,43.1,47.89l.31-9.73c-5.3,1-8.75-2.06-9-10.28l-6.17,2.46Z"/><polygon class="cls-3" points="41.72 45.49 49.56 45.49 49.56 66.61 46.63 66.61 41.72 45.49 41.72 45.49"/><path class="cls-4" d="M48.57,36h6.16V50.41H48.57a7.24,7.24,0,0,1-7.22-7.21h0A7.24,7.24,0,0,1,48.57,36Z"/><polygon class="cls-5" points="66.93 52.06 73.49 52.23 69.16 66.61 66.58 67.19 66.93 52.06 66.93 52.06"/><polygon class="cls-3" points="56.72 52.76 51.21 52.64 54.11 66.02 56.19 66.02 56.72 52.76 56.72 52.76"/><path class="cls-6" d="M51.56,33.05H74.9a3.83,3.83,0,0,1,3.88,3.88l-.47,10.78C78,55,56,54.16,51.56,54.29a3.86,3.86,0,0,1-3.88-3.88V36.93a3.89,3.89,0,0,1,3.88-3.88Z"/><path class="cls-7" d="M78.53,42.67l-.22,5c-.19,4.54-8.87,5.92-16.42,6.36V42.67Z"/><path class="cls-3" d="M61.89,33.05h13a3.83,3.83,0,0,1,3.88,3.88l-.25,5.74H61.89V33.05Z"/><polygon class="cls-3" points="78.55 56.05 71.5 51.27 75.15 67.19 77.02 66.26 78.55 56.05 78.55 56.05"/><path class="cls-8" d="M81,42.32,78.55,56.05c-5.44,0-8.45-5.64-8.45-10.74,0-6.25,4-11.32,7.74-11.32C80.48,36.1,81,38.54,81,42.32Z"/><path class="cls-9" d="M65.87,23.78c-2.69,0-4.89,1.83-6.37,4.37a3.39,3.39,0,0,1-2.68,2.1c-2.58.69-4.56,1.49-4.56,2.8H73.39c0-5.12-3.37-9.27-7.52-9.27Z"/><polygon class="cls-3" points="49.35 67.9 46.49 67.9 46.89 80.1 48.81 80.1 49.35 67.9 49.35 67.9"/><polygon class="cls-3" points="56.51 67.9 53.65 67.9 54.74 80.1 55.84 80.1 56.51 67.9 56.51 67.9"/><polygon class="cls-5" points="69.09 67.9 66.23 67.9 63.47 79.98 65.22 79.98 69.09 67.9 69.09 67.9"/><polygon class="cls-3" points="77.45 67.9 74.59 67.9 75.78 80.1 77.45 80.1 77.45 67.9 77.45 67.9"/><path class="cls-6" d="M47.92,65.2a2,2,0,1,0,2,2,2,2,0,0,0-2-2Z"/><path class="cls-6" d="M55.08,65.2a2,2,0,1,0,2,2,2,2,0,0,0-2-2Z"/><path class="cls-3" d="M67.66,65.2a2,2,0,1,0,2,2,2,2,0,0,0-2-2Z"/><path class="cls-6" d="M76,65.2a2,2,0,1,0,2,2,2,2,0,0,0-2-2Z"/><path class="cls-8" d="M48.85,80.1H43.64c0-1.56,2.42-2.81,5.29-2.81l-.08,2.81Z"/><path class="cls-8" d="M55.89,80.1H50.68c0-1.56,2.42-2.81,5.29-2.81l-.08,2.81Z"/><path class="cls-10" d="M65.32,80l-4.89.15c0-1.56,2.79-2.9,5.67-2.9L65.32,80Z"/><path class="cls-8" d="M77.45,80.1H72.16c0-1.95,2.42-3.52,5.3-3.52V80.1Z"/><path class="cls-11" d="M20.51,28.56a8.56,8.56,0,0,0-2.94,4.1,1.43,1.43,0,0,0,2.54,1.09c2-2.92,3.94-2.32,8.33-1.64-.3-.4-.73-3.5-1.13-3.79a6.47,6.47,0,0,0-6.8.24Z"/><path class="cls-10" d="M18,26.83c-1.3,1-2.8,2.51-2.94,4.1a2.72,2.72,0,0,0,2.82,2.82c1.29-3.36,3.17-4.69,8-3.75-.3-.4-.66-3.12-1.06-3.41a6.47,6.47,0,0,0-6.8.24Z"/><path class="cls-6" d="M29.09,21.19a5.74,5.74,0,1,0,5.73,5.74,5.74,5.74,0,0,0-5.73-5.74Z"/><path class="cls-4" d="M29.09,21.19a5.75,5.75,0,0,0-5.62,4.58H34.71a5.75,5.75,0,0,0-5.62-4.58Z"/><path class="cls-6" d="M32.78,20h0a1.24,1.24,0,0,0-1.23,1.23v4.52H34V21.25A1.24,1.24,0,0,0,32.78,20Z"/><path class="cls-12" d="M27.09,25.77h-1.7a1.7,1.7,0,0,0,3.4,0Z"/><path class="cls-12" d="M18.7,29.08a.39.39,0,0,1-.33-.19.38.38,0,0,1,.15-.51l1.06-.59a.37.37,0,0,1,.51.15.38.38,0,0,1-.15.51L18.88,29A.29.29,0,0,1,18.7,29.08Z"/><path class="cls-9" d="M54.92,37.69a2.78,2.78,0,1,1-2.78-2.78A2.77,2.77,0,0,1,54.92,37.69Z"/><path class="cls-9" d="M57.44,41.57a1.1,1.1,0,1,1-1.09-1.1A1.09,1.09,0,0,1,57.44,41.57Z"/></g></g></svg>