<svg xmlns="http://www.w3.org/2000/svg" xmlns:xlink="http://www.w3.org/1999/xlink" viewBox="0 0 100.15 100.15"><defs><style>.cls-1{fill:url(#linear-gradient);}.cls-2{fill:#d89144;}.cls-3{fill:#ee6d58;}.cls-4{fill:#bf423c;}.cls-5{fill:#3e2f3c;}.cls-6{fill:#5b4559;}</style><linearGradient id="linear-gradient" x1="16.84" y1="16.84" x2="90.22" y2="90.22" gradientUnits="userSpaceOnUse"><stop offset="0" stop-color="#f5c268"/><stop offset="1" stop-color="#d89144"/></linearGradient></defs><title>cat</title><g id="レイヤー_2" data-name="レイヤー 2"><g id="Animals"><path class="cls-1" d="M100.15,50.08A50.08,50.08,0,1,1,50.08,0,50.07,50.07,0,0,1,100.15,50.08Z"/><path class="cls-2" d="M75.61,45.9l-6.88,9.41-3.92-.55L38.27,28.22,35.66,32,28,24.4,24.81,47.77l-.15-.05-11-1.82L12.36,47l5.16,5.17L17,53.78,35.32,72.1l-4.64,7.41,20.61,20.61a50.07,50.07,0,0,0,48.86-50,51.53,51.53,0,0,0-.57-7.61L78,20.89Z"/><path class="cls-3" d="M72.29,23.19V49.66A3.32,3.32,0,0,0,75.61,53V19.87A3.31,3.31,0,0,0,72.29,23.19Z"/><path class="cls-4" d="M78.93,49.66V23.19a3.32,3.32,0,0,0-3.32-3.32V53A3.32,3.32,0,0,0,78.93,49.66Z"/><path class="cls-3" d="M78.74,61.09c0,2.26-2.11,4.09-4.71,4.09H34.28c-2.6,0-4.71-1.83-4.71-4.09V52.22c0-2.26,2.11-4.09,4.71-4.09H74c2.6,0,4.71,1.83,4.71,4.09Z"/><polygon class="cls-5" points="38.27 28.22 25.83 36.8 30.79 39.96 35.74 43.12 38.27 28.22"/><polygon class="cls-6" points="28.04 24.4 20.39 37.44 26.22 38.21 32.05 38.98 28.04 24.4"/><path class="cls-3" d="M73.32,59.46v18a2.8,2.8,0,0,0,2.8,2.8V56.66A2.8,2.8,0,0,0,73.32,59.46Z"/><path class="cls-4" d="M78.93,77.48v-18a2.8,2.8,0,0,0-2.81-2.8V80.28A2.8,2.8,0,0,0,78.93,77.48Z"/><path class="cls-3" d="M64.86,59.46v18a2.8,2.8,0,0,0,2.8,2.8V56.66A2.8,2.8,0,0,0,64.86,59.46Z"/><path class="cls-4" d="M70.47,77.48v-18a2.8,2.8,0,0,0-2.81-2.8V80.28A2.8,2.8,0,0,0,70.47,77.48Z"/><path class="cls-3" d="M38.27,59.46v18a2.8,2.8,0,0,0,2.8,2.8V56.66A2.8,2.8,0,0,0,38.27,59.46Z"/><path class="cls-4" d="M43.87,77.48v-18a2.8,2.8,0,0,0-2.8-2.8V80.28A2.8,2.8,0,0,0,43.87,77.48Z"/><path class="cls-3" d="M29.81,59.46v18a2.8,2.8,0,0,0,2.8,2.8V56.66A2.8,2.8,0,0,0,29.81,59.46Z"/><path class="cls-4" d="M35.41,77.48v-18a2.8,2.8,0,0,0-2.8-2.8V80.28A2.8,2.8,0,0,0,35.41,77.48Z"/><circle class="cls-3" cx="25.21" cy="45.54" r="11.63"/><path class="cls-4" d="M25.21,57.17A11.63,11.63,0,0,0,36.84,45.54H13.58A11.63,11.63,0,0,0,25.21,57.17Z"/><path class="cls-5" d="M23.72,42.42a1.94,1.94,0,1,1-1.94-1.94A1.94,1.94,0,0,1,23.72,42.42Z"/><path class="cls-5" d="M15.52,45.54a1.94,1.94,0,1,1-1.94-1.94A1.94,1.94,0,0,1,15.52,45.54Z"/><path class="cls-4" d="M29.57,61.09c0,2.26,2.11,4.09,4.71,4.09H74c2.6,0,4.71-1.83,4.71-4.09V56.66H29.57Z"/><path class="cls-6" d="M44.7,48.13v11.8a2.5,2.5,0,1,0,5,0V48.13Z"/><path class="cls-5" d="M54.87,48.13v11.8a2.5,2.5,0,0,0,5,0V48.13Z"/><path class="cls-6" d="M65.05,48.13v11.8a2.5,2.5,0,0,0,5,0V48.13Z"/><rect class="cls-6" x="72.29" y="27.31" width="6.64" height="4.38"/><rect class="cls-5" x="72.29" y="36.42" width="6.64" height="4.38"/></g></g></svg>