<svg xmlns="http://www.w3.org/2000/svg" xmlns:xlink="http://www.w3.org/1999/xlink" viewBox="0 0 100.15 100.15"><defs><style>.cls-1{fill:url(#linear-gradient);}.cls-2{fill:#d89144;}.cls-3,.cls-5{fill:#3e2f3c;}.cls-12,.cls-3,.cls-6,.cls-7{fill-rule:evenodd;}.cls-4,.cls-6{fill:#5b4559;}.cls-7{fill:#1d8a9c;}.cls-8{fill:#e1deb4;}.cls-12,.cls-9{fill:#f2eed1;}.cls-10{fill:#2cabae;}.cls-11{fill:#c6c29b;}</style><linearGradient id="linear-gradient" x1="17.79" y1="17.79" x2="83.42" y2="83.42" gradientTransform="translate(61.42 -19.83) rotate(54.22)" gradientUnits="userSpaceOnUse"><stop offset="0" stop-color="#f5c268"/><stop offset="1" stop-color="#d89144"/></linearGradient></defs><title>cat2</title><g id="レイヤー_2" data-name="レイヤー 2"><g id="Animals"><circle class="cls-1" cx="50.08" cy="50.08" r="50.08" transform="translate(-19.83 61.42) rotate(-54.22)"/><path class="cls-2" d="M99.72,56.58,81.61,38.48l-9,.29-5.37,5.57L39.88,17l-5.45,12.4-2.06-.67-8.21,8.07L34.72,47.39,36.1,62.14l2.4,10.07-3.31,5.33L26.7,81.76,44.81,99.87a48.29,48.29,0,0,0,5.27.28A50.09,50.09,0,0,0,99.72,56.58Z"/><path class="cls-3" d="M26.7,81.76c0-2.75,1.56-5,3.47-5H49.59c1.91,0,3.48,2.25,3.48,5Z"/><polygon class="cls-3" points="37.68 58.85 32.69 58.85 32.69 81.76 37.68 81.76 37.68 58.85 37.68 58.85"/><path class="cls-4" d="M29.29,49.71c0,7.77,5.73,14.07,12.79,14.07L50.87,46c-4.2-2.4-9.19-7.49-9.19-12.19-7.06,0-12.39,8.13-12.39,15.9Z"/><path class="cls-5" d="M79.23,36.75a2.5,2.5,0,1,1,0,5h-.34c-1.18,0-2.36,0-3.55.07-3.13.19-5.64,1-5.41,5a2.35,2.35,0,0,1,0,.26l.29,26.73h0c.21,6.51-4.61,7.77-9.26,7.91-1,0-2,0-2.94,0-.37,0-.71,0-1.37,0a2.5,2.5,0,1,1,0-5l1.52,0c.83,0,1.76.06,2.66,0,2.2-.07,4.49-.53,4.42-2.8h0v0L65,47.15v0c-.49-8.24,4.22-10,10.09-10.3,1.19-.07,2.51-.07,3.84-.07h.34Z"/><path class="cls-3" d="M46.07,44.4H37.68V81.76H59.06V57.39a13,13,0,0,0-13-13Z"/><path class="cls-6" d="M48.37,51h0A10.72,10.72,0,0,0,37.68,61.68V81.76H59.06V61.68A10.72,10.72,0,0,0,48.37,51Z"/><path class="cls-7" d="M32.69,81.76c0-2.75,1.56-5,3.47-5H55.58c1.91,0,3.48,2.25,3.48,5Z"/><path class="cls-8" d="M43.14,38.55a9.59,9.59,0,0,1-1.46-4.74c-4.83,0-8.84,3.8-10.9,8.68a10.44,10.44,0,0,0,3.64.65,10.57,10.57,0,0,0,8.72-4.59Z"/><path class="cls-5" d="M32.18,32H22.5c0,4.74,4.33,8.59,9.68,8.59s9.68-3.85,9.68-8.59Z"/><polygon class="cls-5" points="41.4 32.02 33.29 25.43 39.88 17.03 41.4 32.02 41.4 32.02"/><path class="cls-4" d="M33.84,25c-4.42,0-8,3.14-8,7h16c0-3.86-3.59-7-8-7Z"/><path class="cls-9" d="M31.4,28.52a2.12,2.12,0,0,0-2.11,2.12H33.5a2.11,2.11,0,0,0-2.1-2.12Z"/><path class="cls-10" d="M25.83,32H22.5a7.82,7.82,0,0,0,1.11,4,5.6,5.6,0,0,0,2.22-4Z"/><path class="cls-11" d="M29.29,49.71a15.08,15.08,0,0,0,2.3,8A8.19,8.19,0,0,0,35.44,51a8.53,8.53,0,0,0-5.08-7.45,18.61,18.61,0,0,0-1.07,6.13Z"/><path class="cls-8" d="M29.29,49.71a15.39,15.39,0,0,0,.86,5.08,5.37,5.37,0,0,0,2-4,5.69,5.69,0,0,0-2.54-4.45,18.35,18.35,0,0,0-.33,3.38Z"/><path class="cls-12" d="M43.75,63.36a1.58,1.58,0,1,0,1.58,1.58,1.58,1.58,0,0,0-1.58-1.58Z"/><path class="cls-12" d="M43.75,68a3.12,3.12,0,1,0,3.12,3.12A3.12,3.12,0,0,0,43.75,68Z"/></g></g></svg>