<svg xmlns="http://www.w3.org/2000/svg" xmlns:xlink="http://www.w3.org/1999/xlink" viewBox="0 0 100.15 100.15"><defs><style>.cls-1{fill:url(#New_Gradient_Swatch_5);}.cls-2{fill:#c6c29b;opacity:0.5;}.cls-10,.cls-3{fill:#ee6d58;}.cls-4{fill:#bf423c;}.cls-10,.cls-11,.cls-4,.cls-7,.cls-8,.cls-9{fill-rule:evenodd;}.cls-5{fill:#d89144;}.cls-6,.cls-7{fill:#eea74e;}.cls-13,.cls-8{fill:#f5c268;}.cls-9{fill:#e4655c;}.cls-11,.cls-12{fill:#3e2f3c;}.cls-14{fill:#2cabae;}.cls-15{fill:#1d8a9c;}</style><linearGradient id="New_Gradient_Swatch_5" x1="17.72" y1="17.72" x2="84.72" y2="84.72" gradientTransform="translate(94.97 -4.69) rotate(84.34)" gradientUnits="userSpaceOnUse"><stop offset="0" stop-color="#f2eed1"/><stop offset="0.33" stop-color="#f0ecce"/><stop offset="0.57" stop-color="#e8e4c5"/><stop offset="0.78" stop-color="#dbd7b5"/><stop offset="0.97" stop-color="#c9c59f"/><stop offset="1" stop-color="#c6c29b"/></linearGradient></defs><title>cat3</title><g id="レイヤー_2" data-name="レイヤー 2"><g id="Animals"><circle class="cls-1" cx="50.08" cy="50.08" r="50.08" transform="translate(-4.69 94.97) rotate(-84.34)"/><path class="cls-2" d="M13,69.69l30,30a50.67,50.67,0,0,0,7.12.51,50.06,50.06,0,0,0,50-46.91l-37-37L49.41,26.71l-6.26-6.26L38,35.27,33.67,71.55l.18.09-1.48,1.47Z"/><path class="cls-3" d="M75.61,39.75a2.79,2.79,0,1,1,1-5.48c5.95,1.1,9.34,5.5,10.26,10.58a16.22,16.22,0,0,1-.17,6.58,15.9,15.9,0,0,1-2.9,6.1c-3.4,4.35-9.24,7-17.35,4.8a2.79,2.79,0,0,1,1.42-5.39c5.56,1.47,9.41-.11,11.54-2.84a9.94,9.94,0,0,0,1.85-3.94,10.75,10.75,0,0,0,.14-4.33,7.15,7.15,0,0,0-5.8-6.08Z"/><path class="cls-4" d="M38.4,41.48H55.72a14,14,0,0,1,14,14V66.9a14.19,14.19,0,0,1-.28,2.79H24.72a13.47,13.47,0,0,1-.29-2.79V55.45a14,14,0,0,1,14-14Z"/><path class="cls-5" d="M33.48,60.65v9a9.05,9.05,0,1,0,0-18.1v9.06Z"/><path class="cls-6" d="M24.43,60.65a9,9,0,0,0,9,9V51.59a9.06,9.06,0,0,0-9,9.06Z"/><path class="cls-5" d="M60.64,60.65v9a9.05,9.05,0,1,0,0-18.1v9.06Z"/><path class="cls-6" d="M51.59,60.65a9,9,0,0,0,9,9V51.59a9.06,9.06,0,0,0-9,9.06Z"/><path class="cls-7" d="M47.06,35.16c-9,0-16.24,5.67-16.24,12.67S47.06,60.5,47.06,60.5V35.16Z"/><path class="cls-8" d="M47.06,35.16c9,0,16.24,5.67,16.24,12.67S47.06,60.5,47.06,60.5V35.16Z"/><path class="cls-4" d="M32.83,16.27s-3.8,7.87-.77,13.16,8.28,8,11.73,6,3.8-7.86.78-13.15-11.74-6-11.74-6Z"/><path class="cls-9" d="M31.5,20.06c-.7,2.73-1.12,6.44.56,9.37,2.47,4.31,6.42,6.9,9.67,6.62,1.14-2.74.68-6.78-1.46-10.51-1.88-3.29-6-4.8-8.77-5.48Z"/><path class="cls-10" d="M63.07,16.27s3.8,7.87.77,13.16-8.28,8-11.73,6-3.8-7.86-.78-13.15,11.74-6,11.74-6Z"/><path class="cls-9" d="M64.4,20.06c.7,2.73,1.12,6.44-.56,9.37-2.47,4.31-6.43,6.9-9.67,6.62-1.14-2.74-.68-6.78,1.46-10.51,1.88-3.29,5.95-4.8,8.77-5.48Z"/><path class="cls-10" d="M47.06,49.2C36.34,49.2,27.65,43.28,27.65,36s8.69-13.22,19.41-13.22V49.2Z"/><path class="cls-4" d="M47.06,49.2c10.72,0,19.41-5.92,19.41-13.22S57.78,22.76,47.06,22.76V49.2Z"/><path class="cls-7" d="M27.9,38.13A9.09,9.09,0,0,1,27.65,36a10.62,10.62,0,0,1,3.56-7.63H40a2.58,2.58,0,0,1,2.57,2.57v4.64A2.58,2.58,0,0,1,40,38.13Z"/><path class="cls-8" d="M66.22,38.13A9.65,9.65,0,0,0,66.47,36a10.58,10.58,0,0,0-3.56-7.63H54.1a2.58,2.58,0,0,0-2.57,2.57v4.64a2.58,2.58,0,0,0,2.57,2.57Z"/><path class="cls-11" d="M37.78,30.86a1.74,1.74,0,1,0,1.74,1.74,1.73,1.73,0,0,0-1.74-1.74Z"/><path class="cls-11" d="M56.34,30.86A1.74,1.74,0,1,1,54.6,32.6a1.73,1.73,0,0,1,1.74-1.74Z"/><path class="cls-11" d="M47.06,34.22c2.16,0,3.91.92,3.91,2.05,0,2.21-3.06.94-3.06,2.72,0,.75-.38,1.36-.85,1.36s-.85-.61-.85-1.36c0-1.78-3.06-.51-3.06-2.72,0-1.13,1.75-2.05,3.91-2.05Z"/><path class="cls-12" d="M47,44.67h-.08a4.78,4.78,0,0,1-3.7-1.79.45.45,0,0,1,.06-.63.46.46,0,0,1,.64.06,3.91,3.91,0,0,0,3,1.46H47a4.23,4.23,0,0,0,3.21-1.47.45.45,0,0,1,.64,0,.44.44,0,0,1,0,.63A5.1,5.1,0,0,1,47,44.67Z"/><path class="cls-10" d="M24.49,65H35.25a3.68,3.68,0,0,1,3.68,3.68v.46a2.92,2.92,0,0,1,0,.6h-18a2.91,2.91,0,0,1-.06-.6v-.46A3.69,3.69,0,0,1,24.49,65Z"/><path class="cls-13" d="M33.67,63.21c-2,0-3.58,2.85-3.58,6.37h7.15c0-3.52-1.6-6.37-3.57-6.37Z"/><path class="cls-13" d="M42,63.33c-2,0-3.58,2.85-3.58,6.36h7.15c0-3.51-1.6-6.36-3.57-6.36Z"/><path class="cls-6" d="M37.73,62.1c-2.52,0-4.56,3.39-4.56,7.59h9.11c0-4.2-2-7.59-4.55-7.59Z"/><path class="cls-10" d="M69.42,65H58.66A3.68,3.68,0,0,0,55,68.63v.46a2.92,2.92,0,0,0,.05.6h18a2.92,2.92,0,0,0,0-.6v-.46A3.68,3.68,0,0,0,69.42,65Z"/><path class="cls-13" d="M60.45,63.21c2,0,3.57,2.85,3.57,6.37H56.87c0-3.52,1.61-6.37,3.58-6.37Z"/><path class="cls-13" d="M52.11,63.33c2,0,3.57,2.85,3.57,6.36H48.53c0-3.51,1.6-6.36,3.58-6.36Z"/><path class="cls-5" d="M56.39,62.1c2.52,0,4.56,3.39,4.56,7.59H51.83c0-4.2,2.05-7.59,4.56-7.59Z"/><polygon class="cls-14" points="35.64 69.69 13.01 69.69 35.64 83.89 35.64 69.69 35.64 69.69"/><polygon class="cls-15" points="62.57 69.69 62.57 80.83 80.95 69.69 62.57 69.69 62.57 69.69"/><polygon class="cls-15" points="35.64 69.69 35.64 83.89 51.36 74.03 62.57 80.83 62.57 69.69 44.2 69.69 44.2 69.69 35.64 69.69 35.64 69.69"/><polygon class="cls-14" points="51.25 74.09 51.36 74.03 62.57 80.83 62.57 69.69 51.25 69.69 51.25 74.09 51.25 74.09"/></g></g></svg>