<svg xmlns="http://www.w3.org/2000/svg" xmlns:xlink="http://www.w3.org/1999/xlink" viewBox="0 0 100.15 100.15"><defs><style>.cls-1{isolation:isolate;}.cls-2{fill:url(#New_Gradient_Swatch_2);}.cls-3{fill:#187e89;opacity:0.81;}.cls-4{fill:#f2eed1;}.cls-5{fill:#c6c29b;}.cls-6{fill:#e1deb4;}.cls-7{fill:#f5c268;}.cls-8{fill:#d89144;}.cls-9{fill:#a8a380;}.cls-10{fill:#ee6d58;}.cls-11{fill:#bf423c;}.cls-12,.cls-16{opacity:0.2;}.cls-12{mix-blend-mode:multiply;}.cls-13{fill:#eea74e;}.cls-14{fill:#5b4559;}.cls-15{fill:#9b2c2c;}</style><linearGradient id="New_Gradient_Swatch_2" x1="16.85" y1="16.85" x2="83.32" y2="83.32" gradientTransform="translate(77.18 -15.35) rotate(67.5)" gradientUnits="userSpaceOnUse"><stop offset="0" stop-color="#2cabae"/><stop offset="1" stop-color="#187e89"/></linearGradient></defs><title>caw</title><g class="cls-1"><g id="レイヤー_2" data-name="レイヤー 2"><g id="Animals"><circle class="cls-2" cx="50.08" cy="50.08" r="50.08" transform="translate(-15.35 77.18) rotate(-67.5)"/><path class="cls-3" d="M84.68,40.25l-1.37.06-3.62.12-2.28-2.28L68.75,40l-7.45,1L46.92,26.69l1.46,6.21-3,2.2-8.42,1L23.7,35.19l-8.5-8.5-1.26,5L17.4,34.9,13.69,37,27.41,50.67,24.9,53.56l-2,1.25-.43.29-.81-.81-.81.44-1-.74-1.38.39,2,2-1.27.86-1.19,1.61-2.62.37-1.15.49,1.44,1.45-.66,1.17,37.7,37.7a50.07,50.07,0,0,0,47-44.63Z"/><path class="cls-4" d="M17.78,52.79a4.27,4.27,0,0,1,2.89.56,2.62,2.62,0,0,1,1.38,2.07,4.23,4.23,0,0,1-2.89-.56A2.62,2.62,0,0,1,17.78,52.79Z"/><path class="cls-5" d="M20.67,53.35a4.27,4.27,0,0,0-2.89-.56l4.27,2.63A2.62,2.62,0,0,0,20.67,53.35Z"/><path class="cls-6" d="M18.54,58.74a.46.46,0,0,1-.2-.05.43.43,0,0,1-.19-.58c.08-.16,2.11-4,9.36-4.64a.44.44,0,1,1,.07.87c-6.72.56-8.64,4.13-8.66,4.16A.42.42,0,0,1,18.54,58.74Z"/><path class="cls-7" d="M18.74,57.66a1.45,1.45,0,0,1-1.24,1.6,1.66,1.66,0,0,1,0-3.21A1.46,1.46,0,0,1,18.74,57.66Z"/><path class="cls-8" d="M18.74,57.66a1.46,1.46,0,0,0-1.24-1.61v3.21A1.45,1.45,0,0,0,18.74,57.66Z"/><path class="cls-7" d="M15.86,57.82a1.29,1.29,0,1,1-.77,2.37,1.29,1.29,0,1,1,.77-2.37Z"/><path class="cls-8" d="M15.86,57.82a1.47,1.47,0,0,0-1.92.69l3.06,1A1.46,1.46,0,0,0,15.86,57.82Z"/><path class="cls-7" d="M15.25,60.51a1.48,1.48,0,0,1,2-.57,1.48,1.48,0,0,1,.06,2,1.47,1.47,0,0,1-2,.57A1.48,1.48,0,0,1,15.25,60.51Z"/><path class="cls-8" d="M15.25,60.51a1.48,1.48,0,0,0,.06,2l1.9-2.61A1.48,1.48,0,0,0,15.25,60.51Z"/><path class="cls-7" d="M17.73,62a1.47,1.47,0,0,1,.07-2,1.67,1.67,0,0,1,1.89,2.61A1.47,1.47,0,0,1,17.73,62Z"/><path class="cls-8" d="M17.73,62a1.47,1.47,0,0,0,2,.57L17.8,59.94A1.47,1.47,0,0,0,17.73,62Z"/><path class="cls-7" d="M19.79,60.19A1.29,1.29,0,1,1,19,57.82a1.29,1.29,0,1,1,.77,2.37Z"/><path class="cls-8" d="M19.79,60.19a1.46,1.46,0,0,0,1.14-1.68l-3.06,1A1.47,1.47,0,0,0,19.79,60.19Z"/><path class="cls-4" d="M18.25,59.63a.76.76,0,0,1-.75.75.75.75,0,0,1-.74-.75.74.74,0,0,1,.74-.74A.75.75,0,0,1,18.25,59.63Z"/><path class="cls-6" d="M85.62,47.45H84.3V43.08c0-2-.85-2.39-2.13-2.39H77.41V39.37h4.76c2.26,0,3.45,1.28,3.45,3.71Z"/><path class="cls-9" d="M60.87,55.55H54.68c.12.1,4.87,17.91,4.87,17.91l2.64-1.71,2.64,1.71s.45-17.81.57-17.91Z"/><path class="cls-9" d="M39.62,55.57H45.8c-.13.1-4.86,17.88-4.86,17.88L38.3,71.74l-2.64,1.71s-.45-17.78-.57-17.88Z"/><path class="cls-10" d="M62.71,68.67a.92.92,0,0,1-.92.92h0a.92.92,0,0,1-.92-.92v-4a.92.92,0,0,1,.92-.92h0a.92.92,0,0,1,.92.92Z"/><path class="cls-10" d="M65.82,69.43a.92.92,0,0,1-.92.92h0a.93.93,0,0,1-.93-.92v-4a.93.93,0,0,1,.93-.92h0a.92.92,0,0,1,.92.92Z"/><path class="cls-10" d="M68.75,68.18a.93.93,0,0,1-.92.93h0a.93.93,0,0,1-.92-.93v-4a.92.92,0,0,1,.92-.92h0a.92.92,0,0,1,.92.92Z"/><path class="cls-10" d="M75.33,57.39A10.44,10.44,0,1,1,64.9,46.87,10.47,10.47,0,0,1,75.33,57.39Z"/><path class="cls-11" d="M64.9,46.87A10.52,10.52,0,0,0,57.66,65H72.13A10.52,10.52,0,0,0,64.9,46.87Z"/><rect class="cls-6" x="34.56" y="37.11" width="44.14" height="23.68" rx="3.96" ry="3.96"/><path class="cls-6" d="M74.37,55.55H68.19c.12.1,4.86,17.91,4.86,17.91l2.64-1.71,2.64,1.71s.46-17.81.58-17.91Z"/><path class="cls-6" d="M47.4,55.57H41.33c.12.1,4.77,17.88,4.77,17.88l2.59-1.71,2.59,1.71s.44-17.78.56-17.88Z"/><path class="cls-5" d="M78.66,58.83a8.63,8.63,0,0,0,0-12.19l-6.1,6.09Z"/><path class="cls-4" d="M78.66,46.64a8.62,8.62,0,0,0-12.2,0l6.1,6.09Z"/><path class="cls-5" d="M66.46,46.64a8.63,8.63,0,0,0,0,12.19l6.1-6.1Z"/><path class="cls-9" d="M72.56,52.73l-6.1,6.1a8.62,8.62,0,0,0,12.2,0Z"/><path class="cls-12" d="M38.52,37.11a4,4,0,0,0-4,4V56.83a4.19,4.19,0,0,0,.12,1h3.23v0A2.82,2.82,0,0,0,40.32,56a2.71,2.71,0,0,0,.23-1.1v-1.8a2.83,2.83,0,0,0-2.07-2.72,12.1,12.1,0,0,0,.46-3.75,4.63,4.63,0,0,1,2.27-3.88A4.39,4.39,0,0,0,43,40.3c2.67-.08,6.24-.57,7.51-3.19Z"/><path class="cls-5" d="M86.4,52.27A1.45,1.45,0,0,1,85,53.71h0a1.44,1.44,0,0,1-1.44-1.44V47.06A1.44,1.44,0,0,1,85,45.62h0a1.45,1.45,0,0,1,1.44,1.44Z"/><path class="cls-9" d="M49.86,37.11a27.44,27.44,0,0,1,.35,5c-.19,1.08,1.2,2.75,3.89,3.4s4.63,1,5.93,2.32,6.3-.68,7.22-5.72a37.75,37.75,0,0,0,.58-5Z"/><path class="cls-5" d="M50.71,60.73a5.59,5.59,0,0,0,0-7.9l-4,4Z"/><path class="cls-4" d="M50.71,52.83a5.59,5.59,0,0,0-7.9,0l3.95,4Z"/><path class="cls-5" d="M42.81,52.83a5.59,5.59,0,0,0,0,7.9l3.95-3.95Z"/><path class="cls-9" d="M46.76,56.78l-3.95,3.95a5.57,5.57,0,0,0,7.9,0Z"/><path class="cls-13" d="M25.73,34H18.55a3.36,3.36,0,0,1-3.35-3.22V26.69s-2.81,1.76-2.81,6.87,5.78,5.45,9,5.45h4.31Z"/><path class="cls-4" d="M31.08,52.73V31.67H22.92a2.75,2.75,0,0,0-2.55,3v4a4.24,4.24,0,0,0,1.9,2.88,4.65,4.65,0,0,1,2.26,3.88c0,1.82.13,3.77,1.2,5.23S31.08,52.73,31.08,52.73Z"/><path class="cls-9" d="M21.3,36.75a6.43,6.43,0,0,0-.93,1.4v.45a4.24,4.24,0,0,0,1.9,2.88,4.65,4.65,0,0,1,2.26,3.88c0,.4,0,.81,0,1.22.18-.22.35-.45.52-.69l.12-.19a2.35,2.35,0,0,0,.53,0,4,4,0,0,0,2.63-1.22c1.69-1.8,1.16-5.21,0-7.2C26.72,34.52,23.37,34.42,21.3,36.75Z"/><path class="cls-14" d="M26.31,40.41a1.18,1.18,0,1,1-1.18-1.18A1.18,1.18,0,0,1,26.31,40.41Z"/><path class="cls-7" d="M36.39,34h7.17a3.36,3.36,0,0,0,3.36-3.22V26.69s2.8,1.76,2.8,6.87S44,39,40.7,39H36.39Z"/><path class="cls-6" d="M31.08,52.73V31.67h8.17a2.75,2.75,0,0,1,2.55,3v4a4.24,4.24,0,0,1-1.9,2.88,4.65,4.65,0,0,0-2.26,3.88,8.82,8.82,0,0,1-1.2,5.23C35.38,52,31.08,52.73,31.08,52.73Z"/><rect class="cls-10" x="22.93" y="48.99" width="16.31" height="7.49" rx="2.85" ry="2.85"/><path class="cls-11" d="M22.93,52.73v.9a2.85,2.85,0,0,0,2.84,2.85H36.39a2.85,2.85,0,0,0,2.85-2.85v-.9Z"/><path class="cls-14" d="M35.81,40.41A1.18,1.18,0,1,0,37,39.23,1.18,1.18,0,0,0,35.81,40.41Z"/><path class="cls-15" d="M29.92,56.48a2,2,0,1,0-4.09,0Z"/><path class="cls-15" d="M36.61,56.48a2,2,0,1,0-4.09,0Z"/><path class="cls-16" d="M51.28,73.45s0-1,.06-2.63H45.41c.42,1.58.69,2.63.69,2.63l2.59-1.71Z"/><path class="cls-6" d="M41.64,70.82h-6c0,1.58.07,2.63.07,2.63l2.64-1.71,2.64,1.71S41.21,72.4,41.64,70.82Z"/><path class="cls-16" d="M64.83,73.46s0-1,.07-2.64H58.84l.71,2.64,2.64-1.71Z"/><path class="cls-16" d="M72.35,70.82l.7,2.64,2.64-1.71,2.64,1.71s0-1,.07-2.64Z"/><circle class="cls-4" cx="59.18" cy="41.48" r="1.46"/><path class="cls-4" d="M68.25,42.14a2.77,2.77,0,1,1-2.77-2.77A2.77,2.77,0,0,1,68.25,42.14Z"/></g></g></g></svg>