<svg xmlns="http://www.w3.org/2000/svg" xmlns:xlink="http://www.w3.org/1999/xlink" viewBox="0 0 100.15 100.15"><defs><style>.cls-1{fill:url(#New_Gradient_Swatch_5);}.cls-2{fill:#c6c29b;opacity:0.5;}.cls-3,.cls-6{fill:#ee6d58;}.cls-10,.cls-11,.cls-12,.cls-13,.cls-14,.cls-15,.cls-16,.cls-17,.cls-3{fill-rule:evenodd;}.cls-14,.cls-4{fill:#5b4559;}.cls-13,.cls-5{fill:#1d8a9c;}.cls-15,.cls-7{fill:#bf423c;}.cls-12,.cls-8{fill:#9b2c2c;}.cls-9{fill:#2cabae;}.cls-10{fill:#eea74e;}.cls-11{fill:#d89144;}.cls-16{fill:#f2eed1;}.cls-17{fill:#3e2f3c;}</style><linearGradient id="New_Gradient_Swatch_5" x1="16.63" y1="16.63" x2="88.53" y2="88.53" gradientUnits="userSpaceOnUse"><stop offset="0" stop-color="#f2eed1"/><stop offset="0.33" stop-color="#f0ecce"/><stop offset="0.57" stop-color="#e8e4c5"/><stop offset="0.78" stop-color="#dbd7b5"/><stop offset="0.97" stop-color="#c9c59f"/><stop offset="1" stop-color="#c6c29b"/></linearGradient></defs><title>cock</title><g id="レイヤー_2" data-name="レイヤー 2"><g id="Animals"><circle class="cls-1" cx="50.08" cy="50.08" r="50.08"/><path class="cls-2" d="M41.71,82.67l-6.22,1.26,16.19,16.19a50.06,50.06,0,0,0,48.47-50c0-1.68-.08-3.34-.24-5L87.24,32.44l-1.08.13-3.91-3.91-3-.18-4.93-4.93-1.22.08L67.21,26.3,57.67,40.41,44.06,26.8l-.76.52L39.92,24,38,25.75l-3.37-3.37-2.1,3.69.75,9.38-9.49,2.69L22,40l7.94,7.94-2,.43,10,10,5.65,9.68L42.08,76.2Z"/><path class="cls-3" d="M28.56,34.88a39.49,39.49,0,0,1-1.33-4.75c-.11-.77-2.44-7.11-1.58-7.11,4.17,0,5.76,2.58,7.11.24s2.2-1,2.61,1c.16.74,2,1.67,3.34-.24.48-.69,2.38-.08,1.14,1.65s1.78,1.65,3.36,1c1.41-.58,1.59,2-.58,2.7s.7,2.3,2.39,2.38c1,.05,1.84,1.26-.25,1.91-1.9.59-.45,4.46-2.82,6-.81.53-7.27-4.17-9-4.51-.88-.18-4.4-.19-4.42-.27Z"/><path class="cls-4" d="M82.62,48.14a2.06,2.06,0,0,1-1,4c-4-1-7,.1-9.21,2.48h0c-2.48,2.64-4.26,7.17-5.58,11.83-.8.63-1.4,1.39-2.49,1.08A2,2,0,0,1,62.9,65c1.48-5.23,3.5-10,6.5-13.2h0c3.25-3.47,7.5-5.11,13.21-3.66Z"/><path class="cls-5" d="M84.23,42.32a2.06,2.06,0,0,1-1,4c-3.65-.93-7.1.47-10,3.06-3.84,3.4-6.78,8.77-8.22,13.85a2.06,2.06,0,0,1-4-1.11c1.64-5.76,5-11.87,9.47-15.81,3.9-3.45,8.62-5.29,13.76-4Z"/><path class="cls-6" d="M73.39,23.08a2.06,2.06,0,1,1-1,4C64.68,25.12,58.77,46,56.1,55.4l-.08.3a2.06,2.06,0,0,1-4-1.11l.08-.3c3-10.64,9.67-34.15,21.25-31.21Z"/><path class="cls-7" d="M80.82,27.66a2.06,2.06,0,0,1-.71,4.06,17.76,17.76,0,0,0-1.82-.23c-6-.45-10.22,2.54-13.22,6.83-3.2,4.57-5,10.62-6,15.84a52,52,0,0,0-.67,5.2,2.06,2.06,0,1,1-4.1-.31,53.94,53.94,0,0,1,.71-5.6c1-5.68,3.05-12.33,6.65-17.48,3.79-5.41,9.23-9.16,16.9-8.59a21.72,21.72,0,0,1,2.22.28Z"/><path class="cls-8" d="M85.68,31.6a2.05,2.05,0,1,1-.21,4.1c-7.73-.41-13,2-16.53,5.67-5.42,5.54-7.08,13.87-7.46,19.13a2.06,2.06,0,1,1-4.1-.29c.42-5.89,2.33-15.29,8.63-21.72,4.3-4.39,10.58-7.38,19.67-6.89Z"/><path class="cls-9" d="M84.08,35.91A2,2,0,1,1,83.45,40a5,5,0,0,0-.54-.05c-3.81-.28-8.37,2.5-12.22,6.55S63.58,56.1,62.82,61c-.06.36-.11.77-.14,1.2a2.06,2.06,0,1,1-4.11-.3c0-.46.1-1,.19-1.53.9-5.7,4.45-12,8.95-16.71s10.38-8.2,15.51-7.82c.24,0,.53.05.86.11Z"/><path class="cls-10" d="M51.26,70.41H57.2l-1.28,9.4c1.88,0,2.9-1.47,3.35-3.83a5.19,5.19,0,0,1-.45,5.61,2.6,2.6,0,0,1-1.25.82A2.74,2.74,0,0,1,58,83.93H48.34a2.81,2.81,0,0,1,2.8-2.8h2.18L51.26,70.41Z"/><path class="cls-11" d="M38.91,67.6l5.44,2.81-1.28,9.4c1.88,0,2.9-1.47,3.35-3.83A5.19,5.19,0,0,1,46,81.59a2.6,2.6,0,0,1-1.25.82,2.74,2.74,0,0,1,.45,1.52H35.49a2.81,2.81,0,0,1,2.8-2.8h2.18L38.11,68.29Z"/><path class="cls-3" d="M32.35,40.23l1.82-7.08C46.19,36.45,47,47,56.1,54.42c5.18,4.2,10.18,5.79,10.72,12-4.17,6.9-13.69,9.73-25.4,5.28-14-8.41-4.45-19-9.07-31.5Z"/><path class="cls-12" d="M32.35,40.23l1.82-7.08C46.19,36.45,47,47,56.1,54.42c1.54,1.25,3.08,2.27,4.48,3.26l-27.21-.6c.12-5.13,1.23-10.75-1-16.85Z"/><path class="cls-13" d="M46.79,43c2.62,3.78,5.06,7.92,9.31,11.38,5.18,4.2,10.18,5.79,10.72,12a15.22,15.22,0,0,1-9.66,6.85c-8.83-2.29-15.9-11-15.9-19.38A13.37,13.37,0,0,1,46.79,43Z"/><path class="cls-14" d="M52.8,51.25a28.52,28.52,0,0,0,3.3,3.17c5.18,4.2,10.18,5.79,10.72,12a15.22,15.22,0,0,1-9.66,6.85,20.68,20.68,0,0,1-4.36-1.71V51.25Z"/><path class="cls-15" d="M35.32,47c-.57,1.89-1.81,2.3-4,2.3s-3.87-.65-4-2.3c-.44-4.48,2.15-2.44,2.15-8.43h3.39C35.65,44,35.66,45.9,35.32,47Z"/><path class="cls-3" d="M25.68,35.45a3.69,3.69,0,0,0-3.88,3.47A3,3,0,0,0,22,40a9.92,9.92,0,0,1,4.93-1.16,12.1,12.1,0,0,1,2.62.28v-.2a3.68,3.68,0,0,0-3.87-3.47Z"/><path class="cls-12" d="M22,39.86,22,40a9.92,9.92,0,0,1,4.93-1.16,12.17,12.17,0,0,1,2.14.19,4,4,0,0,0-3.37-1.76A3.84,3.84,0,0,0,22,39.86Z"/><path class="cls-16" d="M32.19,32.9c3.28,0,5.94,1.57,5.94,3.5s-2.66,3.51-5.94,3.51-6-2.81-5.93-3.51,2.65-3.5,5.93-3.5Z"/><path class="cls-17" d="M32.27,34.68a1.07,1.07,0,1,0,1.08,1.07,1.07,1.07,0,0,0-1.08-1.07Z"/><path class="cls-16" d="M55.06,59a1.63,1.63,0,1,1-1.63-1.63A1.63,1.63,0,0,1,55.06,59Z"/><path class="cls-16" d="M61.06,63.59a3,3,0,1,1-3-3A3,3,0,0,1,61.06,63.59Z"/></g></g></svg>