<svg xmlns="http://www.w3.org/2000/svg" xmlns:xlink="http://www.w3.org/1999/xlink" viewBox="0 0 100.15 100.15"><defs><style>.cls-1{fill:url(#linear-gradient);}.cls-2{fill:#d89144;}.cls-2,.cls-3,.cls-4,.cls-5,.cls-6{fill-rule:evenodd;}.cls-3{fill:#bf423c;}.cls-4{fill:#9b2c2c;}.cls-5{fill:#ee6d58;}.cls-6{fill:#e1deb4;}</style><linearGradient id="linear-gradient" x1="17.04" y1="17.04" x2="86.51" y2="86.51" gradientTransform="translate(87.31 -10.17) rotate(76.72)" gradientUnits="userSpaceOnUse"><stop offset="0" stop-color="#f5c268"/><stop offset="1" stop-color="#d89144"/></linearGradient></defs><title>crab</title><g id="レイヤー_2" data-name="レイヤー 2"><g id="Animals"><circle class="cls-1" cx="50.08" cy="50.08" r="50.08" transform="translate(-10.17 87.31) rotate(-76.72)"/><path class="cls-2" d="M100,53.62l-34-34-.71,1.68.12.27-3.72-3.11-4.7.68-.4,1.12L65.34,29l-6.18,2.16-12.7-12.7-7.07,1.81L34.41,31l-.58,5.45-6.48,4.34L37.8,51.21l.57,1.15-5,1.88L20.64,41.47l-.9,2.65,1.87,4,.2.21-1.17,2.41,6,6-2.57,1L21,54.66l-1.87,1.07,1.62,1.05-2.29,1.73,9,9L26,77.34l22.77,22.78c.45,0,.89,0,1.34,0A50.06,50.06,0,0,0,100,53.62ZM22.82,58.25,22.69,58l.27.17Z"/><path class="cls-3" d="M73.77,49.63c-2.56,0-4.64,1-4.64,2.25s2.08,2.25,4.64,2.25,4.65-1,4.65-2.25-2.08-2.25-4.65-2.25Z"/><path class="cls-4" d="M78.46,45.2c-1,2.89-.94,5.72.24,6.32s3-1.25,4-4.14.93-5.73-.25-6.33-3,1.26-4,4.15Z"/><path class="cls-3" d="M73.07,57.42c-2.9-.64-5.66-.22-6.17.95s1.44,2.64,4.34,3.29,5.66.22,6.17-.95S76,58.07,73.07,57.42Z"/><path class="cls-4" d="M80.22,54.84c-2.13,2.07-3.28,4.62-2.59,5.68s3,.25,5.13-1.83,3.29-4.62,2.59-5.68-3-.25-5.13,1.83Z"/><path class="cls-3" d="M69.27,63.65c-2.74-1.16-5.53-1.24-6.24-.19s.93,2.86,3.67,4,5.53,1.25,6.24.19-.93-2.86-3.67-4Z"/><path class="cls-4" d="M76.67,72.72c-.06-3-1.12-5.56-2.38-5.78s-2.23,2-2.17,5,1.12,5.56,2.38,5.78,2.22-2,2.17-5Z"/><path class="cls-3" d="M62.49,68.05c-1.31-2.66-3.38-4.55-4.61-4.21s-1.15,2.77.17,5.44,3.38,4.55,4.6,4.21,1.16-2.77-.16-5.44Z"/><path class="cls-4" d="M65,79.48c.7-2.89.33-5.66-.83-6.19s-2.67,1.39-3.37,4.27-.33,5.67.83,6.2,2.67-1.39,3.37-4.28Z"/><path class="cls-3" d="M27.46,49.45c2.56,0,4.64,1,4.64,2.25S30,54,27.46,54s-4.65-1-4.65-2.25,2.08-2.25,4.65-2.25Z"/><path class="cls-4" d="M22.77,45c1.05,2.89.94,5.72-.24,6.32s-3-1.25-4-4.14-.93-5.73.25-6.33,3,1.26,4,4.15Z"/><path class="cls-3" d="M28.16,57.24c2.9-.64,5.66-.22,6.17.95S32.89,60.83,30,61.48s-5.66.22-6.17-.95,1.44-2.64,4.34-3.29Z"/><path class="cls-4" d="M21,54.66c2.13,2.07,3.29,4.62,2.58,5.68s-3,.25-5.12-1.83-3.29-4.62-2.59-5.68,3-.25,5.13,1.83Z"/><path class="cls-3" d="M32,63.47c2.74-1.16,5.53-1.24,6.24-.19s-.93,2.86-3.67,4-5.53,1.25-6.24.19.93-2.86,3.67-4Z"/><path class="cls-4" d="M24.56,72.54c.06-3,1.13-5.56,2.38-5.78s2.23,2,2.17,5S28,77.31,26.73,77.53s-2.22-2-2.17-5Z"/><path class="cls-3" d="M38.74,67.87c1.32-2.66,3.38-4.55,4.61-4.21s1.15,2.77-.17,5.44-3.38,4.55-4.6,4.21-1.16-2.77.16-5.44Z"/><path class="cls-4" d="M36.27,79.3c-.7-2.89-.33-5.66.83-6.19s2.67,1.38,3.37,4.27.33,5.67-.83,6.19S37,82.19,36.27,79.3Z"/><path class="cls-5" d="M46.88,19.77c.59-2.43-5.22-2.95-8.46-1A8.47,8.47,0,0,0,35.25,30l8,2.2,3.82-3.1c1.11-1.81.67-3.84-1.05-4.67-1.23,2-6.22,6.13-6.18,2.19.82-9.88,6.43-4.42,7-6.85Z"/><path class="cls-4" d="M44.33,28.77c2.76,4-10.2,10.31-14.18,6.9h0C28,32.56,33.08,28.16,35,26.13c2.32-2.48,8.36,1.2,9.36,2.64Z"/><path class="cls-3" d="M34.81,44.79l2.71-1.69c-5.75-1.19-.64-5.89-3.12-9.62-1.39-2.08-6.54-1.17-7.92,1.7-2.3,4.76,3.62,8.83,8.33,9.61Z"/><path class="cls-4" d="M46.88,19.77c.44-1.82-2.7-2.57-5.67-2l1.12,3c1.89-1,4.19.55,4.55-1Z"/><path class="cls-5" d="M56.31,19.77c-.59-2.43,5.22-2.95,8.46-1A8.47,8.47,0,0,1,68,30l-8,2.2L56.1,29.1c-1.1-1.81-.67-3.84,1.06-4.67,1.22,2,6.22,6.13,6.18,2.19-.83-9.88-6.44-4.42-7-6.85Z"/><path class="cls-4" d="M58.86,28.77c-2.76,4,10.2,10.31,14.18,6.9h0c2.16-3.11-2.92-7.51-4.82-9.54-2.31-2.48-8.36,1.2-9.36,2.64Z"/><path class="cls-3" d="M68.38,44.79,65.67,43.1c5.76-1.19.65-5.89,3.13-9.62,1.39-2.08,6.54-1.17,7.92,1.7C79,39.94,73.09,44,68.38,44.79Z"/><path class="cls-4" d="M56.31,19.77C55.87,18,59,17.2,62,17.74l-1.11,3c-1.89-1-4.19.55-4.56-1Z"/><path class="cls-5" d="M43.54,41H58.72c6.55,0,11.92,4.46,11.92,9.91h0c0,9.69-7.34,16.62-19.45,16.62s-19.57-7-19.57-16.62h0C31.62,45.49,37,41,43.54,41Z"/><path class="cls-4" d="M70.48,53.34c-1.12,8.41-8.2,14.22-19.29,14.22S33,61.67,31.79,53.34Z"/><path class="cls-6" d="M46.46,41.07v18c0,5.21,9.34,5.15,9.34,0v-18Z"/></g></g></svg>