<svg xmlns="http://www.w3.org/2000/svg" xmlns:xlink="http://www.w3.org/1999/xlink" viewBox="0 0 100.15 100.15"><defs><style>.cls-1{fill:url(#New_Gradient_Swatch_5);}.cls-2{fill:#c6c29b;opacity:0.5;}.cls-10,.cls-2,.cls-3,.cls-4,.cls-5,.cls-6,.cls-7{fill-rule:evenodd;}.cls-3{fill:#3e2f3c;}.cls-4,.cls-8{fill:#5b4559;}.cls-5,.cls-9{fill:#725b71;}.cls-6{fill:#ee6d58;}.cls-7{fill:#bf423c;}.cls-10{fill:#f2eed1;}</style><linearGradient id="New_Gradient_Swatch_5" x1="16.61" y1="21.58" x2="89.68" y2="83.79" gradientUnits="userSpaceOnUse"><stop offset="0" stop-color="#f2eed1"/><stop offset="0.33" stop-color="#f0ecce"/><stop offset="0.57" stop-color="#e8e4c5"/><stop offset="0.78" stop-color="#dbd7b5"/><stop offset="0.97" stop-color="#c9c59f"/><stop offset="1" stop-color="#c6c29b"/></linearGradient></defs><title>dog</title><g id="レイヤー_2" data-name="レイヤー 2"><g id="Animals"><circle class="cls-1" cx="50.08" cy="50.08" r="50.08"/><path class="cls-2" d="M51.39,100.13a50.07,50.07,0,0,0,48.76-50c0-1,0-2-.09-3L64.88,11.94,58.85,34,36.8,11.94l2.52,10.57,2.56,24.27,4.59,3.06L36.36,62,25.65,64.28,36.16,74.79l-4.67,5.44Z"/><path class="cls-3" d="M36.8,11.94c4.91,9.38,8.55,18.83,8.76,28.43l-9,9c.86-3.39-1.9-8.69-.57-13.82,2.16-8.37,1.49-17.34.79-23.58Z"/><path class="cls-4" d="M40.14,45.78l-3.56,3.56c.86-3.39-1.9-8.69-.57-13.82A48.49,48.49,0,0,0,37.4,26c2.05,3,3.38,7.88,3.38,13.4a31.58,31.58,0,0,1-.64,6.41Z"/><path class="cls-3" d="M64.88,11.94c-4.9,9.38-8.55,18.83-8.76,28.43l9,9c-.85-3.39,1.9-8.69.58-13.82-2.16-8.37-1.5-17.34-.8-23.58Z"/><path class="cls-5" d="M61.54,45.78l3.56,3.56c-.85-3.39,1.9-8.69.58-13.82A47.76,47.76,0,0,1,64.29,26c-2.05,3-3.39,7.88-3.39,13.4a31.58,31.58,0,0,0,.64,6.41Z"/><polygon class="cls-6" points="25.65 64.28 29.23 63.32 32.81 62.36 32.81 64.28 32.81 66.2 29.23 65.24 25.65 64.28 25.65 64.28"/><polygon class="cls-6" points="31.89 48.85 35.1 50.7 38.31 52.55 36.95 53.91 35.59 55.27 33.74 52.06 31.89 48.85 31.89 48.85"/><polygon class="cls-6" points="31.49 80.23 34.7 78.38 37.91 76.53 36.55 75.17 35.19 73.81 33.34 77.02 31.49 80.23 31.49 80.23"/><polygon class="cls-6" points="74.5 65.05 70.92 64.09 67.34 63.13 67.34 65.05 67.34 66.97 70.92 66.01 74.5 65.05 74.5 65.05"/><polygon class="cls-6" points="68.26 49.62 65.05 51.47 61.84 53.33 63.2 54.69 64.56 56.04 66.41 52.83 68.26 49.62 68.26 49.62"/><polygon class="cls-6" points="68.66 81 65.45 79.15 62.24 77.3 63.6 75.94 64.96 74.58 66.81 77.79 68.66 81 68.66 81"/><path class="cls-7" d="M50.46,47A17.93,17.93,0,1,0,68.39,65,17.92,17.92,0,0,0,50.46,47Z"/><path class="cls-3" d="M50.46,50.87A14.1,14.1,0,1,0,64.57,65a14.1,14.1,0,0,0-14.11-14.1Z"/><path class="cls-4" d="M50.84,39.06A14.93,14.93,0,1,0,65.77,54,14.93,14.93,0,0,0,50.84,39.06Z"/><path class="cls-5" d="M50.84,39.06a14.93,14.93,0,0,0,0,29.86V39.06Z"/><path class="cls-3" d="M50.93,76.49a5.86,5.86,0,1,1-5.78,5.86,5.82,5.82,0,0,1,5.78-5.86Z"/><path class="cls-8" d="M50.84,83.19c1.4,3.4,3,3.79,5.76,3.79,3.1,0,7.49-3.54,5.61-6.79C58.72,74.15,58,61.68,51,59.82c-7.52,2-7.67,14.22-11.22,20.37C37.9,83.44,42.29,87,45.38,87c2.81,0,4.06-.39,5.46-3.79Z"/><path class="cls-5" d="M50.84,71.46a5.87,5.87,0,1,1-5.78,5.86,5.83,5.83,0,0,1,5.78-5.86Z"/><path class="cls-9" d="M51,59.82l-.15,0V83.19c1.4,3.4,3,3.79,5.76,3.79,3.1,0,7.49-3.54,5.61-6.79C58.72,74.15,58,61.68,51,59.82Z"/><path class="cls-4" d="M56.62,77.32a5.83,5.83,0,0,0-5.78-5.86V83.19A5.83,5.83,0,0,0,56.62,77.32Z"/><path class="cls-3" d="M50.84,49.33c-3.51,0-7.66,3.13-6.36,6.45,3.24,8.35,2.81,11.42.67,19.45-.31,1.15,1,2.16,2.15,2.16h7.08c1.19,0,2.47-1,2.16-2.16-2.15-8-2.58-11.1.67-19.45,1.29-3.32-2.85-6.45-6.37-6.45Z"/><path class="cls-3" d="M49.46,83a5.84,5.84,0,0,1-3.59-2.66,3,3,0,0,1,1-.15,2.54,2.54,0,0,1,2.68,2.37,2.12,2.12,0,0,1,0,.44Z"/><path class="cls-10" d="M56.91,52.85a2.63,2.63,0,0,0-.14.8,2.49,2.49,0,0,0,5,0,2.36,2.36,0,0,0-.14-.8Z"/><path class="cls-10" d="M40.07,52.85a2.63,2.63,0,0,0-.14.8,2.49,2.49,0,0,0,5,0,2.36,2.36,0,0,0-.14-.8Z"/><path class="cls-3" d="M54.82,80.22a2.56,2.56,0,0,0-2.69,2.42,1.72,1.72,0,0,0,0,.39,5.81,5.81,0,0,0,3.09-1.92l.09-.12c.06-.08.12-.15.17-.23s.17-.25.25-.38h0A3,3,0,0,0,54.82,80.22Z"/></g></g></svg>