<svg xmlns="http://www.w3.org/2000/svg" xmlns:xlink="http://www.w3.org/1999/xlink" viewBox="0 0 100.15 100.15"><defs><style>.cls-1{fill:url(#New_Gradient_Swatch_5);}.cls-2{fill:#c6c29b;opacity:0.5;}.cls-10,.cls-3{fill:#3e2f3c;}.cls-4,.cls-7{fill:#2cabae;}.cls-10,.cls-12,.cls-4,.cls-5,.cls-8{fill-rule:evenodd;}.cls-5,.cls-9{fill:#5b4559;}.cls-6{fill:#187e89;}.cls-11,.cls-8{fill:#1d8a9c;}.cls-12{fill:#ee6d58;}.cls-13{fill:#9b2c2c;}.cls-14{fill:#bf423c;}.cls-15{fill:#f2eed1;}</style><linearGradient id="New_Gradient_Swatch_5" x1="15.05" y1="15.05" x2="84.21" y2="84.21" gradientTransform="translate(8.67 -7.37) rotate(9.22)" gradientUnits="userSpaceOnUse"><stop offset="0" stop-color="#f2eed1"/><stop offset="0.33" stop-color="#f0ecce"/><stop offset="0.57" stop-color="#e8e4c5"/><stop offset="0.78" stop-color="#dbd7b5"/><stop offset="0.97" stop-color="#c9c59f"/><stop offset="1" stop-color="#c6c29b"/></linearGradient></defs><title>dog2</title><g id="レイヤー_2" data-name="レイヤー 2"><g id="Animals"><circle class="cls-1" cx="50.08" cy="50.08" r="50.08" transform="translate(-7.37 8.67) rotate(-9.22)"/><path class="cls-2" d="M99.81,55.91,71.39,27.49v2L68.24,26.4h-4l-2.11,1.84L68.84,35l-1.07,1.36L59.4,38.24,42.92,21.75l-6.3,6.3-.2,6.52-13.6,4.87-2.07-2.08-1.11.93L21.37,40l-1.73.62,7.07,7.07V54.4L37.25,65l-3.4,3.27,2.45,2.45-1.92,3.41L24.6,76.2l23.92,23.92q.78,0,1.56,0A50.07,50.07,0,0,0,99.81,55.91Z"/><path class="cls-3" d="M54.17,50.42C55.85,58.6,56,57.83,56,66h2.78c0-3.24-1.2-6.85.21-8.2,3.82-3.65,4.8-5.59,4.12-8.9-1-4.59-6.39-7.78-10.6-6.78l1.71,8.32Z"/><path class="cls-4" d="M62.91,36.07H40.44a4.13,4.13,0,0,0-4.12,4.11v5.58a4.11,4.11,0,0,0,4.12,4.12l8.08-.15c2.85-3.24,5.35-5.87,8.88-6,.08,2.35-.58,4.11.81,6.17,3.53,1.32,5.34,6.32,8,9.49l3.84-2.16c-5.17-9.22-3-4.37-3-11.45V40.18a4.13,4.13,0,0,0-.7-2.3A8.33,8.33,0,0,0,72,33.09a6.29,6.29,0,0,0,.38-2.94,5.81,5.81,0,0,0-1-2.66,5.44,5.44,0,0,0-5.77-2.12,1.17,1.17,0,0,0,.46,2.3,3.19,3.19,0,0,1,3.39,1.16,3.29,3.29,0,0,1,.58,1.57,3.93,3.93,0,0,1-.25,1.86c-.67,1.74-2.62,3.36-6.3,3.82l-.11,0a3.87,3.87,0,0,0-.48,0Z"/><polygon class="cls-5" points="47.58 53.42 44.4 53.42 44.4 66.18 47.58 66.18 47.58 53.42 47.58 53.42"/><path class="cls-5" d="M41.78,70.73c3,0,2.35.27,2.35-2.94h2.94V72.5a.74.74,0,0,1-.74.73H41.78a.73.73,0,0,1-.73-.73v-1a.74.74,0,0,1,.73-.74Z"/><path class="cls-6" d="M46,66v3.57a3.57,3.57,0,0,0,0-7.14V66Z"/><path class="cls-7" d="M42.46,66A3.55,3.55,0,0,0,46,69.58V62.44A3.55,3.55,0,0,0,42.46,66Z"/><polygon class="cls-5" points="38.21 53.42 35.03 53.42 35.03 66.18 38.21 66.18 38.21 53.42 38.21 53.42"/><path class="cls-5" d="M32.41,70.73c3,0,2.35.27,2.35-2.94h2.93V72.5a.73.73,0,0,1-.73.73H32.41a.74.74,0,0,1-.74-.73v-1a.74.74,0,0,1,.74-.74Z"/><path class="cls-6" d="M36.62,66v3.57a3.57,3.57,0,0,0,0-7.14V66Z"/><path class="cls-7" d="M33.09,66a3.55,3.55,0,0,0,3.53,3.57V62.44A3.55,3.55,0,0,0,33.09,66Z"/><path class="cls-3" d="M36.77,33.23A12.93,12.93,0,1,0,49.84,46.16,13,13,0,0,0,36.77,33.23Z"/><path class="cls-8" d="M36.18,51.23h-.3a5.46,5.46,0,0,1-5.43-5.44V32.88h5.73V51.23Z"/><path class="cls-5" d="M36.18,51.23h.29a5.46,5.46,0,0,0,5.44-5.44V32.88H36.18V51.23Z"/><path class="cls-4" d="M18.75,39.31a2.07,2.07,0,0,0,2,1.61h7.63a2.07,2.07,0,0,0,2.06-2.06V34.93a2,2,0,0,0-.34-1.12l-11.36,5.5Z"/><path class="cls-9" d="M36.18,28.49l6.66,6.67a9.49,9.49,0,0,0,.08-13.41l-6.74,6.74Z"/><path class="cls-3" d="M36.18,28.49l-6.74,6.74a9.48,9.48,0,0,0,13.4-.07l-6.66-6.67Z"/><path class="cls-7" d="M36.18,28.49l6.74-6.74a9.48,9.48,0,0,0-13.41.08l6.67,6.66Z"/><path class="cls-9" d="M36.18,28.49l-6.74,6.74a9.48,9.48,0,0,1,.07-13.4l6.67,6.66Z"/><path class="cls-10" d="M26.71,36.86a.88.88,0,1,0,.88.88.87.87,0,0,0-.88-.88Z"/><path class="cls-10" d="M19.64,36.84a1.46,1.46,0,1,0,1.46,1.45,1.45,1.45,0,0,0-1.46-1.45Z"/><path class="cls-5" d="M63.88,24.35a2.34,2.34,0,1,0,2.34,2.34,2.34,2.34,0,0,0-2.34-2.34Z"/><path class="cls-4" d="M69.79,70.73c3,0,2.48-.91.87-4.14L73.75,65l2.94,6.47v1a.74.74,0,0,1-.74.73H69.79a.74.74,0,0,1-.74-.74v-1a.74.74,0,0,1,.74-.74Z"/><path class="cls-10" d="M53.79,70.73c3,0,2.35.27,2.35-2.94h2.94V72.5a.74.74,0,0,1-.74.73H53.79a.74.74,0,0,1-.74-.73v-1a.74.74,0,0,1,.74-.74Z"/><path class="cls-3" d="M71.06,62.13l4,4a5.63,5.63,0,0,0,0-8l-4,4Z"/><path class="cls-11" d="M71.06,62.13l-4,4a5.63,5.63,0,0,0,8,0l-4-4Z"/><path class="cls-11" d="M71.06,62.13l4-4a5.63,5.63,0,0,0-8,0l4,4Z"/><path class="cls-3" d="M71.06,62.13l-4,4a5.64,5.64,0,0,1,0-8l4,4Z"/><path class="cls-7" d="M57.56,65.4v4.17a4.19,4.19,0,0,0,4.21-4.17Z"/><path class="cls-9" d="M57.56,65.4H53.35a4.19,4.19,0,0,0,4.21,4.17V65.4Z"/><path class="cls-9" d="M57.56,65.4h4.21a4.19,4.19,0,0,0-4.21-4.16V65.4Z"/><path class="cls-7" d="M57.56,65.4H53.35a4.19,4.19,0,0,1,4.21-4.16V65.4Z"/><path class="cls-12" d="M80.22,73.23H25.85A1.76,1.76,0,0,0,24.1,75h0a1.76,1.76,0,0,0,1.75,1.75H80.22A1.76,1.76,0,0,0,82,75h0a1.76,1.76,0,0,0-1.75-1.75Z"/><path class="cls-13" d="M64.12,76.73v7.64c6,0,10.95-3.42,10.95-7.64Z"/><path class="cls-14" d="M64.12,76.73H53.18c0,4.22,4.9,7.64,10.94,7.64V76.73Z"/><path class="cls-13" d="M44,76.73v9.84c7.29,0,13.2-4.4,13.2-9.84Z"/><path class="cls-14" d="M44,76.73H30.75c0,5.44,5.91,9.84,13.2,9.84V76.73Z"/><path class="cls-15" d="M34.38,24.73a2,2,0,1,1-2-2A2,2,0,0,1,34.38,24.73Z"/><path class="cls-15" d="M36.65,27.59a.9.9,0,1,1-.9-.9A.9.9,0,0,1,36.65,27.59Z"/></g></g></svg>