<svg xmlns="http://www.w3.org/2000/svg" xmlns:xlink="http://www.w3.org/1999/xlink" viewBox="0 0 100.15 100.15"><defs><style>.cls-1{fill:url(#New_Gradient_Swatch_5);}.cls-2{fill:#c6c29b;opacity:0.5;}.cls-3,.cls-6{fill:#2cabae;}.cls-12,.cls-3,.cls-4,.cls-5,.cls-9{fill-rule:evenodd;}.cls-4,.cls-7{fill:#1d8a9c;}.cls-5,.cls-8{fill:#187e89;}.cls-9{fill:#3e2f3c;}.cls-10{fill:#ee6d58;}.cls-11{fill:#bf423c;}.cls-12,.cls-13{fill:#f2eed1;}</style><linearGradient id="New_Gradient_Swatch_5" x1="19.82" y1="19.82" x2="82.4" y2="82.4" gradientTransform="translate(84.97 -11.55) rotate(74.52)" gradientUnits="userSpaceOnUse"><stop offset="0" stop-color="#f2eed1"/><stop offset="0.33" stop-color="#f0ecce"/><stop offset="0.57" stop-color="#e8e4c5"/><stop offset="0.78" stop-color="#dbd7b5"/><stop offset="0.97" stop-color="#c9c59f"/><stop offset="1" stop-color="#c6c29b"/></linearGradient></defs><title>dog3</title><g id="レイヤー_2" data-name="レイヤー 2"><g id="Animals"><circle class="cls-1" cx="50.08" cy="50.08" r="50.08" transform="translate(-11.55 84.97) rotate(-74.52)"/><path class="cls-2" d="M99.44,58.43,52.5,11.48l-3.53,7L46.87,17l-3.4,3.4,4.73,4.72v1.38l2.73,12.29L51,40l-7.39-1.61,2.23-1.12-8.13-8.13L36,33.66l-5.19-1.23-3.72,1.64,6.31,6.31L22.6,44.84,44.92,67.16l4-1.74-5.41,5L48,74.84l-.7,12.36,3.89.24-.27,1L38,89.47,33.41,90.6l9,9A50.11,50.11,0,0,0,99.44,58.43Z"/><path class="cls-3" d="M47.32,67.72h0a1.4,1.4,0,0,0-1.4,1.4V85.34a1.4,1.4,0,0,0,1.4,1.4h0a1.4,1.4,0,0,0,1.4-1.4V69.12a1.4,1.4,0,0,0-1.4-1.4Z"/><path class="cls-4" d="M54.54,67.72h0a1.4,1.4,0,0,0-1.4,1.4V85.34a1.4,1.4,0,0,0,1.4,1.4h0a1.4,1.4,0,0,0,1.4-1.4V69.12a1.4,1.4,0,0,0-1.4-1.4Z"/><polygon class="cls-5" points="54.42 46.29 43.91 46.39 50.55 63.38 54.42 63.38 54.42 46.29 54.42 46.29"/><path class="cls-6" d="M62.43,54.19a8.11,8.11,0,0,1-2.32,6.29,10.93,10.93,0,0,1-6.19,2.66l-.29-2A9.07,9.07,0,0,0,58.73,59a6.17,6.17,0,0,0,1.7-4.82l2,0Z"/><path class="cls-5" d="M53.58,60.66a5.12,5.12,0,1,0,5.12,5.12,5.11,5.11,0,0,0-5.12-5.12Z"/><path class="cls-7" d="M48.22,65.72l4.66,4.66a6.59,6.59,0,0,0,0-9.33l-4.66,4.67Z"/><path class="cls-8" d="M48.22,65.72l-4.67,4.66a6.59,6.59,0,0,0,9.33,0l-4.66-4.66Z"/><path class="cls-6" d="M48.22,65.72l4.66-4.67a6.59,6.59,0,0,0-9.33,0l4.67,4.67Z"/><path class="cls-7" d="M48.22,65.72l-4.67,4.66a6.59,6.59,0,0,1,0-9.33l4.67,4.67Z"/><polygon class="cls-4" points="31.5 41.69 43.81 41.69 43.81 45.59 31.5 45.59 31.5 41.69 31.5 41.69"/><polygon class="cls-4" points="36.89 29.9 45.96 38.23 43.32 41.11 34.25 32.77 36.89 29.9 36.89 29.9"/><path class="cls-3" d="M46.68,32.63a9.07,9.07,0,1,0,9.06,9.07,9.07,9.07,0,0,0-9.06-9.07Z"/><path class="cls-5" d="M45.34,24.94l2.41-.81,7.57,10.45-8.71,3-2.12-10c-.53-1.59-.21-2.31.85-2.69Z"/><path class="cls-7" d="M55.13,38.06l6,6a8.53,8.53,0,0,0,0-12.06l-6,6Z"/><path class="cls-8" d="M55.13,38.06l-6,6a8.51,8.51,0,0,0,12.06,0l-6-6Z"/><path class="cls-6" d="M55.13,38.06l6-6A8.53,8.53,0,0,0,49.1,32l6,6Z"/><path class="cls-7" d="M55.13,38.06l-6,6A8.51,8.51,0,0,1,49.1,32l6,6Z"/><path class="cls-4" d="M29.54,41.69h-5.4a2,2,0,0,0-2,2h0a2,2,0,0,0,2,2h5.4a2,2,0,0,0,2-2h0a2,2,0,0,0-2-2Z"/><path class="cls-3" d="M31,39.53a4.11,4.11,0,1,0,4.1,4.11A4.11,4.11,0,0,0,31,39.53Z"/><path class="cls-4" d="M33.82,30.68H28.41a2,2,0,0,0-1.95,2h0a2,2,0,0,0,1.95,2h5.41a2,2,0,0,0,2-2h0a2,2,0,0,0-2-2Z"/><path class="cls-3" d="M35.6,28.53a4.11,4.11,0,1,0,4.11,4.1,4.1,4.1,0,0,0-4.11-4.1Z"/><path class="cls-9" d="M48.66,28a.85.85,0,1,0,.85.85.85.85,0,0,0-.85-.85Z"/><path class="cls-9" d="M48.19,22.18a1.33,1.33,0,1,0,1.33,1.32,1.33,1.33,0,0,0-1.33-1.32Z"/><path class="cls-8" d="M61.43,52.46v2.6a2.6,2.6,0,0,0,0-5.2v2.6Z"/><path class="cls-7" d="M58.83,52.46a2.61,2.61,0,0,0,2.6,2.6v-5.2a2.6,2.6,0,0,0-2.6,2.6Z"/><path class="cls-10" d="M48,15.87l4.47,4.48a6.33,6.33,0,0,0,0-9L48,15.87Z"/><path class="cls-11" d="M48,15.87l-4.48,4.48a6.33,6.33,0,0,0,9,0L48,15.87Z"/><path class="cls-11" d="M48,15.87l4.47-4.47a6.32,6.32,0,0,0-8.94,0L48,15.87Z"/><path class="cls-10" d="M48,15.87l-4.48,4.48a6.34,6.34,0,0,1,0-9L48,15.87Z"/><path class="cls-12" d="M45.44,13.37a2.23,2.23,0,1,0,3.16,0,2.24,2.24,0,0,0-3.16,0Z"/><polygon class="cls-11" points="54.43 90.6 47.42 90.6 50.93 86.74 54.43 90.6 54.43 90.6"/><polygon class="cls-11" points="54.43 90.6 61.44 90.6 57.94 86.74 54.43 90.6 54.43 90.6"/><polygon class="cls-11" points="40.41 90.6 47.42 90.6 43.92 86.74 40.41 90.6 40.41 90.6"/><polygon class="cls-11" points="40.41 90.6 33.41 90.6 36.91 86.74 40.41 90.6 40.41 90.6"/><polygon class="cls-11" points="68.45 90.6 61.44 90.6 64.94 86.74 68.45 90.6 68.45 90.6"/><polygon class="cls-10" points="50.93 86.74 43.92 86.74 47.42 90.6 50.93 86.74 50.93 86.74"/><polygon class="cls-10" points="50.93 86.74 57.94 86.74 54.43 90.6 50.93 86.74 50.93 86.74"/><polygon class="cls-10" points="36.91 86.74 43.92 86.74 40.41 90.6 36.91 86.74 36.91 86.74"/><polygon class="cls-10" points="64.94 86.74 57.94 86.74 61.44 90.6 64.94 86.74 64.94 86.74"/><path class="cls-13" d="M60,34.05a1,1,0,1,1-1-1A1,1,0,0,1,60,34.05Z"/><path class="cls-13" d="M58.11,37.53A2.49,2.49,0,1,1,55.62,35,2.49,2.49,0,0,1,58.11,37.53Z"/><path class="cls-13" d="M46.82,49.22a6.77,6.77,0,0,1-2.13-.37,7.81,7.81,0,0,1-4.56-4.06c-1.73-4.25.33-8.61,3.33-10a.81.81,0,0,1,1.09.39.82.82,0,0,1-.39,1.08c-2.85,1.34-3.62,5.25-2.52,7.94a6.19,6.19,0,0,0,3.58,3.13A4.32,4.32,0,0,0,48.84,47a.82.82,0,1,1,.82,1.41A5.58,5.58,0,0,1,46.82,49.22Z"/><polygon class="cls-13" points="52.42 11.4 52.5 11.48 52.54 11.4 52.42 11.4"/></g></g></svg>