<svg xmlns="http://www.w3.org/2000/svg" xmlns:xlink="http://www.w3.org/1999/xlink" viewBox="0 0 100.15 100.15"><defs><style>.cls-1{fill:url(#New_Gradient_Swatch_2);}.cls-2{fill:#187e89;opacity:0.81;}.cls-3{fill:#e1deb4;}.cls-4{fill:#f2eed1;}.cls-5{fill:#bf423c;}.cls-6{fill:#3e2f3c;}</style><linearGradient id="New_Gradient_Swatch_2" y1="50.08" x2="100.15" y2="50.08" gradientTransform="translate(93.22 -6.08) rotate(82.53)" gradientUnits="userSpaceOnUse"><stop offset="0" stop-color="#2cabae"/><stop offset="1" stop-color="#187e89"/></linearGradient></defs><title>dog4</title><g id="レイヤー_2" data-name="レイヤー 2"><g id="Animals"><circle class="cls-1" cx="50.08" cy="50.08" r="50.07" transform="translate(-6.08 93.22) rotate(-82.53)"/><path class="cls-2" d="M56.1,99.78a50.08,50.08,0,0,0,44.05-49.7A50.67,50.67,0,0,0,99.64,43L86.38,29.71v3.37l-5.89-5.42-4,1.87L85.92,39l-.67,5-13.8,6.82L49,28.29l-8.3,1.21-1.37,8.43-5.66,4.42-20.8-2.76-1.2,1.76,3.53,3.53-.88,6.41,20,20-4.45,2.21Z"/><path class="cls-3" d="M77.8,49.82a2,2,0,0,1,0-4A7.91,7.91,0,1,0,77.8,30a2,2,0,1,1,0-4,11.89,11.89,0,1,1,0,23.78Z"/><rect class="cls-4" x="33.42" y="43.96" width="46.3" height="21.32" rx="3.66" ry="3.66"/><path class="cls-3" d="M33.42,54.62v7a3.66,3.66,0,0,0,3.65,3.66h39a3.66,3.66,0,0,0,3.66-3.66v-7Z"/><path class="cls-3" d="M49,72.13a2,2,0,0,1-2,2h0a2,2,0,0,1-2-2V61.93a2,2,0,0,1,2-2h0a2,2,0,0,1,2,2Z"/><path class="cls-4" d="M46.75,70.15a2,2,0,0,1,2,2h0a2,2,0,0,1-2,2H42.63a2,2,0,0,1-2-2h0a2,2,0,0,1,2-2Z"/><path class="cls-3" d="M37.57,72.13a2,2,0,0,1-2,2h0a2,2,0,0,1-2-2V61.93a2,2,0,0,1,2-2h0a2,2,0,0,1,2,2Z"/><path class="cls-4" d="M35.36,70.15a2,2,0,0,1,2,2h0a2,2,0,0,1-2,2H31.25a2,2,0,0,1-2-2h0a2,2,0,0,1,2-2Z"/><path class="cls-3" d="M79.72,72.13a2,2,0,0,1-2,2h0a2,2,0,0,1-2-2V61.93a2,2,0,0,1,2-2h0a2,2,0,0,1,2,2Z"/><path class="cls-4" d="M77.51,70.15a2,2,0,0,1,2,2h0a2,2,0,0,1-2,2H73.4a2,2,0,0,1-2-2h0a2,2,0,0,1,2-2Z"/><path class="cls-3" d="M68.33,72.13a2,2,0,0,1-2,2h0a2,2,0,0,1-2-2V61.93a2,2,0,0,1,2-2h0a2,2,0,0,1,2,2Z"/><path class="cls-4" d="M66.13,70.15a2,2,0,0,1,2,2h0a2,2,0,0,1-2,2H62a2,2,0,0,1-2-2h0a2,2,0,0,1,2-2Z"/><path class="cls-5" d="M38,44a4.54,4.54,0,0,0-4.55,4.54v8.34H39.1A6.83,6.83,0,0,0,45.92,50V44Z"/><path class="cls-3" d="M41.64,38.09a2.35,2.35,0,0,1-2.36,2.36h0a2.36,2.36,0,0,1-2.36-2.36V30a2.36,2.36,0,0,1,2.36-2.36h0A2.36,2.36,0,0,1,41.64,30Z"/><path class="cls-4" d="M47.35,27.66A2.37,2.37,0,0,1,49.72,30h0a2.36,2.36,0,0,1-2.37,2.36H39.28A2.36,2.36,0,0,1,36.92,30h0a2.36,2.36,0,0,1,2.36-2.36Z"/><path class="cls-4" d="M41.64,39.69A3.64,3.64,0,0,0,38,36H17a3.65,3.65,0,0,0-3.66,3.65v8.53H41.64Z"/><path class="cls-3" d="M17,52.49H38a3.65,3.65,0,0,0,3.65-3.66v-.61H13.31v.61A3.66,3.66,0,0,0,17,52.49Z"/><path class="cls-6" d="M36,42.59a2.14,2.14,0,1,1-2.13-2.14A2.14,2.14,0,0,1,36,42.59Z"/><path class="cls-6" d="M16.17,39.05a2.86,2.86,0,1,1-2.86-2.86A2.86,2.86,0,0,1,16.17,39.05Z"/></g></g></svg>