<svg xmlns="http://www.w3.org/2000/svg" xmlns:xlink="http://www.w3.org/1999/xlink" viewBox="0 0 100.15 100.15"><defs><style>.cls-1{fill:url(#New_Gradient_Swatch_5);}.cls-2{fill:#c6c29b;opacity:0.5;}.cls-10,.cls-11,.cls-12,.cls-2,.cls-3,.cls-4,.cls-5,.cls-6,.cls-7,.cls-8{fill-rule:evenodd;}.cls-3{fill:#bf423c;}.cls-4{fill:#f5c268;}.cls-5{fill:#9b2c2c;}.cls-6{fill:#ee6d58;}.cls-7{fill:#5b4559;}.cls-8{fill:#3e2f3c;}.cls-9{fill:#d89144;}.cls-10{fill:#2cabae;}.cls-11{fill:#1d8a9c;}.cls-12{fill:#f2eed1;}</style><linearGradient id="New_Gradient_Swatch_5" x1="17.23" y1="17.23" x2="86.75" y2="86.75" gradientUnits="userSpaceOnUse"><stop offset="0" stop-color="#f2eed1"/><stop offset="0.33" stop-color="#f0ecce"/><stop offset="0.57" stop-color="#e8e4c5"/><stop offset="0.78" stop-color="#dbd7b5"/><stop offset="0.97" stop-color="#c9c59f"/><stop offset="1" stop-color="#c6c29b"/></linearGradient></defs><title>dog5</title><g id="レイヤー_2" data-name="レイヤー 2"><g id="Animals"><circle class="cls-1" cx="50.08" cy="50.08" r="50.08"/><path class="cls-2" d="M100.15,50.08c0-.16,0-.31,0-.46L72,21.43,58.2,24.27,41.36,26.74,47,39.92,20.34,51.27l7,7-1.65,4.05,12,12L24.48,82.14,41.79,99.46a50.08,50.08,0,0,0,58.36-49.38Z"/><polygon class="cls-3" points="35.82 56.16 64.33 56.16 64.33 77.96 35.82 77.96 35.82 56.16 35.82 56.16"/><path class="cls-4" d="M50.08,75.51c-6.92,0-12.53-6.57-12.53-14.66a16.11,16.11,0,0,1,3-9.58h9.49V75.51Z"/><path class="cls-4" d="M50.08,75.51c6.91,0,12.52-6.57,12.52-14.66a16.18,16.18,0,0,0-3-9.58H50.08V75.51Z"/><path class="cls-3" d="M35.45,18.58a10.74,10.74,0,0,0-10.7,10.69c0,1.94-3.76,12-5.55,16.91C18,49.59,21.28,53,24.31,54.49v4.34a5.08,5.08,0,0,0,5.07,5.07h6.39a5.09,5.09,0,0,0,5.08-5.07V48.6a5.11,5.11,0,0,0-3.3-4.75A9.31,9.31,0,0,0,35.47,40a10.7,10.7,0,0,0,0-21.39Z"/><path class="cls-5" d="M64.7,18.58A10.74,10.74,0,0,1,75.4,29.27c0,1.94,3.76,12,5.55,16.91,1.24,3.41-2.08,6.77-5.1,8.31v4.34a5.09,5.09,0,0,1-5.08,5.07H64.38a5.08,5.08,0,0,1-5.07-5.07V48.6a5.1,5.1,0,0,1,3.29-4.75A9.31,9.31,0,0,1,64.68,40a10.7,10.7,0,0,1,0-21.39Z"/><path class="cls-4" d="M50.08,21.33c-11.48,0-20.78,7.29-20.78,16.29s9.3,16.3,20.78,16.3V21.33Z"/><path class="cls-4" d="M50.08,21.33c11.47,0,20.77,7.29,20.77,16.29s-9.3,16.3-20.77,16.3V21.33Z"/><path class="cls-6" d="M46.84,42.61a4.26,4.26,0,0,1,3.24,2.7V56.48c-.63,2.13-1.94,3.42-5.59,3-6-.65-4.65-4.34-4-9S44,42.3,46.84,42.61Z"/><path class="cls-3" d="M53.31,42.61a4.23,4.23,0,0,0-3.23,2.7V56.48c.62,2.13,1.94,3.42,5.59,3,6-.65,4.64-4.34,4-9s-3.49-8.19-6.35-7.88Z"/><path class="cls-6" d="M39,23.84c-5.82,2.89-9.68,8-9.68,13.78a13.51,13.51,0,0,0,2.33,7.51l.55.14c4.68,1,10.6-1.48,7.41-12-1.66-5.41-1-8-.61-9.47Z"/><path class="cls-6" d="M61.17,23.84c5.82,2.89,9.68,8,9.68,13.78a13.51,13.51,0,0,1-2.33,7.51l-.55.14c-4.68,1-10.6-1.48-7.41-12,1.66-5.41,1-8,.61-9.47Z"/><path class="cls-7" d="M45.58,41.43c.7-.22,2.46,1,4.25.94,2,0,4-1.18,4.75-.94,1.69.53,2.53,2.68,1.87,4.8s-2.57,3.41-4.27,2.89A3,3,0,0,1,50.26,47h-.37A3,3,0,0,1,48,49.12c-1.7.52-3.61-.77-4.27-2.89s.18-4.27,1.88-4.8Z"/><path class="cls-8" d="M36.1,38.13A1.84,1.84,0,1,0,37.93,40a1.84,1.84,0,0,0-1.83-1.84Z"/><path class="cls-8" d="M64.06,38.13A1.84,1.84,0,1,0,65.89,40a1.84,1.84,0,0,0-1.83-1.84Z"/><path class="cls-4" d="M64.4,63.9h0a2.86,2.86,0,0,0-2.85,2.85v6.93a2.86,2.86,0,0,0,2.85,2.85h0a2.86,2.86,0,0,0,2.86-2.85V66.75A2.86,2.86,0,0,0,64.4,63.9Z"/><path class="cls-4" d="M35.75,63.9h0a2.86,2.86,0,0,0-2.85,2.85v6.93a2.86,2.86,0,0,0,2.85,2.85h0a2.86,2.86,0,0,0,2.85-2.85V66.75a2.86,2.86,0,0,0-2.85-2.85Z"/><path class="cls-9" d="M35.75,73.36c-4.4,0-8,2.06-8,4.6H43.7c0-2.54-3.56-4.6-8-4.6Z"/><path class="cls-9" d="M64.4,73.36c-4.39,0-8,2.06-8,4.6H72.36c0-2.54-3.56-4.6-8-4.6Z"/><path class="cls-10" d="M26.29,78H73.86a2.49,2.49,0,0,1,2.49,2.48H23.8A2.49,2.49,0,0,1,26.29,78Z"/><path class="cls-11" d="M26.29,82.93H73.86a2.5,2.5,0,0,0,2.49-2.49H23.8a2.5,2.5,0,0,0,2.49,2.49Z"/><path class="cls-4" d="M37.94,34.75A1.21,1.21,0,0,1,36.73,36H32.6a1.21,1.21,0,0,1-1.21-1.21h0a1.21,1.21,0,0,1,1.21-1.21h4.13a1.21,1.21,0,0,1,1.21,1.21Z"/><path class="cls-4" d="M68.76,34.75A1.21,1.21,0,0,1,67.55,36H63.42a1.21,1.21,0,0,1-1.21-1.21h0a1.21,1.21,0,0,1,1.21-1.21h4.13a1.21,1.21,0,0,1,1.21,1.21Z"/><path class="cls-8" d="M54.58,43.47c-.77-.24-2.78.93-4.75.94-1.79,0-3.55-1.16-4.25-.94a3.05,3.05,0,0,0-2,2.34c0,.14.07.28.11.42.66,2.12,2.57,3.41,4.27,2.89A3,3,0,0,0,49.89,47h.37a3,3,0,0,0,1.92,2.08c1.7.52,3.61-.77,4.27-2.89,0-.14.08-.28.11-.42A3,3,0,0,0,54.58,43.47Z"/><path class="cls-12" d="M48.6,64.46a2.81,2.81,0,1,1-2.81-2.81A2.81,2.81,0,0,1,48.6,64.46Z"/><path class="cls-12" d="M51.55,68.74a1.48,1.48,0,1,1-1.47-1.47A1.47,1.47,0,0,1,51.55,68.74Z"/><path class="cls-6" d="M29.19,51a1.74,1.74,0,1,1-1.74-1.75A1.74,1.74,0,0,1,29.19,51Z"/><path class="cls-6" d="M34.26,57.55a2.88,2.88,0,1,1-2.87-2.87A2.87,2.87,0,0,1,34.26,57.55Z"/></g></g></svg>