<svg xmlns="http://www.w3.org/2000/svg" xmlns:xlink="http://www.w3.org/1999/xlink" viewBox="0 0 100.15 100.15"><defs><style>.cls-1{fill:url(#New_Gradient_Swatch_3);}.cls-2{fill:#3e2f3c;}.cls-2,.cls-3,.cls-4,.cls-5,.cls-6,.cls-7,.cls-8{fill-rule:evenodd;}.cls-3{fill:#e1deb4;}.cls-4{fill:#2cabae;}.cls-5{fill:#187e89;}.cls-6{fill:#f5c268;}.cls-7{fill:#fbeba6;}.cls-8{fill:#f2eed1;}</style><linearGradient id="New_Gradient_Swatch_3" x1="17.37" y1="17.37" x2="83.57" y2="83.57" gradientUnits="userSpaceOnUse"><stop offset="0" stop-color="#5b4559"/><stop offset="1" stop-color="#3e2f3c"/></linearGradient></defs><title>elephant</title><g id="レイヤー_2" data-name="レイヤー 2"><g id="Animals"><circle class="cls-1" cx="50.08" cy="50.08" r="50.08"/><path class="cls-2" d="M100.14,50.64,83.91,34.41l-2.62-.25-2.92-2.92-8.62,3.55L35.62,36.63l-6.93,9.24L23.14,49,20.26,69.31l30.82,30.82A50.07,50.07,0,0,0,100.14,50.64Z"/><path class="cls-3" d="M69.75,34.79a16.54,16.54,0,0,0-3.47-.38,16.35,16.35,0,0,0,0,32.69,16.54,16.54,0,0,0,3.47-.38Z"/><path class="cls-4" d="M74.72,29.31H46.85c-2.82,0-5.13,2.9-5.13,6.43V72.2H52V49.73h8.78a10.84,10.84,0,0,0,8.83,7.05V72.2H79.85V35.74C79.85,32.21,77.54,29.31,74.72,29.31Z"/><path class="cls-4" d="M28.8,29.31H26.92a9,9,0,0,0-9.07,8.93v25a9,9,0,0,0,9.07,8.93H28.8a9,9,0,0,0,9.08-8.93v-.19H34.07c-.79,2.33-2.34,4.76-6.61,3.87S23.05,60.86,25.05,55l12.83-8.23V38.24a9,9,0,0,0-9.08-8.93Z"/><path class="cls-5" d="M49.52,29.31H32.37a2.57,2.57,0,0,0-2.48,2.63V38.1L44.1,55.88h5.42A2.57,2.57,0,0,0,52,53.25V31.94a2.57,2.57,0,0,0-2.48-2.63Z"/><path class="cls-5" d="M25.05,55l12.83-8.23V38.24a9,9,0,0,0-.27-2.15A2.22,2.22,0,0,0,37.1,36h-10a2.05,2.05,0,0,0-2.05,2V55Z"/><path class="cls-6" d="M23.2,56.53c-.39-.61,2.07-3.13,5.49-5.62.8-.57,1.58-1.1,2.31-1.56l1.32,2.06c-.66.55-1.41,1.13-2.2,1.71-3.43,2.49-6.53,4-6.92,3.41Z"/><path class="cls-3" d="M33.71,46.42l1.66,2.26a1.32,1.32,0,0,1-.22,1.77L30.92,54a1.14,1.14,0,0,1-1.66-.21L27.59,51.5a1.32,1.32,0,0,1,.22-1.77L32,46.22a1.15,1.15,0,0,1,1.67.2Z"/><path class="cls-3" d="M22.84,41.88h3.21a.59.59,0,0,1,.58.58v1.43a.58.58,0,0,1-.58.58H22.84a.58.58,0,0,1-.58-.58V42.46a.59.59,0,0,1,.58-.58Z"/><path class="cls-2" d="M23.14,42.73a1.47,1.47,0,1,0,1.39,1.47,1.44,1.44,0,0,0-1.39-1.47Z"/><path class="cls-4" d="M77.78,33.67h4.7A1.88,1.88,0,0,1,84.3,35.6V44H83.13V36.49a1.54,1.54,0,0,0-1.49-1.58H77.78V33.67Z"/><path class="cls-5" d="M83.67,43.76a2.82,2.82,0,0,1,2.72,2.9H81a2.82,2.82,0,0,1,2.71-2.9Z"/><path class="cls-3" d="M44.1,29.31H32.37a2.57,2.57,0,0,0-2.48,2.63V38.1L44.1,55.88V29.31Z"/><path class="cls-7" d="M46.86,70.48a1.72,1.72,0,0,1,1.72,1.72H45.14a1.72,1.72,0,0,1,1.72-1.72Z"/><path class="cls-7" d="M43.43,70.48a1.72,1.72,0,0,0-1.72,1.72h3.43a1.72,1.72,0,0,0-1.71-1.72Z"/><path class="cls-7" d="M50.29,70.48a1.71,1.71,0,0,0-1.71,1.72H52a1.72,1.72,0,0,0-1.72-1.72Z"/><path class="cls-7" d="M74.72,70.48a1.72,1.72,0,0,1,1.72,1.72H73a1.72,1.72,0,0,1,1.72-1.72Z"/><path class="cls-7" d="M71.29,70.48a1.72,1.72,0,0,0-1.72,1.72H73a1.72,1.72,0,0,0-1.71-1.72Z"/><path class="cls-7" d="M78.15,70.48a1.71,1.71,0,0,0-1.71,1.72h3.43a1.72,1.72,0,0,0-1.72-1.72Z"/><path class="cls-8" d="M72.84,35a3.44,3.44,0,1,1-3.43,3.43A3.43,3.43,0,0,1,72.84,35Z"/><path class="cls-8" d="M71.46,43.94a1.72,1.72,0,1,1-1.71,1.72,1.72,1.72,0,0,1,1.71-1.72Z"/><path class="cls-8" d="M35.62,32.85a1.23,1.23,0,1,1-1.23-1.22A1.22,1.22,0,0,1,35.62,32.85Z"/><path class="cls-8" d="M41.14,37.18a2.76,2.76,0,1,1-2.76-2.77A2.77,2.77,0,0,1,41.14,37.18Z"/></g></g></svg>