<svg xmlns="http://www.w3.org/2000/svg" xmlns:xlink="http://www.w3.org/1999/xlink" viewBox="0 0 100.15 100.15"><defs><style>.cls-1{fill:url(#linear-gradient);}.cls-2{fill:#187e89;opacity:0.81;}.cls-3,.cls-5{fill:#bf423c;}.cls-4{fill:#ee6d58;}.cls-4,.cls-5,.cls-6,.cls-7,.cls-8{fill-rule:evenodd;}.cls-6{fill:#a32b2b;}.cls-7{fill:#f5c268;}.cls-8{fill:#3e2f3c;}</style><linearGradient id="linear-gradient" x1="19.1" y1="19.1" x2="76.11" y2="76.11" gradientUnits="userSpaceOnUse"><stop offset="0" stop-color="#2cabae"/><stop offset="1" stop-color="#187e89"/></linearGradient></defs><title>fish3</title><g id="レイヤー_2" data-name="レイヤー 2"><g id="Animals"><circle class="cls-1" cx="50.08" cy="50.08" r="50.08"/><path class="cls-2" d="M100,54.12,66.46,20.61,63.87,24l-13-13L48.27,14.4l.81,5.3L44.63,39.34l2.65,21.07-5.1,3,.75,13.62-11.8,7.42L46.89,100c1,.07,2.11.11,3.19.11A50.06,50.06,0,0,0,100,54.12Z"/><path class="cls-3" d="M37,79.25,29.91,83c1.57,3,6,3.67,9.92,1.59s5.81-6.15,4.24-9.11L37,79.25Z"/><polygon class="cls-4" points="29.91 83.01 44.07 75.49 42.74 72.98 28.58 80.5 29.91 83.01 29.91 83.01"/><path class="cls-3" d="M54.63,80a.86.86,0,0,1,1.66-.46,9.84,9.84,0,0,1-.33,6,6.11,6.11,0,0,1-3.67,3.67.87.87,0,0,1-1.09-.53.88.88,0,0,1,.53-1.1,4.43,4.43,0,0,0,2.64-2.68A8,8,0,0,0,54.63,80Z"/><path class="cls-3" d="M59.62,75.81a.86.86,0,0,0-1.66.47,9.92,9.92,0,0,0,3.39,5,6.11,6.11,0,0,0,5,1.23A.86.86,0,0,0,66,80.78a4.41,4.41,0,0,1-3.64-.93,8,8,0,0,1-2.77-4Z"/><path class="cls-5" d="M49.19,30.36,47,29c-20.49,15.1-13.79,55.93,8.79,54.64l2.93-1.38c-2.47-3.13-4.48-7.08-6.37-10.17C43.2,57.24,40.93,43.8,49.19,30.36Z"/><path class="cls-3" d="M63.94,64.7l-7.08,3.76c1.57,3,6,3.67,9.92,1.59s5.81-6.16,4.24-9.11L63.94,64.7Z"/><polygon class="cls-4" points="56.86 68.46 71.02 60.94 69.68 58.43 55.52 65.94 56.86 68.46 56.86 68.46"/><path class="cls-6" d="M51.43,32.26l-2.24-1.9c-8.34,13.12-7.52,29.57,9.48,51.88,17.54-8.57-20.07-27.54-7.24-50Z"/><path class="cls-4" d="M48.23,32.39a9.59,9.59,0,0,1-3-13.13l4.19-6.73A8.88,8.88,0,0,1,50.86,11a9.4,9.4,0,0,0,3.62,11.41l-6.25,10Z"/><path class="cls-5" d="M48.23,32.39a9.6,9.6,0,0,0,13.11-3.1l4.19-6.73a9.65,9.65,0,0,0,.93-1.95,9.61,9.61,0,0,1-12,1.76l-6.25,10Z"/><path class="cls-7" d="M42.43,33.21A32.62,32.62,0,0,0,35.69,47a7.54,7.54,0,0,1,2.69-1.3c2.66-.83,1.1-4.09,2.84-5.1A4.57,4.57,0,0,0,43,35.27a8.68,8.68,0,0,1-.59-2.06Z"/><path class="cls-7" d="M34.84,52.42A37.89,37.89,0,0,0,38.2,72.08c1-1.26,1.64-3,3.1-4.42,1.17-1.1,2.12-4.72,1.35-5.26-2-1.41.86-5-1.15-6.71-.25-.22-4.2-1.88-4.54-2a7.28,7.28,0,0,1-2.12-1.28Z"/><path class="cls-7" d="M44.41,42.75c-1.2,7.6.38,16.19,5.58,26.1a11.12,11.12,0,0,0,2.31-3.33c.58-2.87.08-5.54-2.31-7.09-3.35-2.18-3.55-3.71-5-9.84-.1-.45-.15-4.28-.63-5.84Z"/><path class="cls-7" d="M49.08,46a20,20,0,0,1-.16-6.7,7.47,7.47,0,0,0-1.65.94c-1.46,1.55-1,2.88.2,4.35A4.54,4.54,0,0,0,49.08,46Z"/><path class="cls-7" d="M39.44,74.34c3.61,5.88,9.16,9.69,16.3,9.28l2.93-1.38a92.13,92.13,0,0,1-6.06-9.65c-2,.75-3.39-.18-5.83-.68s-6,.56-7.34,2.43Z"/><path class="cls-8" d="M49.06,76.48a2.41,2.41,0,1,0,2.41,2.41,2.41,2.41,0,0,0-2.41-2.41Z"/><path class="cls-7" d="M53,74q2.49,4,5.72,8.24c8.07-3.94,4.47-10.09-.53-17.76-.2,1-.31,2.09-.48,3.12-.4,2.32-3.93,4.69-5.48,5.13l.15.25A5.13,5.13,0,0,0,53,74Z"/><path class="cls-8" d="M63.19,74.19a19.14,19.14,0,0,0-1.87-4.52,2.47,2.47,0,0,0-1.7,2.4A2.42,2.42,0,0,0,62,74.57a2.24,2.24,0,0,0,1.24-.38Z"/></g></g></svg>