<svg xmlns="http://www.w3.org/2000/svg" xmlns:xlink="http://www.w3.org/1999/xlink" viewBox="0 0 100.15 100.15"><defs><style>.cls-1{fill:url(#New_Gradient_Swatch_3);}.cls-2,.cls-8{fill:#3e2f3c;}.cls-3{fill:#9b2c2c;}.cls-3,.cls-4,.cls-5,.cls-6,.cls-7,.cls-8,.cls-9{fill-rule:evenodd;}.cls-4{fill:#bf423c;}.cls-5{fill:#ee6d58;}.cls-6{fill:#eea74e;}.cls-7{fill:#f5c268;}.cls-9{fill:#f2eed1;}</style><linearGradient id="New_Gradient_Swatch_3" x1="18.1" y1="18.1" x2="85.57" y2="85.57" gradientTransform="translate(94.97 -4.69) rotate(84.35)" gradientUnits="userSpaceOnUse"><stop offset="0" stop-color="#5b4559"/><stop offset="1" stop-color="#3e2f3c"/></linearGradient></defs><title>fish</title><g id="レイヤー_2" data-name="レイヤー 2"><g id="Animals"><circle class="cls-1" cx="50.08" cy="50.08" r="50.08" transform="translate(-4.69 94.97) rotate(-84.35)"/><path class="cls-2" d="M13.88,59.67,54.18,100A50.08,50.08,0,0,0,100,53.69l-9.84-9.84L76.66,53.39l-1-1-2.76,1.7L56.64,37.85l-10-10L39.28,39.58l5.78,11.69-12.91.51Zm54.39-5.19,1.47.71-3.13-.91Z"/><path class="cls-3" d="M89.39,66.63c1.15-1.29.87-6.95-2.78-10.2s-9.19-3-10.47-1.56L89.39,66.63Z"/><path class="cls-4" d="M89.39,66.63c-1.15,1.3-6.8,1.69-10.46-1.56s-4.07-8.76-2.79-10.2L89.39,66.63Z"/><path class="cls-3" d="M90.17,43.85c1.09,1.34.61,7-3.17,10.09s-9.29,2.66-10.51,1.17L90.17,43.85Z"/><path class="cls-4" d="M90.17,43.85c-1.11-1.34-6.74-1.94-10.52,1.17s-4.39,8.61-3.16,10.09L90.17,43.85Z"/><path class="cls-5" d="M38.75,43.07c8.11,0,17.55,4.42,24.27,6.55,8.59,2.73,13.17-.39,13.48,5.58-.31,6-4.89,2.86-13.48,5.59-6.72,2.13-16.16,6.55-24.27,6.55C20.24,67.34,9.68,56.73,9.47,55.2c.21-1.52,10.77-12.13,29.28-12.13Z"/><path class="cls-5" d="M44.67,46.87,32.15,45C33.7,37.39,38.72,31.79,46.6,27.8c-1.54,5.78,1.35,8.48,7.13,6.94-4.47,3-6.62,7.37-9.06,12.13Z"/><path class="cls-4" d="M51.9,54.42l-7.7-3.37c1.28-7.74,2.36-11.08,9.09-16.2-1.54,5.78-.34,7.21,4.87,6.82-4.47,3-3.82,8-6.26,12.75Z"/><path class="cls-3" d="M60.08,60.74l-9.95-3.45c2.08-7.35.31-11.3,8-15.62.76,4.62,2,4.28,6.35,4-3.66,3.65-2,10.25-4.43,15Z"/><path class="cls-4" d="M50.11,63.29,34.89,65c1.83,3.72,4.68,6.83,12,7.32-1.48-4.72.73-7.26,3.27-9.06Z"/><path class="cls-6" d="M38.75,43.07c7.89,0,17,4.18,23.71,6.37a34.15,34.15,0,0,1-.74,11.78c-6.6,2.24-15.37,6.12-23,6.12A44.24,44.24,0,0,1,21.67,64a33.35,33.35,0,0,1-1.76-10.79,34.28,34.28,0,0,1,.58-6.31,44,44,0,0,1,18.26-3.84Z"/><path class="cls-5" d="M38.75,43.07c5.18,0,10.89,1.8,16.1,3.65a28.84,28.84,0,0,1,.27,16.87c-5.28,1.89-11.1,3.75-16.37,3.75A44.24,44.24,0,0,1,21.67,64a33.38,33.38,0,0,1-1.76-10.26,28.88,28.88,0,0,1,1-7,44.08,44.08,0,0,1,17.85-3.65Z"/><path class="cls-7" d="M38.75,43.07A34.08,34.08,0,0,1,47,44.25a35.15,35.15,0,0,1,1.39,9.88,34.73,34.73,0,0,1-2.17,12.22,32.86,32.86,0,0,1-7.47,1,44.21,44.21,0,0,1-17-3.3,34.77,34.77,0,0,1-1.81-10.48,28.3,28.3,0,0,1,1-6.84,44.08,44.08,0,0,1,17.85-3.65Z"/><path class="cls-5" d="M38.75,43.07h.68a29.61,29.61,0,0,1,2,10.78A29,29,0,0,1,38.2,67.33a44,44,0,0,1-16.11-3.15A28.91,28.91,0,0,1,20,54.94c0-.46,0-.92,0-1.38a28.3,28.3,0,0,1,1-6.84,44.08,44.08,0,0,1,17.85-3.65Z"/><path class="cls-6" d="M30.11,66.53c-13-2.47-20.29-9.88-20.63-11.28a2.25,2.25,0,0,1,.22-.54c1.37-2.18,9-9,21.63-11.05a28.86,28.86,0,0,1,1.78,10,28.4,28.4,0,0,1-3,12.83Z"/><path class="cls-8" d="M25.26,50.39a2.31,2.31,0,1,0,2.31,2.31,2.31,2.31,0,0,0-2.31-2.31Z"/><path class="cls-9" d="M51.9,52.15a3.85,3.85,0,1,1-3.85-3.85A3.85,3.85,0,0,1,51.9,52.15Z"/><path class="cls-9" d="M57.32,52.68a1.8,1.8,0,1,1-1.8-1.8A1.8,1.8,0,0,1,57.32,52.68Z"/></g></g></svg>