<svg xmlns="http://www.w3.org/2000/svg" xmlns:xlink="http://www.w3.org/1999/xlink" viewBox="0 0 100.15 100.15"><defs><style>.cls-1{fill:url(#New_Gradient_Swatch_4);}.cls-2{fill:#bf423c;}.cls-3{fill:#e1deb4;}.cls-4,.cls-5{fill:#9b2c2c;}.cls-5,.cls-6,.cls-8,.cls-9{fill-rule:evenodd;}.cls-6,.cls-7{fill:#eea74e;}.cls-8{fill:#3e2f3c;}.cls-9{fill:#f5c268;}</style><linearGradient id="New_Gradient_Swatch_4" x1="18.75" y1="18.75" x2="88.26" y2="88.25" gradientTransform="translate(77.18 -15.35) rotate(67.5)" gradientUnits="userSpaceOnUse"><stop offset="0" stop-color="#ee6d58"/><stop offset="1" stop-color="#bf423c"/></linearGradient></defs><title>fish2</title><g id="レイヤー_2" data-name="レイヤー 2"><g id="Animals"><circle class="cls-1" cx="50.08" cy="50.08" r="50.08" transform="translate(-15.35 77.18) rotate(-67.5)"/><path class="cls-2" d="M98.51,62.83l-19.7-19.7-1,.85-6-6-1.9,7.15L59.68,34.9l-8-3.43-7.31-7.31-.68,3.07-2.21,2.46-3.78-3.78-1,2.22-2.92,3.94-9.68-9.68-1.23,9.38,1.44.35-1.91,1.94,5.08,5.08,4.57,4.57v2.76l-2-2.52L26.32,40.2l2,6.89.74.44-3.08,4,.39,4.56,5.27,5.28,0,.93L24,54.74l-1.76,5.34,1.85,3.76-2.28,1.59,6.26,6.26-2.37,1.1-2.52,1.29,26.05,26.05.85,0A50.09,50.09,0,0,0,98.51,62.83Z"/><path class="cls-3" d="M44.56,24.93a1.47,1.47,0,0,0-1.45-1.47,1.45,1.45,0,0,0-1.46,1.45L41.2,70.72h2.91l.45-45.79Z"/><path class="cls-3" d="M53.82,36.94a1.46,1.46,0,1,0-2.92,0V70.72h2.92V36.94Z"/><path class="cls-3" d="M37.91,26.71a1.47,1.47,0,1,0-2.93,0V39.54a1.47,1.47,0,0,0,2.93,0V26.71Z"/><path class="cls-3" d="M24.58,23.42a1.46,1.46,0,0,0-2.91.09L22,33.09a1.45,1.45,0,0,0,1.4,1.41h0l7.2.27V63.41l-6.17-.26V55.78a1.46,1.46,0,0,0-2.92,0v8.77A1.46,1.46,0,0,0,23,66H23l7.61.26v4.45h2.89V33.37h0a1.46,1.46,0,0,0-1.41-1.46l-7.25-.27-.28-8.22Z"/><path class="cls-3" d="M64.38,49.44a1.46,1.46,0,1,0-2.92,0V60.65H58.7a1.46,1.46,0,0,0-1.46,1.46v8.61h2.93V63.57h2.76a1.47,1.47,0,0,0,1.46-1.46V49.44Z"/><path class="cls-3" d="M79.16,44.08a1.46,1.46,0,1,0-2.92,0v7.14H72V38.72a1.47,1.47,0,0,0-2.93,0v25.4l-7.29,3.5A1.46,1.46,0,0,0,61,68.93h0v1.79H63.9v-.88l7.17-3.44A1.47,1.47,0,0,0,72,65V54.15H77.7a1.46,1.46,0,0,0,1.47-1.46v-8.6Z"/><path class="cls-4" d="M47.22,70.72H73.45c0,1.79-1.81,3.45-4.87,4.81h0a3,3,0,0,1-6,0h0a3,3,0,0,0-6,0h0a3,3,0,0,1-6,0h0a3,3,0,0,0-6,0h0a3,3,0,0,1-6,0h0a3,3,0,0,0-6,0h0a3,3,0,0,1-6,0c-1.89,0-5.46-2.63-5.46-4.81Z"/><path class="cls-5" d="M58.91,22a3.58,3.58,0,1,1-3.57,3.58A3.57,3.57,0,0,1,58.91,22Z"/><path class="cls-5" d="M65,31.33a1.79,1.79,0,1,1-1.79,1.78A1.79,1.79,0,0,1,65,31.33Z"/><path class="cls-6" d="M42.22,28.65c8.4,0,15.2,4.36,15.2,9.74s-6.8,9.75-15.19,9.75S27,43.78,27,38.4s6.8-9.75,15.19-9.75Z"/><path class="cls-6" d="M43.28,61c7.82,0,14.15-2.88,14.15-6.42s-6.34-6.42-14.15-6.42S29.14,51,29.14,54.56,35.47,61,43.28,61Z"/><path class="cls-7" d="M26.32,40.2a32.71,32.71,0,0,0,0,15.89c2.14-5.54,4.68-8,7.55-8-2.9-.79-5.63-2.41-7.56-7.94Z"/><path class="cls-8" d="M44.89,32.88c5.28-1.45,14.29-.49,14.94,2.43.72,3.21,2.45,8.76,5.2,11.85,2.46,2.76,6,2.6,6.18,4.55.3,3.64-11.59,7.47-20.87,7.48S32.06,50.85,32.06,45,35,35.6,44.89,32.88Z"/><polygon class="cls-9" points="58.91 42.92 57.05 45.22 54.75 47.09 57.05 48.96 58.91 51.25 60.78 48.96 63.08 47.09 60.78 45.22 58.91 42.92 58.91 42.92"/><path class="cls-8" d="M58.91,46A1.06,1.06,0,1,0,60,47.09,1.06,1.06,0,0,0,58.91,46Z"/><path class="cls-7" d="M50.9,56.12a1,1,0,0,0,1-1V36.94a1,1,0,0,0-2.08,0V55.08A1,1,0,0,0,50.9,56.12Z"/><path class="cls-7" d="M46.17,55.6a1,1,0,0,0,1-1V36.94a1,1,0,0,0-2.08,0V54.56A1,1,0,0,0,46.17,55.6Z"/><path class="cls-7" d="M41.44,53.69a1,1,0,0,0,1-1V38.4a1,1,0,1,0-2.08,0V52.65A1,1,0,0,0,41.44,53.69Z"/><path class="cls-7" d="M36.71,50a1,1,0,0,0,1-1V41a1,1,0,0,0-2.08,0v7.94A1,1,0,0,0,36.71,50Z"/></g></g></svg>