<svg xmlns="http://www.w3.org/2000/svg" xmlns:xlink="http://www.w3.org/1999/xlink" viewBox="0 0 100.15 100.15"><defs><style>.cls-1{fill:url(#New_Gradient_Swatch_3);}.cls-2,.cls-9{fill:#3e2f3c;}.cls-3{fill:#f5c268;}.cls-10,.cls-3,.cls-5,.cls-6,.cls-7,.cls-8,.cls-9{fill-rule:evenodd;}.cls-4,.cls-7{fill:#ee6d58;}.cls-5{fill:#9b2c2c;}.cls-6{fill:#bf423c;}.cls-8{fill:#f2eed1;}.cls-10{fill:#d89144;}</style><linearGradient id="New_Gradient_Swatch_3" x1="20.99" y1="20.99" x2="95.14" y2="95.14" gradientUnits="userSpaceOnUse"><stop offset="0" stop-color="#5b4559"/><stop offset="1" stop-color="#3e2f3c"/></linearGradient></defs><title>flamingo</title><g id="レイヤー_2" data-name="レイヤー 2"><g id="Animals"><circle class="cls-1" cx="50.08" cy="50.08" r="50.08"/><path class="cls-2" d="M54.28,100a50.06,50.06,0,0,0,45.87-49.88c0-1.67-.08-3.31-.24-4.93L70.06,15.3l-6.65,4C61.05,20,60,29,60,29l1.27,1.29-1.56,1.31,8.21,8.2.19.6-1,4.63-1,1.1-7.26-7.26L52,44.31,46.42,42.5l-2.31,4.33L32.34,48.4l-3,6.81L41.73,67.55l-.24,17.24,1.35.53-1.68,1.53Z"/><polygon class="cls-3" points="41.16 53.12 42.57 53.12 42.57 86.85 41.16 86.85 41.16 53.12 41.16 53.12"/><path class="cls-4" d="M63.9,18.72c-3.85,8.48-2,9.81.5,11.71a19.94,19.94,0,0,1,3.84,3.44,11.79,11.79,0,0,1,2.91,6.89A8.93,8.93,0,0,1,69.79,46,9.24,9.24,0,0,1,64,50H59.76l-.19,0,.9-3.77a5.82,5.82,0,0,0,3.78-.35,5.35,5.35,0,0,0,2.25-2,5.09,5.09,0,0,0,.77-3,8,8,0,0,0-2-4.62,17.11,17.11,0,0,0-3.15-2.79c-4-3-6.88-5.09-1.74-16.42l3.55,1.6Z"/><path class="cls-5" d="M64.13,49.55c0-3.56-4.46-14.11-13.91-14.77-13.73-1-24.31,14.85-20.83,20.43.81,1.3,1.82-4.75,3.47-5.18H64.05l.08,0h0Z"/><path class="cls-6" d="M65.72,13.3A5.71,5.71,0,1,0,71.43,19a5.71,5.71,0,0,0-5.71-5.71Z"/><path class="cls-7" d="M62,23.37a5.71,5.71,0,0,0,8.88-6.72A5.71,5.71,0,0,0,62,23.37Z"/><path class="cls-8" d="M66.68,19.73h-.12v10h.12c2.38,0,4.31-2.23,4.31-5s-1.93-5-4.31-5Z"/><path class="cls-9" d="M66,18.1a1.17,1.17,0,1,0,1.16,1.16A1.16,1.16,0,0,0,66,18.1Z"/><path class="cls-7" d="M45,50V51.9a1.35,1.35,0,0,1-1.35,1.35H40.08a1.35,1.35,0,0,1-1.35-1.35V50Z"/><polygon class="cls-3" points="49.28 52.93 50.68 52.93 50.68 86.44 49.28 86.44 49.28 52.93 49.28 52.93"/><path class="cls-10" d="M49.28,84.79h9a1,1,0,0,1,1,1h0a1,1,0,0,1-1,1h-9a1,1,0,0,1-1-1h0a1,1,0,0,1,1-1Z"/><path class="cls-3" d="M41.49,84.79h9a1,1,0,0,1,1,1h0a1,1,0,0,1-1,1h-9a1,1,0,0,1-1-1h0a1,1,0,0,1,1-1Z"/><path class="cls-6" d="M50.22,34.78c7.27.51,11.58,6.86,13.19,11.39H30.76c3.42-6,10.82-12,19.46-11.39Z"/><path class="cls-5" d="M50.22,34.78c7.27.51,11.58,6.86,13.19,11.39H58.92a10.4,10.4,0,0,0-19.21-3.23,11.06,11.06,0,0,1,4.17-7.43,17.57,17.57,0,0,1,6.34-.73Z"/><path class="cls-7" d="M59,46.17H55.2a6.89,6.89,0,0,0-4.05-5.55,6.3,6.3,0,0,1,1.51-.18A6.24,6.24,0,0,1,59,46.17Z"/><path class="cls-8" d="M38.36,41a2.28,2.28,0,1,0,2.28,2.28A2.28,2.28,0,0,0,38.36,41Z"/><path class="cls-8" d="M42,38.29a1.37,1.37,0,1,0,1.37,1.37A1.37,1.37,0,0,0,42,38.29Z"/><path class="cls-7" d="M53.12,50V51.9a1.35,1.35,0,0,1-1.36,1.35H48.19a1.35,1.35,0,0,1-1.35-1.35V50Z"/><path class="cls-5" d="M66.56,29.68h.12c2.38,0,4.31-2.23,4.31-5H66.56Z"/></g></g></svg>