<svg xmlns="http://www.w3.org/2000/svg" xmlns:xlink="http://www.w3.org/1999/xlink" viewBox="0 0 100.15 100.15"><defs><style>.cls-1{isolation:isolate;}.cls-2{fill:url(#New_Gradient_Swatch_3);}.cls-14,.cls-3{fill:#3e2f3c;}.cls-10,.cls-4{fill:#bf423c;}.cls-11,.cls-12,.cls-14,.cls-16,.cls-17,.cls-18,.cls-4,.cls-6,.cls-7{fill-rule:evenodd;}.cls-5,.cls-7{fill:#9b2c2c;}.cls-6,.cls-8{fill:#ee6d58;}.cls-9{opacity:0.1;mix-blend-mode:multiply;}.cls-11,.cls-13{fill:#eea74e;}.cls-12,.cls-15{fill:#f5c268;}.cls-16{fill:#187e89;}.cls-17{fill:#2cabae;}.cls-18,.cls-20{fill:#f2eed1;}.cls-19{fill:#e1deb4;}</style><linearGradient id="New_Gradient_Swatch_3" x1="20.52" y1="20.52" x2="88.01" y2="88.01" gradientTransform="translate(77.18 -15.35) rotate(67.5)" gradientUnits="userSpaceOnUse"><stop offset="0" stop-color="#5b4559"/><stop offset="1" stop-color="#3e2f3c"/></linearGradient></defs><title>fox</title><g class="cls-1"><g id="レイヤー_2" data-name="レイヤー 2"><g id="Animals"><circle class="cls-2" cx="50.08" cy="50.08" r="50.08" transform="translate(-15.35 77.18) rotate(-67.5)"/><path class="cls-3" d="M100.15,50.08a49.82,49.82,0,0,0-.57-7.58L83.78,26.69l-2.47,6-5.43,5.52-6.07-6.08-4.26,2.6,2.78,9.11-13.55.65-10.05,6L36.32,43,21.56,56.49,9,63.91l36,36a50.67,50.67,0,0,0,5.11.26A50.07,50.07,0,0,0,100.15,50.08Z"/><polygon class="cls-4" points="48.67 53.16 45.03 53.16 38.8 67.97 41.27 67.97 48.67 53.16 48.67 53.16"/><path class="cls-5" d="M41.65,64.49A3.48,3.48,0,0,0,38.18,68h7a3.48,3.48,0,0,0-3.48-3.47Z"/><path class="cls-4" d="M36.51,45.47l1.62-2.81C34.62,40,30.82,42,25.77,45.05a30.7,30.7,0,0,0-5.68,6.12c-4.35,6.16-7.86,12.27-12.21,11.21,2.26,3.67,5.83,5.8,11.3,5.7,15.25-2,9.71-17.85,17.33-22.61Z"/><polygon class="cls-6" points="78.27 50.29 71.36 50.29 73.67 67.94 75.98 67.83 78.27 50.29 78.27 50.29"/><polygon class="cls-4" points="68.33 50.01 62.04 50.01 64.35 67.66 66.66 67.55 68.33 50.01 68.33 50.01"/><polygon class="cls-7" points="36.59 48.78 45.03 53.16 42.14 60.05 37.89 60.94 36.59 48.78 36.59 48.78"/><path class="cls-5" d="M38.18,48.7a4.34,4.34,0,0,0,4.23,4.46H67.16a4.34,4.34,0,0,0,4.22-4.46V47H38.18V48.7Z"/><path class="cls-8" d="M38.18,45.23a4.35,4.35,0,0,1,4.23-4.46H67.16a4.35,4.35,0,0,1,4.22,4.46V47H38.18V45.23Z"/><path class="cls-9" d="M71.38,48.7V45.23a4.35,4.35,0,0,0-4.22-4.46H64.37v2.64a4.81,4.81,0,0,0-2,3.67v1.17h2.43a6.54,6.54,0,0,0,4.88,4A4.54,4.54,0,0,0,71.38,48.7Z"/><path class="cls-8" d="M42.35,47v6a6,6,0,0,0,6-6Z"/><path class="cls-10" d="M42.35,47h-6a6,6,0,0,0,6,6V47Z"/><path class="cls-5" d="M42.35,47h6a6,6,0,0,0-6-6v6Z"/><path class="cls-8" d="M42.35,47h-6a6,6,0,0,1,6-6v6Z"/><path class="cls-6" d="M63.8,26.69s-1.29,6.77,0,9.71,3.78,4.67,5.67,3.87,2.43-3.83,1.19-6.76-6.81-6.82-6.81-6.82Z"/><path class="cls-11" d="M63.42,29.3c-.25,2.23-.41,5.35.33,7.1,1.11,2.62,3.25,4.28,5,4a6.67,6.67,0,0,0-.13-5.51c-.82-1.93-3.49-4.26-5.24-5.63Z"/><path class="cls-4" d="M83.78,26.69s1.28,6.77,0,9.71-3.77,4.67-5.67,3.87S75.73,36.44,77,33.51s6.81-6.82,6.81-6.82Z"/><path class="cls-12" d="M84.15,29.3c.25,2.23.41,5.35-.33,7.1-1.1,2.62-3.24,4.28-5,4a6.6,6.6,0,0,1,.13-5.51c.81-1.93,3.49-4.26,5.23-5.63Z"/><path class="cls-6" d="M75.23,34.76H70.77a5.32,5.32,0,0,0-5.31,5.3v5.83a5.33,5.33,0,0,0,5.31,5.31h4.46a5.32,5.32,0,0,0,5.3-5.31V40.06a5.32,5.32,0,0,0-5.3-5.3Z"/><path class="cls-4" d="M73.32,34.76H70.85a5.32,5.32,0,0,0-5.31,5.3v5.83a5.33,5.33,0,0,0,5.31,5.31h2.47V34.76Z"/><path class="cls-4" d="M65.55,46a5.32,5.32,0,0,0,5.3,5.25h4.46A5.32,5.32,0,0,0,80.61,46Z"/><path class="cls-6" d="M65.55,46a5.32,5.32,0,0,0,5.3,5.25h2.47V46Z"/><path class="cls-13" d="M73.31,42c-5.38,0-9.74,2.29-9.74,5.11H83.06c0-2.82-4.36-5.11-9.75-5.11Z"/><path class="cls-14" d="M69.43,40.32a1,1,0,1,0,1,1,1,1,0,0,0-1-1Z"/><path class="cls-14" d="M76.72,40.32a1,1,0,1,0,1,1,1,1,0,0,0-1-1Z"/><polygon class="cls-6" points="37.89 60.94 42.14 60.05 47.78 67.27 44.39 67.32 37.89 60.94 37.89 60.94"/><path class="cls-13" d="M45.77,64.49A3.47,3.47,0,0,0,42.3,68h6.94a3.47,3.47,0,0,0-3.47-3.47Z"/><path class="cls-15" d="M65.19,65.2A2.77,2.77,0,0,0,62.42,68H68a2.77,2.77,0,0,0-2.76-2.76Z"/><path class="cls-15" d="M74.82,65.2A2.77,2.77,0,0,0,72.05,68h5.53a2.77,2.77,0,0,0-2.76-2.76Z"/><path class="cls-16" d="M35.19,68H80.72A2.27,2.27,0,0,1,83,70.23h0a2.26,2.26,0,0,1-2.26,2.26H35.19a2.27,2.27,0,0,1-2.27-2.26h0A2.27,2.27,0,0,1,35.19,68Z"/><path class="cls-17" d="M35.19,68H80.72A2.27,2.27,0,0,1,83,70.23H32.92A2.27,2.27,0,0,1,35.19,68Z"/><path class="cls-7" d="M36.51,45.47l1.37-2.37a11.49,11.49,0,0,0-4.42,1.17c-4.35,2.8-5.81,5.69-8.1,10.55-3,7-4.78,7.14-8.71,8.53L16.81,68a18,18,0,0,0,2.37.11c15.25-2,9.71-17.85,17.33-22.61Z"/><path class="cls-12" d="M14.44,59c-2.12,2.47-4.22,4-6.56,3.41C10.12,66,13.65,68.14,19,68.08L14.44,59Z"/><path class="cls-18" d="M24.08,60.94a2.53,2.53,0,1,1-2.52-2.53A2.52,2.52,0,0,1,24.08,60.94Z"/><path class="cls-18" d="M26,56.49a1.25,1.25,0,1,1-1.24-1.25A1.24,1.24,0,0,1,26,56.49Z"/><path class="cls-19" d="M63.57,47.08h9.74V42C67.93,42,63.57,44.26,63.57,47.08Z"/><path class="cls-4" d="M76.34,42.22a18.31,18.31,0,0,0-3-.25,17.24,17.24,0,0,0-3,.26v8.26h6V42.22Z"/><path class="cls-12" d="M72.47,48.06h1.69a2.2,2.2,0,0,1,2.19,2.19h0a2.2,2.2,0,0,1-2.19,2.19H72.47a2.2,2.2,0,0,1-2.19-2.19h0a2.2,2.2,0,0,1,2.19-2.19Z"/><path class="cls-14" d="M72.47,48.06h1.69a2.31,2.31,0,0,1,.79.15,1.41,1.41,0,0,1,.13.58,1.79,1.79,0,0,1-3.53,0,1.41,1.41,0,0,1,.13-.58,2.31,2.31,0,0,1,.79-.15Z"/><path class="cls-12" d="M60.41,43.54a1,1,0,0,1-1,1H51a1,1,0,0,1-1-1h0a1,1,0,0,1,1-1h8.47a1,1,0,0,1,1,1Z"/><path class="cls-20" d="M43.73,46A2.08,2.08,0,1,1,41.65,44,2.08,2.08,0,0,1,43.73,46Z"/></g></g></g></svg>