<svg xmlns="http://www.w3.org/2000/svg" xmlns:xlink="http://www.w3.org/1999/xlink" viewBox="0 0 100.15 100.15"><defs><style>.cls-1{fill:url(#New_Gradient_Swatch_3);}.cls-2{fill:#3e2f3c;}.cls-10,.cls-11,.cls-12,.cls-2,.cls-3,.cls-4,.cls-5,.cls-6,.cls-7,.cls-8,.cls-9{fill-rule:evenodd;}.cls-3{fill:#ee6d58;}.cls-4{fill:#f5c268;}.cls-5{fill:#9b2c2c;}.cls-6{fill:#eea74e;}.cls-7{fill:#f8abad;}.cls-8{fill:#bf423c;}.cls-9{fill:#d89144;}.cls-10{fill:#350d0a;}.cls-11{fill:#187e89;}.cls-12{fill:#f2eed1;}</style><linearGradient id="New_Gradient_Swatch_3" x1="20.43" y1="20.43" x2="83.37" y2="83.37" gradientUnits="userSpaceOnUse"><stop offset="0" stop-color="#5b4559"/><stop offset="1" stop-color="#3e2f3c"/></linearGradient></defs><title>giraffe</title><g id="レイヤー_2" data-name="レイヤー 2"><g id="Animals"><circle class="cls-1" cx="50.08" cy="50.08" r="50.08"/><path class="cls-2" d="M43.85,87.55,56.08,99.78A50.1,50.1,0,0,0,98.13,64.16L52.05,18.08l-1.9.37L44.74,13l-1.29.8v2.84L39.82,13l-.81.8-.52,4.71L37,21.39l-.21,0L35,19.51l-2,1.31.64.54-1.77.83,5.69,5.69-1.85.06,3.6,3.61-1.47,5.9L43,42.6l.82,23.14,1.87,5.82-1,4.22Z"/><path class="cls-3" d="M63.25,60.41h4.62a1.79,1.79,0,0,1,1.79,1.79V70H68.5V63A1.46,1.46,0,0,0,67,61.56H63.25V60.41Z"/><path class="cls-4" d="M34.57,19.15c1.4,1.05,2,2.63,1.32,3.52s-2.35.76-3.75-.29-2.5-3.77-2.16-4.3,3.18,0,4.59,1.07Z"/><path class="cls-5" d="M35.57,23c-.8.54-2.22.32-3.43-.59A7,7,0,0,1,30,18.66a4.19,4.19,0,0,1,.95-.11A5,5,0,0,1,35.57,23Z"/><path class="cls-4" d="M47.47,19.15c-1.4,1.05-2,2.63-1.32,3.52s2.35.76,3.75-.29,2.49-3.77,2.15-4.3-3.18,0-4.58,1.07Z"/><path class="cls-5" d="M46.47,23c.79.54,2.22.32,3.43-.59a7,7,0,0,0,2.19-3.72,4.35,4.35,0,0,0-1-.11A5,5,0,0,0,46.47,23Z"/><path class="cls-4" d="M41.92,26.42H46.3v25.4c0,4,2.87,7.31,6.37,7.31h7.89c2.29,0,4.17,2.16,4.17,4.79v4.74H41.92V26.42Z"/><polygon class="cls-6" points="43.85 67.07 46.25 67.07 46.25 87.55 43.85 87.55 43.85 67.07 43.85 67.07"/><polygon class="cls-3" points="48.97 67.07 51.37 67.07 51.37 87.55 48.97 87.55 48.97 67.07 48.97 67.07"/><path class="cls-7" d="M47.58,63a5.65,5.65,0,1,1-5.66,5.64A5.66,5.66,0,0,1,47.58,63Z"/><polygon class="cls-8" points="56.66 72.26 59.94 74.28 56.98 85.18 54.7 85.17 54.63 72.16 56.66 72.26"/><polygon class="cls-3" points="56.47 73.52 64.52 68.17 64.58 68.27 64.58 80.28 60.97 80.28 56.47 73.52 56.47 73.52"/><polygon class="cls-3" points="64.58 80.28 61.09 79.33 59.97 87.56 61.6 87.55 64.58 80.28 64.58 80.28"/><path class="cls-4" d="M59.07,63a5.65,5.65,0,1,1-5.66,5.64A5.65,5.65,0,0,1,59.07,63Z"/><path class="cls-4" d="M69.15,69.39c.6,0,1.08,1,1.08,2.13a7.3,7.3,0,0,1-1,2.85,6.75,6.75,0,0,1-1.16-2.85c0-1.18.49-2.13,1.09-2.13Z"/><path class="cls-9" d="M44,32.68a2.55,2.55,0,0,1,.83,1.88v1.23a2.57,2.57,0,0,1-2.57,2.56H39.83a2.57,2.57,0,0,1-2.57-2.56V34.56a2.55,2.55,0,0,1,.83-1.88V29.25A3.48,3.48,0,0,1,35,25.8V24.14a3.48,3.48,0,0,1,3.47-3.47h5.12a3.48,3.48,0,0,1,3.47,3.47V25.8A3.48,3.48,0,0,1,44,29.25v3.43Z"/><polygon class="cls-3" points="37.88 14.74 39.45 14.74 39.45 20.82 37.88 20.82 37.88 14.74 37.88 14.74"/><path class="cls-4" d="M38.69,12.46a1.39,1.39,0,1,1-1.39,1.38,1.38,1.38,0,0,1,1.39-1.38Z"/><polygon class="cls-3" points="42.75 14.74 44.31 14.74 44.31 20.82 42.75 20.82 42.75 14.74 42.75 14.74"/><path class="cls-4" d="M43.61,12.46a1.39,1.39,0,1,1-1.39,1.38,1.38,1.38,0,0,1,1.39-1.38Z"/><path class="cls-6" d="M35.87,22.19c-.88-.35,3-4.88,5.15-4.82s6,4.47,5.15,4.82Z"/><polygon class="cls-4" points="39.04 22.19 43 22.19 43 38.35 39.04 38.35 39.04 22.19 39.04 22.19"/><path class="cls-5" d="M39.14,33.56c.44,0,.79.7.79,1.57s-.35,1.57-.79,1.57-.78-.71-.78-1.57.35-1.57.78-1.57Z"/><path class="cls-5" d="M42.9,33.56c.43,0,.79.7.79,1.57s-.36,1.57-.79,1.57-.78-.71-.78-1.57.35-1.57.78-1.57Z"/><path class="cls-10" d="M44.47,23.82c.79,0,1.44.34,1.44.75s-.65.75-1.44.75S43,25,43,24.57s.65-.75,1.44-.75Z"/><path class="cls-10" d="M37.57,23.82c.8,0,1.44.34,1.44.75s-.64.75-1.44.75-1.43-.34-1.43-.75.64-.75,1.43-.75Z"/><path class="cls-5" d="M50.63,68.66H44.12l5.76-5.75a2.17,2.17,0,0,1,2.56-.31l1.23.78a1.26,1.26,0,0,1,.19,2.05l-3.23,3.23Z"/><path class="cls-4" d="M47.58,63a5.65,5.65,0,1,1-5.66,5.64A5.66,5.66,0,0,1,47.58,63Z"/><polygon class="cls-11" points="43.85 85.17 46.25 85.17 46.29 87.69 43.75 87.69 43.85 85.17 43.85 85.17"/><polygon class="cls-11" points="48.97 85.17 51.37 85.17 51.5 87.69 48.96 87.69 48.97 85.17 48.97 85.17"/><polygon class="cls-11" points="60.3 85.17 62.57 85.18 62.09 87.69 59.55 87.69 60.3 85.17 60.3 85.17"/><polygon class="cls-11" points="54.7 85.17 56.98 85.18 56.5 87.69 53.96 87.69 54.7 85.17 54.7 85.17"/><path class="cls-2" d="M60.91,80.21l-2.55-3.84a2.14,2.14,0,0,1,2.11,0l1.23.77a1.27,1.27,0,0,1,.19,2.06l-1,1Z"/><path class="cls-5" d="M57,59.13h3.6a3.73,3.73,0,0,1,2.19.72L61,61.64a2.17,2.17,0,0,1-2.56.31l-1.23-.78a1.26,1.26,0,0,1-.2-2Z"/><path class="cls-5" d="M47.65,56.3a6.33,6.33,0,0,0,3.8,2.7l-1.1,1.09a2.17,2.17,0,0,1-2.56.31l-1.23-.78a1.27,1.27,0,0,1-.19-2l1.28-1.27Z"/><path class="cls-5" d="M46.3,39.84v6.38a2.27,2.27,0,0,1-.76-.75l-1.09-1.75a2.33,2.33,0,0,1,.74-3.19l1.11-.69Z"/><path class="cls-5" d="M41.92,57.43V50.89a2.3,2.3,0,0,1,1.47,1.52l.6,2a2.32,2.32,0,0,1-1.55,2.88l-.52.16Z"/><path class="cls-6" d="M47.58,63a5.66,5.66,0,0,0-5.66,5.64H53.25A5.66,5.66,0,0,0,47.58,63Z"/><path class="cls-9" d="M47.58,65.77a2.9,2.9,0,1,1-2.9,2.89,2.9,2.9,0,0,1,2.9-2.89Z"/><path class="cls-12" d="M47.58,69.84a1.18,1.18,0,1,1,1.19-1.18A1.18,1.18,0,0,1,47.58,69.84Z"/><path class="cls-4" d="M44.68,68.66a1.38,1.38,0,1,1-1.38-1.37A1.38,1.38,0,0,1,44.68,68.66Z"/><path class="cls-6" d="M53.25,68.66a1.38,1.38,0,1,1-1.38-1.37A1.38,1.38,0,0,1,53.25,68.66Z"/><path class="cls-6" d="M59.07,63a5.66,5.66,0,0,0-5.67,5.64H64.73A5.65,5.65,0,0,0,59.07,63Z"/><path class="cls-4" d="M56.16,68.66a1.38,1.38,0,1,1-1.38-1.37A1.38,1.38,0,0,1,56.16,68.66Z"/><path class="cls-6" d="M64.73,68.66a1.38,1.38,0,1,1-1.38-1.37A1.38,1.38,0,0,1,64.73,68.66Z"/><path class="cls-9" d="M59.07,65.74a2.9,2.9,0,1,1-2.91,2.9,2.91,2.91,0,0,1,2.91-2.9Z"/><path class="cls-12" d="M59.07,69.82a1.18,1.18,0,1,1,1.18-1.18A1.18,1.18,0,0,1,59.07,69.82Z"/><path class="cls-12" d="M42,30.28a.93.93,0,0,1-.93.93h0a.93.93,0,0,1-.93-.93V24.75a.93.93,0,0,1,.93-.93h0a.93.93,0,0,1,.93.93Z"/></g></g></svg>