<svg xmlns="http://www.w3.org/2000/svg" xmlns:xlink="http://www.w3.org/1999/xlink" viewBox="0 0 100.15 100.15"><defs><style>.cls-1{isolation:isolate;}.cls-2{fill:url(#New_Gradient_Swatch_2);}.cls-3{fill:#187e89;opacity:0.81;}.cls-4{fill:#9b2c2c;}.cls-5{fill:#ee6d58;}.cls-6{fill:#c6c29b;}.cls-7{fill:#f2eed1;}.cls-8{fill:#e1deb4;}.cls-9{fill:#f5c268;}.cls-10{fill:#eea74e;}.cls-11{opacity:0.2;mix-blend-mode:multiply;}.cls-12{fill:#3e2f3c;}</style><linearGradient id="New_Gradient_Swatch_2" x1="18.98" y1="18.98" x2="82.44" y2="82.44" gradientUnits="userSpaceOnUse"><stop offset="0" stop-color="#2cabae"/><stop offset="1" stop-color="#187e89"/></linearGradient></defs><title>goose</title><g class="cls-1"><g id="レイヤー_2" data-name="レイヤー 2"><g id="Animals"><circle class="cls-2" cx="50.08" cy="50.08" r="50.08"/><path class="cls-3" d="M53,100.06A50.09,50.09,0,0,0,98.67,62.17L68.21,31.71l-.76.92-.76.6-3.76-3.69-.32.84,1.49,2.51-2.79,1.65,1.14,7.72L41.89,21.71l-4.2,4.47-15.63.55L20.35,28,38.92,46.53l4.73,21.25-5.36,4,4.85,4.84v.13l3.35,3.35.37,2.09-10.3,1.41Z"/><rect class="cls-4" x="45.64" y="71.52" width="2.41" height="9.99"/><path class="cls-5" d="M36.18,82.76A1.25,1.25,0,0,0,37.43,84H49.12a1.25,1.25,0,0,0,1.25-1.25h0a1.25,1.25,0,0,0-1.25-1.25H37.43a1.25,1.25,0,0,0-1.25,1.25Z"/><rect class="cls-4" x="61.19" y="71.52" width="2.41" height="9.99"/><path class="cls-5" d="M51.73,82.76A1.25,1.25,0,0,0,53,84H64.67a1.25,1.25,0,0,0,1.25-1.25h0a1.25,1.25,0,0,0-1.25-1.25H53a1.25,1.25,0,0,0-1.25,1.25Z"/><path class="cls-4" d="M37.17,28.39a1.41,1.41,0,0,1-1.41,1.41H24.23a1.41,1.41,0,0,1-1.41-1.41h0A1.41,1.41,0,0,1,24.23,27H35.76a1.41,1.41,0,0,1,1.41,1.41Z"/><path class="cls-5" d="M34,26.73a1.41,1.41,0,0,1-1.41,1.41H21a1.41,1.41,0,0,1-1.41-1.41h0A1.41,1.41,0,0,1,21,25.32H32.56A1.41,1.41,0,0,1,34,26.73Z"/><path class="cls-6" d="M54,54.88H81a19.17,19.17,0,0,1,0,8.28c-1.33,5.74-4.22,14.93-27,14.93Z"/><path class="cls-7" d="M81.07,66.73a26.25,26.25,0,0,0,1-3.36H52.67v3.36Z"/><path class="cls-7" d="M52.67,61.93H82.4a19.35,19.35,0,0,0,.31-3.36h-30Z"/><path class="cls-7" d="M52.67,77.76V79.2a59.26,59.26,0,0,0,14-1.44Z"/><path class="cls-7" d="M78.18,71.53a15.42,15.42,0,0,0,2.25-3.36H52.67v3.36Z"/><path class="cls-7" d="M82.68,57.14a20.09,20.09,0,0,0-.46-3.37H52.67v3.37Z"/><path class="cls-7" d="M71.14,76.33A20,20,0,0,0,76.73,73H52.67v3.36Z"/><path class="cls-7" d="M37.57,25.52s-8.2-.8-6.12.8,3.94,2.81,3.94,7.81V65.31c0,4.26,5.36,12.46,17.28,12.46v-24c-8.45,0-10.21-5.81-10.21-10V25.72Z"/><path class="cls-8" d="M42.93,24.77a5,5,0,0,1-5,5H34.2a5,5,0,0,1-5-5h0a5,5,0,0,1,5-5h3.7a5,5,0,0,1,5,5Z"/><path class="cls-9" d="M62.4,29.31a.73.73,0,0,0-.73.72v.7a.73.73,0,0,0,.73.73.73.73,0,0,0,.72-.73V30A.72.72,0,0,0,62.4,29.31Z"/><path class="cls-9" d="M62.4,43.6a.73.73,0,0,0-.73.73V45a.73.73,0,0,0,.73.73.73.73,0,0,0,.72-.73v-.69A.72.72,0,0,0,62.4,43.6Z"/><path class="cls-9" d="M55.6,36.8h-.7a.73.73,0,0,0-.72.73.72.72,0,0,0,.72.72h.7a.73.73,0,0,0,.73-.72A.73.73,0,0,0,55.6,36.8Z"/><path class="cls-9" d="M69.89,36.8H69.2a.73.73,0,0,0-.73.73.72.72,0,0,0,.73.72h.69a.73.73,0,0,0,.73-.72A.73.73,0,0,0,69.89,36.8Z"/><path class="cls-9" d="M57.61,31.71a.73.73,0,0,0-1,1l.5.49a.72.72,0,1,0,1-1Z"/><path class="cls-9" d="M67.72,41.82a.73.73,0,0,0-1,1l.49.49a.73.73,0,0,0,1-1Z"/><path class="cls-9" d="M67.18,31.71l-.49.5a.72.72,0,0,0,1,1l.49-.49a.73.73,0,0,0-1-1Z"/><path class="cls-9" d="M57.08,41.82l-.5.49a.73.73,0,0,0,1,1l.49-.49a.72.72,0,1,0-1-1Z"/><path class="cls-10" d="M62.4,32.22V42.84a5.31,5.31,0,0,0,0-10.62Z"/><path class="cls-9" d="M57.09,37.53a5.31,5.31,0,0,0,5.31,5.31V32.22A5.3,5.3,0,0,0,57.09,37.53Z"/><path class="cls-8" d="M62.21,57.72a13.51,13.51,0,0,0-19.08,0l9.54,9.54Z"/><path class="cls-6" d="M43.13,57.72a13.49,13.49,0,0,0,0,19.08l9.54-9.54Z"/><path class="cls-8" d="M43.13,76.8a13.49,13.49,0,0,0,19.08,0l-9.54-9.54Z"/><path class="cls-6" d="M52.67,67.26l9.54,9.54a13.49,13.49,0,0,0,0-19.08Z"/><g class="cls-11"><path d="M47.29,50.87s-5.4,2.65-5.4,10.11,8.84,13.43,18.82,13.43c12.35,0,12.67-11.27,12.67-11.27Z"/></g><path class="cls-12" d="M34.56,24.56a1,1,0,0,1-1,1h0a1,1,0,0,1-1-1h0a1,1,0,0,1,1-1h0a1,1,0,0,1,1,1Z"/><path class="cls-8" d="M46.74,48.28s-5.4,2.66-5.4,10.12,8.84,13.43,18.82,13.43c12.35,0,12.67-11.28,12.67-11.28Z"/><path class="cls-7" d="M41.89,54.53a13.23,13.23,0,0,0-.55,3.87c0,7.46,8.84,13.43,18.82,13.43,5,0,8-1.86,9.87-4.06Z"/><path class="cls-7" d="M51.06,53.91a2.44,2.44,0,1,1-2.44-2.44A2.44,2.44,0,0,1,51.06,53.91Z"/><path class="cls-7" d="M54.56,56A1.6,1.6,0,1,1,53,54.4,1.59,1.59,0,0,1,54.56,56Z"/></g></g></g></svg>