<svg xmlns="http://www.w3.org/2000/svg" xmlns:xlink="http://www.w3.org/1999/xlink" viewBox="0 0 100.15 100.15"><defs><style>.cls-1{fill:url(#New_Gradient_Swatch_4);}.cls-2{fill:#bf423c;}.cls-3{fill:#d89144;}.cls-4{fill:#f5c268;}.cls-5{fill:#eea74e;}.cls-6{fill:#3e2f3c;}.cls-7{fill:#f2eed1;}.cls-8{fill:#e1deb4;}</style><linearGradient id="New_Gradient_Swatch_4" x1="16.82" y1="16.82" x2="80.32" y2="80.32" gradientTransform="translate(91.48 -7.37) rotate(80.78)" gradientUnits="userSpaceOnUse"><stop offset="0" stop-color="#ee6d58"/><stop offset="1" stop-color="#bf423c"/></linearGradient></defs><title>hamster</title><g id="レイヤー_2" data-name="レイヤー 2"><g id="Animals"><circle class="cls-1" cx="50.08" cy="50.08" r="50.08" transform="translate(-7.37 91.48) rotate(-80.78)"/><path class="cls-2" d="M100,53.56,67.47,21l-4.08,8.49L50,31.47,39.53,21,36.11,34.75l12.4,32.31L27.64,80.9,46.77,100c1.09.07,2.19.12,3.31.12A50.07,50.07,0,0,0,100,53.56Z"/><rect class="cls-3" x="30.65" y="50.13" width="38.84" height="30.77" rx="4.16" ry="4.16"/><path class="cls-4" d="M31.9,23.46v7.7a4.21,4.21,0,0,0,4.21,4.21V19.25A4.2,4.2,0,0,0,31.9,23.46Z"/><path class="cls-5" d="M40.32,31.16v-7.7a4.21,4.21,0,0,0-4.21-4.21V35.37A4.22,4.22,0,0,0,40.32,31.16Z"/><path class="cls-4" d="M59.83,23.46v7.7A4.22,4.22,0,0,0,64,35.37V19.25A4.21,4.21,0,0,0,59.83,23.46Z"/><path class="cls-5" d="M68.25,31.16v-7.7A4.2,4.2,0,0,0,64,19.25V35.37A4.21,4.21,0,0,0,68.25,31.16Z"/><path class="cls-5" d="M46.78,73a11.22,11.22,0,0,1,3.3,8H38.83V69.66A11.21,11.21,0,0,1,46.78,73Z"/><path class="cls-4" d="M27.64,80.9A11.25,11.25,0,0,1,38.89,69.66V80.9Z"/><path class="cls-4" d="M53.37,73a11.21,11.21,0,0,0-3.29,8H61.32V69.66A11.21,11.21,0,0,0,53.37,73Z"/><path class="cls-5" d="M72.51,80.9A11.25,11.25,0,0,0,61.26,69.66V80.9Z"/><path class="cls-4" d="M50.08,73.86c-9.46,0-15.93-2.4-19.38-7.13-2.95-4.05-3.35-9.35-1.18-15.73l8.93,3c-.79,2.33-1.45,5.49-.1,7.34,1.51,2.08,5.74,3.27,11.73,3.27Z"/><path class="cls-5" d="M50.08,73.86c9.45,0,15.92-2.4,19.37-7.13,3-4.05,3.35-9.35,1.18-15.73L61.7,54c.79,2.33,1.45,5.49.1,7.34-1.51,2.08-5.74,3.27-11.72,3.27Z"/><path class="cls-5" d="M50.08,66.92a1.16,1.16,0,1,0,0,2.32Z"/><path class="cls-5" d="M50.08,71.55a1.16,1.16,0,1,0,0,2.32Z"/><path class="cls-4" d="M50.08,64.61v2.32a1.16,1.16,0,1,0,0-2.32Z"/><path class="cls-4" d="M50.08,69.24v2.31a1.16,1.16,0,1,0,0-2.31Z"/><ellipse class="cls-4" cx="50.08" cy="42.48" rx="29.9" ry="15.25"/><path class="cls-5" d="M50.08,57.74C66.59,57.74,80,50.91,80,42.48H20.18C20.18,50.91,33.56,57.74,50.08,57.74Z"/><path class="cls-6" d="M45.49,36.15a2.43,2.43,0,1,1-2.43-2.42A2.43,2.43,0,0,1,45.49,36.15Z"/><path class="cls-6" d="M59.51,36.15a2.42,2.42,0,1,1-2.42-2.42A2.42,2.42,0,0,1,59.51,36.15Z"/><polygon class="cls-6" points="54.67 40.94 50.08 46.02 45.48 40.94 54.67 40.94"/><rect class="cls-7" x="47.08" y="48.56" width="3" height="7.08"/><rect class="cls-8" x="50.08" y="48.56" width="3" height="7.08"/></g></g></svg>