<svg xmlns="http://www.w3.org/2000/svg" xmlns:xlink="http://www.w3.org/1999/xlink" viewBox="0 0 100.15 100.15"><defs><style>.cls-1{fill:url(#linear-gradient);}.cls-2{fill:#d89144;}.cls-3{fill:#feac27;}.cls-4{fill:#5b4559;}.cls-5{fill:#3e2f3c;}.cls-6{fill:#f2eed1;}.cls-7{fill:#1d8a9c;}</style><linearGradient id="linear-gradient" x1="16.55" y1="16.55" x2="82.36" y2="82.36" gradientUnits="userSpaceOnUse"><stop offset="0" stop-color="#f5c268"/><stop offset="1" stop-color="#d89144"/></linearGradient></defs><title>hedgehog</title><g id="レイヤー_2" data-name="レイヤー 2"><g id="Animals"><circle class="cls-1" cx="50.08" cy="50.08" r="50.08"/><path class="cls-2" d="M98.16,64,70.72,36.6l-3.9,4.54L57.48,31.8s-2.3,6.19-2.64,6.71l-8.2,14.81L22.36,66.84l-6.65.8L48.18,100.1c.63,0,1.26.05,1.9.05A50.07,50.07,0,0,0,98.16,64Z"/><polygon class="cls-3" points="38.88 54.25 23.55 67.64 38.88 54.25 38.88 54.25"/><polygon class="cls-3" points="38.88 54.25 23.55 67.64 38.88 54.25 38.88 54.25"/><polygon class="cls-3" points="38.88 54.25 23.55 67.64 38.88 54.25 38.88 54.25"/><polygon class="cls-4" points="37.74 51.29 29.89 38.76 38.88 38.76 44.12 31.8 50.46 36.91 57.48 31.8 61.91 38.61 70.72 36.6 71.49 45.1 80 47.58 77.53 54.25 83.71 58.72 79.69 63.97 84.95 68.35 44.28 68.35 37.74 51.29"/><polygon class="cls-5" points="40.59 58.72 44.28 68.35 84.95 68.35 79.69 63.97 83.71 58.72 40.59 58.72"/><path class="cls-6" d="M36.73,49.09,17.27,68.35H47.13C47.13,58.72,45,53.43,36.73,49.09Z"/><circle class="cls-5" cx="35.67" cy="58.72" r="2.07"/><circle class="cls-7" cx="17.27" cy="66.28" r="2.07"/></g></g></svg>