<svg xmlns="http://www.w3.org/2000/svg" xmlns:xlink="http://www.w3.org/1999/xlink" viewBox="0 0 100.15 100.15"><defs><style>.cls-1{fill:url(#linear-gradient);}.cls-2{fill:#187e89;opacity:0.81;}.cls-3{fill:#f5c268;}.cls-4{fill:#eea74e;}.cls-5{fill:#bf423c;}.cls-6{fill:#ee6d58;}.cls-7{fill:#d89144;}.cls-8{fill:#e1deb4;}.cls-9{fill:#3e2f3c;}.cls-10{fill:#c6c29b;}.cls-11{fill:#f2eed1;}</style><linearGradient id="linear-gradient" x1="17.43" y1="17.43" x2="91.39" y2="91.39" gradientUnits="userSpaceOnUse"><stop offset="0" stop-color="#2cabae"/><stop offset="1" stop-color="#187e89"/></linearGradient></defs><title>hen</title><g id="レイヤー_2" data-name="レイヤー 2"><g id="Animals"><circle class="cls-1" cx="50.08" cy="50.08" r="50.08"/><path class="cls-2" d="M96.68,68.37c.15-.38.29-.76.43-1.14l.27-.76.15-.4h0A49.91,49.91,0,0,0,100,54L71.52,25.57l-1.17,1-.39.48h0l-3.78-3.71-.54.85-.06.33.12.11-.57.44,3.55,3.55L66.2,31l-4.91-4.9-.51.53.22.24-.75.27L65.12,32l-.22.21.88.89-2.46,1.59-.18.13L59.34,31l-.67.36v.16l.09.11L57.53,32l3.76,3.83.1.31-1.63,1.23,17,17-2.46,3L43.06,26.08l-.54.36L40.06,24l-1.74,1.54,1.31,2.83-3.58,2.37.57,1.77L22,33.88,34.92,46.76,33.12,67,47.2,81.06l-.57.49-5.55.51-3.42.83,17,17a50.08,50.08,0,0,0,41-29.16h0l.21-.49c.17-.39.34-.78.5-1.18C96.49,68.86,96.58,68.62,96.68,68.37Z"/><path class="cls-3" d="M65.64,23.13a.74.74,0,0,0-.74.74v.7a.74.74,0,1,0,1.47,0v-.7A.74.74,0,0,0,65.64,23.13Z"/><path class="cls-3" d="M65.64,37.6a.74.74,0,0,0-.74.73V39a.74.74,0,0,0,1.47,0v-.71A.73.73,0,0,0,65.64,37.6Z"/><path class="cls-3" d="M58.76,30.72h-.71a.74.74,0,0,0,0,1.47h.71a.74.74,0,0,0,0-1.47Z"/><path class="cls-3" d="M73.22,30.72h-.7a.74.74,0,1,0,0,1.47h.7a.74.74,0,1,0,0-1.47Z"/><path class="cls-3" d="M60.8,25.57a.74.74,0,0,0-1,1l.49.5a.74.74,0,0,0,1-1Z"/><path class="cls-3" d="M71,35.8a.73.73,0,0,0-1,0,.75.75,0,0,0,0,1l.5.5a.74.74,0,0,0,1-1.05Z"/><path class="cls-3" d="M70.48,25.57l-.5.5a.75.75,0,0,0,0,1,.73.73,0,0,0,1,0l.5-.5a.74.74,0,0,0-1-1Z"/><path class="cls-3" d="M60.25,35.8l-.49.49a.74.74,0,0,0,1,1.05l.49-.5a.74.74,0,0,0-1-1Z"/><path class="cls-4" d="M65.64,26.08V36.83a5.38,5.38,0,0,0,0-10.75Z"/><path class="cls-3" d="M60.26,31.45a5.38,5.38,0,0,0,5.38,5.38V26.08A5.37,5.37,0,0,0,60.26,31.45Z"/><rect class="cls-5" x="45.57" y="72.22" width="2.11" height="8.75"/><path class="cls-6" d="M37.28,82.06a1.09,1.09,0,0,0,1.09,1.1H48.62a1.09,1.09,0,0,0,1.09-1.1h0A1.09,1.09,0,0,0,48.62,81H38.37a1.09,1.09,0,0,0-1.09,1.09Z"/><rect class="cls-5" x="59.19" y="72.22" width="2.11" height="8.75"/><path class="cls-6" d="M50.9,82.06A1.09,1.09,0,0,0,52,83.16H62.24a1.09,1.09,0,0,0,1.09-1.1h0A1.09,1.09,0,0,0,62.24,81H52a1.09,1.09,0,0,0-1.09,1.09Z"/><path class="cls-4" d="M34.24,39.24s-6,5-6,15,8.39,20.92,26,20.92c24,0,26.57-26,26.57-26L69.41,58.81,44.89,45.35l-2.73-9.73Z"/><polygon class="cls-5" points="29.47 38.09 22.04 33.88 29.47 33.88 29.47 38.09"/><path class="cls-7" d="M54.26,75.2c8.17,0,13.86-3,17.81-7V56.57l-2.66,2.24-5-2.77H53.92V75.19Z"/><path class="cls-3" d="M53.92,75.19V54.73H28.24C28.48,64.6,36.78,75.06,53.92,75.19Z"/><polygon class="cls-7" points="44.89 45.35 42.16 35.62 39.54 36.82 39.54 52.06 49.09 52.06 49.09 47.66 44.89 45.35"/><path class="cls-8" d="M44.38,43.55s-5.73,2.82-5.73,10.73,9.39,14.25,20,14.25c13.11,0,13.45-12,13.45-12Z"/><path class="cls-6" d="M45.57,30.49a2.75,2.75,0,0,0-2.17-2.68,2.19,2.19,0,0,0,0-.36,2.75,2.75,0,0,0-2.75-2.75h-.19A2.74,2.74,0,0,0,37.94,23a2.77,2.77,0,0,0-1.83.7,2.75,2.75,0,1,0-.46,3.56,2.74,2.74,0,0,0,2.29,1.23h.19a2.73,2.73,0,0,0,2,1.68c0,.12,0,.24,0,.36a2.84,2.84,0,0,0,.16.93A2.74,2.74,0,1,0,45,33.24a2.82,2.82,0,0,0-.16-.92A2.73,2.73,0,0,0,45.57,30.49Z"/><polygon class="cls-6" points="29.47 29.67 22.04 33.88 29.47 33.88 29.47 29.67"/><circle class="cls-3" cx="34.95" cy="33.45" r="7.53" transform="translate(-10.14 15.92) rotate(-22.5)"/><path class="cls-9" d="M34.44,31.45a1.32,1.32,0,1,1-1.32-1.32A1.33,1.33,0,0,1,34.44,31.45Z"/><path class="cls-3" d="M79.05,56.57a35.42,35.42,0,0,0,1.78-7.38l-8.76,7.38Z"/><path class="cls-10" d="M39.24,50.18a14,14,0,0,0-.59,4.1c0,7.92,9.39,14.25,20,14.25,5.32,0,8.53-2,10.48-4.31Z"/><path class="cls-11" d="M53.35,54.79a4.16,4.16,0,1,1-4.16-4.16A4.16,4.16,0,0,1,53.35,54.79Z"/><path class="cls-11" d="M59.31,58.34a2.72,2.72,0,1,1-2.72-2.72A2.72,2.72,0,0,1,59.31,58.34Z"/></g></g></svg>