<svg xmlns="http://www.w3.org/2000/svg" xmlns:xlink="http://www.w3.org/1999/xlink" viewBox="0 0 100.15 100.15"><defs><style>.cls-1{fill:url(#New_Gradient_Swatch_4);}.cls-2{fill:#bf423c;}.cls-2,.cls-3,.cls-4,.cls-5,.cls-6,.cls-7,.cls-8,.cls-9{fill-rule:evenodd;}.cls-3{fill:#1d8a9c;}.cls-4{fill:#159b9e;}.cls-5{fill:#3e2f3c;}.cls-6{fill:#5b4559;}.cls-7{fill:#2cabae;}.cls-8{fill:#187e89;}.cls-9{fill:#f2eed1;}</style><linearGradient id="New_Gradient_Swatch_4" x1="14.45" y1="14.45" x2="87.41" y2="87.41" gradientTransform="translate(4.7 -4.3) rotate(5.16)" gradientUnits="userSpaceOnUse"><stop offset="0" stop-color="#ee6d58"/><stop offset="1" stop-color="#bf423c"/></linearGradient></defs><title>hippo</title><g id="レイヤー_2" data-name="レイヤー 2"><g id="Animals"><circle class="cls-1" cx="50.08" cy="50.08" r="50.08" transform="translate(-4.3 4.7) rotate(-5.16)"/><path class="cls-2" d="M51.16,100.13a50.08,50.08,0,0,0,48.62-44L70.47,26.81l-3.32,6.56L52.38,45.1l-29.21,2-4.76,2.19L31.07,62,28.36,77.33Z"/><polygon class="cls-3" points="26.81 49.33 18.41 49.33 27.93 35.93 26.81 49.33"/><polygon class="cls-4" points="25.41 59.73 39.98 59.73 37.63 77.33 28.36 77.33 25.41 59.73 25.41 59.73"/><polygon class="cls-4" points="38.33 61.92 50.06 61.92 48.17 77.33 40.71 77.33 38.33 61.92 38.33 61.92"/><path class="cls-5" d="M48.62,22.83A25.74,25.74,0,1,0,74.36,48.56,25.73,25.73,0,0,0,48.62,22.83Z"/><path class="cls-6" d="M52.06,24.1a20.51,20.51,0,1,0,20.5,20.51A20.51,20.51,0,0,0,52.06,24.1Z"/><path class="cls-7" d="M63.87,29.3c7.9,0,14.31,5.71,14.31,12.75S71.77,54.79,63.87,54.79s-14.32-5.7-14.32-12.74S56,29.3,63.87,29.3Z"/><path class="cls-8" d="M56,45.67V62.45H71.75V45.67a3.54,3.54,0,0,0,3.19-3.51h0a3.53,3.53,0,0,0-3.53-3.52H56.32a3.53,3.53,0,0,0-3.52,3.52h0A3.54,3.54,0,0,0,56,45.67Z"/><path class="cls-7" d="M69.35,56.37H58.84c-3.24,0-5.29,1.81-5.89,3.93L49.24,73.4c-.6,2.12,2.65,3.93,5.88,3.93H73.06c3.24,0,6.49-1.81,5.89-3.93L75.24,60.3c-.61-2.12-2.65-3.93-5.89-3.93Z"/><path class="cls-4" d="M58.07,26.53c1.39,0,2.51,2.32,2.51,5.19v.16h-5v-.16c0-2.87,1.12-5.19,2.51-5.19Z"/><path class="cls-4" d="M69.66,26.53c1.39,0,2.51,2.32,2.51,5.19v.16h-5v-.16c0-2.87,1.13-5.19,2.51-5.19Z"/><path class="cls-8" d="M58.88,67.51a3.49,3.49,0,0,1,3.41,3.57v.12H55.48s0-.08,0-.12a3.5,3.5,0,0,1,3.41-3.57Z"/><path class="cls-8" d="M69.3,67.51a3.49,3.49,0,0,1,3.41,3.57v.12H65.89v-.12a3.5,3.5,0,0,1,3.41-3.57Z"/><path class="cls-5" d="M58,37.91a1.41,1.41,0,1,0,1.41,1.41A1.41,1.41,0,0,0,58,37.91Z"/><path class="cls-5" d="M69.71,37.91a1.41,1.41,0,1,0,1.4,1.41,1.41,1.41,0,0,0-1.4-1.41Z"/><path class="cls-7" d="M63.87,35.93h0a1.67,1.67,0,0,1,1.67,1.67V50.84a1.68,1.68,0,0,1-1.67,1.68h0a1.69,1.69,0,0,1-1.68-1.68V37.6a1.68,1.68,0,0,1,1.68-1.67Z"/><path class="cls-5" d="M58.88,69.13a2,2,0,0,1,1.91,2v.07H57s0,0,0-.07a2,2,0,0,1,1.91-2Z"/><path class="cls-5" d="M69.3,69.13a2,2,0,0,1,1.91,2v.07H67.39v-.07a2,2,0,0,1,1.91-2Z"/><path class="cls-5" d="M58.07,28.61c.72,0,1.3,1.2,1.3,2.68v.09h-2.6v-.09c0-1.48.58-2.68,1.3-2.68Z"/><path class="cls-5" d="M69.66,28.61c.72,0,1.3,1.2,1.3,2.68v.09h-2.6v-.09c0-1.48.58-2.68,1.3-2.68Z"/><path class="cls-9" d="M40.56,35.93a2.2,2.2,0,1,1-2.2-2.2A2.19,2.19,0,0,1,40.56,35.93Z"/><path class="cls-9" d="M39.18,43.75a4.82,4.82,0,1,1-4.81-4.82A4.81,4.81,0,0,1,39.18,43.75Z"/></g></g></svg>