<svg xmlns="http://www.w3.org/2000/svg" xmlns:xlink="http://www.w3.org/1999/xlink" viewBox="0 0 100.15 100.15"><defs><style>.cls-1{fill:url(#New_Gradient_Swatch_2);}.cls-2{fill:#187e89;opacity:0.81;}.cls-10,.cls-3{fill:#bf423c;}.cls-15,.cls-3,.cls-4,.cls-5,.cls-6,.cls-8,.cls-9{fill-rule:evenodd;}.cls-4{fill:#9b2c2c;}.cls-5,.cls-7{fill:#eea74e;}.cls-12,.cls-6{fill:#f5c268;}.cls-13,.cls-8{fill:#d89144;}.cls-9{fill:#3e2f3c;}.cls-11{fill:#ee6d58;}.cls-14{fill:#e1deb4;}.cls-15,.cls-16{fill:#f2eed1;}</style><linearGradient id="New_Gradient_Swatch_2" x1="19.71" y1="19.71" x2="86.77" y2="86.77" gradientTransform="translate(84.97 -11.55) rotate(74.52)" gradientUnits="userSpaceOnUse"><stop offset="0" stop-color="#2cabae"/><stop offset="1" stop-color="#187e89"/></linearGradient></defs><title>hourse</title><g id="レイヤー_2" data-name="レイヤー 2"><g id="Animals"><circle class="cls-1" cx="50.08" cy="50.08" r="50.08" transform="translate(-11.55 84.97) rotate(-74.52)"/><path class="cls-2" d="M99.69,56.78,84.21,41.31l-8.06-2.05-12.7,6L45.11,26.88,39.69,37l-.93-6.7L20.51,33.1l9.59,9.59.2,9.72-6.66,7.25,6.66,8.22.92,3.91,4.91,4.92-.89,0-8,.81-6.51-.81L41.44,97.33l2.42,2.42a49.11,49.11,0,0,0,6.22.4A50.07,50.07,0,0,0,99.69,56.78Z"/><polygon class="cls-3" points="45.36 58.27 37.18 56.59 34.81 58.27 39.82 73.1 42.88 73.1 45.36 58.27 45.36 58.27"/><polygon class="cls-4" points="50.39 58.27 63.52 58.27 63.2 63.79 56.43 74.37 53.26 74.05 55.58 66.12 50.39 58.27 50.39 58.27"/><path class="cls-5" d="M39.13,58.27h23l-.67-19.45c-8.15.75-11.64,7.51-22.38,5.35v14.1Z"/><path class="cls-3" d="M32.73,20h0a14.64,14.64,0,0,1,14.6,14.59V45.06H31.68V20q.52,0,1,0Z"/><polygon class="cls-6" points="70.63 53.63 53.87 53.84 65.37 66.43 69.62 66.43 70.63 53.63 70.63 53.63"/><path class="cls-7" d="M40.84,44.54V57.65a13.12,13.12,0,1,1,0-26.23V44.54Z"/><path class="cls-8" d="M24.27,26H36.33a4.57,4.57,0,0,1,4.55,4.55h0a4.57,4.57,0,0,1-4.55,4.55H24.27a4.57,4.57,0,0,1-4.55-4.55h0A4.57,4.57,0,0,1,24.27,26Z"/><path class="cls-6" d="M36.33,26a4.55,4.55,0,1,0,4.55,4.55A4.55,4.55,0,0,0,36.33,26Z"/><path class="cls-9" d="M28.66,27.79a.9.9,0,1,0,.9.9.9.9,0,0,0-.9-.9Z"/><path class="cls-3" d="M23.5,35a4.56,4.56,0,0,1-3.78-4.48h4.85A9.47,9.47,0,0,1,23.5,35Z"/><path class="cls-6" d="M19.72,30.56h0a4.57,4.57,0,0,1,3.78-4.49,9.55,9.55,0,0,1,1.07,4.49Z"/><polygon class="cls-5" points="30.09 49.47 38.76 57.02 29.88 61.69 23.64 59.66 29.27 50.82 30.09 49.47"/><polygon class="cls-6" points="30.09 68.55 31.68 68.13 29.88 61.69 23.64 59.66 30.09 68.55 30.09 68.55"/><polygon class="cls-4" points="30.09 68.55 31.58 67.88 33.33 70.8 31.22 71.79 30.09 68.55 30.09 68.55"/><path class="cls-10" d="M39.13,49l-3.77,3.77a5.33,5.33,0,0,0,7.54-7.54L39.13,49Z"/><path class="cls-11" d="M35.36,45.25a5.34,5.34,0,0,0,0,7.54L39.13,49l3.77-3.77a5.34,5.34,0,0,0-7.54,0Z"/><path class="cls-12" d="M39.13,39.78A9.25,9.25,0,0,0,29.88,49H33.8a5.33,5.33,0,1,1,10.66,0h0a2,2,0,1,0,3.91,0,9.24,9.24,0,0,0-9.24-9.24Z"/><path class="cls-13" d="M33.8,49h0a2,2,0,1,0-3.92,0,9.25,9.25,0,0,0,18.49,0,2,2,0,0,1-3.91,0A5.33,5.33,0,1,1,33.8,49Z"/><path class="cls-3" d="M70.18,44.75l-1.69-2c3.73-6,7.88-7.31,12.37-4.87,3.67,2.19,5,6,4.66,11.11l-9.31.1c.11-8-1.95-9.34-6-4.33Z"/><path class="cls-10" d="M62.18,48.26,58.1,52.34a5.77,5.77,0,1,0,8.16-8.16l-4.08,4.08Z"/><path class="cls-11" d="M58.1,44.18a5.78,5.78,0,0,0,0,8.16l4.08-4.08,4.08-4.08a5.76,5.76,0,0,0-8.16,0Z"/><path class="cls-12" d="M62.18,38.25a10,10,0,0,0-10,10h4.24a5.77,5.77,0,1,1,11.54,0h0a2.12,2.12,0,1,0,4.24,0,10,10,0,0,0-10-10Z"/><path class="cls-13" d="M56.41,48.26h0a2.12,2.12,0,1,0-4.24,0,10,10,0,0,0,20,.05A2.12,2.12,0,0,1,68,48.26a5.77,5.77,0,0,1-11.54,0Z"/><polygon class="cls-4" points="42.88 73.1 39.82 73.1 39.93 76.91 42.88 76.91 42.88 73.1 42.88 73.1"/><polygon class="cls-8" points="56.46 74.25 53.26 74.05 52.15 76.85 55.66 76.81 56.46 74.25 56.46 74.25"/><path class="cls-4" d="M91.44,53.42c0,5-5.9,9.48-10.68,6.88-3.67-2.19-4.93-6.13-4.55-11.22l9.31-.1c.1,4.34,1.84,9.45,5.92,4.44Z"/><polygon class="cls-5" points="69.62 66.43 65.37 66.43 61.93 74.68 64.67 74.72 69.62 66.43 69.62 66.43"/><polygon class="cls-14" points="35.71 76.66 20.77 76.66 28.24 80.74 35.71 76.66 35.71 76.66"/><polygon class="cls-4" points="64.67 74.72 61.93 74.68 61.4 76.91 64.68 76.91 64.67 74.72 64.67 74.72"/><polygon class="cls-14" points="35.71 76.66 50.65 76.66 43.18 80.74 35.71 76.66 35.71 76.66"/><polygon class="cls-14" points="65.59 76.66 80.54 76.66 73.07 80.74 65.59 76.66 65.59 76.66"/><polygon class="cls-14" points="65.59 76.66 50.65 76.66 58.12 80.74 65.59 76.66 65.59 76.66"/><path class="cls-15" d="M45.11,32.8a.69.69,0,1,1-.68-.69A.68.68,0,0,1,45.11,32.8Z"/><path class="cls-15" d="M46.12,36.45a1.8,1.8,0,1,1-1.8-1.8A1.81,1.81,0,0,1,46.12,36.45Z"/><path class="cls-16" d="M83.12,48.54a.69.69,0,0,1-.69-.69C82.43,41.36,78.9,40,78,40a.69.69,0,1,1,0-1.38c1.9,0,5.85,2.25,5.85,9.2A.69.69,0,0,1,83.12,48.54Z"/><path class="cls-15" d="M83.84,50.3a.72.72,0,1,1-.72-.73A.73.73,0,0,1,83.84,50.3Z"/><path class="cls-16" d="M26.6,59.45a.7.7,0,0,1-.39-.11.69.69,0,0,1-.18-1L29,54a.69.69,0,1,1,1.14.77l-3,4.41A.67.67,0,0,1,26.6,59.45Z"/><path class="cls-16" d="M67.68,65.18h0a.7.7,0,0,1-.66-.72l.27-6a.69.69,0,0,1,1.38.06l-.27,6A.69.69,0,0,1,67.68,65.18Z"/><path class="cls-16" d="M43.55,29.83a.68.68,0,0,1-.63-.4c-1.84-4-5-6-9.54-6a.69.69,0,1,1,0-1.38c5.1,0,8.73,2.28,10.79,6.79a.69.69,0,0,1-.34.92A.71.71,0,0,1,43.55,29.83Z"/><path class="cls-15" d="M38.28,29.05A1.26,1.26,0,1,1,37,27.79,1.25,1.25,0,0,1,38.28,29.05Z"/></g></g></svg>