<svg xmlns="http://www.w3.org/2000/svg" xmlns:xlink="http://www.w3.org/1999/xlink" viewBox="0 0 100.15 100.15"><defs><style>.cls-1{fill:url(#New_Gradient_Swatch_3);}.cls-11,.cls-2{fill:#3e2f3c;}.cls-14,.cls-3{fill:#f2eed1;}.cls-4,.cls-7{fill:#ba6a27;}.cls-5,.cls-6{fill:#eea74e;}.cls-11,.cls-12,.cls-13,.cls-14,.cls-15,.cls-5,.cls-7,.cls-9{fill-rule:evenodd;}.cls-8,.cls-9{fill:#f5c268;}.cls-10,.cls-13{fill:#d89144;}.cls-12{fill:#bf423c;}.cls-15{fill:#ee6d58;}</style><linearGradient id="New_Gradient_Swatch_3" x1="18.72" y1="18.72" x2="85.04" y2="85.04" gradientTransform="translate(96.48 -3.42) rotate(85.93)" gradientUnits="userSpaceOnUse"><stop offset="0" stop-color="#5b4559"/><stop offset="1" stop-color="#3e2f3c"/></linearGradient></defs><title>lion</title><g id="レイヤー_2" data-name="レイヤー 2"><g id="Animals"><circle class="cls-1" cx="50.08" cy="50.08" r="50.08" transform="translate(-3.42 96.48) rotate(-85.93)"/><path class="cls-2" d="M54.88,99.92A50.08,50.08,0,0,0,99.81,55.84L77.36,33.39,73.16,35l-7.42-7.42-11.33,0-14.83,17L44.1,51l-10.89,8.8L45.56,72.11,44.8,73l-2.65,1.9L34.2,67l-3,1.86.2.21-2.53.56,2.32,2.31L31.61,73l5.5,5.51L35,80.05Z"/><polygon class="cls-3" points="76.05 42.56 72.26 40.62 75.7 38.76 76.05 42.56 76.05 42.56"/><polygon class="cls-3" points="72.67 44.38 69.01 42.5 72.33 40.65 72.67 44.38 72.67 44.38"/><polygon class="cls-3" points="69.33 46.18 65.74 44.62 69.01 42.48 69.33 46.18 69.33 46.18"/><polygon class="cls-3" points="73.69 52.56 70.77 50.85 73.62 49.56 73.69 52.56 73.69 52.56"/><polygon class="cls-3" points="70.8 50.86 67.87 49.15 70.73 47.86 70.8 50.86 70.8 50.86"/><polygon class="cls-3" points="67.9 49.18 65.05 47.45 67.84 46.18 67.9 49.18 67.9 49.18"/><path class="cls-4" d="M48.84,79.92H60.32A11.48,11.48,0,0,0,48.84,68.44V79.92Z"/><polygon class="cls-5" points="48.84 65.92 56.93 63.23 52.17 79.92 48.84 79.92 48.84 65.92 48.84 65.92"/><path class="cls-4" d="M40,74.15a.25.25,0,0,1-.23.29.27.27,0,0,1-.29-.23.06.06,0,0,0,0,0h0a.6.6,0,0,0-.26-.4.69.69,0,0,0-.44-.11h0c-3.05.53-5.09.48-6.37-.13s-1.82-1.86-1.76-3.66a.26.26,0,0,1,.52,0c-.06,1.57.36,2.64,1.47,3.17s3.11.59,6,.08h.07a1.24,1.24,0,0,1,.78.2,1.11,1.11,0,0,1,.49.74h0s0,0,0,.07Z"/><path class="cls-6" d="M48.84,79.92H37.36A11.48,11.48,0,0,1,48.84,68.44V79.92Z"/><polygon class="cls-7" points="48.84 65.92 40.75 63.23 45.52 79.92 48.84 79.92 48.84 65.92 48.84 65.92"/><path class="cls-7" d="M37,77.31h7.19v2.74H35v-.33a2.22,2.22,0,0,1,2-2.41Z"/><path class="cls-8" d="M46.49,75.75a4.31,4.31,0,0,0-4.3,4.3h6.65V76.44a4.27,4.27,0,0,0-2.35-.69Z"/><path class="cls-9" d="M60.73,77.31H53.54v2.74h9.13v-.33a2.22,2.22,0,0,0-1.94-2.41Z"/><path class="cls-10" d="M51.19,75.75a4.31,4.31,0,0,1,4.31,4.3H48.84V76.44a4.32,4.32,0,0,1,2.35-.69Z"/><path class="cls-10" d="M30.87,67H27.54a3.33,3.33,0,0,0,6.66,0Z"/><path class="cls-8" d="M48.84,43H25.93A22.91,22.91,0,0,1,48.84,20.1V43Z"/><path class="cls-6" d="M48.84,43H25.93A22.92,22.92,0,0,0,48.84,65.93V43Z"/><path class="cls-4" d="M48.84,43V65.93A22.92,22.92,0,0,0,70.53,50.41l-6.88-4.08,4.53-3.11.35-.21Z"/><path class="cls-6" d="M48.84,43H68.53l3.15-1.85A22.91,22.91,0,0,0,48.84,20.1V43Z"/><path class="cls-9" d="M60.39,31.47A11.54,11.54,0,0,0,48.84,43c0,10.32,9,11,12.6,11.5,5,.64,10.71.36,12.45-2.11l-4.24-2.49v0L66.05,47.8a5.41,5.41,0,0,1-3.31,1.14h-.19a5.43,5.43,0,0,1-5.41-5.41h0a5.43,5.43,0,0,1,5.41-5.42h.19a5.44,5.44,0,0,1,5.4,5.1l3.64-2.1a11.55,11.55,0,0,0-11.39-9.64Z"/><path class="cls-11" d="M61.4,36a1.5,1.5,0,1,0,1.5,1.5A1.5,1.5,0,0,0,61.4,36Z"/><path class="cls-12" d="M62.58,37.79a5.61,5.61,0,1,0,3.5,10l-2.43-1.45,4.53-3.11a5.6,5.6,0,0,0-5.6-5.43Z"/><path class="cls-13" d="M73.12,33.78l-4.19,2.35a3,3,0,0,0-1.15,4.11l1.34,2.37,9.44-5.31-1.33-2.37a3,3,0,0,0-4.11-1.15Z"/><path class="cls-12" d="M74.75,31.84a3,3,0,1,0,3,3,3,3,0,0,0-3-3Z"/><path class="cls-14" d="M40,30.15a1.69,1.69,0,1,1-1.69-1.68A1.69,1.69,0,0,1,40,30.15Z"/><path class="cls-14" d="M40.74,39.12A5.73,5.73,0,1,1,35,33.39,5.72,5.72,0,0,1,40.74,39.12Z"/><path class="cls-3" d="M48.7,62.42a17.84,17.84,0,0,1-5.32-.83c-4.67-1.45-8.38-4.69-9.13-6.86a.8.8,0,0,1,.5-1,.8.8,0,0,1,1,.5c.53,1.52,3.72,4.48,8.09,5.85a15.88,15.88,0,0,0,14.61-2.65.81.81,0,0,1,1.13.16.82.82,0,0,1-.17,1.13A17.85,17.85,0,0,1,48.7,62.42Z"/><path class="cls-15" d="M77,34a1.56,1.56,0,1,1-1.56-1.57A1.56,1.56,0,0,1,77,34Z"/></g></g></svg>