<svg xmlns="http://www.w3.org/2000/svg" xmlns:xlink="http://www.w3.org/1999/xlink" viewBox="0 0 100.15 100.15"><defs><style>.cls-1{fill:url(#New_Gradient_Swatch_2);}.cls-2{fill:#187e89;opacity:0.81;}.cls-10,.cls-2,.cls-3,.cls-4,.cls-5,.cls-6,.cls-7,.cls-8,.cls-9{fill-rule:evenodd;}.cls-3{fill:#bf423c;}.cls-4{fill:#eea74e;}.cls-5{fill:#f5c268;}.cls-6{fill:#d89144;}.cls-7{fill:#e1deb4;}.cls-8{fill:#f2eed1;}.cls-9{fill:#ee6d58;}.cls-10{fill:#3e2f3c;}</style><linearGradient id="New_Gradient_Swatch_2" x1="18.59" y1="18.59" x2="81.08" y2="81.08" gradientTransform="translate(66.35 -18.85) rotate(58.28)" gradientUnits="userSpaceOnUse"><stop offset="0" stop-color="#2cabae"/><stop offset="1" stop-color="#187e89"/></linearGradient></defs><title>lion2</title><g id="レイヤー_2" data-name="レイヤー 2"><g id="Animals"><circle class="cls-1" cx="50.08" cy="50.08" r="50.08" transform="translate(-18.85 66.35) rotate(-58.28)"/><path class="cls-2" d="M100.13,50.88l-12.6-12.6-3.08,9.36L83.37,60.8l-6.69,1.05L51.33,36.5,39.67,45.75l-8.58,6.87,3.47,2.78L19.72,61.67l8.21,8.21L22.28,72.7l27.44,27.44h.36A50.07,50.07,0,0,0,100.13,50.88Z"/><polygon class="cls-3" points="26.41 57.76 65.33 57.76 65.33 72.81 26.41 72.81 26.41 57.76 26.41 57.76"/><path class="cls-4" d="M71.64,63H81.73a3.92,3.92,0,0,0,3.91-3.91V48.84H83.11v8.42c0,1.88-.78,3.19-3.19,3.19H71.64V63Z"/><path class="cls-5" d="M65.18,54.1c-7,0-12.62,8.19-12.62,18.3,0,.13,0,.27,0,.41H77.8V72.4c0-10.11-5.65-18.3-12.62-18.3Z"/><polygon class="cls-3" points="26.41 57.76 41.45 57.76 41.45 72.81 26.41 72.81 26.41 57.76 26.41 57.76"/><path class="cls-6" d="M65.15,54.1c-7,0-12.59,8.21-12.59,18.3,0,.13,0,.27,0,.41H65.15V54.1Z"/><path class="cls-5" d="M50,69.6c4.12-1.38,8.05-1.54,11.73,0,.73.31,1.58.74,1.58,1.65v1.56H48.4V71.25c0-.91.81-1.39,1.58-1.65Z"/><path class="cls-5" d="M27.73,67.92c3,0,5.46,2.14,5.46,4.78a.45.45,0,0,1,0,.11H22.28V72.7c0-2.64,2.44-4.78,5.45-4.78Z"/><path class="cls-5" d="M41.45,67.92c3,0,5.46,2.14,5.46,4.78v.11H36V72.7c0-2.64,2.44-4.78,5.45-4.78Z"/><path class="cls-6" d="M34.37,27.34A20.29,20.29,0,1,1,14.08,47.63,20.29,20.29,0,0,1,34.37,27.34Z"/><path class="cls-5" d="M34.37,27.34h0V67.92h0a20.29,20.29,0,0,1,0-40.58Z"/><path class="cls-5" d="M34.37,41.77C41,41.77,46.3,45.46,46.3,50S41,58.26,34.37,58.26,22.44,54.57,22.44,50s5.34-8.24,11.93-8.24Z"/><path class="cls-7" d="M34.37,55.38a5,5,0,1,1-5.3,5,5.15,5.15,0,0,1,5.3-5Z"/><path class="cls-8" d="M34.37,58.26c-6.59,0-11.93-3.69-11.93-8.25s5.34-8.24,11.93-8.24V58.26Z"/><path class="cls-8" d="M29.07,60.36a5.15,5.15,0,0,1,5.3-5v5Z"/><path class="cls-8" d="M34.37,59.49a6.09,6.09,0,0,1-.23.87H28L27.67,60a4,4,0,0,1,.22-4.74c1.85-2.3,5.51-5.05,6.48-5v9.27Z"/><polygon class="cls-8" points="34.37 56.54 30.66 56.54 32.52 57.98 34.37 59.41 34.37 56.54 34.37 56.54"/><polygon class="cls-8" points="27.41 51.69 28.34 50.7 29.28 49.72 27.41 49.72 25.53 49.72 26.47 50.7 27.41 51.69 27.41 51.69"/><path class="cls-3" d="M34.37,59.49c-.76,4.18-4.86,2.79-6.7.46a4,4,0,0,1,.22-4.74c1.85-2.3,5.51-5.05,6.48-5s4.63,2.69,6.48,5A4,4,0,0,1,41.07,60c-1.84,2.33-5.93,3.72-6.7-.46Z"/><path class="cls-9" d="M34.37,59.49c-.76,4.18-4.86,2.79-6.7.46a4,4,0,0,1,.22-4.74c1.85-2.3,5.51-5.05,6.48-5h0v9.33s0,0,0-.06Z"/><polygon class="cls-10" points="34.37 59.41 36.23 57.98 38.08 56.54 34.37 56.54 30.66 56.54 32.52 57.98 34.37 59.41 34.37 59.41"/><polygon class="cls-10" points="41.17 51.69 42.1 50.7 43.04 49.72 41.17 49.72 39.3 49.72 40.23 50.7 41.17 51.69 41.17 51.69"/><polygon class="cls-10" points="27.41 51.69 28.34 50.7 29.28 49.72 27.41 49.72 25.53 49.72 26.47 50.7 27.41 51.69 27.41 51.69"/><path class="cls-8" d="M22.12,39.32a1.52,1.52,0,1,1-1.52,1.52,1.52,1.52,0,0,1,1.52-1.52Z"/><path class="cls-8" d="M27.53,34A2.55,2.55,0,1,1,25,36.5,2.55,2.55,0,0,1,27.53,34Z"/><path class="cls-8" d="M69.81,58.84a2,2,0,1,1-2,2,2,2,0,0,1,2-2Z"/><path class="cls-8" d="M72.48,64.66a1.3,1.3,0,1,1-1.3,1.3,1.3,1.3,0,0,1,1.3-1.3Z"/><path class="cls-6" d="M30.25,70.22a.83.83,0,0,0-.83.84v1.75h1.67V71.06A.83.83,0,0,0,30.25,70.22Z"/><path class="cls-6" d="M26.75,71.06v1.75h1.68V71.06a.84.84,0,1,0-1.68,0Z"/><path class="cls-6" d="M25.77,72.81V71.06a.84.84,0,1,0-1.68,0v1.75Z"/><path class="cls-6" d="M44.12,70.22a.83.83,0,0,0-.84.84v1.75H45V71.06A.83.83,0,0,0,44.12,70.22Z"/><path class="cls-6" d="M40.61,71.06v1.75h1.68V71.06a.84.84,0,0,0-1.68,0Z"/><path class="cls-6" d="M39.63,72.81V71.06a.84.84,0,0,0-1.68,0v1.75Z"/><path class="cls-5" d="M88.56,47.21a4.11,4.11,0,0,1-4.11,4.11h0a4.11,4.11,0,0,1-4.11-4.11V41a4.11,4.11,0,0,1,4.11-4.11h0A4.11,4.11,0,0,1,88.56,41Z"/><path class="cls-6" d="M88.56,47.21V41a4.11,4.11,0,0,0-4.11-4.11V51.32A4.11,4.11,0,0,0,88.56,47.21Z"/></g></g></svg>