<svg xmlns="http://www.w3.org/2000/svg" xmlns:xlink="http://www.w3.org/1999/xlink" viewBox="0 0 100.15 100.15"><defs><style>.cls-1{fill:url(#New_Gradient_Swatch_2);}.cls-2{fill:#187e89;opacity:0.81;}.cls-10,.cls-11,.cls-12,.cls-2,.cls-3,.cls-4,.cls-5,.cls-6,.cls-7,.cls-8,.cls-9{fill-rule:evenodd;}.cls-3{fill:#ee6d58;}.cls-4{fill:#9d2326;}.cls-5{fill:#bf423c;}.cls-6{fill:#9b2c2c;}.cls-7{fill:#d89144;}.cls-8{fill:#f5c268;}.cls-13,.cls-9{fill:#3e2f3c;}.cls-10{fill:#2cabae;}.cls-11{fill:#f2eed1;}.cls-12{fill:#5b4559;}</style><linearGradient id="New_Gradient_Swatch_2" x1="18.16" y1="18.16" x2="82.96" y2="82.96" gradientTransform="translate(97.31 -2.69) rotate(86.83)" gradientUnits="userSpaceOnUse"><stop offset="0" stop-color="#2cabae"/><stop offset="1" stop-color="#187e89"/></linearGradient></defs><title>mandrill</title><g id="レイヤー_2" data-name="レイヤー 2"><g id="Animals"><circle class="cls-1" cx="50.08" cy="50.08" r="50.08" transform="translate(-2.69 97.31) rotate(-86.83)"/><path class="cls-2" d="M100.12,51.35l-34.05-34L66,19,64.36,17.3l.06,1.77L62.65,17.3l0,12.7-3.08,8.88-22.19-.24-4.17-4.17-2.64,2.67-6.26-1.09-4.85,1.5-1,12.38L31.93,63.4l-.48,16.67-1.75,2.4,17.61,17.6c.91.05,1.84.08,2.77.08A50.06,50.06,0,0,0,100.12,51.35Z"/><polygon class="cls-3" points="40.6 52.63 34.59 52.63 35.59 81.58 39.7 81.58 40.6 52.63 40.6 52.63"/><path class="cls-4" d="M39.07,77.9H36.22a1.16,1.16,0,0,0-1.15,1.15v2.58a1.16,1.16,0,0,0,1.15,1.15h2.85a1.15,1.15,0,0,0,1.14-1.15V79.05a1.15,1.15,0,0,0-1.14-1.15Z"/><path class="cls-5" d="M38.82,36.05H59L59.92,62l.13,5-.94,14.67H54.83l-.71-9.91c-3.23-8.89-6-4.77-12.83-10.12C41,61.4,39.23,59.49,39,59.3l-.14-23.25Z"/><path class="cls-6" d="M59.56,51.42,59.92,62l.13,5-.94,14.67H54.83l-.71-9.91c-3.23-8.89-6-4.77-12.83-10.12C41,61.4,39.23,59.49,39,59.3l-.05-7.88Z"/><polygon class="cls-4" points="34.86 52.63 28.86 52.63 29.86 81.58 33.96 81.58 34.86 52.63 34.86 52.63"/><polygon class="cls-3" points="68.74 66.98 62.69 66.98 63.69 81.64 67.83 81.64 68.74 66.98 68.74 66.98"/><path class="cls-7" d="M61.34,70.38h5.72c1.76,0,2.87-2,3.2-4.31l2-14.34c.33-2.32-1.44-4.3-3.2-4.3H59.32c-1.76,0-3.53,2-3.2,4.3l2,14.34c.33,2.33,1.44,4.31,3.2,4.31Z"/><path class="cls-8" d="M64.16,70.38h2.9c1.76,0,2.87-2,3.2-4.31l2-14.34c.33-2.32-1.44-4.3-3.2-4.3H64.16V70.38Z"/><path class="cls-6" d="M64.2,29.91A12.29,12.29,0,1,0,76.48,42.2,12.28,12.28,0,0,0,64.2,29.91Z"/><path class="cls-3" d="M64.2,29.91A12.28,12.28,0,0,0,51.92,42.2H76.48A12.28,12.28,0,0,0,64.2,29.91Z"/><path class="cls-9" d="M68.86,39.71H59.54a1,1,0,0,0-1,1v4.4a1,1,0,0,0,1,1.05h9.32a1,1,0,0,0,1-1.05v-4.4a1,1,0,0,0-1-1Z"/><path class="cls-10" d="M62,59.85h4.5c1.38,0,2.25-1.32,2.51-2.88l1.59-9.58A2.57,2.57,0,0,0,68,44.52H60.37a2.57,2.57,0,0,0-2.52,2.87L59.44,57c.25,1.56,1.13,2.88,2.51,2.88Z"/><polygon class="cls-9" points="66.94 21.37 66.5 19.34 66.07 17.3 65.64 19.34 65.22 21.37 65.22 21.37 64.79 19.34 64.36 17.3 63.94 19.34 63.51 21.37 63.51 21.37 63.08 19.34 62.66 17.3 62.23 19.34 61.78 21.37 61.78 35.47 66.94 35.47 66.94 21.37 66.94 21.37"/><path class="cls-11" d="M67.55,41.07a1.25,1.25,0,1,1-1.25,1.25,1.25,1.25,0,0,1,1.25-1.25Z"/><path class="cls-11" d="M60.85,41.07a1.25,1.25,0,1,1-1.24,1.25,1.25,1.25,0,0,1,1.24-1.25Z"/><path class="cls-5" d="M29.36,34.31H19.61a1.38,1.38,0,0,0-1.38,1.38V49.31a1,1,0,0,0,.95,1h.15a1,1,0,0,0,1-1v-11c.06-.73,7.34-.67,7.32,0l-.15,6.6,8.08-3.11L33.32,34.6a.46.46,0,0,0-.42-.29Z"/><path class="cls-12" d="M62,59.85h4.69V44.52H61.76V59.84Z"/><path class="cls-4" d="M66.85,58.42h-5.3a1.63,1.63,0,0,0-1.63,1.63V62a1.63,1.63,0,0,0,1.63,1.62h5.3A1.63,1.63,0,0,0,68.48,62V60.05a1.63,1.63,0,0,0-1.63-1.63Z"/><path class="cls-3" d="M38.72,36.05H39v23.3h-.24a11.66,11.66,0,0,1,0-23.32Z"/><path class="cls-4" d="M39,47.7V59.35h-.24A11.65,11.65,0,0,1,27.07,47.7Z"/><path class="cls-10" d="M38.75,40.8H39V54.48h-.21a6.85,6.85,0,0,1,0-13.69Z"/><path class="cls-5" d="M67.14,78H64.29a1.16,1.16,0,0,0-1.15,1.15V81.7a1.16,1.16,0,0,0,1.15,1.15h2.85a1.16,1.16,0,0,0,1.15-1.15V79.12A1.16,1.16,0,0,0,67.14,78Z"/><path class="cls-3" d="M58.37,78H55.52a1.16,1.16,0,0,0-1.15,1.15V81.7a1.16,1.16,0,0,0,1.15,1.15h2.85a1.15,1.15,0,0,0,1.14-1.15V79.12A1.15,1.15,0,0,0,58.37,78Z"/><path class="cls-5" d="M33.33,77.9H30.48a1.15,1.15,0,0,0-1.14,1.15v2.58a1.15,1.15,0,0,0,1.14,1.15h2.85a1.15,1.15,0,0,0,1.15-1.15V79.05a1.15,1.15,0,0,0-1.15-1.15Z"/><path class="cls-9" d="M60.08,62.65a1.62,1.62,0,0,0,1.47.93h2.66c0-.06,0-.12,0-.19a2.22,2.22,0,0,0-2.13-2.29,2.14,2.14,0,0,0-2,1.55Z"/><path class="cls-9" d="M64.22,63.58h2.63a1.62,1.62,0,0,0,1.49-1,2.15,2.15,0,0,0-2-1.51,2.21,2.21,0,0,0-2.12,2.29v.19Z"/><path class="cls-3" d="M41.34,38.43A2.38,2.38,0,1,0,39,40.8,2.39,2.39,0,0,0,41.34,38.43Z"/><rect class="cls-13" x="59.42" y="40.15" width="9.57" height="1.81"/><path class="cls-11" d="M41.78,42.2A1.18,1.18,0,1,0,43,41,1.18,1.18,0,0,0,41.78,42.2Z"/><path class="cls-11" d="M43.67,46.29a2.75,2.75,0,1,0,2.75-2.74A2.75,2.75,0,0,0,43.67,46.29Z"/></g></g></svg>