<svg xmlns="http://www.w3.org/2000/svg" xmlns:xlink="http://www.w3.org/1999/xlink" viewBox="0 0 100.15 100.15"><defs><style>.cls-1{fill:url(#linear-gradient);}.cls-2{fill:#d89144;}.cls-3,.cls-6{fill:#3e2f3c;}.cls-10,.cls-11,.cls-3,.cls-4,.cls-8,.cls-9{fill-rule:evenodd;}.cls-4,.cls-7{fill:#5b4559;}.cls-11,.cls-5{fill:#e1deb4;}.cls-8{fill:#ee6d58;}.cls-9{fill:#f2eed1;}.cls-10{fill:#bf423c;}</style><linearGradient id="linear-gradient" x1="18.55" y1="18.54" x2="77.28" y2="77.28" gradientTransform="translate(91.48 -7.37) rotate(80.78)" gradientUnits="userSpaceOnUse"><stop offset="0" stop-color="#f5c268"/><stop offset="1" stop-color="#d89144"/></linearGradient></defs><title>monky</title><g id="レイヤー_2" data-name="レイヤー 2"><g id="Animals"><circle class="cls-1" cx="50.08" cy="50.08" r="50.08" transform="translate(-7.37 91.48) rotate(-80.78)"/><path class="cls-2" d="M65.48,18.39l-2,3.42.31,2.38-.33.38-2.71-2.7-1.44,1.3-1.9-1.9-.46.14-4.16-4.16L51,22.08l-1.69-1.69-.65.74-5.44.42-4.62-4.62L40,20.22l1.37,7.53L44,29.8,31.19,34.36,26.43,33l9.08,9.08.34,8.24-5.1,3.27L28.68,56l5.85,5.86-1,8.16-11.8.37,5.06,5.05-.47,1.21,23.5,23.5h.31a50.07,50.07,0,0,0,50-47.09Z"/><path class="cls-3" d="M45,52h5.07V68.1H29.7v-.78A15.36,15.36,0,0,1,45,52Z"/><path class="cls-4" d="M55.14,52H50.08V68.1H70.45v-.78A15.36,15.36,0,0,0,55.14,52Z"/><path class="cls-5" d="M36.24,30.89l-2.7,3a.19.19,0,0,1-.32-.06l-3.36-8.2a.2.2,0,0,1,.27-.26,12.21,12.21,0,0,1,6.11,5.54Z"/><path class="cls-5" d="M38.58,45.91l2.13,3.6a.23.23,0,0,1-.12.34c-1.35.45-3,2.76-5,3.57-1.43.57-3,0-4.28.77A27.94,27.94,0,0,0,29,55.94a.23.23,0,0,1-.38-.2,3.49,3.49,0,0,1,.48-1.63c1.38-2.49,4-3.32,4.94-4.33,1.74-1.83,3.61-2.61,4.58-3.87Z"/><path class="cls-5" d="M40.69,49.39l4.05,1a.22.22,0,0,1,.15.32c-.63,1.27-.2,4.1-1,6.08-.6,1.41-2.13,2.09-2.48,3.57-.24,1-.29,2-.41,2.88a.23.23,0,0,1-.41.12,3.5,3.5,0,0,1-.81-1.49c-.78-2.74.48-5.17.44-6.56-.06-2.52.71-4.39.51-6Z"/><path class="cls-5" d="M49.29,51.21l4.16,1.08a.14.14,0,0,1,.09.22c-.69,1.23-.23,4.13-1.08,6.15-.61,1.41-1.51,1.47-1.87,3a35.93,35.93,0,0,0-.36,3.75.15.15,0,0,1-.28,0c-.37-.76-1.4-1.55-1.76-2.81a14.85,14.85,0,0,1-.45-5.38c-.07-2.52,1.76-4.41,1.55-6Z"/><path class="cls-5" d="M47.53,19.89c-1.23.27-1.94,1.83-1.58,3.5l2.23-.48,2.24-.49c-.37-1.66-1.66-2.8-2.89-2.53Z"/><path class="cls-5" d="M44.2,19.89c-1.51.33-2.38,2.25-1.94,4.3L45,23.6l2.74-.6c-.44-2-2-3.44-3.54-3.11Z"/><path class="cls-5" d="M38.46,23.89c-1,.74-1,2.46,0,3.84l1.85-1.35L42.13,25c-1-1.37-2.65-1.89-3.67-1.14Z"/><path class="cls-5" d="M35.42,25.24c-1.25.91-1.26,3,0,4.71l2.27-1.65,2.26-1.65c-1.24-1.69-3.25-2.32-4.5-1.41Z"/><path class="cls-5" d="M44.27,23.71l-3.88,1.91a.12.12,0,0,1-.17-.1A30.5,30.5,0,0,0,38.33,17a.12.12,0,0,1,.21-.1,31.29,31.29,0,0,0,5.73,6.78Z"/><path class="cls-5" d="M53.88,23.27,49.71,23a23.33,23.33,0,0,1,2.22-5.77.39.39,0,0,1,.72.07,17,17,0,0,1,1.23,6Z"/><path class="cls-5" d="M56.66,20.85c1.17.48,1.59,2.14,1,3.72l-2.12-.86-2.11-.86c.64-1.58,2.11-2.48,3.28-2Z"/><path class="cls-5" d="M59.94,21.43c1.43.58,2,2.63,1.16,4.57l-2.59-1.06-2.6-1.06c.79-1.94,2.6-3,4-2.45Z"/><path class="cls-5" d="M61.46,27.75l-2.09-2.23a.17.17,0,0,1,0-.27c1.08-.76,3-1.52,3.4-3.23a5.65,5.65,0,0,1,2.32-3.61.18.18,0,0,1,.25.25A9.13,9.13,0,0,0,64,23c.13,3.59-1.49,3.58-2.52,4.72Z"/><path class="cls-5" d="M65.88,27c.74,1,.24,2.65-1.14,3.67L63.39,28.8,62,27c1.38-1,3.1-1,3.85,0Z"/><path class="cls-5" d="M68.37,29.17c.92,1.25.3,3.26-1.39,4.51l-1.66-2.26-1.66-2.26c1.68-1.24,3.79-1.23,4.71,0Z"/><path class="cls-5" d="M67.77,37.51l-1.88-3.85a.24.24,0,0,1,.17-.34c2.5-.56,4.58-2.1,7.21-2.1a.25.25,0,0,1,.18.42c-2.09,2.07-3.69,5.14-5.68,5.87Z"/><path class="cls-5" d="M32.38,37.51l1.09-3.82a.25.25,0,0,0-.23-.31c-2.34-.14-4.45-1.2-6.81-.82a.25.25,0,0,0-.1.45c2.21,1.59,4.14,4.14,6.05,4.5Z"/><path class="cls-5" d="M64,48.4l-.9,3.66a.18.18,0,0,0,.17.22,8,8,0,0,1,6.07,2.83.18.18,0,0,0,.31-.17C68.76,52,67.06,49,64,48.4Z"/><path class="cls-5" d="M56.88,49.74l-4.1,1.06a.19.19,0,0,0-.12.27c.66,1.25.21,4.12,1.06,6.12.6,1.41,2.13,2.09,2.48,3.57.25,1.06.29,2.11.42,3a.19.19,0,0,0,.35.08,3.64,3.64,0,0,0,.86-1.55c.78-2.74-.48-5.17-.44-6.56.06-2.52-.71-4.39-.51-6Z"/><path class="cls-6" d="M50.07,40.45v18.3a18.3,18.3,0,0,0,18.3-18.3Z"/><path class="cls-7" d="M50.07,40.45H31.78a18.29,18.29,0,0,0,18.29,18.3V40.45Z"/><path class="cls-7" d="M50.07,40.45h18.3a18.29,18.29,0,0,0-18.3-18.29V40.45Z"/><path class="cls-6" d="M50.07,40.45H31.78A18.29,18.29,0,0,1,50.07,22.16V40.45Z"/><path class="cls-8" d="M46.77,33.06c2,0,3.69,1,3.69,3.63S47.87,49,47.35,45.39s-4.15-4.88-4.15-7.53,1.59-4.8,3.57-4.8Z"/><path class="cls-8" d="M54.16,33.06c-2,0-3.7,1-3.7,3.63s2.6,12.33,3.12,8.7,4.15-4.88,4.15-7.53-1.6-4.8-3.57-4.8Z"/><path class="cls-9" d="M46.7,34.73a2.78,2.78,0,1,0,2.78,2.78,2.77,2.77,0,0,0-2.78-2.78Z"/><path class="cls-3" d="M46.7,36.28a1.23,1.23,0,1,0,1.23,1.23,1.23,1.23,0,0,0-1.23-1.23Z"/><path class="cls-9" d="M53.45,34.73a2.78,2.78,0,1,1-2.78,2.78,2.78,2.78,0,0,1,2.78-2.78Z"/><path class="cls-3" d="M53.45,36.28a1.23,1.23,0,1,1-1.23,1.23,1.24,1.24,0,0,1,1.23-1.23Z"/><path class="cls-10" d="M50.08,56.28c-4.09-.16-5.33-1-5.33-6.87,0-2.2,2-4.49,2.86-6.88,1.36-3.94,0-7.61,2.47-7.9,2.49.29,1.1,4,2.46,7.9.82,2.39,2.86,4.68,2.86,6.88,0,5.83-1.24,6.71-5.32,6.87Z"/><path class="cls-6" d="M44.9,53a.21.21,0,0,1-.08-.27.19.19,0,0,1,.27-.07,3,3,0,0,0,1.93.17l.44-.05a4.89,4.89,0,0,0,1.16-.32,4.44,4.44,0,0,1,1.46-.34,4.32,4.32,0,0,1,1.44.34h0a4.89,4.89,0,0,0,1.16.32l.44.05a3.38,3.38,0,0,0,1.67-.05l.26-.12a.19.19,0,0,1,.27.07.21.21,0,0,1-.08.27,3.32,3.32,0,0,1-2.17.22l-.43-.06a5.49,5.49,0,0,1-1.25-.33,4.1,4.1,0,0,0-1.32-.32,4.1,4.1,0,0,0-1.33.32,5.36,5.36,0,0,1-1.25.33l-.43.06A3.33,3.33,0,0,1,44.9,53Z"/><path class="cls-6" d="M49.26,49.42A.26.26,0,0,1,49,49.3l-.78-1.17a.26.26,0,0,1,.08-.37.27.27,0,0,1,.37.07L49.49,49a.26.26,0,0,1-.08.37A.25.25,0,0,1,49.26,49.42Zm1.63,0a.27.27,0,0,1-.15-.05.26.26,0,0,1-.07-.37l.77-1.17a.27.27,0,0,1,.37-.07.26.26,0,0,1,.08.37l-.78,1.17A.26.26,0,0,1,50.89,49.42Z"/><path class="cls-11" d="M77.39,67.71H22.76a1.56,1.56,0,1,0,0,3.11h15.8a1.56,1.56,0,0,1,0,3.12H31.45a1.56,1.56,0,0,0,0,3.11H45.6a1.56,1.56,0,0,1,0,3.12H41.71a1.56,1.56,0,1,0,0,3.11H59.87a1.56,1.56,0,1,0,0-3.11H56.56a1.56,1.56,0,0,1,0-3.12H69.35a1.56,1.56,0,0,0,0-3.11h-7.7a1.56,1.56,0,1,1,0-3.12H77.39a1.56,1.56,0,1,0,0-3.11ZM43.14,73.94a1.56,1.56,0,1,1,1.56-1.56A1.55,1.55,0,0,1,43.14,73.94Zm4.09,0a1.56,1.56,0,1,1,1.56-1.56A1.56,1.56,0,0,1,47.23,73.94Z"/><path class="cls-11" d="M25.75,75.49a1.56,1.56,0,1,0,1.56-1.55A1.56,1.56,0,0,0,25.75,75.49Z"/><path class="cls-11" d="M36.15,81.72a1.56,1.56,0,1,0,1.55-1.55A1.55,1.55,0,0,0,36.15,81.72Z"/><path class="cls-11" d="M72,75.49a1.56,1.56,0,1,0,1.55-1.55A1.55,1.55,0,0,0,72,75.49Z"/></g></g></svg>