<svg xmlns="http://www.w3.org/2000/svg" xmlns:xlink="http://www.w3.org/1999/xlink" viewBox="0 0 100.15 100.15"><defs><style>.cls-1{fill:url(#New_Gradient_Swatch_2);}.cls-2{fill:#187e89;opacity:0.81;}.cls-3,.cls-4{fill:#9b2c2c;}.cls-12,.cls-3,.cls-5,.cls-7,.cls-8,.cls-9{fill-rule:evenodd;}.cls-5{fill:#eea74e;}.cls-6,.cls-9{fill:#f5c268;}.cls-11,.cls-7{fill:#bf423c;}.cls-8{fill:#ee6d58;}.cls-10{fill:#d89144;}.cls-12{fill:#3e2f3c;}.cls-13{fill:#f2eed1;}</style><linearGradient id="New_Gradient_Swatch_2" x1="17.01" y1="17.01" x2="88.67" y2="88.67" gradientUnits="userSpaceOnUse"><stop offset="0" stop-color="#2cabae"/><stop offset="1" stop-color="#187e89"/></linearGradient></defs><title>monky2</title><g id="レイヤー_2" data-name="レイヤー 2"><g id="Animals"><circle class="cls-1" cx="50.08" cy="50.08" r="50.08"/><path class="cls-2" d="M100.15,50.08a50.35,50.35,0,0,0-.63-7.91L81.63,24.28V26L77.45,21.9l-5.16-1.18L70.73,21.9,81.55,32.72l0,1.63-10,8.4-8.6-1.88L52.3,30.26l.16,4.86-2.93-2.93L31,35.1l-4.83-4.84,1.87,8.35-1.52-.26-2.73,4.4,6.66,6.66,1.58,7,1.21,4.21-1.57,1.6-3,14.49-1.23,3-5.27.84L41,99.31a50.83,50.83,0,0,0,9.13.84A50.07,50.07,0,0,0,100.15,50.08Z"/><path class="cls-3" d="M55.55,69.05l.86,9.25H50.53a1.42,1.42,0,0,0,0,2.83h8.13V69.05Z"/><path class="cls-4" d="M51.17,59.77c0,5.77,3.35,10.45,7.49,10.45V49.33c-4.14,0-7.49,4.68-7.49,10.44Z"/><polygon class="cls-5" points="69.67 69.64 62.9 65.58 65.86 79.15 69.67 79.15 69.67 69.64 69.67 69.64"/><path class="cls-6" d="M66.21,44a1.77,1.77,0,0,1,.29-3.52c6.63.55,10.62-1.66,12.44-4.72h0a8.88,8.88,0,0,0,1.19-3.85,9.57,9.57,0,0,0-.58-4A8.16,8.16,0,0,0,72,22.55,1.76,1.76,0,1,1,72.14,19a11.59,11.59,0,0,1,10.7,7.63,12.84,12.84,0,0,1,.81,5.46A12.37,12.37,0,0,1,82,37.52h0C79.5,41.64,74.41,44.64,66.21,44Z"/><path class="cls-7" d="M63.74,39.18H34.63a6,6,0,0,0-5.94,5.94v6.36a5.78,5.78,0,0,0,.11,1.1h-.11A14.53,14.53,0,0,0,43.32,67c10.48,0,13.5-9.59,14.08-9.59,0,.2,0,.39,0,.59,0,6.43,5.51,11.64,12.29,11.64V45.12a6,6,0,0,0-5.93-5.94Z"/><path class="cls-8" d="M68.34,78.3H61.63a1.42,1.42,0,0,0-1.42,1.41h0a1.43,1.43,0,0,0,1.42,1.42h6.71a1.42,1.42,0,0,0,1.41-1.42h0a1.42,1.42,0,0,0-1.41-1.41Z"/><polygon class="cls-9" points="51.73 46.22 43.25 46.22 45.05 79.15 47.35 79.15 51.73 46.22 51.73 46.22"/><polygon class="cls-9" points="28.69 50.29 36.61 50.32 30.68 79.29 27.46 79.29 28.69 50.29 28.69 50.29"/><path class="cls-8" d="M46.83,78.3H40.12a1.42,1.42,0,0,0-1.41,1.41h0a1.42,1.42,0,0,0,1.41,1.42h6.71a1.43,1.43,0,0,0,1.42-1.42h0a1.42,1.42,0,0,0-1.42-1.41Z"/><path class="cls-8" d="M31.06,78.3H23.33a1.42,1.42,0,0,0-1.42,1.41h0a1.43,1.43,0,0,0,1.42,1.42h7.73a1.42,1.42,0,0,0,1.41-1.42h0a1.42,1.42,0,0,0-1.41-1.41Z"/><path class="cls-8" d="M26.18,30.26c-.18,0-3.39,5.08-3.39,8.82s1.83,4.75,3.39,4.75,4.09-4.24,2.82-6.78-2.65-6.79-2.82-6.79Z"/><path class="cls-5" d="M52.3,30.26c.18,0,3.39,5.08,3.39,8.82s-1.83,4.75-3.39,4.75-4.09-4.24-2.82-6.78,2.65-6.79,2.82-6.79Z"/><path class="cls-3" d="M39.24,27.43A13.64,13.64,0,1,0,52.88,41.06,13.64,13.64,0,0,0,39.24,27.43Z"/><path class="cls-10" d="M39.23,53H36.05a3.19,3.19,0,1,0,6.36,0Z"/><path class="cls-5" d="M34.81,36.19h8.86a3.14,3.14,0,0,1,3.13,3.12v5.34c0,3.49-2.51.8-2.51,5.84a2.73,2.73,0,0,1-2.72,2.73H36.91a2.73,2.73,0,0,1-2.72-2.73c0-5-2.51-2.35-2.51-5.84V39.31a3.14,3.14,0,0,1,3.13-3.12Z"/><path class="cls-8" d="M52.36,37.32A13.66,13.66,0,0,0,39.7,27.43h-.46v9.89Z"/><path class="cls-9" d="M26.12,37.32a13.65,13.65,0,0,1,12.66-9.89h.46v9.89Z"/><polygon class="cls-7" points="37.42 37.32 41.06 37.32 41.06 46.22 37.42 46.22 37.42 37.32 37.42 37.32"/><path class="cls-6" d="M39.24,45.67a3.43,3.43,0,0,0-3.43,3.42h6.86a3.43,3.43,0,0,0-3.43-3.42Z"/><path class="cls-11" d="M37.85,47a.28.28,0,1,1,.46.32l-.83,1.22a.28.28,0,0,1-.39.07.29.29,0,0,1-.08-.39L37.85,47Z"/><path class="cls-11" d="M40.17,47.32a.28.28,0,0,1,.46-.32l.84,1.22a.29.29,0,0,1-.08.39.28.28,0,0,1-.39-.07l-.83-1.22Z"/><path class="cls-12" d="M35.44,40.53a1.11,1.11,0,1,0,1.12,1.11,1.11,1.11,0,0,0-1.12-1.11Z"/><path class="cls-12" d="M43,40.53a1.11,1.11,0,1,0,1.11,1.11A1.11,1.11,0,0,0,43,40.53Z"/><path class="cls-13" d="M62.07,44.05a1.52,1.52,0,1,1-1.52-1.52A1.52,1.52,0,0,1,62.07,44.05Z"/><path class="cls-13" d="M67.8,48.66a3.21,3.21,0,1,1-3.21-3.2A3.21,3.21,0,0,1,67.8,48.66Z"/></g></g></svg>