<svg xmlns="http://www.w3.org/2000/svg" xmlns:xlink="http://www.w3.org/1999/xlink" viewBox="0 0 100.15 100.15"><defs><style>.cls-1{fill:url(#linear-gradient);}.cls-2{fill:#d89144;}.cls-3{fill:#3e2f3c;}.cls-4{fill:#2cabae;}.cls-5{fill:#5b4559;}.cls-6{fill:#e1deb4;}.cls-7{fill:#f2eed1;}.cls-8{fill:#9b2c2c;}.cls-9{fill:#ee6d58;}.cls-10{fill:#1d8a9c;}.cls-11{fill:#bf423c;}</style><linearGradient id="linear-gradient" x1="15.34" y1="15.34" x2="85.09" y2="85.09" gradientTransform="translate(81.75 -13.27) rotate(71.57)" gradientUnits="userSpaceOnUse"><stop offset="0" stop-color="#f5c268"/><stop offset="1" stop-color="#d89144"/></linearGradient></defs><title>owl</title><g id="レイヤー_2" data-name="レイヤー 2"><g id="Animals"><circle class="cls-1" cx="50.08" cy="50.08" r="50.08" transform="translate(-13.27 81.75) rotate(-71.57)"/><path class="cls-2" d="M99.87,55.39,71.41,26.93l-8.55,2.35-4.7,4.09L53.88,39.1,33.94,27.9l-5.2-1,9.55,9.55-2,20.08L31.51,66l8,8H31.14L23,75.66l24.41,24.42c.9,0,1.81.07,2.72.07A50.08,50.08,0,0,0,99.87,55.39Z"/><path class="cls-3" d="M59.83,32.72c0,4.94-4.37,8.94-9.75,8.94s-9.76-4-9.76-8.94,4.37-8.94,9.76-8.94S59.83,27.79,59.83,32.72Z"/><rect class="cls-4" x="42.58" y="46.55" width="7.49" height="25.32"/><path class="cls-3" d="M42.57,42a14.55,14.55,0,0,0,0,29.1Z"/><path class="cls-5" d="M42.57,44.92c-4.77,0-8.63,5.86-8.63,13.09S37.8,71.1,42.57,71.1Z"/><path class="cls-5" d="M75.58,71.87h-51a2.24,2.24,0,0,0-2.24,2.25H77.82A2.24,2.24,0,0,0,75.58,71.87Z"/><path class="cls-3" d="M22.33,74.12a2.24,2.24,0,0,0,2.24,2.24h51a2.24,2.24,0,0,0,2.24-2.24Z"/><polygon class="cls-6" points="45.07 67.97 45.07 71.89 47.57 71.89 45.07 67.97"/><polygon class="cls-7" points="45.07 67.97 45.07 71.89 42.57 71.89 45.07 67.97"/><polygon class="cls-7" points="50.08 67.97 50.08 71.89 47.57 71.89 50.08 67.97"/><polygon class="cls-6" points="45.07 64.04 45.07 67.97 47.57 67.97 45.07 64.04"/><polygon class="cls-7" points="45.07 64.04 45.07 67.97 42.57 67.97 45.07 64.04"/><polygon class="cls-7" points="50.08 64.04 50.08 67.97 47.57 67.97 50.08 64.04"/><polygon class="cls-6" points="45.07 60.12 45.07 64.04 47.57 64.04 45.07 60.12"/><polygon class="cls-7" points="45.07 60.12 45.07 64.04 42.57 64.04 45.07 60.12"/><polygon class="cls-7" points="50.08 60.12 50.08 64.04 47.57 64.04 50.08 60.12"/><polygon class="cls-6" points="45.07 56.19 45.07 60.12 47.57 60.12 45.07 56.19"/><polygon class="cls-7" points="45.07 56.19 45.07 60.12 42.57 60.12 45.07 56.19"/><polygon class="cls-7" points="50.08 56.19 50.08 60.12 47.57 60.12 50.08 56.19"/><polygon class="cls-6" points="45.07 52.27 45.07 56.19 47.57 56.19 45.07 52.27"/><polygon class="cls-7" points="45.07 52.27 45.07 56.19 42.57 56.19 45.07 52.27"/><polygon class="cls-7" points="50.08 52.27 50.08 56.19 47.57 56.19 50.08 52.27"/><polygon class="cls-6" points="45.07 48.34 45.07 52.27 47.57 52.27 45.07 48.34"/><polygon class="cls-7" points="45.07 48.34 45.07 52.27 42.57 52.27 45.07 48.34"/><polygon class="cls-7" points="50.08 48.34 50.08 52.27 47.57 52.27 50.08 48.34"/><polygon class="cls-6" points="45.07 44.41 45.07 48.34 47.57 48.34 45.07 44.41"/><polygon class="cls-7" points="45.07 44.41 45.07 48.34 42.57 48.34 45.07 44.41"/><polygon class="cls-7" points="50.08 44.41 50.08 48.34 47.57 48.34 50.08 44.41"/><path class="cls-8" d="M38.31,76.32a2,2,0,0,1-2,2h0a2,2,0,0,1-2-2V71.91a2,2,0,0,1,2-2h0a2,2,0,0,1,2,2Z"/><path class="cls-8" d="M44.93,76.32a2,2,0,0,1-2,2h0a2,2,0,0,1-2-2V71.91a2,2,0,0,1,2-2h0a2,2,0,0,1,2,2Z"/><path class="cls-3" d="M50.08,34.31a11.55,11.55,0,1,0,0,12.24Z"/><path class="cls-5" d="M44.82,32.14V29.63c0-1.17,0-2.7-2.41-2.7H28.74l8.55,4.55Z"/><path class="cls-9" d="M50.08,36.78v9.79s-4.35-1.73-5.86-4.5S50.08,36.78,50.08,36.78Z"/><path class="cls-4" d="M47.88,31.48a7.5,7.5,0,0,0-10.59,0l5.29,5.3Z"/><path class="cls-10" d="M37.29,31.48a7.48,7.48,0,0,0,0,10.59l5.29-5.29Z"/><path class="cls-4" d="M37.29,42.07a7.48,7.48,0,0,0,10.59,0l-5.3-5.29Z"/><path class="cls-10" d="M42.58,36.78l5.3,5.29a7.48,7.48,0,0,0,0-10.59Z"/><path class="cls-7" d="M46.61,36.78a4,4,0,1,1-4-4A4,4,0,0,1,46.61,36.78Z"/><path class="cls-3" d="M44.24,36.78a1.66,1.66,0,1,1-1.66-1.66A1.66,1.66,0,0,1,44.24,36.78Z"/><rect class="cls-10" x="50.08" y="46.55" width="7.49" height="25.32"/><path class="cls-3" d="M57.58,42a14.55,14.55,0,0,1,0,29.1Z"/><path class="cls-5" d="M57.58,44.92c4.77,0,8.63,5.86,8.63,13.09S62.35,71.1,57.58,71.1Z"/><polygon class="cls-7" points="55.08 67.97 55.08 71.89 52.58 71.89 55.08 67.97"/><polygon class="cls-6" points="55.08 67.97 55.08 71.89 57.58 71.89 55.08 67.97"/><polygon class="cls-6" points="50.08 67.97 50.08 71.89 52.58 71.89 50.08 67.97"/><polygon class="cls-7" points="55.08 64.04 55.08 67.97 52.58 67.97 55.08 64.04"/><polygon class="cls-6" points="55.08 64.04 55.08 67.97 57.58 67.97 55.08 64.04"/><polygon class="cls-6" points="50.08 64.04 50.08 67.97 52.58 67.97 50.08 64.04"/><polygon class="cls-7" points="55.08 60.12 55.08 64.04 52.58 64.04 55.08 60.12"/><polygon class="cls-6" points="55.08 60.12 55.08 64.04 57.58 64.04 55.08 60.12"/><polygon class="cls-6" points="50.08 60.12 50.08 64.04 52.58 64.04 50.08 60.12"/><polygon class="cls-7" points="55.08 56.19 55.08 60.12 52.58 60.12 55.08 56.19"/><polygon class="cls-6" points="55.08 56.19 55.08 60.12 57.58 60.12 55.08 56.19"/><polygon class="cls-6" points="50.08 56.19 50.08 60.12 52.58 60.12 50.08 56.19"/><polygon class="cls-7" points="55.08 52.27 55.08 56.19 52.58 56.19 55.08 52.27"/><polygon class="cls-6" points="55.08 52.27 55.08 56.19 57.58 56.19 55.08 52.27"/><polygon class="cls-6" points="50.08 52.27 50.08 56.19 52.58 56.19 50.08 52.27"/><polygon class="cls-7" points="55.08 48.34 55.08 52.27 52.58 52.27 55.08 48.34"/><polygon class="cls-6" points="55.08 48.34 55.08 52.27 57.58 52.27 55.08 48.34"/><polygon class="cls-6" points="50.08 48.34 50.08 52.27 52.58 52.27 50.08 48.34"/><polygon class="cls-6" points="55.08 44.41 55.08 48.34 52.58 48.34 55.08 44.41"/><polygon class="cls-7" points="55.08 44.41 55.08 48.34 57.58 48.34 55.08 44.41"/><polygon class="cls-6" points="50.08 44.41 50.08 48.34 52.58 48.34 50.08 44.41"/><path class="cls-8" d="M61.84,76.32a2,2,0,0,0,2,2h0a2,2,0,0,0,2-2V71.91a2,2,0,0,0-2-2h0a2,2,0,0,0-2,2Z"/><path class="cls-8" d="M55.23,76.32a2,2,0,0,0,2,2h0a2,2,0,0,0,2-2V71.91a2,2,0,0,0-2-2h0a2,2,0,0,0-2,2Z"/><path class="cls-9" d="M42,76.74a2.35,2.35,0,0,1-2.35,2.35h0a2.35,2.35,0,0,1-2.35-2.35V71.5a2.35,2.35,0,0,1,2.35-2.35h0A2.35,2.35,0,0,1,42,71.5Z"/><path class="cls-9" d="M58.16,76.74a2.35,2.35,0,0,0,2.35,2.35h0a2.35,2.35,0,0,0,2.35-2.35V71.5a2.35,2.35,0,0,0-2.35-2.35h0a2.35,2.35,0,0,0-2.35,2.35Z"/><path class="cls-3" d="M50.08,34.31a11.55,11.55,0,1,1,0,12.24Z"/><path class="cls-5" d="M55.33,32.14V29.63c0-1.17,0-2.7,2.41-2.7H71.41l-8.55,4.55Z"/><path class="cls-11" d="M50.08,36.78v9.79s4.34-1.73,5.85-4.5S50.08,36.78,50.08,36.78Z"/><path class="cls-4" d="M52.27,31.48a7.5,7.5,0,0,1,10.59,0l-5.29,5.3Z"/><path class="cls-10" d="M62.86,31.48a7.48,7.48,0,0,1,0,10.59l-5.29-5.29Z"/><path class="cls-4" d="M62.86,42.07a7.48,7.48,0,0,1-10.59,0l5.3-5.29Z"/><path class="cls-10" d="M57.57,36.78l-5.3,5.29a7.48,7.48,0,0,1,0-10.59Z"/><path class="cls-7" d="M53.54,36.78a4,4,0,1,0,4-4A4,4,0,0,0,53.54,36.78Z"/><path class="cls-3" d="M55.91,36.78a1.66,1.66,0,1,0,1.66-1.66A1.66,1.66,0,0,0,55.91,36.78Z"/></g></g></svg>