<svg xmlns="http://www.w3.org/2000/svg" xmlns:xlink="http://www.w3.org/1999/xlink" viewBox="0 0 100.15 100.15"><defs><style>.cls-1{isolation:isolate;}.cls-2{fill:url(#New_Gradient_Swatch_4);}.cls-3{fill:#bf423c;}.cls-4{fill:#f5c268;}.cls-10,.cls-11,.cls-15,.cls-4,.cls-5,.cls-8,.cls-9{fill-rule:evenodd;}.cls-12,.cls-18,.cls-5{fill:#3e2f3c;}.cls-10,.cls-6{fill:#c6c29b;}.cls-7,.cls-8{fill:#e1deb4;}.cls-9{fill:#5b4559;}.cls-11,.cls-17{fill:#f2eed1;}.cls-13{fill:#d89144;}.cls-14{fill:#eea74e;}.cls-15{fill:#f9f1e6;}.cls-16{opacity:0.15;}.cls-18{opacity:0.18;mix-blend-mode:multiply;}</style><linearGradient id="New_Gradient_Swatch_4" x1="18.72" y1="18.72" x2="82.1" y2="82.1" gradientTransform="translate(89.78 -8.57) rotate(79.1)" gradientUnits="userSpaceOnUse"><stop offset="0" stop-color="#ee6d58"/><stop offset="1" stop-color="#bf423c"/></linearGradient></defs><title>panda</title><g class="cls-1"><g id="レイヤー_2" data-name="レイヤー 2"><g id="Animals"><circle class="cls-2" cx="50.08" cy="50.08" r="50.08" transform="translate(-8.57 89.78) rotate(-79.1)"/><path class="cls-3" d="M99.43,58.51,71.18,30.26,58.25,26.34l-5.61-5.62-1.16,1.42-10.3,1.25-3.27-3.27L30.19,43.41V68.09l1-.08-5.3,8,24.13,24.13h0A50.07,50.07,0,0,0,99.43,58.51Z"/><path class="cls-4" d="M78.1,68a66.34,66.34,0,0,0-56,0Z"/><path class="cls-5" d="M64.09,40.55,69,27.92c9.22,9.72,14.46,21.25,4.85,37.54-2.59,4.39-10.09,3-8.86-2,4.76-15.59,1.27-18.21-.9-22.92Z"/><path class="cls-6" d="M58,38.56H42.32a15.65,15.65,0,0,0,31.3,0Z"/><path class="cls-7" d="M58,23.08A15.57,15.57,0,0,0,42.32,38.56h31.3A15.57,15.57,0,0,0,58,23.08Z"/><path class="cls-8" d="M42.78,35.78c-8.63,0-15.62,5.06-15.62,11.31s7,11.32,15.62,11.32S58.4,53.35,58.4,47.09s-7-11.31-15.62-11.31Z"/><path class="cls-9" d="M36.91,41.61c-2.17,4.53-5.66,7-.9,22,1.23,4.77-6.27,6.14-8.86,1.91C17.54,49.89,22.78,38.81,32,29.46l4.91,12.15Zm11.65,0c2.16,4.53,5.65,7,.89,22-1.23,4.77,6.27,6.14,8.86,1.91,9.61-15.67,4.37-26.75-4.85-36.1l-4.9,12.15Z"/><path class="cls-5" d="M36,19.28h0a2.63,2.63,0,0,0-2.63,2.63v4.71h5.27V21.91A2.64,2.64,0,0,0,36,19.28Z"/><path class="cls-10" d="M43,47.75a15.67,15.67,0,0,0,10.54-4.06,11.33,11.33,0,0,0-21.47-.38A15.63,15.63,0,0,0,43,47.75Z"/><path class="cls-5" d="M58.4,35.27a46.67,46.67,0,0,0-4.94-5.81l-4.9,12.15c.68,1.43,1.5,2.66,2.14,4.14A15.65,15.65,0,0,0,58.4,35.27Z"/><path class="cls-5" d="M27.56,34.58a15.71,15.71,0,0,0,7.33,10.89c.63-1.36,1.38-2.52,2-3.86L32,29.46A50.2,50.2,0,0,0,27.56,34.58Z"/><path class="cls-5" d="M50.29,19.28h0a2.63,2.63,0,0,1,2.63,2.63v4.71H47.66V21.91a2.63,2.63,0,0,1,2.63-2.63Z"/><path class="cls-11" d="M43,20.72A11.35,11.35,0,1,0,54.39,32.07,11.35,11.35,0,0,0,43,20.72Z"/><path class="cls-5" d="M41.74,28.2a1.32,1.32,0,0,0-1.64-.95c-10.19,6.31-3,12,2.87,9.4L41.74,28.2Z"/><path class="cls-5" d="M44.19,28.2a1.32,1.32,0,0,1,1.64-.95c10.19,6.31,3,12-2.86,9.4l1.22-8.45Z"/><path class="cls-8" d="M47.74,32.43a.82.82,0,1,1-.82.81.82.82,0,0,1,.82-.81Z"/><path class="cls-8" d="M43,33.24h0a4.65,4.65,0,0,0-4.63,4.64v1.5A4.65,4.65,0,0,0,43,44h0a4.65,4.65,0,0,0,4.64-4.64v-1.5A4.65,4.65,0,0,0,43,33.24Z"/><path class="cls-8" d="M38.2,32.43a.82.82,0,1,0,.81.81.81.81,0,0,0-.81-.81Z"/><path class="cls-12" d="M43,40.05H40.56c0,.91,1.11,1.65,2.48,1.65s2.49-.74,2.49-1.65Z"/><path class="cls-13" d="M67.28,65.06V77.6A12.62,12.62,0,0,0,80,65.06Z"/><path class="cls-14" d="M67.28,65.06H54.6A12.61,12.61,0,0,0,67.28,77.6V65.06Z"/><path class="cls-13" d="M40.85,65.06V80.87c11.41,0,20.66-7.08,20.66-15.81Z"/><path class="cls-14" d="M40.85,65.06H20.2c0,8.73,9.24,15.81,20.65,15.81V65.06Z"/><path class="cls-11" d="M47.21,71.16a3,3,0,1,0,3,3,3,3,0,0,0-3-3Z"/><path class="cls-11" d="M29.47,67.23a2.86,2.86,0,1,0,2.86,2.86,2.86,2.86,0,0,0-2.86-2.86Z"/><path class="cls-11" d="M51.61,68.68A1.33,1.33,0,1,0,52.93,70a1.33,1.33,0,0,0-1.32-1.33Z"/><path class="cls-11" d="M74.2,67.07a1.61,1.61,0,1,0,1.6,1.61,1.61,1.61,0,0,0-1.6-1.61Z"/><path class="cls-15" d="M64,28.17a1.55,1.55,0,1,1-1.55-1.55A1.55,1.55,0,0,1,64,28.17Z"/><path class="cls-15" d="M69.36,33.51a3.25,3.25,0,1,1-3.25-3.25A3.25,3.25,0,0,1,69.36,33.51Z"/><g class="cls-16"><path class="cls-17" d="M30.22,63a1.15,1.15,0,0,1-.91-.43,19,19,0,0,1-2.83-19.2,1.16,1.16,0,0,1,2.17.84,16.47,16.47,0,0,0,2.47,16.9A1.16,1.16,0,0,1,31,62.7,1.13,1.13,0,0,1,30.22,63Z"/></g><g class="cls-16"><path class="cls-17" d="M55.58,63a1.16,1.16,0,0,1-.9-1.89,16.45,16.45,0,0,0,2.47-16.9,1.16,1.16,0,0,1,.67-1.5,1.15,1.15,0,0,1,1.5.66,18.94,18.94,0,0,1-2.83,19.2A1.15,1.15,0,0,1,55.58,63Z"/></g><polygon class="cls-18" points="25.78 76.25 25.93 76.02 25.78 75.87 25.78 76.25"/></g></g></g></svg>