<svg xmlns="http://www.w3.org/2000/svg" xmlns:xlink="http://www.w3.org/1999/xlink" viewBox="0 0 100.15 100.15"><defs><style>.cls-1{fill:url(#New_Gradient_Swatch_4);}.cls-2{fill:#bf423c;}.cls-3{fill:#5b4559;}.cls-3,.cls-4,.cls-5,.cls-6,.cls-7{fill-rule:evenodd;}.cls-4{fill:#e1deb4;}.cls-5{fill:#c6c29b;}.cls-6{fill:#f2eed1;}.cls-7{fill:#3e2f3c;}</style><linearGradient id="New_Gradient_Swatch_4" x1="15.16" y1="15.16" x2="86.24" y2="86.24" gradientTransform="translate(50.08 -20.74) rotate(45)" gradientUnits="userSpaceOnUse"><stop offset="0" stop-color="#ee6d58"/><stop offset="1" stop-color="#bf423c"/></linearGradient></defs><title>phino</title><g id="レイヤー_2" data-name="レイヤー 2"><g id="Animals"><circle class="cls-1" cx="50.08" cy="50.08" r="50.08" transform="translate(-20.74 50.08) rotate(-45)"/><path class="cls-2" d="M53.81,100a50.06,50.06,0,0,0,46.27-47.63l-16-16L64,40,38.59,38.58l-8.35-8.35-2,2.59L33.53,46,22.89,52.3,19.7,54.09l-8.6-8.6L10.91,47l1.58,4.71,1.67,3.27,3.09,1.77-1.57,5.16Z"/><path class="cls-3" d="M77.08,33.15c-6.51,0-12.08,9.68-12.91,21.41H89.6c.57-13.62-6-21.41-12.52-21.41Z"/><path class="cls-4" d="M60.21,54.94C51.1,54.73,47.89,45.65,47,34.18H73.39c1.32,11.66-4.07,21-13.18,20.76Z"/><polygon class="cls-3" points="32.06 60.14 37.91 60.14 37.91 70.93 32.06 70.93 32.06 60.14 32.06 60.14"/><polygon class="cls-3" points="46.18 60.14 52.02 60.14 52.02 70.93 46.18 70.93 46.18 60.14 46.18 60.14"/><polygon class="cls-3" points="77.94 60.14 83.78 60.14 83.78 70.93 77.94 70.93 77.94 60.14 77.94 60.14"/><polygon class="cls-3" points="70.09 60.14 75.94 60.14 75.94 70.93 70.09 70.93 70.09 60.14 70.09 60.14"/><path class="cls-5" d="M73,66.87c-4.48,0-8.17-5.39-8.74-12.38H81.76c-.58,7-4.27,12.38-8.74,12.38Z"/><path class="cls-4" d="M80.86,66.87c-4.47,0-8.17-5.39-8.74-12.38H89.6c-.58,7-4.27,12.38-8.74,12.38Z"/><path class="cls-4" d="M46.18,54.49H56.45c-.68,6.95-5,12.31-10.27,12.34V54.49Z"/><path class="cls-4" d="M32.06,54.49H42.33c-.67,6.95-5,12.31-10.27,12.34V54.49Z"/><path class="cls-3" d="M45.27,32.13c-3.87,0-9.82,3-14.59,6.89-4.49,3.7-5,10.23-5.49,15.92H54.55c-1-11.74-1.77-22.81-9.28-22.81Z"/><path class="cls-5" d="M47.94,31.61c-6.45,0-11.79,10.16-12.61,23.33H60.56c-.83-13.17-6.16-23.33-12.62-23.33Z"/><path class="cls-5" d="M27.57,34.81h0A4.34,4.34,0,0,1,32.06,39v16l-8.72-8.42L23.08,39a4.3,4.3,0,0,1,4.49-4.15Z"/><path class="cls-3" d="M30.22,52.77,32.1,54.9c-1.88,2.14-3.93,3.83-5.85,5.94-1.24,1.37-3.09,1.74-4.14.85l8.11-8.92Z"/><path class="cls-3" d="M17.26,48.06c-.86-.35-.66,1.06.76,4.48l3.5-2.9a6.73,6.73,0,0,1-4.26-1.58Z"/><path class="cls-3" d="M11.1,45.49c-1.56,1.76.19,10.54,3.09,12.36l4.73-5.18c-4.3,1.21-7.28-4.43-7.82-7.18Z"/><path class="cls-6" d="M15.37,55.27l7.75-8.53.22-.22,6.9,6.27L30,53l-7.76,8.53a4.69,4.69,0,0,1-6.6.31h0a4.69,4.69,0,0,1-.31-6.6Z"/><path class="cls-7" d="M23.28,50.86a1.26,1.26,0,1,0,0,2.52,1.26,1.26,0,1,0,0-2.52Z"/><path class="cls-3" d="M16,57.26a.81.81,0,0,0-.81.81.82.82,0,0,0,.81.82.82.82,0,0,0,.82-.82.82.82,0,0,0-.82-.81Z"/><path class="cls-6" d="M22.89,52.05a.43.43,0,0,0-.43.43.43.43,0,0,0,.86,0,.43.43,0,0,0-.43-.43Z"/><path class="cls-3" d="M27.57,29.22c3.59,0,3.06,2.18,3.06,4.86s-2.75,5.62-3,5.64-3.15-3-3.15-5.64-.54-4.86,3.05-4.86Z"/><path class="cls-6" d="M27.57,29.22h.1v10.5c-.2,0-3.15-3-3.15-5.64s-.54-4.86,3.05-4.86Z"/><path class="cls-6" d="M84.38,47A2.62,2.62,0,1,0,87,49.58,2.62,2.62,0,0,0,84.38,47Z"/><path class="cls-6" d="M82.26,41.76a1.52,1.52,0,1,0,1.52,1.52,1.52,1.52,0,0,0-1.52-1.52Z"/><path class="cls-6" d="M41.66,46.64a2.63,2.63,0,1,0,2.63,2.62,2.62,2.62,0,0,0-2.63-2.62Z"/><path class="cls-6" d="M43,42a1.52,1.52,0,1,0,1.52,1.52A1.51,1.51,0,0,0,43,42Z"/></g></g></svg>