<svg xmlns="http://www.w3.org/2000/svg" xmlns:xlink="http://www.w3.org/1999/xlink" viewBox="0 0 100.15 100.15"><defs><style>.cls-1{fill:url(#New_Gradient_Swatch_5);}.cls-2{fill:#c6c29b;opacity:0.5;}.cls-3{fill:#872323;}.cls-4{fill:#9b2c2c;}.cls-5{fill:#bf423c;}.cls-6{opacity:0.2;}.cls-7{fill:#eea74e;}.cls-8{fill:#ee6d58;}.cls-9{fill:#3e2f3c;}.cls-10{fill:#f2eed1;}</style><linearGradient id="New_Gradient_Swatch_5" x1="18.83" y1="18.83" x2="87.2" y2="87.2" gradientTransform="translate(87.31 -10.17) rotate(76.72)" gradientUnits="userSpaceOnUse"><stop offset="0" stop-color="#f2eed1"/><stop offset="0.33" stop-color="#f0ecce"/><stop offset="0.57" stop-color="#e8e4c5"/><stop offset="0.78" stop-color="#dbd7b5"/><stop offset="0.97" stop-color="#c9c59f"/><stop offset="1" stop-color="#c6c29b"/></linearGradient></defs><title>pig</title><g id="レイヤー_2" data-name="レイヤー 2"><g id="Animals"><circle class="cls-1" cx="50.08" cy="50.08" r="50.08" transform="translate(-10.17 87.31) rotate(-76.72)"/><path class="cls-2" d="M33.27,77.29,55.79,99.82a50.07,50.07,0,0,0,44.36-49.74c0-.49,0-1,0-1.45L87.25,35.77h-2L83.8,37.12l-.34,2.59-2.38-.09-2.8.6L71.4,44.37,54.21,27.18,47.46,39.79l-10.18,1-4.55-1.57L27,33.4l-4.44,2.91L24,38.09l-7.67,2.4L27.52,51.68l-2.8,2.57L37.35,66.88l-1.78,2.6Z"/><path class="cls-3" d="M66.76,64.26H61.88c.13.13,2,13,2,13l2.84-3,2.84,3s1.91-12.9,2-13Z"/><path class="cls-4" d="M63.36,73.54c.32,2.11.56,3.75.56,3.75l2.84-3,2.84,3s.24-1.64.56-3.75Z"/><path class="cls-4" d="M86.73,42.72A3.55,3.55,0,0,1,83.1,40.5H75.69a.63.63,0,0,1,0-1.25H82.8a5.94,5.94,0,0,1,0-.86c0-2.43,1.43-3.3,2.77-3.3A2.41,2.41,0,0,1,88,37.66c0,.78-.36,2.53-3.51,2.8a2.46,2.46,0,0,0,2.26,1c1.67,0,2-.86,2-1.09a.72.72,0,0,0-.39-.68.63.63,0,0,1,.71-1A2,2,0,0,1,90,40.38C90,41,89.42,42.72,86.73,42.72Zm-1.21-6.38c-.57,0-1.52.27-1.52,2a5.72,5.72,0,0,0,0,.85c1.17-.06,2.68-.37,2.68-1.58A1.15,1.15,0,0,0,85.52,36.34Z"/><path class="cls-5" d="M73.79,64.26H68.08c.15.13,2.39,13,2.39,13l3.32-3,3.33,3s2.23-12.9,2.39-13Z"/><path class="cls-5" d="M45.94,64.26H41.08c.13.13,2,13,2,13l2.83-3,2.83,3s1.9-12.9,2-13Z"/><path class="cls-3" d="M35.57,59.31h-4c.11.12,1.66,18,1.66,18l2.3-3,2.3,3s1.55-17.86,1.65-18Z"/><rect class="cls-5" x="30.33" y="35.41" width="52.03" height="32.04" rx="12.05" ry="12.05"/><path class="cls-6" d="M56.69,35.41H43.11a11.94,11.94,0,0,0-1.43,4.07,14.68,14.68,0,0,0-5.56-1.19,12.28,12.28,0,0,0-1.7.13,12,12,0,0,0-4.09,9V55.4a11.7,11.7,0,0,0,.38,3,16,16,0,0,0,2.26.88,6.8,6.8,0,0,0,3.15.78,6.87,6.87,0,0,0,3.16-.78c3.69-1.14,7.57-3.82,7.57-5.78v-8.7C54.31,44.2,56.38,39.6,56.69,35.41Z"/><path class="cls-7" d="M39.84,40.72c0-12.64,14.37-13.54,14.37-13.54s5.14,15.68-9.48,16.46C42.59,42.41,39.84,40.72,39.84,40.72Z"/><path class="cls-3" d="M44.74,43.64c-1.08-.62-2.31-1.35-3.27-1.93,1.49-8.82,10.83-10.66,13.47-11C55.5,35.38,54.88,43.1,44.74,43.64Z"/><path class="cls-8" d="M29.11,40.72c0-12.64-14.37-13.55-14.37-13.55S9.59,42.86,24.21,43.64C26.35,42.41,29.11,40.72,29.11,40.72Z"/><path class="cls-3" d="M24.21,43.64c1.07-.62,2.3-1.35,3.26-1.93C26,32.89,16.65,31.05,14,30.71,13.44,35.38,14.07,43.1,24.21,43.64Z"/><path class="cls-7" d="M79.19,65.22a10.86,10.86,0,0,0,0-15.36l-7.68,7.68Z"/><path class="cls-8" d="M79.19,49.86a10.86,10.86,0,0,0-15.36,0l7.68,7.68Z"/><path class="cls-7" d="M63.83,49.86a10.86,10.86,0,0,0,0,15.36l7.68-7.68Z"/><path class="cls-4" d="M71.51,57.54l-7.68,7.68a10.86,10.86,0,0,0,15.36,0Z"/><path class="cls-7" d="M49.11,67.86a5.51,5.51,0,0,0,0-7.82L45.2,64Z"/><path class="cls-8" d="M49.11,60a5.51,5.51,0,0,0-7.82,0L45.2,64Z"/><path class="cls-7" d="M41.29,60a5.53,5.53,0,0,0,0,7.82L45.2,64Z"/><path class="cls-4" d="M45.2,64l-3.91,3.91a5.53,5.53,0,0,0,7.82,0Z"/><path class="cls-7" d="M34.47,37.12c-5,0-10.73,3.26-10.73,6.52v8.67c0,2.55,6.55,6.32,10.73,6.32Z"/><path class="cls-8" d="M34.47,37.12c5,0,10.73,3.26,10.73,6.52v8.67c0,2.55-6.55,6.32-10.73,6.32Z"/><path class="cls-9" d="M28.28,45.69h-2a.42.42,0,0,1-.42-.42.41.41,0,0,1,.42-.41h2a.41.41,0,0,1,.42.41A.42.42,0,0,1,28.28,45.69Z"/><path class="cls-5" d="M34.47,45.27a6.8,6.8,0,0,0-6.8,6.8h13.6A6.79,6.79,0,0,0,34.47,45.27Z"/><path class="cls-3" d="M27.67,52.07a6.8,6.8,0,0,0,13.6,0Z"/><path class="cls-9" d="M32.58,52.07a.94.94,0,1,1-.94-.94A.93.93,0,0,1,32.58,52.07Z"/><path class="cls-9" d="M42.63,45.69h-2a.41.41,0,0,1-.41-.42.41.41,0,0,1,.41-.41h2a.41.41,0,0,1,.42.41A.42.42,0,0,1,42.63,45.69Z"/><path class="cls-9" d="M36.37,52.07a.94.94,0,0,0,1.87,0,.94.94,0,1,0-1.87,0Z"/><path class="cls-10" d="M56.22,47.37a2.51,2.51,0,1,1-2.51-2.51A2.52,2.52,0,0,1,56.22,47.37Z"/><path class="cls-10" d="M61.5,47.16A1.52,1.52,0,1,1,60,45.64,1.51,1.51,0,0,1,61.5,47.16Z"/><path class="cls-4" d="M38.2,73.54H32.94c.19,2.19.33,3.75.33,3.75l2.3-3,2.3,3S38,75.73,38.2,73.54Z"/><path class="cls-4" d="M69.81,73.54l.66,3.75,3.32-3,3.33,3s.28-1.64.65-3.75Z"/><path class="cls-4" d="M48.77,77.29l.55-3.75H42.55c.32,2.11.56,3.75.56,3.75l2.83-3Z"/></g></g></svg>