<svg xmlns="http://www.w3.org/2000/svg" xmlns:xlink="http://www.w3.org/1999/xlink" viewBox="0 0 100.15 100.15"><defs><style>.cls-1{fill:url(#New_Gradient_Swatch_2);}.cls-2{fill:#187e89;opacity:0.81;}.cls-3{fill:#f5c268;}.cls-4{fill:#ee6d58;}.cls-5{fill:#bf423c;}.cls-6{fill:#f2eed1;}.cls-7{fill:#afaa87;}.cls-8{fill:#c6c29b;}.cls-9{fill:#e1deb4;}.cls-10{fill:#9b2c2c;}.cls-11{fill:#3e2f3c;}</style><linearGradient id="New_Gradient_Swatch_2" x1="18.25" y1="18.25" x2="87.8" y2="87.8" gradientTransform="translate(80.11 -14.06) rotate(70.1)" gradientUnits="userSpaceOnUse"><stop offset="0" stop-color="#2cabae"/><stop offset="1" stop-color="#187e89"/></linearGradient></defs><title>rabbit</title><g id="レイヤー_2" data-name="レイヤー 2"><g id="Animals"><circle class="cls-1" cx="50.08" cy="50.08" r="50.08" transform="translate(-14.06 80.11) rotate(-70.1)"/><path class="cls-2" d="M73.73,26.59,69.52,28.5,58.08,41.4,33.93,17.25l-1.64,1.81-.58,6.68,1.57,3.08-5.47,3.79L44.43,49.22,44.88,51l-2.31,5.85-4.32,5.55,5,5L41.41,70l-.39.7,1.79,1.78-.93,1.72-.05-.07-7.25-7.25-1.76,1-1.11-1.11-.66.23-.68,2.2.53.55L28.17,71.2l6.68,6.68h3.46l2.07-1.38h.24l-1.75,3.22-3.22-1.65-1.77-.28-1.07.85,2.58,2.58-4.58,1.61L48.08,100.1c.67,0,1.33.05,2,.05a50.08,50.08,0,0,0,50-47.23Z"/><path class="cls-3" d="M62.34,79.41l-.37-.1c2.26-8.23,5.53-11,5.67-11.08l.24.29S64.56,71.31,62.34,79.41Z"/><path class="cls-3" d="M65.49,74.45A2,2,0,0,1,64.26,76a1.27,1.27,0,0,1-1.52-.36Z"/><path class="cls-3" d="M65.49,74.45a2,2,0,0,0-2-.16,1.29,1.29,0,0,0-.75,1.38Z"/><path class="cls-3" d="M36.16,81.77c-.59-5.59-4.41-11.83-4.45-11.9l.32-.2c0,.07,3.91,6.39,4.5,12.07Z"/><path class="cls-4" d="M32,67.2a1.6,1.6,0,0,1-.34,2.22,1.84,1.84,0,0,1-1.73-3.11A1.62,1.62,0,0,1,32,67.2Z"/><path class="cls-5" d="M32,67.2a1.62,1.62,0,0,0-2.07-.89l1.73,3.11A1.6,1.6,0,0,0,32,67.2Z"/><path class="cls-4" d="M29.31,68.91a1.42,1.42,0,1,1,.53,2.7,1.42,1.42,0,1,1-.53-2.7Z"/><path class="cls-5" d="M29.31,68.91a1.62,1.62,0,0,0-1.48,1.69l3.49-.69A1.61,1.61,0,0,0,29.31,68.91Z"/><path class="cls-4" d="M30.17,71.83c.12-1,.83-1.69,1.58-1.6a1.61,1.61,0,0,1,1.15,1.93c-.12,1-.82,1.69-1.58,1.6A1.61,1.61,0,0,1,30.17,71.83Z"/><path class="cls-5" d="M30.17,71.83a1.61,1.61,0,0,0,1.15,1.93l.43-3.53C31,70.14,30.29,70.86,30.17,71.83Z"/><path class="cls-4" d="M33.35,71.91a1.42,1.42,0,1,1,2.19-.5A1.61,1.61,0,0,1,33.35,71.91Z"/><path class="cls-5" d="M33.35,71.91a1.61,1.61,0,0,0,2.19-.5l-3.22-1.49A1.61,1.61,0,0,0,33.35,71.91Z"/><path class="cls-4" d="M34.38,69.08a1.42,1.42,0,1,1-2-1.87,1.42,1.42,0,1,1,2,1.87Z"/><path class="cls-5" d="M34.38,69.08a1.61,1.61,0,0,0,.2-2.23l-2.42,2.6A1.62,1.62,0,0,0,34.38,69.08Z"/><path class="cls-6" d="M32.59,69.37a.82.82,0,1,1-1.44.8.82.82,0,0,1,1.44-.8Z"/><path class="cls-3" d="M31.78,76.75a3.11,3.11,0,0,0,1.87,2.43A2,2,0,0,0,36,78.63Z"/><path class="cls-3" d="M31.78,76.75a3.12,3.12,0,0,1,3-.22A1.94,1.94,0,0,1,36,78.63Z"/><path class="cls-3" d="M37.44,72.12a2.38,2.38,0,0,0,.21,2.36,1.53,1.53,0,0,0,1.76.62Z"/><path class="cls-3" d="M37.44,72.12a2.4,2.4,0,0,1,2.09,1.12,1.52,1.52,0,0,1-.12,1.86Z"/><path class="cls-3" d="M64.55,81.19l-.37-.11A6.86,6.86,0,0,1,68,77l.14.35A6.53,6.53,0,0,0,64.55,81.19Z"/><path class="cls-6" d="M51.06,81.75a1.52,1.52,0,0,0,1.53,1.53H68a1.52,1.52,0,0,0,1.53-1.53h0A1.52,1.52,0,0,0,68,80.23H52.59a1.52,1.52,0,0,0-1.53,1.52Z"/><path class="cls-7" d="M68,83.28H52.59a1.52,1.52,0,0,1-1.53-1.53H69.51A1.52,1.52,0,0,1,68,83.28Z"/><path class="cls-8" d="M49.94,74.37a8.52,8.52,0,0,1,14.73,5.86H49.94Z"/><rect class="cls-7" x="49.94" y="60.03" width="4.91" height="6.65"/><path class="cls-6" d="M48.82,81.75a1.52,1.52,0,0,1-1.53,1.53H31.9a1.53,1.53,0,0,1-1.53-1.53h0a1.53,1.53,0,0,1,1.53-1.52H47.29a1.52,1.52,0,0,1,1.53,1.52Z"/><path class="cls-8" d="M31.9,83.28H47.29a1.52,1.52,0,0,0,1.53-1.53H30.37A1.53,1.53,0,0,0,31.9,83.28Z"/><path class="cls-9" d="M49.94,74.37a8.52,8.52,0,0,0-14.73,5.86H49.94Z"/><path class="cls-9" d="M69.91,67.75a1.23,1.23,0,1,1,.14-1.94A1.4,1.4,0,0,1,69.91,67.75Z"/><path class="cls-8" d="M69.91,67.75a1.39,1.39,0,0,0,.14-1.94L68,68.11A1.4,1.4,0,0,0,69.91,67.75Z"/><path class="cls-9" d="M67.74,66a1.24,1.24,0,1,1-1.81-.74A1.4,1.4,0,0,1,67.74,66Z"/><path class="cls-8" d="M67.74,66a1.41,1.41,0,0,0-1.81-.74L67.48,68A1.4,1.4,0,0,0,67.74,66Z"/><path class="cls-9" d="M65.58,67.57a1.41,1.41,0,0,1,1.77.84c.14.64-.43,1.31-1.26,1.49a1.23,1.23,0,1,1-.51-2.33Z"/><path class="cls-8" d="M65.58,67.57a1.42,1.42,0,0,0-1.26,1.49l3-.65A1.41,1.41,0,0,0,65.58,67.57Z"/><path class="cls-9" d="M66.42,70.2a1.24,1.24,0,1,1,2.38.24c-.08.85-.69,1.49-1.34,1.42A1.41,1.41,0,0,1,66.42,70.2Z"/><path class="cls-8" d="M66.42,70.2a1.41,1.41,0,0,0,1,1.66l.31-3.08A1.42,1.42,0,0,0,66.42,70.2Z"/><path class="cls-9" d="M69,70.23a1.23,1.23,0,1,1,1.89-.47A1.39,1.39,0,0,1,69,70.23Z"/><path class="cls-8" d="M69,70.23a1.38,1.38,0,0,0,1.89-.47l-2.82-1.24A1.39,1.39,0,0,0,69,70.23Z"/><path class="cls-6" d="M68.29,68.85a.72.72,0,0,1-1,.06.72.72,0,1,1,1-.06Z"/><path class="cls-10" d="M69.66,77.24a.9.9,0,1,1,.53-1.33A1,1,0,0,1,69.66,77.24Z"/><path class="cls-4" d="M69.66,77.24a1,1,0,0,0,.53-1.33l-1.94,1.15A1,1,0,0,0,69.66,77.24Z"/><path class="cls-10" d="M68.53,75.56a1,1,0,0,1-.6,1.29c-.47.11-1-.3-1.1-.91a.9.9,0,1,1,1.7-.38Z"/><path class="cls-4" d="M68.53,75.56a1,1,0,0,0-1.1-.91l.5,2.2A1,1,0,0,0,68.53,75.56Z"/><path class="cls-10" d="M66.69,76.16a.9.9,0,1,1-1.2.76A1,1,0,0,1,66.69,76.16Z"/><path class="cls-4" d="M66.69,76.16a1,1,0,0,0-1.2.76l2.25.21A1,1,0,0,0,66.69,76.16Z"/><path class="cls-10" d="M66.7,78.17a.9.9,0,1,1,1.6.69.9.9,0,1,1-1.6-.69Z"/><path class="cls-4" d="M66.7,78.17a1,1,0,0,0,.36,1.38L68,77.48A1,1,0,0,0,66.7,78.17Z"/><path class="cls-10" d="M68.51,78.77a.9.9,0,1,1,1.42.09A1,1,0,0,1,68.51,78.77Z"/><path class="cls-4" d="M68.51,78.77a1,1,0,0,0,1.42.09l-1.69-1.49A1,1,0,0,0,68.51,78.77Z"/><path class="cls-6" d="M68.3,77.64a.52.52,0,0,1-.72-.18.52.52,0,0,1,.18-.71.52.52,0,1,1,.54.89Z"/><rect class="cls-8" x="45.03" y="60.03" width="4.91" height="6.65"/><polygon class="cls-8" points="30.49 21.52 34.23 17.74 43.14 44.6 41.7 46.1 30.71 31.29 30.49 21.52"/><polygon class="cls-7" points="65.88 27.21 55.07 43.83 56.73 44.82 67.05 34.34 65.88 27.21"/><path class="cls-9" d="M31.05,17.58c-.71.6-4.89,3.56-4.89,5.2v6.6a4,4,0,0,0,4,4h.22a4,4,0,0,0,4-4V18.64C34.37,16.2,32.07,16.73,31.05,17.58Z"/><path class="cls-6" d="M69.88,25.74c-3.38,0-4.1,1.11-4.1,2.05v17a4,4,0,0,0,4,4H70a4,4,0,0,0,4-4V27.46C74,26.35,73.27,25.74,69.88,25.74Z"/><rect class="cls-9" x="41.2" y="43.01" width="17.47" height="18.64" rx="3.99" ry="3.99"/><path class="cls-8" d="M54.68,43H49.94V61.64h4.74a4,4,0,0,0,4-4V47A4,4,0,0,0,54.68,43Z"/><circle class="cls-11" cx="45.55" cy="48.62" r="1.25"/><path class="cls-8" d="M69.88,25.74V48.8H70a4,4,0,0,0,4-4V27.46C74,26.35,73.27,25.74,69.88,25.74Z"/><path class="cls-9" d="M48.92,57.93a6.29,6.29,0,1,1-6.29-6.29A6.29,6.29,0,0,1,48.92,57.93Z"/><path class="cls-6" d="M42.63,51.64a6.19,6.19,0,0,0-2.81.67,6.28,6.28,0,0,0,5.62,9.1,6.16,6.16,0,0,0,2.81-.67,6.16,6.16,0,0,0,.67-2.81A6.29,6.29,0,0,0,42.63,51.64Z"/><path class="cls-4" d="M49.94,51.64a5.48,5.48,0,0,0-2.24.29c0,.15,1.61,2.48,2.24,2.48Z"/><path class="cls-4" d="M49.94,62.44c-3.26,0-6,4.89-6.47,9.82h6.47Z"/><path class="cls-5" d="M56.41,72.26c-.51-4.93-3.21-9.82-6.47-9.82v9.82Z"/><path class="cls-5" d="M43.47,72.26a15.53,15.53,0,0,0-.09,1.66c0,5.43,2.94,8.16,6.56,8.16V72.26Z"/><path class="cls-10" d="M49.94,72.26v9.82c3.63,0,6.56-2.73,6.56-8.16a15.53,15.53,0,0,0-.09-1.66Z"/><path class="cls-9" d="M46.16,68.23A3.15,3.15,0,1,1,43,65.08,3.15,3.15,0,0,1,46.16,68.23Z"/><path class="cls-6" d="M43,65.08a3.15,3.15,0,0,0-1.41.34,3.15,3.15,0,0,0,4.22,4.22,3.18,3.18,0,0,0,.33-1.41A3.15,3.15,0,0,0,43,65.08Z"/><circle class="cls-11" cx="54.33" cy="48.62" r="1.25"/><path class="cls-8" d="M51,57.93a6.29,6.29,0,1,0,6.29-6.29A6.29,6.29,0,0,0,51,57.93Z"/><path class="cls-6" d="M57.25,51.64a6.19,6.19,0,0,1,2.81.67,6.19,6.19,0,0,1,.67,2.81,6.28,6.28,0,0,1-6.29,6.29,6.19,6.19,0,0,1-2.81-.67A6.16,6.16,0,0,1,51,57.93,6.29,6.29,0,0,1,57.25,51.64Z"/><path class="cls-5" d="M49.94,51.64a5.48,5.48,0,0,1,2.24.29c0,.15-1.61,2.48-2.24,2.48Z"/><path class="cls-8" d="M53.72,68.23a3.15,3.15,0,1,0,3.15-3.15A3.15,3.15,0,0,0,53.72,68.23Z"/><path class="cls-6" d="M56.87,65.08a3.14,3.14,0,0,1,1.4.34,3,3,0,0,1,.34,1.41,3.15,3.15,0,0,1-4.55,2.81,3.06,3.06,0,0,1-.34-1.41A3.15,3.15,0,0,1,56.87,65.08Z"/><path class="cls-6" d="M26.16,22.78v6.6a4,4,0,0,0,4,4V18.28C28.7,19.42,26.16,21.5,26.16,22.78Z"/><path class="cls-6" d="M50.58,68.36a1.27,1.27,0,1,1-1.27-1.27A1.27,1.27,0,0,1,50.58,68.36Z"/><path class="cls-6" d="M51.14,72.05a1.83,1.83,0,1,1-1.83-1.83A1.82,1.82,0,0,1,51.14,72.05Z"/></g></g></svg>