<svg xmlns="http://www.w3.org/2000/svg" xmlns:xlink="http://www.w3.org/1999/xlink" viewBox="0 0 100.15 100.15"><defs><style>.cls-1{fill:url(#New_Gradient_Swatch_4);}.cls-2{fill:#bf423c;}.cls-3{fill:#eea74e;}.cls-4{fill:#5b4559;}.cls-5{fill:#f2eed1;}.cls-6{fill:#f5c268;}.cls-7{fill:#ad8463;}.cls-8{fill:#3e2f3c;}</style><linearGradient id="New_Gradient_Swatch_4" x1="15.68" y1="15.68" x2="86.38" y2="86.38" gradientUnits="userSpaceOnUse"><stop offset="0" stop-color="#ee6d58"/><stop offset="1" stop-color="#bf423c"/></linearGradient></defs><title>sheep</title><g id="レイヤー_2" data-name="レイヤー 2"><g id="Animals"><circle class="cls-1" cx="50.08" cy="50.08" r="50.08"/><path class="cls-2" d="M57.58,99.59A50.1,50.1,0,0,0,99.86,55.47L77.63,33.24l-4,1.73L63.37,24.75,44.1,39.83l.77,3.53-19-2L16.1,49.79,37.38,71.07,36,78Z"/><rect class="cls-3" x="43.95" y="69.18" width="2.82" height="8.86"/><rect class="cls-4" x="43.95" y="76.47" width="2.82" height="1.57"/><rect class="cls-3" x="36.04" y="67.33" width="2.82" height="10.71"/><rect class="cls-4" x="36.04" y="76.47" width="2.82" height="1.57"/><rect class="cls-3" x="69.18" y="59.18" width="2.82" height="18.86"/><rect class="cls-4" x="69.18" y="76.47" width="2.82" height="1.57"/><rect class="cls-3" x="62.39" y="59.18" width="2.82" height="18.86"/><rect class="cls-4" x="62.39" y="76.47" width="2.82" height="1.57"/><path class="cls-5" d="M81.33,49.64a5.93,5.93,0,0,0-3.07-5.12,8.41,8.41,0,0,0,1.86-5.25,8.55,8.55,0,0,0-8.55-8.55,8.43,8.43,0,0,0-2.81.51,11.09,11.09,0,0,0-10.5-7.76,10.85,10.85,0,0,0-6.09,1.87,15.48,15.48,0,0,0-7.23-1.84,15.72,15.72,0,0,0-4.43,30.82s0,.08,0,.12A8.29,8.29,0,1,0,48.05,68.5a6.6,6.6,0,0,0,12.3-2.28A10.56,10.56,0,0,0,76.7,57.38a10.1,10.1,0,0,0-.2-2A5.88,5.88,0,0,0,81.33,49.64Z"/><path class="cls-6" d="M32.61,39.83A19.15,19.15,0,0,1,25,49.18c-3.41,2.06-6.67,2.14-8.91.61a19.19,19.19,0,0,1,7.6-9.35C27.11,38.38,30.37,38.31,32.61,39.83Z"/><path class="cls-3" d="M25,49.18a19.15,19.15,0,0,0,7.6-9.35l-16.51,10C18.34,51.32,21.6,51.24,25,49.18Z"/><path class="cls-3" d="M44.1,39.83a19.15,19.15,0,0,0,7.6,9.35c3.41,2.06,6.67,2.14,8.91.61A19.19,19.19,0,0,0,53,40.44C49.6,38.38,46.34,38.31,44.1,39.83Z"/><path class="cls-7" d="M51.7,49.18a19.15,19.15,0,0,1-7.6-9.35l16.51,10C58.37,51.32,55.11,51.24,51.7,49.18Z"/><path class="cls-6" d="M52.36,48.76c0,9.07-6.27,16.42-14,16.42s-14-7.35-14-16.42,6.26-16.42,14-16.42S52.36,39.69,52.36,48.76Z"/><path class="cls-3" d="M52.36,48.76c0-9.07-6.27-16.42-14-16.42V65.18C46.09,65.18,52.36,57.83,52.36,48.76Z"/><path class="cls-8" d="M36,52.23a1.72,1.72,0,1,1-1.72-1.71A1.72,1.72,0,0,1,36,52.23Z"/><path class="cls-8" d="M44.11,52.23a1.72,1.72,0,1,1-1.72-1.71A1.72,1.72,0,0,1,44.11,52.23Z"/></g></g></svg>