<svg xmlns="http://www.w3.org/2000/svg" xmlns:xlink="http://www.w3.org/1999/xlink" viewBox="0 0 100.15 100.15"><defs><style>.cls-1{fill:url(#New_Gradient_Swatch_5);}.cls-2{fill:#c6c29b;opacity:0.5;}.cls-3,.cls-8{fill:#9b2c2c;}.cls-3,.cls-5,.cls-6,.cls-7{fill-rule:evenodd;}.cls-4{fill:#5b4559;}.cls-5,.cls-9{fill:#bf423c;}.cls-11,.cls-6{fill:#f2eed1;}.cls-10,.cls-7{fill:#ee6d58;}</style><linearGradient id="New_Gradient_Swatch_5" x1="18.74" y1="18.74" x2="89.82" y2="89.82" gradientTransform="translate(50.08 -20.74) rotate(45)" gradientUnits="userSpaceOnUse"><stop offset="0" stop-color="#f2eed1"/><stop offset="0.33" stop-color="#f0ecce"/><stop offset="0.57" stop-color="#e8e4c5"/><stop offset="0.78" stop-color="#dbd7b5"/><stop offset="0.97" stop-color="#c9c59f"/><stop offset="1" stop-color="#c6c29b"/></linearGradient></defs><title>shrimp</title><g id="レイヤー_2" data-name="レイヤー 2"><g id="Animals"><circle class="cls-1" cx="50.08" cy="50.08" r="50.08" transform="translate(-20.74 50.08) rotate(-45)"/><path class="cls-2" d="M63,98.45A50.09,50.09,0,0,0,99.77,56.14L81.4,37.76,71.06,39,52,20H21V34.14l2.63.44-7.93,1.77L49.33,70l.13.48-4.4,10Z"/><path class="cls-3" d="M69,31.52h0a14.91,14.91,0,0,0-1.9.12H55.39a2.3,2.3,0,0,0-2.29,2.3v6.55A2.3,2.3,0,0,0,53.66,42a15.09,15.09,0,0,1,6.2,26.77c-6.36,2.19-8.33,5.61-5,6,6.64.8,29.58-1.17,29.58-18.52V47A15.55,15.55,0,0,0,69,31.52Z"/><path class="cls-4" d="M41.5,43.36a.6.6,0,0,1,.56,1.06c-2.57,1.37-3.69,2.86-3.61,4.44s1.4,3.47,3.72,5.44a.6.6,0,1,1-.78.91c-2.57-2.19-4-4.29-4.15-6.3S38.47,45,41.5,43.36Z"/><path class="cls-4" d="M49.54,43.58a.59.59,0,0,1,.81.25.6.6,0,0,1-.25.81c-2.57,1.38-3.69,2.86-3.61,4.44s1.4,3.47,3.72,5.44a.6.6,0,1,1-.78.91c-2.57-2.19-4-4.29-4.14-6.3s1.21-3.93,4.25-5.55Z"/><path class="cls-4" d="M34.05,42.55a.6.6,0,0,1,.57,1.06C32.05,45,30.93,46.48,31,48.05s1.41,3.47,3.72,5.44a.6.6,0,1,1-.77.91c-2.58-2.18-4.05-4.29-4.15-6.29s1.22-3.93,4.25-5.56Z"/><path class="cls-4" d="M21.31,32.33a.6.6,0,0,1-1.2,0V20.25a.6.6,0,0,1,.6-.6H51.49a.61.61,0,0,1,0,1.21H21.31V32.33Z"/><path class="cls-4" d="M25.08,32.33a.61.61,0,0,1-1.21,0V24.08a.6.6,0,0,1,.6-.61H45.65a.61.61,0,1,1,0,1.21H25.08v7.65Z"/><path class="cls-5" d="M15.66,32.33H53.5a5,5,0,0,1,5,5c0,16.59-37,1.42-42.88-1v-4Z"/><path class="cls-6" d="M30.56,34.14A1.81,1.81,0,1,0,32.37,36a1.81,1.81,0,0,0-1.81-1.81Z"/><path class="cls-7" d="M61.31,46.09a15,15,0,0,1,3.52,5.45L84,43.25A15.56,15.56,0,0,0,70.16,31.57L61.31,46.09Z"/><path class="cls-5" d="M64.83,51.54a15,15,0,0,1,.94,5.25c0,.51,0,1-.07,1.49L84.28,59a17,17,0,0,0,.21-2.74V47A15.64,15.64,0,0,0,84,43.25L64.83,51.54Z"/><path class="cls-7" d="M65.7,58.28a15.26,15.26,0,0,1-.8,3.58l9.42,9.54c4.92-2.39,9-6.28,10-12.39L65.7,58.28Z"/><path class="cls-5" d="M64.9,61.86a15.13,15.13,0,0,1-4.25,6.26l1.82,6.54A37.31,37.31,0,0,0,74.32,71.4L64.9,61.86Z"/><path class="cls-8" d="M56,72.34c0-4.51-4.91-8.16-11-8.16v8.16Z"/><path class="cls-9" d="M56,72.34a6.43,6.43,0,0,0-1.12-3.59H45.06v3.59Z"/><path class="cls-8" d="M56,72.34c0,4.51-4.91,8.16-11,8.16V72.34Z"/><path class="cls-10" d="M56,72.34a6.43,6.43,0,0,1-1.12,3.59H45.06V72.34Z"/><circle class="cls-11" cx="74.08" cy="42.1" r="4.34"/><path class="cls-6" d="M80.83,49.94a2.11,2.11,0,1,1-2.11-2.1A2.1,2.1,0,0,1,80.83,49.94Z"/><path class="cls-3" d="M51.49,39.42A3.48,3.48,0,1,1,48,36,3.48,3.48,0,0,1,51.49,39.42Z"/></g></g></svg>