<svg xmlns="http://www.w3.org/2000/svg" xmlns:xlink="http://www.w3.org/1999/xlink" viewBox="0 0 100.15 100.15"><defs><style>.cls-1{fill:url(#New_Gradient_Swatch_3);}.cls-2{fill:#3e2f3c;}.cls-3{fill:#feac27;}.cls-4{fill:#c47002;}.cls-5{fill:#1d8a9c;}.cls-6{fill:#2cabae;}.cls-7{fill:#f2eed1;}</style><linearGradient id="New_Gradient_Swatch_3" x1="17.11" y1="17.11" x2="88.2" y2="88.2" gradientUnits="userSpaceOnUse"><stop offset="0" stop-color="#5b4559"/><stop offset="1" stop-color="#3e2f3c"/></linearGradient></defs><title>snail</title><g id="レイヤー_2" data-name="レイヤー 2"><g id="Animals"><path class="cls-1" d="M100.15,50.08A50.08,50.08,0,1,1,50.08,0,50.07,50.07,0,0,1,100.15,50.08Z"/><path class="cls-2" d="M52.06,100.1A50.08,50.08,0,0,0,99,60.93L77.09,39.05,55.25,37.68,41.08,23.5l-2.31,3.07v7.6L28.1,23.5l-2.34.9-.22,17,8.57,9.19-9.59,3.87,6.06,6.06L27.77,75.81Z"/><rect class="cls-3" x="36.27" y="59.54" width="23.61" height="18.37"/><circle class="cls-3" cx="59.89" cy="54.68" r="23.24" transform="translate(-3.68 105.03) rotate(-80.78)"/><circle class="cls-3" cx="59.89" cy="54.68" r="23.24" transform="translate(-3.68 105.03) rotate(-80.78)"/><path class="cls-4" d="M59.89,71A16.28,16.28,0,1,1,76.16,54.68,16.29,16.29,0,0,1,59.89,71Z"/><path class="cls-3" d="M59.89,64a9.32,9.32,0,1,1,9.31-9.31A9.33,9.33,0,0,1,59.89,64Z"/><path class="cls-5" d="M32.18,77.91a5.36,5.36,0,0,1-5.37-5.37h0a5.37,5.37,0,0,1,5.37-5.37H42.6A5.37,5.37,0,0,1,48,72.54h0a5.36,5.36,0,0,1-5.37,5.37Z"/><path class="cls-5" d="M37.39,72.54A5.36,5.36,0,0,1,32,77.91h0a5.37,5.37,0,0,1-5.37-5.37V59A5.38,5.38,0,0,1,32,53.63h0A5.37,5.37,0,0,1,37.39,59Z"/><path class="cls-6" d="M37.39,72.54V59A5.37,5.37,0,0,0,32,53.63V77.91A5.36,5.36,0,0,0,37.39,72.54Z"/><path class="cls-5" d="M27.07,43a1.54,1.54,0,0,1-1.53,1.54h0A1.54,1.54,0,0,1,24,43V28.1a1.54,1.54,0,0,1,1.54-1.53h0a1.54,1.54,0,0,1,1.53,1.53Z"/><path class="cls-6" d="M40,43a1.54,1.54,0,0,1-1.53,1.54h0A1.54,1.54,0,0,1,37,43V28.1a1.54,1.54,0,0,1,1.54-1.53h0A1.54,1.54,0,0,1,40,28.1Z"/><path class="cls-6" d="M28.78,25.49a3.25,3.25,0,1,1-3.24-3.25A3.24,3.24,0,0,1,28.78,25.49Z"/><path class="cls-5" d="M41.75,25.49a3.25,3.25,0,1,1-3.24-3.25A3.24,3.24,0,0,1,41.75,25.49Z"/><circle class="cls-5" cx="32.02" cy="47.34" r="10.34" transform="translate(-15.68 15.86) rotate(-22.5)"/><path class="cls-6" d="M21.68,47.34A10.34,10.34,0,0,0,32,57.68V37A10.34,10.34,0,0,0,21.68,47.34Z"/><path class="cls-2" d="M29.78,45.13a2,2,0,1,1-2-2A2,2,0,0,1,29.78,45.13Z"/><path class="cls-2" d="M38.28,45.13a2,2,0,1,1-2-2A2,2,0,0,1,38.28,45.13Z"/><path class="cls-7" d="M66,39.25a2.47,2.47,0,1,1-2.47-2.47A2.46,2.46,0,0,1,66,39.25Z"/><path class="cls-7" d="M65,46.15a4.43,4.43,0,1,1,4.43,4.43A4.43,4.43,0,0,1,65,46.15Z"/></g></g></svg>