<svg xmlns="http://www.w3.org/2000/svg" xmlns:xlink="http://www.w3.org/1999/xlink" viewBox="0 0 100.15 100.15"><defs><style>.cls-1{fill:url(#New_Gradient_Swatch_3);}.cls-2{fill:#3e2f3c;}.cls-10,.cls-2,.cls-4,.cls-5,.cls-6,.cls-7,.cls-8,.cls-9{fill-rule:evenodd;}.cls-3,.cls-5{fill:#bf423c;}.cls-4{fill:#d89144;}.cls-6{fill:#9b2c2c;}.cls-7{fill:#f5c268;}.cls-8{fill:#6c3015;}.cls-9{fill:#ee6d58;}.cls-10{fill:#f2eed1;}</style><linearGradient id="New_Gradient_Swatch_3" x1="18.82" y1="18.82" x2="85.94" y2="85.94" gradientTransform="translate(12.84 -10.17) rotate(13.28)" gradientUnits="userSpaceOnUse"><stop offset="0" stop-color="#5b4559"/><stop offset="1" stop-color="#3e2f3c"/></linearGradient></defs><title>spider</title><g id="レイヤー_2" data-name="レイヤー 2"><g id="Animals"><circle class="cls-1" cx="50.08" cy="50.08" r="50.08" transform="translate(-10.17 12.84) rotate(-13.28)"/><path class="cls-2" d="M82.13,38.23l-2.9.53-7.56-2.62-5.56-5.56L53.69,39.63l1.43,7.85-5.87,2.58L35.74,36.55l-.42.51-.25-.24L22.26,33.06l-3.75.81L32.75,48.12l-6.91,5,9.73,9.73L23.21,66.72,19,67.47l32.64,32.64A50.06,50.06,0,0,0,99.8,55.91Z"/><polygon class="cls-2" points="48.99 39.94 38.94 29.51 36.68 29.16 49.8 42.29 48.99 39.94"/><path class="cls-3" d="M56.1,49a.54.54,0,0,1-.43.62.53.53,0,0,1-.62-.42l-1.9-9.58-.07-.35.3-.2,10.15-6.64a.53.53,0,0,1,.58.89l-9.85,6.45L56.1,49Z"/><path class="cls-3" d="M46.92,48.14a.53.53,0,0,1,0,.75.54.54,0,0,1-.76,0l-11-11.38L22.62,33.73a.54.54,0,0,1,.3-1l12.69,3.81.13,0,.1.1L46.92,48.14Z"/><path class="cls-3" d="M54.06,48.52a.53.53,0,0,1-.09.74.54.54,0,0,1-.75-.09l-4.54-8.89-8.55-8.23a.53.53,0,1,1,.5-.93l8.65,8.27.1.06.07.09,4.61,9Z"/><path class="cls-3" d="M62,45.47a.53.53,0,1,1-.91-.55l6.27-10.41.22-.37.41.14,11,3.81a.52.52,0,0,1,.33.67.53.53,0,0,1-.68.33L68,35.43,62,45.47Z"/><path class="cls-4" d="M81.08,37.63a2.48,2.48,0,0,1,1.82,3h0l-5.08-1.75h0a2.48,2.48,0,0,1,3.26-1.21Z"/><path class="cls-4" d="M65.14,33.93a2.49,2.49,0,0,1-3.47-.3h0l4.44-3.05h0a2.49,2.49,0,0,1-1,3.35Z"/><path class="cls-4" d="M40.16,29.25a2.49,2.49,0,0,1,.59,3.43h0l-4.07-3.52h0a2.49,2.49,0,0,1,3.48.09Z"/><path class="cls-4" d="M21.32,31.83a2.49,2.49,0,0,1,2.56,2.37h0l-5.37-.33h0a2.47,2.47,0,0,1,2.81-2Z"/><path class="cls-3" d="M56.1,51.18a.55.55,0,0,0-.43-.63.53.53,0,0,0-.62.42l-1.9,9.58-.07.35.3.2,10.15,6.64a.51.51,0,0,0,.73-.15.52.52,0,0,0-.15-.74l-9.85-6.44,1.84-9.23Z"/><path class="cls-3" d="M46.92,52a.54.54,0,0,0,0-.76.55.55,0,0,0-.76,0l-11,11.38L22.62,66.43a.52.52,0,0,0-.36.66.53.53,0,0,0,.66.36l12.69-3.81.13,0,.1-.1L46.92,52Z"/><path class="cls-3" d="M54.06,51.63a.53.53,0,0,0-.09-.74.54.54,0,0,0-.75.09l-4.54,8.89L40.13,68.1a.53.53,0,0,0-.22.72.54.54,0,0,0,.72.22l8.65-8.28.1-.06.07-.09,4.61-9Z"/><path class="cls-3" d="M62,54.68a.53.53,0,0,0-.73-.18.52.52,0,0,0-.18.73l6.27,10.41.22.37.41-.14,11-3.8a.53.53,0,0,0-.35-1L68,64.72,62,54.68Z"/><path class="cls-4" d="M81.08,62.52a2.48,2.48,0,0,0,1.82-3h0l-5.08,1.75h0a2.48,2.48,0,0,0,3.26,1.21Z"/><path class="cls-4" d="M65.14,66.22a2.49,2.49,0,0,0-3.47.31h0l4.44,3h0a2.49,2.49,0,0,0-1-3.35Z"/><path class="cls-4" d="M40.16,70.9a2.49,2.49,0,0,0,.59-3.43h0L36.68,71h0a2.49,2.49,0,0,0,3.48-.09Z"/><path class="cls-4" d="M21.32,68.32A2.49,2.49,0,0,0,23.88,66h0l-5.37.32h0a2.47,2.47,0,0,0,2.81,2Z"/><path class="cls-5" d="M37.48,50c0,3.37-1.33,6.14-5.34,6.14s-7.28-2.73-7.28-6.1S28.12,44,32.14,44s5.34,2.7,5.34,6.07Z"/><path class="cls-4" d="M37.48,50v0H24.86c0-3.38,3.26-6.11,7.28-6.11s5.34,2.7,5.34,6.07Z"/><path class="cls-6" d="M37.48,50.11v0H31.17v6.05c.31,0,.64,0,1,0,4,0,5.34-2.7,5.34-6.07Z"/><path class="cls-7" d="M37.48,50v0H31.17V44a7.66,7.66,0,0,1,1-.06c4,0,5.34,2.7,5.34,6.07Z"/><polygon class="cls-8" points="47.41 49.21 47.41 50.94 41.87 50.94 41.87 49.21 47.41 49.21 47.41 49.21"/><path class="cls-7" d="M72.57,48.64a4.18,4.18,0,0,0-4.18-4.18,4.13,4.13,0,0,0-2.57.89v4.73a4.18,4.18,0,0,1,6.74-1.16c0-.09,0-.19,0-.28Z"/><path class="cls-7" d="M72.57,51.51a4.18,4.18,0,0,1-4.18,4.18,4.13,4.13,0,0,1-2.57-.89V50.08a4.19,4.19,0,0,0,6.74,1.15c0,.09,0,.19,0,.28Z"/><path class="cls-7" d="M66.89,47.84v4.47a3.35,3.35,0,0,1-3.34,3.34H59.08a3.35,3.35,0,0,1-3.34-3.34V47.84a3.35,3.35,0,0,1,3.34-3.34h4.47a3.35,3.35,0,0,1,3.34,3.34Z"/><path class="cls-9" d="M66.89,47.84v4.47a3.35,3.35,0,0,1-3.34,3.34H61.32V44.5h2.23a3.35,3.35,0,0,1,3.34,3.34Z"/><path class="cls-5" d="M55.74,50.08v2.23a3.35,3.35,0,0,0,3.34,3.34h2.24V50.08Z"/><path class="cls-4" d="M66.89,50.08V47.84a3.35,3.35,0,0,0-3.34-3.34H61.32v5.58Z"/><path class="cls-6" d="M55.76,49.42v1.31A3.3,3.3,0,0,1,52.47,54h-3.3a3.3,3.3,0,0,1-3.29-3.29V49.42a3.3,3.3,0,0,1,3.29-3.29h3.3a3.3,3.3,0,0,1,3.29,3.29Z"/><path class="cls-9" d="M55.76,49.42v.66H45.88v-.66a3.3,3.3,0,0,1,3.29-3.29h3.3a3.3,3.3,0,0,1,3.29,3.29Z"/><path class="cls-9" d="M43.09,50.08c0,2-1.38,3.68-3.07,3.68S37,52.11,37,50.08s1.37-3.69,3.07-3.69,3.07,1.65,3.07,3.69Z"/><path class="cls-6" d="M40,53.76c-1.7,0-3.07-1.65-3.07-3.68s1.37-3.69,3.07-3.69v7.37Z"/><path class="cls-10" d="M63.26,48.57a1.09,1.09,0,1,1,1.09-1.09A1.09,1.09,0,0,1,63.26,48.57Z"/><path class="cls-10" d="M59.09,49.13a1.65,1.65,0,1,1,1.65-1.65A1.65,1.65,0,0,1,59.09,49.13Z"/><path class="cls-10" d="M33.88,48.57a.77.77,0,0,1-.78-.77.78.78,0,0,1,.78-.78.77.77,0,0,1,.77.78A.76.76,0,0,1,33.88,48.57Z"/><path class="cls-10" d="M30,49.43a1.65,1.65,0,1,1,1.64-1.65A1.65,1.65,0,0,1,30,49.43Z"/></g></g></svg>