<svg xmlns="http://www.w3.org/2000/svg" xmlns:xlink="http://www.w3.org/1999/xlink" viewBox="0 0 100.15 100.15"><defs><style>.cls-1{isolation:isolate;}.cls-2{fill:url(#New_Gradient_Swatch_3);}.cls-17,.cls-3{fill:#3e2f3c;}.cls-4{fill:#1d8a9c;}.cls-5{fill:#2cabae;}.cls-6{fill:#eea74e;}.cls-10,.cls-12,.cls-13,.cls-15,.cls-16,.cls-17,.cls-6,.cls-7{fill-rule:evenodd;}.cls-7{fill:#bf423c;}.cls-12,.cls-8{fill:#9b2c2c;}.cls-13,.cls-9{fill:#f5c268;}.cls-10,.cls-11{fill:#ee6d58;}.cls-14{fill:#d89144;}.cls-15{fill:#f2eed1;}.cls-16{opacity:0.1;mix-blend-mode:multiply;}</style><linearGradient id="New_Gradient_Swatch_3" x1="22.62" y1="22.62" x2="86.09" y2="86.09" gradientTransform="translate(11.29 -9.18) rotate(11.79)" gradientUnits="userSpaceOnUse"><stop offset="0" stop-color="#5b4559"/><stop offset="1" stop-color="#3e2f3c"/></linearGradient></defs><title>squirell</title><g class="cls-1"><g id="レイヤー_2" data-name="レイヤー 2"><g id="Animals"><circle class="cls-2" cx="50.08" cy="50.08" r="50.08" transform="translate(-9.18 11.29) rotate(-11.79)"/><path class="cls-3" d="M99.12,60.18,56.6,17.65,46.25,23.81,52.8,44.66,51.56,46,36.33,30.73l-2.86,1.44-.2.8-2.44-.51-.47.63,2.3,2.3,0,.19.61,5.59,1.67,1.94-12.36,7.3L38.36,66.24,37.49,69l1.64,5.45,2,1.18-12,5,19.59,19.58.7,0A50.09,50.09,0,0,0,99.12,60.18Z"/><path class="cls-4" d="M61,70.74V82A11.22,11.22,0,0,0,72.23,70.74Z"/><path class="cls-5" d="M61,70.74H49.79A11.22,11.22,0,0,0,61,82V70.74Z"/><path class="cls-4" d="M39.13,70.74v14a14,14,0,0,0,14-14Z"/><path class="cls-5" d="M39.13,70.74h-14a14,14,0,0,0,14,14v-14Z"/><path class="cls-6" d="M69.44,33.88a20.89,20.89,0,0,0-10-3.85,8.93,8.93,0,0,0-1.19-.09h-.65c-2.85-.11-3.85-1-3.85-2.28a3.19,3.19,0,0,1,.13-.92A3.14,3.14,0,0,1,55,25.11c1.23-1.05,2.88-1.85,2.88-4.54,0-4.26-6.05-5.16-8.09-5.16-11.92,0-11.67,11.83-11.67,15.32,0,0,0,0,0,.05s0,.33,0,.5c0,5,3.48,10.77,8.36,10.77h8.36c5.55,0,10,4.92,10,11s-4.5,11-10,11H49.66a31.81,31.81,0,0,0,3.24,2.43c5.45.84,10.59.68,15.17-1.23,3.37-1.88,4.9-3.09,6.39-5.55C81.33,48.35,75.86,38.43,69.44,33.88Z"/><path class="cls-7" d="M69.44,33.88a20.89,20.89,0,0,0-10-3.85,8.93,8.93,0,0,0-1.19-.09h-.65c-2.85-.11-3.85-1-3.85-2.28a3.19,3.19,0,0,1,.13-.92A3.14,3.14,0,0,1,55,25.11c1.23-1.05,2.88-1.85,2.88-4.54A3.36,3.36,0,0,0,57.51,19c-5.82,1.43-11.26,4.54-11.26,9.46,0,7,7.64,8.73,13.74,8.73S70.6,45.21,70.6,51.46,65.67,63.75,57,63.75h0a9.12,9.12,0,0,1-2.16.26H49.66a31.81,31.81,0,0,0,3.24,2.43c5.45.84,10.59.68,15.17-1.23,3.37-1.88,4.9-3.09,6.39-5.55C81.33,48.35,75.86,38.43,69.44,33.88Z"/><path class="cls-8" d="M38.55,42.05H54.84c5.55,0,10,4.92,10,11s-4.5,11-10,11H38.55v-22Z"/><rect class="cls-9" x="52.05" y="48.1" width="1.51" height="2.59"/><path class="cls-10" d="M36.89,45.25l2.87-.91a2.06,2.06,0,0,1,2.64,1.48L45.11,56.7a2.38,2.38,0,0,1-1.56,2.81l-2.88.9A2,2,0,0,1,38,58.94L35.32,48.05a2.38,2.38,0,0,1,1.57-2.8Z"/><path class="cls-11" d="M53.56,56.35v8.24a8.24,8.24,0,0,0,8.25-8.24Z"/><path class="cls-9" d="M53.56,56.35h8.25a8.25,8.25,0,0,0-8.25-8.25v8.25Z"/><path class="cls-12" d="M52.05,48.1h0c-2.74,0-5,2.69-5,6V69.33a7.25,7.25,0,0,0,.14,1.41h9.65A6.55,6.55,0,0,0,57,69.33V54.07c0-3.28-2.24-6-5-6Z"/><polygon class="cls-13" points="38.04 58.94 44.8 58.53 39.33 69.78 35.13 67.91 38.04 58.94 38.04 58.94"/><path class="cls-11" d="M35.88,67.18a3.56,3.56,0,0,0-3.57,3.56h7.13a3.56,3.56,0,0,0-3.56-3.56Z"/><path class="cls-7" d="M52.05,48.1h0c-2.74,0-5,2.69-5,6V69.33a7.25,7.25,0,0,0,.14,1.41h4.83V48.1Z"/><path class="cls-14" d="M43,69.9a2.06,2.06,0,0,1,1.9-2.18H56a2.06,2.06,0,0,1,1.9,2.18v.84H43V69.9Z"/><path class="cls-15" d="M49.76,26.76a4.1,4.1,0,1,1-4.1-4.1A4.1,4.1,0,0,1,49.76,26.76Z"/><path class="cls-15" d="M52.8,34.32a2.62,2.62,0,1,1-2.62-2.63A2.62,2.62,0,0,1,52.8,34.32Z"/><path class="cls-16" d="M38.55,44.73l-1.66.52a2.38,2.38,0,0,0-1.57,2.8l1.07,4.26a13.46,13.46,0,0,0,3.82-3.68,6.75,6.75,0,0,0,.93-6.58H38.55Z"/><path class="cls-7" d="M28.63,41.23c4.7-2.11,9.58-1.43,10.91,1.53s-1.4,7.07-6.09,9.18-10.68-1.09-10.92-1.53,1.4-7.07,6.1-9.18Z"/><path class="cls-13" d="M32.88,33.42h0a2.74,2.74,0,0,1,2.74,2.74v7.05H30.13V36.16a2.75,2.75,0,0,1,2.75-2.74Z"/><path class="cls-10" d="M28.63,41.23c4.7-2.11,9.58-1.43,10.91,1.53l-17,7.65c-.24-.44,1.4-7.07,6.1-9.18Z"/><path class="cls-17" d="M29.13,44.36a1.23,1.23,0,1,1-1.22,1.23,1.23,1.23,0,0,1,1.22-1.23Z"/><path class="cls-11" d="M32.88,34.18a3.45,3.45,0,0,0,3.45-3.45H29.42A3.45,3.45,0,0,0,32.88,34.18Z"/><path class="cls-4" d="M42.13,77.41a3,3,0,1,1-3-3A3,3,0,0,1,42.13,77.41Z"/><path class="cls-4" d="M64,76.35a3,3,0,1,1-3-3A3,3,0,0,1,64,76.35Z"/></g></g></g></svg>