<svg xmlns="http://www.w3.org/2000/svg" xmlns:xlink="http://www.w3.org/1999/xlink" viewBox="0 0 100.15 100.15"><defs><style>.cls-1{fill:url(#New_Gradient_Swatch_5);}.cls-2{fill:#c6c29b;opacity:0.5;}.cls-3{fill:#9b2c2c;}.cls-10,.cls-11,.cls-13,.cls-3,.cls-4,.cls-5,.cls-6,.cls-7,.cls-9{fill-rule:evenodd;}.cls-12,.cls-4{fill:#bf423c;}.cls-5{fill:#ee6d58;}.cls-6{fill:#f5c268;}.cls-7{fill:#eea74e;}.cls-13,.cls-8{fill:#3e2f3c;}.cls-9{fill:#d89144;}.cls-10{fill:#f2eed1;}.cls-11{fill:#5b4559;}</style><linearGradient id="New_Gradient_Swatch_5" x1="15.4" y1="15.4" x2="87.78" y2="87.78" gradientTransform="translate(66.35 -18.85) rotate(58.28)" gradientUnits="userSpaceOnUse"><stop offset="0" stop-color="#f2eed1"/><stop offset="0.33" stop-color="#f0ecce"/><stop offset="0.57" stop-color="#e8e4c5"/><stop offset="0.78" stop-color="#dbd7b5"/><stop offset="0.97" stop-color="#c9c59f"/><stop offset="1" stop-color="#c6c29b"/></linearGradient></defs><title>tiger</title><g id="レイヤー_2" data-name="レイヤー 2"><g id="Animals"><circle class="cls-1" cx="50.08" cy="50.08" r="50.08" transform="translate(-18.85 66.35) rotate(-58.28)"/><path class="cls-2" d="M100,54.32,82.38,36.74,78,37.2l-3.48-3.48L49.24,39.54l-9-9L33.48,35,29,30.53l-2.47,1.64,1.25,9,1,.9L23.4,55.3V68.38l-3.53,3.28,28.44,28.45c.59,0,1.17,0,1.77,0A50.07,50.07,0,0,0,100,54.32Z"/><polygon class="cls-3" points="70.63 52.49 61.13 52.49 64.1 62 60.95 66.99 65.16 71.59 70.13 63.42 70.63 52.49 70.63 52.49"/><path class="cls-4" d="M72,32.78H41.52a3.65,3.65,0,0,0-3.72,3.56V49.08H26.57V59.47H50.22a6.94,6.94,0,0,0,7.06-6.76v-.14H75.72V36.34A3.65,3.65,0,0,0,72,32.78Z"/><path class="cls-5" d="M23.47,47.83h.67a3,3,0,0,1,2.68,3.27V67.61c0,2.5-.92,2.54-2.64,2.54-1.48,0-2.6-1.47-2.68-3.26L20.79,51.1a3,3,0,0,1,2.68-3.27Z"/><polygon class="cls-5" points="35.85 46.44 41.11 46.44 41.11 68.02 36.44 68.02 35.85 46.44 35.85 46.44"/><path class="cls-6" d="M24,66.9a4.29,4.29,0,0,1,4.16,4.42c0,.11,0,.23,0,.34H19.87c0-.11,0-.23,0-.34A4.3,4.3,0,0,1,24,66.9Z"/><path class="cls-7" d="M30.83,33.72c6.19,0,11.22,4.45,11.22,9.93s-5,9.92-11.22,9.92-11.22-4.44-11.22-9.92,5-9.93,11.22-9.93Z"/><path class="cls-8" d="M24.35,37.09a.59.59,0,1,1,.53,1.06,5,5,0,0,0-2.41,2.24,5,5,0,0,0-.26,3.26.6.6,0,0,1-.45.71.61.61,0,0,1-.71-.46,5.68,5.68,0,0,1,3.3-6.81Z"/><path class="cls-9" d="M28.73,46.92h4.12A2.16,2.16,0,0,1,35,49.08v3.57a2.16,2.16,0,0,1-2.16,2.15H28.73a2.16,2.16,0,0,1-2.16-2.15V49.08a2.16,2.16,0,0,1,2.16-2.16Z"/><path class="cls-8" d="M36.78,38.15a.58.58,0,0,1-.27-.79.59.59,0,0,1,.8-.27,5.68,5.68,0,0,1,3.3,6.81.6.6,0,0,1-1.17-.25,4.91,4.91,0,0,0-.25-3.26,5,5,0,0,0-2.41-2.24Z"/><path class="cls-10" d="M30.83,50.42c-.69,3.74-4.35,2.5-6,.41-1.17-1.48-.88-4.74-.21-5.57,2-2.5,2-6.58,2.26-9.82h7.67c.35,3.29.26,7.12,2.3,9.65.67.83,1.13,4.26,0,5.74-1.64,2.09-5.31,3.33-6-.41Z"/><path class="cls-7" d="M25.23,28.49a4.57,4.57,0,1,0,4.58,4.57,4.58,4.58,0,0,0-4.58-4.57Z"/><path class="cls-11" d="M20.7,32.5a3.43,3.43,0,0,0,0,.56A4.58,4.58,0,0,0,29,35.67a5.27,5.27,0,0,0,0-.56A4.57,4.57,0,0,0,20.7,32.5Z"/><path class="cls-7" d="M36.42,28.49a4.57,4.57,0,1,1-4.57,4.57,4.58,4.58,0,0,1,4.57-4.57Z"/><path class="cls-11" d="M41,32.5a5.09,5.09,0,0,1,0,.56,4.58,4.58,0,0,1-8.33,2.61,3.52,3.52,0,0,1,0-.56A4.57,4.57,0,0,1,41,32.5Z"/><path class="cls-5" d="M26.74,33h8.18a1.42,1.42,0,0,1,1.41,1.42v5.2a1.41,1.41,0,0,1-1.41,1.41H33.28v7.77a.82.82,0,0,1-.82.82H29.19a.82.82,0,0,1-.81-.82V41.06H26.74a1.41,1.41,0,0,1-1.41-1.41v-5.2A1.42,1.42,0,0,1,26.74,33Z"/><polygon class="cls-4" points="75.72 52.56 65.41 50.45 69.2 62.07 66.05 67.06 70.25 71.66 75.22 63.49 75.72 52.56 75.72 52.56"/><path class="cls-3" d="M61.23,66.9a4.3,4.3,0,0,1,4.17,4.42c0,.11,0,.23,0,.34H57.08c0-.11,0-.23,0-.34a4.3,4.3,0,0,1,4.17-4.42Z"/><path class="cls-12" d="M75.52,38.18a1.85,1.85,0,0,1,.4-3.68l.54.06c4.47.46,9.15.95,7.64,14.49h0c-.37,4.7-.5,8.32.23,10.65.57,1.81,1.84,2.81,4.32,2.94a1.85,1.85,0,1,1-.17,3.7c-4.35-.22-6.62-2.1-7.69-5.54-.92-2.91-.79-6.91-.4-12h0v-.06c1.12-9.9-1.66-10.19-4.32-10.47l-.56-.06Z"/><path class="cls-13" d="M24.1,48.76a5.8,5.8,0,0,1-.05-.93h2.46a.47.47,0,0,1,.46.46h0a.47.47,0,0,1-.46.47Z"/><path class="cls-13" d="M25,51l-.15-.18a2.86,2.86,0,0,1-.42-.75h2.37a.47.47,0,0,1,.46.47h0a.47.47,0,0,1-.46.46Z"/><path class="cls-13" d="M37.53,47.85c0,.31,0,.62,0,.93H35.07a.47.47,0,0,1-.46-.47h0a.47.47,0,0,1,.46-.46Z"/><path class="cls-13" d="M37.22,50.1a3.19,3.19,0,0,1-.4.73l-.17.2H34.79a.47.47,0,0,1-.46-.47h0a.47.47,0,0,1,.46-.46Z"/><path class="cls-6" d="M26.74,33h4.05V49.65h-1.6a.82.82,0,0,1-.81-.82V41.06H26.74a1.41,1.41,0,0,1-1.41-1.41v-5.2A1.42,1.42,0,0,1,26.74,33Z"/><path class="cls-4" d="M34.25,41.06h-1v7.77a.82.82,0,0,1-.64.8H29a.82.82,0,0,1-.64-.8V41.06h-1v-1.7a.92.92,0,0,1,.92-.92h5.07a.92.92,0,0,1,.92.92v1.7Z"/><path class="cls-13" d="M27.12,39.29a1.47,1.47,0,1,0,1.47,1.47,1.47,1.47,0,0,0-1.47-1.47Z"/><path class="cls-10" d="M27.28,40.6a.54.54,0,1,0,.54.54.54.54,0,0,0-.54-.54Z"/><path class="cls-13" d="M34.71,39.29a1.47,1.47,0,1,1-1.47,1.47,1.47,1.47,0,0,1,1.47-1.47Z"/><path class="cls-10" d="M34.55,40.6a.54.54,0,0,1,0,1.08.54.54,0,0,1,0-1.08Z"/><path class="cls-13" d="M27.28,35.44h7.1a.5.5,0,0,0,.51-.5h0a.51.51,0,0,0-.51-.51h-7.1a.51.51,0,0,0-.51.51h0a.5.5,0,0,0,.51.5Z"/><path class="cls-13" d="M27.28,37.12h7.1a.51.51,0,0,0,.51-.51h0a.51.51,0,0,0-.51-.51h-7.1a.51.51,0,0,0-.51.51h0a.51.51,0,0,0,.51.51Z"/><path class="cls-13" d="M41.11,61v2.8h-2.9a1.4,1.4,0,0,1-1.4-1.4h0a1.4,1.4,0,0,1,1.4-1.4Z"/><path class="cls-13" d="M41.11,54.1v2.81h-2.9a1.4,1.4,0,0,1-1.4-1.4h0a1.41,1.41,0,0,1,1.4-1.41Z"/><path class="cls-13" d="M21.41,64.85,21.28,62h1.5a1.4,1.4,0,0,1,1.4,1.4h0a1.41,1.41,0,0,1-1.4,1.41Z"/><path class="cls-13" d="M21.1,58,21,55.15h1.81a1.4,1.4,0,0,1,1.4,1.4h0a1.4,1.4,0,0,1-1.4,1.4Z"/><path class="cls-13" d="M30.36,48.73a2.31,2.31,0,0,1,.47.4,2.31,2.31,0,0,1,.47-.4c.73-.45,1.57-.44,1.87.05s0,1.24-.77,1.7a1.68,1.68,0,0,1-1.57.22,1.68,1.68,0,0,1-1.57-.22c-.73-.46-1.08-1.22-.77-1.7s1.14-.5,1.87-.05Z"/><path class="cls-13" d="M75.32,61.26l.11-2.33H73a1.17,1.17,0,0,0-1.17,1.16h0A1.18,1.18,0,0,0,73,61.26Z"/><path class="cls-13" d="M66.78,54.68,67.54,57h4.53a1.18,1.18,0,0,0,1.17-1.17h0a1.17,1.17,0,0,0-1.17-1.16Z"/><path class="cls-8" d="M84.05,58.54a11.61,11.61,0,0,0,.28,1.16,4.85,4.85,0,0,0,.54,1.17H82.55a1.18,1.18,0,0,1-1.17-1.17h0a1.17,1.17,0,0,1,1.17-1.16Z"/><path class="cls-8" d="M80.19,57.45c-.06-.73-.09-1.51-.1-2.33h.69a1.17,1.17,0,0,1,1.16,1.17h0a1.16,1.16,0,0,1-1.16,1.16Z"/><path class="cls-8" d="M84,49.9c-.06.81-.11,1.59-.15,2.33H82.17A1.17,1.17,0,0,1,81,51.06h0a1.16,1.16,0,0,1,1.16-1.16Z"/><path class="cls-8" d="M80.47,48c.09-.85.14-1.63.17-2.33h1.08a1.16,1.16,0,0,1,1.16,1.16h0A1.16,1.16,0,0,1,81.72,48Z"/><path class="cls-13" d="M44.74,59.47h2.33V53.11A1.16,1.16,0,0,0,45.9,52h0a1.16,1.16,0,0,0-1.16,1.16v6.36Z"/><path class="cls-13" d="M66.92,32.78H64.59v9.33a1.17,1.17,0,0,0,1.17,1.17h0a1.17,1.17,0,0,0,1.16-1.17V32.78Z"/><path class="cls-13" d="M71.93,32.78H69.6v11A1.17,1.17,0,0,0,70.76,45h0a1.18,1.18,0,0,0,1.17-1.17v-11Z"/><path class="cls-13" d="M60.4,52.57h2.33V43.24a1.17,1.17,0,0,0-1.16-1.17h0a1.18,1.18,0,0,0-1.17,1.17v9.33Z"/><path class="cls-6" d="M24,66.9a4,4,0,0,1,2.23.69v4.07H21.8V67.59A3.92,3.92,0,0,1,24,66.9Z"/><path class="cls-6" d="M38.78,66.9A4.3,4.3,0,0,1,43,71.32c0,.11,0,.23,0,.34H34.62c0-.11,0-.23,0-.34a4.3,4.3,0,0,1,4.17-4.42Z"/><path class="cls-6" d="M38.78,66.9a4,4,0,0,1,2.23.69v4.07H36.55V67.59a3.92,3.92,0,0,1,2.23-.69Z"/><path class="cls-6" d="M66.25,66.9a4.3,4.3,0,0,1,4.17,4.42c0,.11,0,.23,0,.34H62.09c0-.11,0-.23,0-.34a4.3,4.3,0,0,1,4.17-4.42Z"/><path class="cls-6" d="M66.25,66.9a3.92,3.92,0,0,1,2.23.69v4.07H64V67.59a4,4,0,0,1,2.23-.69Z"/><path class="cls-8" d="M83.3,38.12h-.77a1.17,1.17,0,0,0,0,2.33h1.52A9.67,9.67,0,0,0,83.3,38.12Z"/><path class="cls-13" d="M51,40.76a1.16,1.16,0,0,0-1.16-1.16h0a1.16,1.16,0,0,0-1.17,1.16V51.28a1.17,1.17,0,0,0,1.17,1.17h0A1.16,1.16,0,0,0,51,51.28Z"/><rect class="cls-8" x="47.54" y="39.6" width="2.27" height="2.33"/><path class="cls-13" d="M57.75,39.53a1.17,1.17,0,0,0-1.17-1.17h0a1.16,1.16,0,0,0-1.16,1.17v7.22a1.16,1.16,0,0,0,1.16,1.16h0a1.16,1.16,0,0,0,1.17-1.16Z"/><rect class="cls-8" x="54.31" y="38.36" width="2.27" height="2.33"/><path class="cls-13" d="M46.38,32.78v8a1.17,1.17,0,1,0,2.33,0v-8Z"/><path class="cls-13" d="M53.14,32.78v6.75a1.17,1.17,0,0,0,2.34,0V32.78Z"/><path class="cls-13" d="M69.48,63.17h-1L67,65.5h2.45a1.17,1.17,0,1,0,0-2.33Z"/><path class="cls-10" d="M65.79,36.15a1.22,1.22,0,1,1-1.21-1.21A1.22,1.22,0,0,1,65.79,36.15Z"/><path class="cls-10" d="M71.59,43.07a3.79,3.79,0,1,1-3.78-3.78A3.79,3.79,0,0,1,71.59,43.07Z"/></g></g></svg>