<svg xmlns="http://www.w3.org/2000/svg" xmlns:xlink="http://www.w3.org/1999/xlink" viewBox="0 0 100.15 100.15"><defs><style>.cls-1{fill:url(#New_Gradient_Swatch_4);}.cls-2{fill:#bf423c;}.cls-2,.cls-3,.cls-4,.cls-5,.cls-6,.cls-7,.cls-8,.cls-9{fill-rule:evenodd;}.cls-3{fill:#f5c268;}.cls-4{fill:#eea74e;}.cls-5{fill:#3e2f3c;}.cls-6{fill:#187e89;}.cls-7{fill:#f2eed1;}.cls-8{fill:#d89144;}.cls-9{fill:#2cabae;}</style><linearGradient id="New_Gradient_Swatch_4" x1="22.24" y1="22.24" x2="84.86" y2="84.86" gradientTransform="translate(50.08 -20.74) rotate(45)" gradientUnits="userSpaceOnUse"><stop offset="0" stop-color="#ee6d58"/><stop offset="1" stop-color="#bf423c"/></linearGradient></defs><title>toucan</title><g id="レイヤー_2" data-name="レイヤー 2"><g id="Animals"><circle class="cls-1" cx="50.08" cy="50.08" r="50.08" transform="translate(-20.74 50.08) rotate(-45)"/><path class="cls-2" d="M67.57,97A50.07,50.07,0,0,0,100,53.86L76.78,30.64l-1.56,8.54L71.65,51.3,50.13,29.77l-5.8,6.88.23.77-25.73.8-5.6,3.88L47.48,76.34l-.27.3Z"/><path class="cls-3" d="M13.23,42.1c0-8.25,13.6-14.93,30.37-14.93V42.1Z"/><path class="cls-4" d="M20.12,42.1c0,2.55,10.51,4.63,23.48,4.63V42.1Z"/><path class="cls-3" d="M47.94,74.66h5.3V69.15h1.7v5.51h1.3a1.11,1.11,0,0,1,.95,1.21h0a1.1,1.1,0,0,1-.95,1.2h-8.3a1.1,1.1,0,0,1-.95-1.2h0a1.1,1.1,0,0,1,.95-1.21Z"/><path class="cls-3" d="M59.47,74.66h5.3V69.15h1.7v5.51h1.3a1.1,1.1,0,0,1,1,1.21h0a1.1,1.1,0,0,1-1,1.2h-8.3a1.1,1.1,0,0,1-.95-1.2h0a1.11,1.11,0,0,1,.95-1.21Z"/><path class="cls-5" d="M75,30.17h.42c1.46,0,2.66,1.51,2.66,3.36V56.45l-5.73.82V33.53c0-1.85,1.19-3.36,2.65-3.36Z"/><path class="cls-6" d="M71.61,38.22H72l.35,0V57.78H69V41.58c0-1.85,1.2-3.36,2.66-3.36Z"/><path class="cls-6" d="M43.56,55.84c.1,8.12,5.38,14.71,11.81,14.71h10.9c6.5,0,11.82-6.73,11.82-14.95C72.66,56.88,56,61.15,55.37,42.12c-.29-8.22-5.32-15-11.81-15V55.84Z"/><path class="cls-3" d="M13.23,42.1c0-5.13,5.27-9.66,13.28-12.34V42.1Z"/><path class="cls-7" d="M36.18,29.35a2.45,2.45,0,1,1-2.44,2.44,2.45,2.45,0,0,1,2.44-2.44Z"/><path class="cls-7" d="M30.66,30.64a1.4,1.4,0,1,1-1.4,1.4,1.4,1.4,0,0,1,1.4-1.4Z"/><path class="cls-5" d="M43.92,29.82l-.36-.05V55.84h0A18,18,0,0,0,45,62.7a8.29,8.29,0,0,0,6.13-7.94V38A8.25,8.25,0,0,0,43.92,29.82Z"/><path class="cls-8" d="M34.81,46.39c2.72.22,5.69.34,8.79.34V42.1h-.22c-3.82,0-7.12,1.76-8.57,4.29Z"/><path class="cls-9" d="M43.56,55.84a18.93,18.93,0,0,0,.51,4.1,5.35,5.35,0,0,0,4.14-5.18V38a5.33,5.33,0,0,0-4.65-5.27V55.84Z"/><path class="cls-5" d="M45.73,38.09a1.4,1.4,0,1,1-1.4,1.39,1.39,1.39,0,0,1,1.4-1.39Z"/><path class="cls-5" d="M72.88,56.63c-4.22.59-9.49.51-13.14-2.79v6.35a4.93,4.93,0,0,0,4.91,4.91H68a4.93,4.93,0,0,0,4.92-4.91V56.63Z"/><path class="cls-9" d="M72.88,56.63c-4.22.59-9.49.51-13.14-2.79V57a4.93,4.93,0,0,0,4.91,4.92H68A4.94,4.94,0,0,0,72.88,57v-.34Z"/><path class="cls-7" d="M56.88,62.05a2.11,2.11,0,1,1-2.11-2.11A2.11,2.11,0,0,1,56.88,62.05Z"/><path class="cls-7" d="M60.07,65.31a1.15,1.15,0,1,1-2.3,0,1.15,1.15,0,1,1,2.3,0Z"/></g></g></svg>