<svg xmlns="http://www.w3.org/2000/svg" xmlns:xlink="http://www.w3.org/1999/xlink" viewBox="0 0 100.15 100.15"><defs><style>.cls-1{fill:url(#New_Gradient_Swatch_3);}.cls-2{fill:#3e2f3c;}.cls-3{fill:#f2eed1;}.cls-4{fill:#e1deb4;}.cls-5{fill:#2cabae;}.cls-6{fill:#1d8a9c;}</style><linearGradient id="New_Gradient_Swatch_3" x1="21.33" y1="21.33" x2="77.51" y2="77.51" gradientTransform="translate(33.8 -18.85) rotate(31.72)" gradientUnits="userSpaceOnUse"><stop offset="0" stop-color="#5b4559"/><stop offset="1" stop-color="#3e2f3c"/></linearGradient></defs><title>turtle</title><g id="レイヤー_2" data-name="レイヤー 2"><g id="Animals"><circle class="cls-1" cx="50.08" cy="50.08" r="50.08" transform="translate(-18.85 33.8) rotate(-31.72)"/><path class="cls-2" d="M99.76,56.2,77,33.42l-4.51,4.51L55.87,21.32,42,59.44l2.09,1.7-21,15.3L46.75,100c1.1.07,2.21.12,3.33.12A50.07,50.07,0,0,0,99.76,56.2Z"/><path class="cls-3" d="M42,26.94V41.71a8.07,8.07,0,0,0,8.08,8.07V18.87A8.07,8.07,0,0,0,42,26.94Z"/><path class="cls-4" d="M58.15,41.71V26.94a8.07,8.07,0,0,0-8.07-8.07V49.78A8.07,8.07,0,0,0,58.15,41.71Z"/><path class="cls-3" d="M47.54,74.12v4.63a2.54,2.54,0,0,0,2.54,2.54v-9.7A2.54,2.54,0,0,0,47.54,74.12Z"/><path class="cls-4" d="M52.61,78.75V74.12a2.54,2.54,0,0,0-2.53-2.53v9.7A2.54,2.54,0,0,0,52.61,78.75Z"/><path class="cls-3" d="M40.45,43.05l-9.63-9.63a5.43,5.43,0,0,0-7.66,0L40.45,50.71A5.41,5.41,0,0,0,40.45,43.05Z"/><path class="cls-4" d="M23.16,41.08l9.63,9.63a5.43,5.43,0,0,0,7.66,0L23.16,33.42A5.43,5.43,0,0,0,23.16,41.08Z"/><path class="cls-3" d="M69.33,33.42,59.7,43.05a5.43,5.43,0,0,0,0,7.66L77,33.42A5.43,5.43,0,0,0,69.33,33.42Z"/><path class="cls-4" d="M67.36,50.71,77,41.08a5.43,5.43,0,0,0,0-7.66L59.7,50.71A5.43,5.43,0,0,0,67.36,50.71Z"/><path class="cls-3" d="M59.7,66.81l9.63,9.63a5.43,5.43,0,0,0,7.66,0L59.7,59.15A5.43,5.43,0,0,0,59.7,66.81Z"/><path class="cls-4" d="M77,68.78l-9.63-9.63a5.43,5.43,0,0,0-7.66,0L77,76.44A5.43,5.43,0,0,0,77,68.78Z"/><path class="cls-3" d="M30.82,76.44l9.63-9.63a5.41,5.41,0,0,0,0-7.66L23.16,76.44A5.43,5.43,0,0,0,30.82,76.44Z"/><path class="cls-4" d="M32.79,59.15l-9.63,9.63a5.43,5.43,0,0,0,0,7.66L40.45,59.15A5.43,5.43,0,0,0,32.79,59.15Z"/><circle class="cls-2" cx="46.21" cy="26.33" r="1.36"/><path class="cls-2" d="M55.3,26.33A1.36,1.36,0,1,1,53.94,25,1.36,1.36,0,0,1,55.3,26.33Z"/><circle class="cls-5" cx="50.08" cy="53.28" r="22.4" transform="translate(-16.58 23.22) rotate(-22.5)"/><path class="cls-6" d="M50.08,30.88V75.69a22.41,22.41,0,0,0,0-44.81Z"/><path class="cls-5" d="M67.2,44.72a19,19,0,0,1,1.67,4.9l-9,6.57,3.53,10.88a19.47,19.47,0,0,1-3.9,2.9l-9.38-6.81L40.69,70a19.47,19.47,0,0,1-3.9-2.9l3.53-10.88-9-6.57A19.42,19.42,0,0,1,33,44.72h11.1l3.38-10.4a19.6,19.6,0,0,1,5.3,0l3.38,10.4Z"/><polygon class="cls-6" points="44.05 44.72 40.32 56.18 50.08 63.27 59.83 56.18 56.1 44.72 44.05 44.72"/><path class="cls-6" d="M59.46,70a19.13,19.13,0,0,1-18.77,0l9.39-6.81Z"/><path class="cls-5" d="M67.2,44.72H56.11l-3.38-10.4A19.19,19.19,0,0,1,67.2,44.72Z"/><path class="cls-5" d="M68.87,49.62a19.18,19.18,0,0,1-5.51,17.45L59.83,56.19Z"/><path class="cls-6" d="M33,44.72a19.17,19.17,0,0,1,14.48-10.4l-3.38,10.4Z"/><path class="cls-6" d="M36.79,67.07a19.18,19.18,0,0,1-5.51-17.45l9,6.57Z"/><path class="cls-6" d="M67.2,44.72H56.11l-3.38-10.4a19.34,19.34,0,0,0-2.65-.18h0v29L59.46,70a19.47,19.47,0,0,0,3.9-2.9L59.83,56.19l9-6.57A19,19,0,0,0,67.2,44.72Z"/><path class="cls-6" d="M33,44.72a19.17,19.17,0,0,1,14.48-10.4l-3.38,10.4Z"/><polygon class="cls-5" points="59.83 56.18 56.1 44.72 50.08 44.72 50.08 63.16 50.15 63.21 59.83 56.18"/><path class="cls-5" d="M50.08,72.43A19,19,0,0,0,59.46,70l-9.38-6.81v9.27Z"/></g></g></svg>